<?xml version="1.0" encoding="UTF-8" standalone="no"?>
<!-- Created with Inkscape (http://www.inkscape.org/) -->

<svg
   xmlns:dc="http://purl.org/dc/elements/1.1/"
   xmlns:cc="http://creativecommons.org/ns#"
   xmlns:rdf="http://www.w3.org/1999/02/22-rdf-syntax-ns#"
   xmlns:svg="http://www.w3.org/2000/svg"
   xmlns="http://www.w3.org/2000/svg"
   xmlns:xlink="http://www.w3.org/1999/xlink"
   xmlns:sodipodi="http://sodipodi.sourceforge.net/DTD/sodipodi-0.dtd"
   xmlns:inkscape="http://www.inkscape.org/namespaces/inkscape"
   width="1024"
   height="768"
   id="svg7306"
   version="1.1"
   inkscape:version="0.48+devel r10973"
   sodipodi:docname="psone-title.svg"
   inkscape:export-filename="/home/cats/workspace/veyepar/dj/scripts/bling/psone/titleslide-proof.png"
   inkscape:export-xdpi="70.309998"
   inkscape:export-ydpi="70.309998">
  <defs
     id="defs7308">
    <clipPath
       id="clipPath12450"
       clipPathUnits="userSpaceOnUse">
      <path
         id="path12452"
         d="M 0,768 1024,768 1024,0 0,0 0,768 z" />
    </clipPath>
    <clipPath
       id="clipPath12436"
       clipPathUnits="userSpaceOnUse">
      <path
         id="path12438"
         d="m 99.524,272.587 c 0.511,-1.936 1.029,-3.872 1.587,-5.789 l 0,0 c 12.243,-42.003 33.815,-72.054 65.948,-91.87 l 0,0 c 33.61,-20.729 85.401,-36.011 153.934,-45.423 l 0,0 C 374.801,122.117 439.065,118.369 512,118.369 l 0,0 c 72.932,0 137.129,3.748 190.934,11.136 l 0,0 c 68.528,9.412 120.254,24.694 153.865,45.423 l 0,0 c 32.131,19.815 53.574,49.865 65.813,91.868 l 0,0 c 0.561,1.928 1.091,3.868 1.602,5.814 l 0,0 C 797.609,283.98 658.291,290.272 512,290.272 l 0,0 c -146.391,0 -285.8,-6.301 -412.476,-17.685" />
    </clipPath>
    <clipPath
       id="clipPath11852"
       clipPathUnits="userSpaceOnUse">
      <path
         id="path11854"
         d="M 0,768 1024,768 1024,0 0,0 0,768 z" />
    </clipPath>
    <clipPath
       id="clipPath14187"
       clipPathUnits="userSpaceOnUse">
      <path
         id="path14189"
         d="M 0,768 1024,768 1024,0 0,0 0,768 z" />
    </clipPath>
    <clipPath
       id="clipPath14321"
       clipPathUnits="userSpaceOnUse">
      <path
         id="path14323"
         d="M 0,768 1024,768 1024,0 0,0 0,768 z" />
    </clipPath>
    <linearGradient
       inkscape:collect="always"
       xlink:href="#linearGradient4853"
       id="linearGradient6551"
       gradientUnits="userSpaceOnUse"
       gradientTransform="translate(647.70053,2095.7733)"
       x1="415.5759"
       y1="-915.36462"
       x2="415.5759"
       y2="-752.6391" />
    <linearGradient
       inkscape:collect="always"
       id="linearGradient4853">
      <stop
         style="stop-color:#ff9955;stop-opacity:1"
         offset="0"
         id="stop4855" />
      <stop
         style="stop-color:#ff6600;stop-opacity:1"
         offset="1"
         id="stop4857" />
    </linearGradient>
    <linearGradient
       inkscape:collect="always"
       xlink:href="#linearGradient4853"
       id="linearGradient6793"
       gradientUnits="userSpaceOnUse"
       gradientTransform="translate(647.70053,2095.7733)"
       x1="415.5759"
       y1="-915.36462"
       x2="415.5759"
       y2="-752.6391" />
    <linearGradient
       inkscape:collect="always"
       xlink:href="#linearGradient5582"
       id="linearGradient6593"
       gradientUnits="userSpaceOnUse"
       x1="799.72998"
       y1="726.25867"
       x2="799.72998"
       y2="829.78363" />
    <linearGradient
       inkscape:collect="always"
       id="linearGradient5582">
      <stop
         style="stop-color:#ffffff;stop-opacity:1;"
         offset="0"
         id="stop5584" />
      <stop
         style="stop-color:#ffffff;stop-opacity:0;"
         offset="1"
         id="stop5586" />
    </linearGradient>
    <linearGradient
       inkscape:collect="always"
       id="linearGradient4784-2-4">
      <stop
         style="stop-color:#ffccaa;stop-opacity:1"
         offset="0"
         id="stop4786-6-6" />
      <stop
         style="stop-color:#ff6600;stop-opacity:1"
         offset="1"
         id="stop4788-4-6" />
    </linearGradient>
    <linearGradient
       inkscape:collect="always"
       id="linearGradient6006-6">
      <stop
         style="stop-color:#ffffff;stop-opacity:1;"
         offset="0"
         id="stop6008-7" />
      <stop
         style="stop-color:#ffffff;stop-opacity:0;"
         offset="1"
         id="stop6010-5" />
    </linearGradient>
    <linearGradient
       inkscape:collect="always"
       xlink:href="#linearGradient4853-4"
       id="linearGradient6551-6"
       gradientUnits="userSpaceOnUse"
       gradientTransform="translate(647.70053,2095.7733)"
       x1="415.5759"
       y1="-915.36462"
       x2="415.5759"
       y2="-752.6391" />
    <linearGradient
       inkscape:collect="always"
       id="linearGradient4853-4">
      <stop
         style="stop-color:#ff9955;stop-opacity:1"
         offset="0"
         id="stop4855-3" />
      <stop
         style="stop-color:#ff6600;stop-opacity:1"
         offset="1"
         id="stop4857-0" />
    </linearGradient>
    <linearGradient
       inkscape:collect="always"
       xlink:href="#linearGradient4853-4"
       id="linearGradient7307"
       gradientUnits="userSpaceOnUse"
       gradientTransform="translate(647.70053,2095.7733)"
       x1="415.5759"
       y1="-915.36462"
       x2="415.5759"
       y2="-752.6391" />
    <linearGradient
       inkscape:collect="always"
       xlink:href="#linearGradient5582-2"
       id="linearGradient6593-0"
       gradientUnits="userSpaceOnUse"
       x1="799.72998"
       y1="726.25867"
       x2="799.72998"
       y2="829.78363" />
    <linearGradient
       inkscape:collect="always"
       id="linearGradient5582-2">
      <stop
         style="stop-color:#ffffff;stop-opacity:1;"
         offset="0"
         id="stop5584-5" />
      <stop
         style="stop-color:#ffffff;stop-opacity:0;"
         offset="1"
         id="stop5586-3" />
    </linearGradient>
    <linearGradient
       inkscape:collect="always"
       xlink:href="#linearGradient4853-4"
       id="linearGradient7807"
       gradientUnits="userSpaceOnUse"
       gradientTransform="translate(647.70053,2095.7733)"
       x1="415.5759"
       y1="-915.36462"
       x2="415.5759"
       y2="-752.6391" />
    <linearGradient
       inkscape:collect="always"
       xlink:href="#linearGradient5582-2"
       id="linearGradient7849"
       gradientUnits="userSpaceOnUse"
       x1="799.72998"
       y1="726.25867"
       x2="799.72998"
       y2="829.78363" />
    <linearGradient
       inkscape:collect="always"
       xlink:href="#linearGradient4853-4"
       id="linearGradient7887"
       gradientUnits="userSpaceOnUse"
       gradientTransform="translate(647.70053,2095.7733)"
       x1="415.5759"
       y1="-915.36462"
       x2="415.5759"
       y2="-752.6391" />
    <linearGradient
       inkscape:collect="always"
       xlink:href="#linearGradient5582-2"
       id="linearGradient7929"
       gradientUnits="userSpaceOnUse"
       x1="799.72998"
       y1="726.25867"
       x2="799.72998"
       y2="829.78363" />
    <linearGradient
       inkscape:collect="always"
       xlink:href="#linearGradient4853-4"
       id="linearGradient7957"
       gradientUnits="userSpaceOnUse"
       gradientTransform="translate(-588.41277,2325.7974)"
       x1="415.5759"
       y1="-915.36462"
       x2="415.5759"
       y2="-752.6391" />
    <linearGradient
       inkscape:collect="always"
       xlink:href="#linearGradient5582-2"
       id="linearGradient8007"
       gradientUnits="userSpaceOnUse"
       x1="799.72998"
       y1="726.25867"
       x2="799.72998"
       y2="829.78363" />
    <linearGradient
       inkscape:collect="always"
       xlink:href="#linearGradient4853-4"
       id="linearGradient8163"
       gradientUnits="userSpaceOnUse"
       gradientTransform="translate(-588.41277,2325.7974)"
       x1="415.5759"
       y1="-915.36462"
       x2="415.5759"
       y2="-752.6391" />
    <linearGradient
       inkscape:collect="always"
       xlink:href="#linearGradient6006-6"
       id="linearGradient8208"
       gradientUnits="userSpaceOnUse"
       gradientTransform="matrix(0.95753036,0,0,1.0443533,-875.94751,1036.1623)"
       x1="802.33051"
       y1="228.33238"
       x2="802.33051"
       y2="421.63248" />
    <radialGradient
       inkscape:collect="always"
       xlink:href="#linearGradient4784-2-4"
       id="radialGradient8210"
       gradientUnits="userSpaceOnUse"
       gradientTransform="matrix(-0.01609623,1.0784487,-0.67540255,-0.01008062,529.84178,1699.9512)"
       cx="-411.323"
       cy="-208.61775"
       fx="-411.323"
       fy="-208.61775"
       r="90.157059" />
    <linearGradient
       inkscape:collect="always"
       xlink:href="#linearGradient4853-4"
       id="linearGradient8212"
       gradientUnits="userSpaceOnUse"
       gradientTransform="translate(-588.41277,2325.7974)"
       x1="415.5759"
       y1="-915.36462"
       x2="415.5759"
       y2="-752.6391" />
    <linearGradient
       inkscape:collect="always"
       xlink:href="#linearGradient4853-4"
       id="linearGradient8214"
       gradientUnits="userSpaceOnUse"
       gradientTransform="translate(-588.41277,2325.7974)"
       x1="415.5759"
       y1="-915.36462"
       x2="415.5759"
       y2="-752.6391" />
    <linearGradient
       inkscape:collect="always"
       xlink:href="#linearGradient4853-4"
       id="linearGradient8216"
       gradientUnits="userSpaceOnUse"
       gradientTransform="translate(-588.41277,2325.7974)"
       x1="415.5759"
       y1="-915.36462"
       x2="415.5759"
       y2="-752.6391" />
    <linearGradient
       inkscape:collect="always"
       xlink:href="#linearGradient4853-4"
       id="linearGradient8218"
       gradientUnits="userSpaceOnUse"
       gradientTransform="translate(-588.41277,2325.7974)"
       x1="415.5759"
       y1="-915.36462"
       x2="415.5759"
       y2="-752.6391" />
    <linearGradient
       inkscape:collect="always"
       xlink:href="#linearGradient4853-4"
       id="linearGradient8220"
       gradientUnits="userSpaceOnUse"
       gradientTransform="translate(-588.41277,2325.7974)"
       x1="415.5759"
       y1="-915.36462"
       x2="415.5759"
       y2="-752.6391" />
    <radialGradient
       inkscape:collect="always"
       xlink:href="#linearGradient4784-2-4"
       id="radialGradient8607"
       gradientUnits="userSpaceOnUse"
       gradientTransform="matrix(-0.01609623,1.0784487,-0.67540255,-0.01008062,529.84178,1699.9512)"
       cx="-411.323"
       cy="-208.61775"
       fx="-411.323"
       fy="-208.61775"
       r="90.157059" />
    <linearGradient
       inkscape:collect="always"
       xlink:href="#linearGradient4853-4"
       id="linearGradient8627"
       gradientUnits="userSpaceOnUse"
       gradientTransform="translate(-588.41277,2325.7974)"
       x1="415.5759"
       y1="-915.36462"
       x2="415.5759"
       y2="-752.6391" />
    <linearGradient
       inkscape:collect="always"
       xlink:href="#linearGradient4853-4"
       id="linearGradient8629"
       gradientUnits="userSpaceOnUse"
       gradientTransform="translate(-588.41277,2325.7974)"
       x1="415.5759"
       y1="-915.36462"
       x2="415.5759"
       y2="-752.6391" />
    <linearGradient
       inkscape:collect="always"
       xlink:href="#linearGradient4853-4"
       id="linearGradient8631"
       gradientUnits="userSpaceOnUse"
       gradientTransform="translate(-588.41277,2325.7974)"
       x1="415.5759"
       y1="-915.36462"
       x2="415.5759"
       y2="-752.6391" />
    <linearGradient
       inkscape:collect="always"
       xlink:href="#linearGradient4853-4"
       id="linearGradient8633"
       gradientUnits="userSpaceOnUse"
       gradientTransform="translate(-588.41277,2325.7974)"
       x1="415.5759"
       y1="-915.36462"
       x2="415.5759"
       y2="-752.6391" />
    <linearGradient
       inkscape:collect="always"
       xlink:href="#linearGradient4853-4"
       id="linearGradient8635"
       gradientUnits="userSpaceOnUse"
       gradientTransform="translate(-588.41277,2325.7974)"
       x1="415.5759"
       y1="-915.36462"
       x2="415.5759"
       y2="-752.6391" />
    <linearGradient
       inkscape:collect="always"
       xlink:href="#linearGradient4853-4"
       id="linearGradient8641"
       gradientUnits="userSpaceOnUse"
       gradientTransform="matrix(0.23200958,0,0,0.23200958,523.07239,1222.2011)"
       x1="415.5759"
       y1="-915.36462"
       x2="415.5759"
       y2="-752.6391" />
    <linearGradient
       inkscape:collect="always"
       xlink:href="#linearGradient4853-4"
       id="linearGradient8644"
       gradientUnits="userSpaceOnUse"
       gradientTransform="matrix(0.23200958,0,0,0.23200958,523.07239,1222.2011)"
       x1="415.5759"
       y1="-915.36462"
       x2="415.5759"
       y2="-752.6391" />
    <linearGradient
       inkscape:collect="always"
       xlink:href="#linearGradient4853-4"
       id="linearGradient8647"
       gradientUnits="userSpaceOnUse"
       gradientTransform="matrix(0.23200958,0,0,0.23200958,523.07239,1222.2011)"
       x1="415.5759"
       y1="-915.36462"
       x2="415.5759"
       y2="-752.6391" />
  </defs>
  <sodipodi:namedview
     id="base"
     pagecolor="#ffffff"
     bordercolor="#666666"
     borderopacity="1.0"
     inkscape:pageopacity="0.0"
     inkscape:pageshadow="2"
     inkscape:zoom="0.95442708"
     inkscape:cx="512"
     inkscape:cy="384"
     inkscape:document-units="px"
     inkscape:current-layer="layer2"
     showgrid="false"
     fit-margin-top="0"
     fit-margin-left="0"
     fit-margin-right="0"
     fit-margin-bottom="0"
     inkscape:window-width="1280"
     inkscape:window-height="952"
     inkscape:window-x="0"
     inkscape:window-y="24"
     inkscape:window-maximized="1"
     showguides="true"
     inkscape:guide-bbox="true" />
  <metadata
     id="metadata7311">
    <rdf:RDF>
      <cc:Work
         rdf:about="">
        <dc:format>image/svg+xml</dc:format>
        <dc:type
           rdf:resource="http://purl.org/dc/dcmitype/StillImage" />
        <dc:title />
      </cc:Work>
    </rdf:RDF>
  </metadata>
  <g
     inkscape:label="Background"
     inkscape:groupmode="layer"
     id="layer1"
     transform="translate(0,-284.36218)"
     sodipodi:insensitive="true">
    <rect
       style="fill:#ffffff;fill-opacity:1;stroke:#b3b3b3;stroke-width:1;stroke-opacity:1"
       id="whitebackground"
       width="1023.0012"
       height="767.00116"
       x="0.49943098"
       y="284.8616" />
    <path
       style="opacity:0.25;fill:#999999;fill-opacity:1"
       d="m 291.23874,287.71117 c -1.15558,6.76114 -1.75,19.72128 -1.75,26.8125 0,35.56568 15.25414,67.6713 39.40625,90.15625 0,0 0.049,0.017 0.1875,0.1875 0.27474,0.16859 0.5065,0.5065 0.78125,0.78125 4.83291,4.83916 23.74633,27.8178 -19.6875,59.125 -0.20918,0.0843 -0.40456,0.27076 -0.59375,0.40625 l 0,-0.21875 c -48.10442,21.66073 -58.93309,-5.12616 -60.875,-12.28125 -7.01836,-32.80703 -27.4047,-62.62344 -58.75,-80.78125 -40.47414,-23.40283 -88.67272,-21.07212 -125.843745,1.75 -26.499884,11.78883 -33.070128,-1.99188 -34.53125,-6.625 -0.03745,-0.23727 -0.150738,-0.57519 -0.21875,-0.78125 -0.09997,-0.48079 -0.1875,-0.59375 -0.1875,-0.59375 -3.697032,-12.93662 -17.3388,-24.78019 -28.3437501,-33.5625 l 0,162.46875 c 4.8846841,36.47947 32.0622871,70.40677 66.4062501,90.21875 30.833283,17.78941 66.054845,20.60958 97.562495,10.9375 0,0 0.16895,0.0686 0.375,0 0.34343,-0.10625 0.65657,-0.34381 1,-0.40625 6.60399,-1.80204 35.90683,-6.62593 41.34375,46.46875 l 0,0.1875 0,0.1875 0,0.375 c -5.28251,52.53148 -33.85049,48.49202 -40.96875,46.65625 -31.91976,-10.36517 -67.935968,-7.71415 -99.312495,10.34375 -34.306953,19.83684 -61.493473,53.77694 -66.4062501,90.21875 l 0,162.46875 c 10.9727451,-8.74578 24.6274591,-20.49761 28.3437501,-33.375 0,0 3.630014,-22.17407 35.3125,-8 37.133565,22.75905 85.131965,24.89039 125.468745,1.5625 30.82705,-17.82124 51.20072,-46.87421 58.5625,-79.03125 0,0 -0.0312,-0.13139 0,-0.375 0.0686,-0.34342 0.11878,-0.62533 0.1875,-0.96875 1.73586,-6.55004 12.24626,-34.62921 61.0625,-12.6875 0.18981,0.14299 0.40393,0.24013 0.59375,0.375 42.78447,30.79582 24.8951,53.69248 19.71875,58.9375 -24.93262,22.50993 -40.59375,54.94054 -40.59375,91.125 0,34.91863 14.61918,60.47813 38,82.87503 l 169.78125,0 c 23.44708,-22.3509 38.0625,-47.9094 38.0625,-82.87503 0,-35.53508 -15.21667,-67.51503 -39.40625,-89.96875 -0.0374,-0.0375 -0.082,-0.0876 -0.1875,-0.1875 -0.26849,-0.20606 -0.50652,-0.55021 -0.78125,-0.78125 -4.87039,-4.80793 -23.93384,-27.85462 19.5,-59.125 0.23726,-0.16859 0.35646,-0.20641 0.59375,-0.375 48.06693,-21.6295 58.90187,5.1324 60.875,12.28125 7.01835,32.78144 27.4047,62.6603 58.75,80.78125 40.46789,23.40283 88.64149,21.10334 125.84375,-1.75 26.33754,-11.72015 33.25764,1.92944 34.71875,6.625 0.10624,0.30596 0.15003,0.62533 0.21875,0.96875 0.0698,0.2148 0.18126,0.33695 0.1875,0.40625 l 0,0.1875 c 4.6215,15.93863 14.95897,30.09722 30.4375,39.03125 31.82608,18.33268 72.54242,7.63234 90.9375,-24.1875 18.37008,-31.87605 7.6011,-72.60486 -24.21875,-90.9375 -15.53529,-8.96026 -33.22778,-10.98376 -49.34375,-7.03125 -0.96758,0.34905 -20.98143,7.22364 -24.40625,-26.53125 1.08647,-43.42759 -21.10076,-86.19643 -61.46875,-109.46875 -30.83328,-17.81437 -66.2049,-20.80333 -97.75,-11.125 0,0 -0.0176,0.11947 -0.1875,0.1875 -0.34342,0.10677 -0.62533,0.15012 -0.96875,0.21875 -6.61248,1.81078 -35.99261,6.78079 -41.375,-46.46875 l -0.1875,0 0,-0.375 0,-0.375 c 5.31372,-52.45655 34.00052,-48.31076 41.15625,-46.46875 31.95096,10.31522 67.9672,7.53289 99.3125,-10.53125 40.50537,-23.36535 62.69259,-66.36013 61.46875,-110.03125 3.02838,-28.54793 18.16086,-27.64898 23.03125,-26.5625 0.34342,0.10606 0.63156,0.3001 0.96875,0.40625 0.31221,0.13742 0.40625,0.1875 0.40625,0.1875 l 0,-0.1875 c 16.10974,3.98998 33.80846,2.14773 49.34375,-6.84375 31.81359,-18.32638 42.7701,-59.12386 24.40625,-90.90625 -18.39507,-31.81985 -59.11765,-42.76386 -90.9375,-24.40625 -15.52903,8.92904 -26.0231,23.24077 -30.625,39.21875 l -0.1875,-0.1875 c 0,0 -3.44252,22.39279 -35.125,8.1875 -37.13355,-22.65353 -85.31948,-24.89665 -125.65625,-1.5625 -30.83329,17.75193 -50.98823,46.8736 -58.34375,79.03125 l 0,0.1875 c -0.1,0.44332 -0.11944,0.78162 -0.21875,1.1875 -1.77034,6.73236 -12.40544,34.38882 -60.875,12.6875 -0.26849,-0.16929 -0.51275,-0.33755 -0.78125,-0.40625 -42.82192,-30.93255 -24.86385,-53.91744 -19.6875,-59.125 24.90765,-22.48495 40.5625,-54.97863 40.5625,-91.125 0,-7.09671 -0.62369,-20.04557 -1.78125,-26.8125 l -57.9375,0 c 2.15578,6.55121 3.34375,19.5373 3.34375,26.8125 0,36.79014 -29.77233,66.53125 -66.53125,66.53125 -36.75891,0 -66.5625,-29.73487 -66.5625,-66.53125 0,-7.2752 1.18601,-20.26129 3.34375,-26.8125 z m -162.34375,124 c 11.24316,0.0249 22.51764,2.95321 32.96875,8.96875 31.81985,18.39382 42.77012,59.08706 24.40625,90.9375 -18.39507,31.78925 -59.11765,42.80753 -90.937495,24.375 -31.85108,-18.33264 -42.801322,-59.0802 -24.40625,-90.9375 11.477366,-19.88366 31.776445,-31.64018 53.093745,-33.15625 1.5988,-0.11355 3.26883,-0.19063 4.875,-0.1875 z m 567.6875,0.15625 c 22.8339,0.17421 45.06113,11.99922 57.3125,33.1875 18.36384,31.8573 7.41359,72.60486 -24.40625,90.9375 -31.85731,18.42628 -72.54243,7.40801 -90.9375,-24.375 -18.39507,-31.85044 -7.41358,-72.54368 24.40625,-90.9375 9.9437,-5.72769 20.67829,-8.50901 31.40625,-8.78125 0.73755,-0.0187 1.48217,-0.0369 2.21875,-0.0312 z M 412.42624,519.21117 c 67.8607,0 122.90625,55.07055 122.90625,122.9375 0,67.792 -55.04555,122.9375 -122.90625,122.9375 -67.86069,0 -122.9375,-55.1455 -122.9375,-122.9375 0,-67.86695 55.07681,-122.9375 122.9375,-122.9375 z m 283.90625,220.125 c 11.28051,0.0249 22.70515,2.93072 33.15625,8.96875 31.81984,18.35761 42.77009,59.11766 24.40625,90.9375 -18.39507,31.81362 -59.08642,42.70824 -90.9375,24.375 -31.81983,-18.42505 -42.80132,-59.05021 -24.40625,-90.9375 11.47739,-19.86492 31.58895,-31.64957 52.90625,-33.15625 1.5988,-0.11234 3.26354,-0.19061 4.875,-0.1875 z m -567.375,0.15625 c 22.83392,0.1632 45.06114,12.01917 57.3125,33.1875 18.36387,31.88729 7.4136,72.51183 -24.40625,90.9375 -31.85732,18.33387 -72.573651,7.44485 -90.937495,-24.375 -18.395072,-31.88227 -7.44483,-72.58615 24.40625,-90.9375 9.943695,-5.75018 20.678285,-8.50152 31.406245,-8.78125 0.73755,-0.0192 1.48217,-0.0365 2.21875,-0.0312 z m 283.46875,163.75 c 36.75892,0 66.53125,29.83602 66.53125,66.53125 0,36.79143 -29.77233,66.53123 -66.53125,66.53123 -36.75891,0 -66.5625,-29.7336 -66.5625,-66.53123 0,-36.69523 29.80359,-66.46882 66.5625,-66.53125 z"
       id="path3985"
       inkscape:connector-curvature="0"
       sodipodi:nodetypes="cscccccccccccccccccccccccccccccccccccsccscccccccccccccccccccccccccccccccccccccccccccccsccssscccccccccccccccccsssssccccccccccccccccsssc" />
    <path
       inkscape:connector-curvature="0"
       id="path159"
       d="m 286,287.42468 c -1.15558,6.76114 -1.75,13.72128 -1.75,20.8125 0,35.56568 15.25414,67.6713 39.40625,90.15625 0,0 0.049,0.017 0.1875,0.1875 0.27474,0.16859 0.5065,0.5065 0.78125,0.78125 4.83291,4.83916 23.74633,27.8178 -19.6875,59.125 -0.20918,0.0843 -0.40456,0.27076 -0.59375,0.40625 l 0,-0.21875 c -48.10442,21.66073 -58.93309,-5.12616 -60.875,-12.28125 -7.01836,-32.80703 -27.4047,-62.62344 -58.75,-80.78125 -40.47414,-23.40283 -88.67272,-21.07212 -125.84375,1.75 -26.499884,11.78883 -33.070128,-1.99188 -34.53125,-6.625 -0.03745,-0.23727 -0.150738,-0.57519 -0.21875,-0.78125 -0.09997,-0.48079 -0.1875,-0.59375 -0.1875,-0.59375 -3.697032,-12.93662 -11.3388,-24.78019 -22.34375,-33.5625 l 0,162.46875 C 6.4784344,524.7479 27.656037,558.6752 62,578.48718 c 30.833283,17.78941 66.05485,20.60958 97.5625,10.9375 0,0 0.16895,0.0686 0.375,0 0.34343,-0.10625 0.65657,-0.34381 1,-0.40625 6.60399,-1.80204 35.90683,-6.62593 41.34375,46.46875 l 0,0.1875 0,0.1875 0,0.375 C 196.99874,688.76866 168.43076,684.7292 161.3125,682.89343 129.39274,672.52826 93.376527,675.17928 62,693.23718 27.693047,713.07402 6.5065271,747.01412 1.59375,783.45593 l 0,162.46875 c 10.972745,-8.74578 18.627459,-20.49761 22.34375,-33.375 0,0 3.630014,-22.17407 35.3125,-8 37.133567,22.75905 85.13197,24.89039 125.46875,1.5625 30.82705,-17.82124 51.20072,-46.87421 58.5625,-79.03125 0,0 -0.0312,-0.13139 0,-0.375 0.0686,-0.34342 0.11878,-0.62533 0.1875,-0.96875 1.73586,-6.55004 12.24626,-34.62921 61.0625,-12.6875 0.18981,0.14299 0.40393,0.24013 0.59375,0.375 42.78447,30.79582 24.8951,53.69248 19.71875,58.9375 -24.93262,22.50993 -40.59375,54.94054 -40.59375,91.125 0,34.9186 14.61918,66.47812 38,88.87502 l 169.78125,0 c 23.44708,-22.3509 38.0625,-53.90935 38.0625,-88.87502 0,-35.53508 -15.21667,-67.51503 -39.40625,-89.96875 -0.0374,-0.0375 -0.082,-0.0876 -0.1875,-0.1875 -0.26849,-0.20606 -0.50652,-0.55021 -0.78125,-0.78125 -4.87039,-4.80793 -23.93384,-27.85462 19.5,-59.125 0.23726,-0.16859 0.35646,-0.20641 0.59375,-0.375 48.06693,-21.6295 58.90187,5.1324 60.875,12.28125 7.01835,32.78144 27.4047,62.6603 58.75,80.78125 40.46789,23.40283 88.64149,21.10334 125.84375,-1.75 26.33754,-11.72015 33.25764,1.92944 34.71875,6.625 0.10624,0.30596 0.15003,0.62533 0.21875,0.96875 0.0698,0.2148 0.18126,0.33695 0.1875,0.40625 l 0,0.1875 c 4.6215,15.93863 14.95897,30.09722 30.4375,39.03125 31.82608,18.33268 72.54242,7.63234 90.9375,-24.1875 18.37008,-31.87605 7.6011,-72.60486 -24.21875,-90.9375 -15.53529,-8.96026 -33.22778,-10.98376 -49.34375,-7.03125 -0.96758,0.34905 -20.98143,7.22364 -24.40625,-26.53125 1.08647,-43.42759 -21.10076,-86.19643 -61.46875,-109.46875 -30.83328,-17.81437 -66.2049,-20.80333 -97.75,-11.125 0,0 -0.0176,0.11947 -0.1875,0.1875 -0.34342,0.10677 -0.62533,0.15012 -0.96875,0.21875 -6.61248,1.81078 -35.99261,6.78079 -41.375,-46.46875 l -0.1875,0 0,-0.375 0,-0.375 c 5.31372,-52.45655 34.00052,-48.31076 41.15625,-46.46875 31.95096,10.31522 67.9672,7.53289 99.3125,-10.53125 40.50537,-23.36535 62.69259,-66.36013 61.46875,-110.03125 3.02838,-28.54793 18.16086,-27.64898 23.03125,-26.5625 0.34342,0.10606 0.63156,0.3001 0.96875,0.40625 0.31221,0.13742 0.40625,0.1875 0.40625,0.1875 l 0,-0.1875 c 16.10974,3.98998 33.80846,2.14773 49.34375,-6.84375 31.81359,-18.32638 42.7701,-59.12386 24.40625,-90.90625 -18.39507,-31.81985 -59.11765,-42.76386 -90.9375,-24.40625 -15.52903,8.92904 -26.0231,23.24077 -30.625,39.21875 l -0.1875,-0.1875 c 0,0 -3.44252,22.39279 -35.125,8.1875 -37.13355,-22.65353 -85.31948,-24.89665 -125.65625,-1.5625 -30.83329,17.75193 -50.98823,46.8736 -58.34375,79.03125 l 0,0.1875 c -0.1,0.44332 -0.11944,0.78162 -0.21875,1.1875 -1.77034,6.73236 -12.40544,34.38882 -60.875,12.6875 -0.26849,-0.16929 -0.51275,-0.33755 -0.78125,-0.40625 -42.82192,-30.93255 -24.86385,-53.91744 -19.6875,-59.125 24.90765,-22.48495 40.5625,-54.97863 40.5625,-91.125 0,-7.09672 -0.62369,-14.04557 -1.78125,-20.8125 l -57.9375,0 c 2.15578,6.55121 3.34375,13.5373 3.34375,20.8125 0,36.79014 -29.77233,66.53125 -66.53125,66.53125 -36.75891,0 -66.5625,-29.73487 -66.5625,-66.53125 0,-7.2752 1.18601,-14.26129 3.34375,-20.8125 l -57.96875,0 z m -162.34375,118 c 11.24316,0.0249 22.51764,2.95321 32.96875,8.96875 31.81985,18.39382 42.77012,59.08706 24.40625,90.9375 -18.39507,31.78925 -59.11765,42.80753 -90.9375,24.375 -31.85108,-18.33264 -42.801322,-59.0802 -24.40625,-90.9375 11.477366,-19.88366 31.776447,-31.64018 53.09375,-33.15625 1.5988,-0.11355 3.26883,-0.19063 4.875,-0.1875 z m 567.6875,0.15625 c 22.8339,0.17421 45.06113,11.99922 57.3125,33.1875 18.36384,31.8573 7.41359,72.60486 -24.40625,90.9375 -31.85731,18.42628 -72.54243,7.40801 -90.9375,-24.375 -18.39507,-31.85044 -7.41358,-72.54368 24.40625,-90.9375 9.9437,-5.72769 20.67829,-8.50901 31.40625,-8.78125 0.73755,-0.0187 1.48217,-0.0369 2.21875,-0.0312 z M 407.1875,512.92468 c 67.8607,0 122.90625,55.07055 122.90625,122.9375 0,67.792 -55.04555,122.9375 -122.90625,122.9375 -67.86069,0 -122.9375,-55.1455 -122.9375,-122.9375 0,-67.86695 55.07681,-122.9375 122.9375,-122.9375 z m 283.90625,220.125 c 11.28051,0.0249 22.70515,2.93072 33.15625,8.96875 31.81984,18.35761 42.77009,59.11766 24.40625,90.9375 -18.39507,31.81362 -59.08642,42.70824 -90.9375,24.375 -31.81983,-18.42505 -42.80132,-59.05021 -24.40625,-90.9375 11.47739,-19.86492 31.58895,-31.64957 52.90625,-33.15625 1.5988,-0.11234 3.26354,-0.19061 4.875,-0.1875 z m -567.375,0.15625 c 22.83392,0.1632 45.06114,12.01917 57.3125,33.1875 18.36387,31.88729 7.4136,72.51183 -24.40625,90.9375 -31.85732,18.33387 -72.573656,7.44485 -90.9375,-24.375 -18.395072,-31.88227 -7.44483,-72.58615 24.40625,-90.9375 9.9437,-5.75018 20.67829,-8.50152 31.40625,-8.78125 0.73755,-0.0192 1.48217,-0.0365 2.21875,-0.0312 z m 283.46875,163.75 c 36.75892,0 66.53125,29.83602 66.53125,66.53125 0,36.79142 -29.77233,66.53122 -66.53125,66.53122 -36.75891,0 -66.5625,-29.7336 -66.5625,-66.53122 0,-36.69523 29.80359,-66.46882 66.5625,-66.53125 z"
       style="fill:#ffebeb;fill-opacity:1" />
    <path
       style="fill:#999999;fill-opacity:1;fill-rule:evenodd;stroke:none"
       d="m 284.59375,32.0625 0,68.90625 727.81245,0 0,-68.90625 -727.81245,0 z m 54.875,11.46875 c 4.41667,0 7.77083,1.822917 10.0625,5.46875 2.29167,3.625 3.4375,8.947917 3.4375,15.96875 0,3.5 -0.28125,6.604167 -0.84375,9.3125 -0.54167,2.708333 -1.375,4.989583 -2.5,6.84375 -1.125,1.833333 -2.55208,3.229167 -4.28125,4.1875 -1.72917,0.9375 -3.77083,1.40625 -6.125,1.40625 -4.41667,0 -7.75,-1.854167 -10,-5.5625 -2.25,-3.708333 -3.375,-9.104167 -3.375,-16.1875 0,-6.9375 1.125,-12.239583 3.375,-15.90625 2.25,-3.6875 5.66667,-5.53125 10.25,-5.53125 z m 32,0 c 4.41667,0 7.77083,1.822917 10.0625,5.46875 2.29167,3.625 3.4375,8.947917 3.4375,15.96875 0,3.5 -0.28125,6.604167 -0.84375,9.3125 -0.54167,2.708333 -1.375,4.989583 -2.5,6.84375 -1.125,1.833333 -2.55208,3.229167 -4.28125,4.1875 -1.72917,0.9375 -3.77083,1.40625 -6.125,1.40625 -4.41667,0 -7.75,-1.854167 -10,-5.5625 -2.25,-3.708333 -3.375,-9.104167 -3.375,-16.1875 0,-6.9375 1.125,-12.239583 3.375,-15.90625 2.25,-3.6875 5.66667,-5.53125 10.25,-5.53125 z M 305.25,43.71875 c 4.60417,0 8.10417,0.84375 10.5,2.53125 2.39583,1.6875 3.59375,4.28125 3.59375,7.78125 0,1.3125 -0.17708,2.541667 -0.53125,3.6875 -0.33333,1.125 -0.85417,2.125 -1.5625,3 -0.70833,0.875 -1.61458,1.614583 -2.71875,2.21875 -1.08333,0.583333 -2.375,0.989583 -3.875,1.21875 3.58333,0.4375 6.23958,1.53125 7.96875,3.28125 1.72917,1.75 2.59375,4.166667 2.59375,7.25 0,1.895833 -0.34375,3.59375 -1.03125,5.09375 -0.6875,1.479167 -1.69792,2.739583 -3.03125,3.78125 -1.3125,1.020833 -2.92708,1.802083 -4.84375,2.34375 -1.91667,0.541667 -4.10417,0.8125 -6.5625,0.8125 -2.125,0 -4.17708,-0.125 -6.15625,-0.375 -1.97917,-0.229167 -3.78125,-0.520833 -5.40625,-0.875 l -0.375,-10.15625 2.875,0 1.625,6.71875 c 0.66667,0.375 1.48958,0.729167 2.46875,1.0625 1,0.3125 2.07292,0.46875 3.21875,0.46875 1.375,0 2.5625,-0.229167 3.5625,-0.6875 1,-0.458333 1.83333,-1.09375 2.5,-1.90625 0.66667,-0.8125 1.15625,-1.78125 1.46875,-2.90625 0.33333,-1.125 0.5,-2.354167 0.5,-3.6875 0,-1.5 -0.1875,-2.75 -0.5625,-3.75 -0.375,-1.020833 -0.88542,-1.833333 -1.53125,-2.4375 -0.64583,-0.625 -1.41667,-1.072917 -2.3125,-1.34375 -0.875,-0.291667 -1.8125,-0.46875 -2.8125,-0.53125 l -3.625,-0.21875 0,-3.78125 3.5,-0.25 c 1.85417,-0.125 3.21875,-0.802083 4.09375,-2.03125 0.89583,-1.25 1.34375,-3.125 1.34375,-5.625 0,-1.270833 -0.15625,-2.375 -0.46875,-3.3125 -0.29167,-0.9375 -0.70833,-1.71875 -1.25,-2.34375 -0.52083,-0.625 -1.15625,-1.083333 -1.90625,-1.375 -0.75,-0.3125 -1.5625,-0.46875 -2.4375,-0.46875 -1.125,0 -2.05208,0.177083 -2.78125,0.53125 -0.70833,0.333333 -1.38542,0.697917 -2.03125,1.09375 l -1.34375,6.0625 -2.71875,0 0,-9.53125 c 0.75,-0.1875 1.5,-0.364583 2.25,-0.53125 0.75,-0.166667 1.53125,-0.302083 2.34375,-0.40625 0.8125,-0.125 1.66667,-0.21875 2.5625,-0.28125 0.89583,-0.08333 1.86458,-0.125 2.90625,-0.125 z m 116.59375,0 c 1.02083,0 2.05208,0.04167 3.09375,0.125 1.0625,0.06247 2.09375,0.156217 3.09375,0.28125 1,0.125 1.95833,0.270833 2.875,0.4375 0.91667,0.166667 1.77083,0.333333 2.5625,0.5 l 0,9.96875 -2.78125,0 -1.40625,-5.75 C 428.36458,48.614583 427.3125,48.0625 426.125,47.625 c -1.1875,-0.4375 -2.61458,-0.65625 -4.28125,-0.65625 -1.41667,0 -2.63542,0.145833 -3.65625,0.4375 -1,0.270833 -1.82292,0.65625 -2.46875,1.15625 -0.64583,0.5 -1.11458,1.104167 -1.40625,1.8125 -0.29167,0.708333 -0.4375,1.5 -0.4375,2.375 0,1.125 0.32292,2.0625 0.96875,2.8125 0.64583,0.75 1.48958,1.395833 2.53125,1.9375 1.04167,0.541667 2.22917,1.03125 3.5625,1.46875 1.35417,0.4375 2.72917,0.916667 4.125,1.4375 1.41667,0.5 2.79167,1.083333 4.125,1.75 1.35417,0.645833 2.55208,1.46875 3.59375,2.46875 1.04167,0.979167 1.88542,2.177083 2.53125,3.59375 0.64583,1.416667 0.96875,3.135417 0.96875,5.15625 0,2.041667 -0.29167,3.885417 -0.875,5.53125 -0.58333,1.645833 -1.51042,3.052083 -2.78125,4.21875 -1.27083,1.145833 -2.89583,2.03125 -4.875,2.65625 -1.97917,0.625 -4.375,0.9375 -7.1875,0.9375 -1.35417,0 -2.69792,-0.0625 -4.03125,-0.1875 -1.33333,-0.125 -2.60417,-0.291667 -3.8125,-0.5 -1.1875,-0.208333 -2.29167,-0.447917 -3.3125,-0.71875 -1.02083,-0.270833 -1.88542,-0.541667 -2.59375,-0.8125 l 0,-11.25 2.75,0 1.40625,6.71875 c 0.4375,0.5 0.98958,0.96875 1.65625,1.40625 0.66667,0.416667 1.41667,0.791667 2.25,1.125 0.83333,0.333333 1.71875,0.59375 2.65625,0.78125 0.95833,0.1875 1.92708,0.28125 2.90625,0.28125 1.625,0 3.01042,-0.177083 4.15625,-0.53125 1.14583,-0.375 2.07292,-0.885417 2.78125,-1.53125 0.70833,-0.645833 1.21875,-1.416667 1.53125,-2.3125 0.33333,-0.916667 0.5,-1.916667 0.5,-3 0,-1.25 -0.32292,-2.28125 -0.96875,-3.09375 -0.625,-0.8125 -1.46875,-1.510417 -2.53125,-2.09375 -1.04167,-0.583333 -2.22917,-1.09375 -3.5625,-1.53125 -1.33333,-0.458333 -2.70833,-0.9375 -4.125,-1.4375 -1.39583,-0.5 -2.76042,-1.072917 -4.09375,-1.71875 -1.33333,-0.645833 -2.53125,-1.458333 -3.59375,-2.4375 -1.04167,-1 -1.88542,-2.208333 -2.53125,-3.625 -0.625,-1.416667 -0.9375,-3.15625 -0.9375,-5.21875 0,-3.6875 1.25,-6.489583 3.75,-8.40625 2.52083,-1.9375 6.19792,-2.90625 11.03125,-2.90625 z m 85.28125,0 c 2.97917,0 5.72917,0.21875 8.25,0.65625 2.54167,0.416667 4.82292,0.895833 6.84375,1.4375 l 0.1875,10.0625 -2.8125,0 -0.875,-6.0625 c -1.3125,-0.895833 -2.79167,-1.583333 -4.4375,-2.0625 -1.64583,-0.5 -3.36458,-0.75 -5.15625,-0.75 -2.1875,0 -4.14583,0.322917 -5.875,0.96875 -1.72917,0.625 -3.19792,1.666667 -4.40625,3.125 -1.1875,1.458333 -2.09375,3.364583 -2.71875,5.71875 -0.625,2.354167 -0.9375,5.260417 -0.9375,8.71875 0,3.041667 0.3125,5.6875 0.9375,7.9375 0.625,2.25 1.52083,4.114583 2.6875,5.59375 1.16667,1.479167 2.59375,2.59375 4.28125,3.34375 1.70833,0.729167 3.63542,1.09375 5.78125,1.09375 2.35417,0 4.40625,-0.3125 6.15625,-0.9375 1.77083,-0.625 3.15625,-1.364583 4.15625,-2.21875 l 1,-6.875 2.84375,0 -0.1875,10.625 c -0.89583,0.354167 -1.95833,0.6875 -3.1875,1 -1.20833,0.3125 -2.51042,0.59375 -3.90625,0.84375 -1.375,0.229167 -2.80208,0.416667 -4.28125,0.5625 -1.47917,0.145833 -2.91667,0.21875 -4.3125,0.21875 -3.52083,0 -6.66667,-0.479167 -9.4375,-1.4375 -2.75,-0.958333 -5.08333,-2.34375 -7,-4.15625 -1.91667,-1.8125 -3.38542,-4.020833 -4.40625,-6.625 -1,-2.625 -1.5,-5.583333 -1.5,-8.875 0,-3.75 0.5,-7 1.5,-9.75 1.02083,-2.75 2.47917,-5.020833 4.375,-6.8125 1.91667,-1.8125 4.25,-3.15625 7,-4.03125 2.77083,-0.875 5.91667,-1.3125 9.4375,-1.3125 z m 45.6875,0 c 3.375,0 6.40625,0.416667 9.09375,1.25 2.6875,0.833333 4.96875,2.125 6.84375,3.875 1.875,1.75 3.3125,3.96875 4.3125,6.65625 1,2.6875 1.5,5.885417 1.5,9.59375 0,3.708333 -0.5,6.927083 -1.5,9.65625 -1,2.708333 -2.4375,4.947917 -4.3125,6.71875 -1.875,1.770833 -4.15625,3.09375 -6.84375,3.96875 -2.6875,0.854167 -5.71875,1.28125 -9.09375,1.28125 -3.375,0 -6.40625,-0.427083 -9.09375,-1.28125 -2.6875,-0.875 -4.97917,-2.197917 -6.875,-3.96875 -1.875,-1.770833 -3.3125,-4.010417 -4.3125,-6.71875 -1,-2.729167 -1.5,-5.947917 -1.5,-9.65625 0,-3.708333 0.47917,-6.90625 1.4375,-9.59375 0.95833,-2.6875 2.36458,-4.90625 4.21875,-6.65625 1.85417,-1.75 4.125,-3.041667 6.8125,-3.875 2.70833,-0.833333 5.8125,-1.25 9.3125,-1.25 z m 135.75,0 c 1.02083,0 2.05208,0.04167 3.09375,0.125 1.0625,0.06247 2.09375,0.156217 3.09375,0.28125 1,0.125 1.95833,0.270833 2.875,0.4375 0.91667,0.166667 1.77083,0.333333 2.5625,0.5 l 0,9.96875 -2.78125,0 -1.40625,-5.75 c -0.91667,-0.666667 -1.96875,-1.21875 -3.15625,-1.65625 -1.1875,-0.4375 -2.61458,-0.65625 -4.28125,-0.65625 -1.41667,0 -2.63542,0.145833 -3.65625,0.4375 -1,0.270833 -1.82292,0.65625 -2.46875,1.15625 -0.64583,0.5 -1.11458,1.104167 -1.40625,1.8125 -0.29167,0.708333 -0.4375,1.5 -0.4375,2.375 0,1.125 0.32292,2.0625 0.96875,2.8125 0.64583,0.75 1.48958,1.395833 2.53125,1.9375 1.04167,0.541667 2.22917,1.03125 3.5625,1.46875 1.35417,0.4375 2.72917,0.916667 4.125,1.4375 1.41667,0.5 2.79167,1.083333 4.125,1.75 1.35417,0.645833 2.55208,1.46875 3.59375,2.46875 1.04167,0.979167 1.88542,2.177083 2.53125,3.59375 C 702.67708,69.635417 703,71.354167 703,73.375 c 0,2.041667 -0.29167,3.885417 -0.875,5.53125 -0.58333,1.645833 -1.51042,3.052083 -2.78125,4.21875 -1.27083,1.145833 -2.89583,2.03125 -4.875,2.65625 -1.97917,0.625 -4.375,0.9375 -7.1875,0.9375 -1.35417,0 -2.69792,-0.0625 -4.03125,-0.1875 -1.33333,-0.125 -2.60417,-0.291667 -3.8125,-0.5 -1.1875,-0.208333 -2.29167,-0.447917 -3.3125,-0.71875 -1.02083,-0.270833 -1.88542,-0.541667 -2.59375,-0.8125 l 0,-11.25 2.75,0 1.40625,6.71875 c 0.4375,0.5 0.98958,0.96875 1.65625,1.40625 0.66667,0.416667 1.41667,0.791667 2.25,1.125 0.83333,0.333333 1.71875,0.59375 2.65625,0.78125 0.95833,0.1875 1.92708,0.28125 2.90625,0.28125 1.625,0 3.01042,-0.177083 4.15625,-0.53125 1.14583,-0.375 2.07292,-0.885417 2.78125,-1.53125 0.70833,-0.645833 1.21875,-1.416667 1.53125,-2.3125 0.33333,-0.916667 0.5,-1.916667 0.5,-3 0,-1.25 -0.32292,-2.28125 -0.96875,-3.09375 -0.625,-0.8125 -1.46875,-1.510417 -2.53125,-2.09375 -1.04167,-0.583333 -2.22917,-1.09375 -3.5625,-1.53125 -1.33333,-0.458333 -2.70833,-0.9375 -4.125,-1.4375 -1.39583,-0.5 -2.76042,-1.072917 -4.09375,-1.71875 -1.33333,-0.645833 -2.53125,-1.458333 -3.59375,-2.4375 -1.04167,-1 -1.88542,-2.208333 -2.53125,-3.625 -0.625,-1.416667 -0.9375,-3.15625 -0.9375,-5.21875 0,-3.6875 1.25,-6.489583 3.75,-8.40625 2.52083,-1.9375 6.19792,-2.90625 11.03125,-2.90625 z m 58.0625,0 c 3.375,0 6.40625,0.416667 9.09375,1.25 2.6875,0.833333 4.96875,2.125 6.84375,3.875 1.875,1.75 3.3125,3.96875 4.3125,6.65625 1,2.6875 1.5,5.885417 1.5,9.59375 0,3.708333 -0.5,6.927083 -1.5,9.65625 -1,2.708333 -2.4375,4.947917 -4.3125,6.71875 -1.875,1.770833 -4.15625,3.09375 -6.84375,3.96875 -2.6875,0.854167 -5.71875,1.28125 -9.09375,1.28125 -3.375,0 -6.40625,-0.427083 -9.09375,-1.28125 -2.6875,-0.875 -4.97917,-2.197917 -6.875,-3.96875 -1.875,-1.770833 -3.3125,-4.010417 -4.3125,-6.71875 -1,-2.729167 -1.5,-5.947917 -1.5,-9.65625 0,-3.708333 0.47917,-6.90625 1.4375,-9.59375 0.95833,-2.6875 2.36458,-4.90625 4.21875,-6.65625 1.85417,-1.75 4.125,-3.041667 6.8125,-3.875 2.70833,-0.833333 5.8125,-1.25 9.3125,-1.25 z m 130.59375,0.125 9.0625,0 14.84375,39.125 3.1875,0.84375 0,2.28125 -18.65625,0 0,-2.28125 4.84375,-0.84375 -4,-10.84375 -16.09375,0 -3.84375,10.84375 5.375,0.84375 0,2.28125 -12.75,0 0,-2.28125 3.125,-0.84375 14.90625,-39.125 z m -437.125,0.34375 35.6875,0 0,10.65625 -2.84375,0 -1,-6.78125 c -0.66667,-0.08333 -1.47917,-0.15625 -2.4375,-0.21875 -0.9375,-0.06247 -1.89583,-0.104133 -2.875,-0.125 -0.97917,-0.04167 -1.90625,-0.0625 -2.78125,-0.0625 -0.875,-0.0208 -1.55208,-0.03125 -2.03125,-0.03125 l -6.5,0 0,15.375 10.96875,0 0.96875,-4.625 2.78125,0 0,12.875 -2.78125,0 -0.96875,-4.75 -10.96875,0 0,16.15625 7.90625,0 c 1.29167,0 2.51042,-0.01045 3.65625,-0.03125 1.14583,-0.04167 2.17708,-0.08333 3.09375,-0.125 0.91667,-0.04167 1.69792,-0.09375 2.34375,-0.15625 0.66667,-0.06247 1.15625,-0.124967 1.46875,-0.1875 l 1.78125,-7.75 2.84375,0 -0.59375,11.6875 -37.71875,0 0,-2.28125 5.375,-0.84375 0,-35.6875 -5.375,-0.8125 0,-2.28125 z m 138.8125,0 14.34375,0 20.53125,26.78125 0,-23.6875 -5.625,-0.8125 0,-2.28125 14.90625,0 0,2.28125 -5.375,0.8125 0,38.8125 -3.65625,0 -25.84375,-33.6875 0,30.5625 5.625,0.84375 0,2.28125 -14.90625,0 0,-2.28125 5.375,-0.84375 0,-35.6875 -5.375,-0.8125 0,-2.28125 z m 46.125,0 19.90625,0 c 3.375,0 6.41667,0.364583 9.125,1.09375 2.72917,0.708333 5.05208,1.875 6.96875,3.5 1.91667,1.625 3.38542,3.760417 4.40625,6.40625 1.04167,2.625 1.5625,5.864583 1.5625,9.71875 0,3.416667 -0.39583,6.447917 -1.1875,9.09375 -0.79167,2.645833 -2.03125,4.875 -3.71875,6.6875 -1.6875,1.8125 -3.84375,3.1875 -6.46875,4.125 -2.60417,0.9375 -5.72917,1.40625 -9.375,1.40625 -1.1875,0 -2.4375,-0.01045 -3.75,-0.03125 -1.3125,0 -2.59375,-0.01045 -3.84375,-0.03125 -1.25,-0.0208 -2.4375,-0.04163 -3.5625,-0.0625 l -2.875,0 -7.1875,0 0,-2.28125 5.375,-0.84375 0,-35.6875 -5.375,-0.8125 0,-2.28125 z m 147.5625,0 34.9375,0 0,11.28125 -2.9375,0 -1,-7.40625 c -0.4375,-0.06247 -1,-0.11455 -1.6875,-0.15625 -0.66667,-0.04167 -1.39583,-0.08333 -2.1875,-0.125 -0.77083,-0.04167 -1.57292,-0.0625 -2.40625,-0.0625 -0.8125,-0.0208 -1.59375,-0.04163 -2.34375,-0.0625 -0.72917,-0.0208 -1.39583,-0.03125 -2,-0.03125 l -1.375,0 -3.78125,0 0,17.15625 10.21875,0 0.96875,-5.3125 2.78125,0 0,14.125 -2.78125,0 -0.96875,-5.375 -10.21875,0 0,14.75 6.96875,0.84375 0,2.28125 -21.78125,0 0,-2.28125 4.96875,-0.84375 0,-35.6875 -5.375,-0.8125 0,-2.28125 z m 52.71875,0 34.9375,0 0,11.28125 -2.9375,0 -1,-7.40625 c -0.4375,-0.06247 -1,-0.11455 -1.6875,-0.15625 -0.66667,-0.04167 -1.39583,-0.08333 -2.1875,-0.125 -0.77083,-0.04167 -1.57292,-0.0625 -2.40625,-0.0625 -0.8125,-0.0208 -1.59375,-0.04163 -2.34375,-0.0625 -0.72917,-0.0208 -1.39583,-0.03125 -2,-0.03125 l -1.375,0 -3.78125,0 0,17.15625 10.21875,0 0.96875,-5.3125 2.78125,0 0,14.125 -2.78125,0 -0.96875,-5.375 -10.21875,0 0,14.75 6.96875,0.84375 0,2.28125 -21.78125,0 0,-2.28125 4.96875,-0.84375 0,-35.6875 -5.375,-0.8125 0,-2.28125 z m 80.5625,0 16.46875,0 11.96875,27.5625 12.21875,-27.5625 16.8125,0 0,2.28125 -5.375,0.8125 0,35.6875 5.375,0.84375 0,2.28125 -20.84375,0 0,-2.28125 5.625,-0.84375 0,-32.28125 -15.78125,35.40625 -1.71875,0 -15.46875,-35.40625 0,32.28125 5.625,0.84375 0,2.28125 -14.90625,0 0,-2.28125 5.375,-0.84375 0,-35.6875 -5.375,-0.8125 0,-2.28125 z m 60.40625,0 35.68755,0 0,10.65625 -2.8438,0 -1,-6.78125 c -0.66667,-0.08333 -1.47917,-0.15625 -2.4375,-0.21875 -0.9375,-0.06247 -1.89583,-0.104133 -2.875,-0.125 -0.97917,-0.04167 -1.90625,-0.0625 -2.78125,-0.0625 C 989.15625,47.63545 988.47917,47.625 988,47.625 l -6.5,0 0,15.375 10.96875,0 0.96875,-4.625 2.78125,0 0,12.875 -2.78125,0 -0.96875,-4.75 -10.96875,0 0,16.15625 7.90625,0 c 1.29167,0 2.51042,-0.01045 3.65625,-0.03125 1.14583,-0.04167 2.17708,-0.08333 3.09375,-0.125 0.91667,-0.04167 1.69792,-0.09375 2.34375,-0.15625 0.66667,-0.06247 1.15625,-0.124967 1.46875,-0.1875 l 1.78125,-7.75 2.8438,0 -0.5938,11.6875 -37.71875,0 0,-2.28125 5.375,-0.84375 0,-35.6875 -5.375,-0.8125 0,-2.28125 z m -627,2.5 c -0.875,0 -1.59375,0.40625 -2.15625,1.21875 -0.54167,0.8125 -0.96875,2 -1.28125,3.5625 -0.3125,1.5625 -0.53125,3.479167 -0.65625,5.75 -0.125,2.270833 -0.1875,4.854167 -0.1875,7.75 0,2.916667 0.0625,5.53125 0.1875,7.84375 0.125,2.291667 0.34375,4.239583 0.65625,5.84375 0.3125,1.583333 0.73958,2.802083 1.28125,3.65625 0.5625,0.854167 1.28125,1.28125 2.15625,1.28125 0.875,0 1.59375,-0.427083 2.15625,-1.28125 0.58333,-0.854167 1.05208,-2.072917 1.40625,-3.65625 0.35417,-1.604167 0.60417,-3.552083 0.75,-5.84375 0.14583,-2.3125 0.21875,-4.927083 0.21875,-7.84375 0,-2.895833 -0.0729,-5.479167 -0.21875,-7.75 -0.14583,-2.270833 -0.39583,-4.1875 -0.75,-5.75 -0.35417,-1.5625 -0.82292,-2.75 -1.40625,-3.5625 -0.5625,-0.8125 -1.28125,-1.21875 -2.15625,-1.21875 z m 32,0 c -0.875,0 -1.59375,0.40625 -2.15625,1.21875 -0.54167,0.8125 -0.96875,2 -1.28125,3.5625 -0.3125,1.5625 -0.53125,3.479167 -0.65625,5.75 -0.125,2.270833 -0.1875,4.854167 -0.1875,7.75 0,2.916667 0.0625,5.53125 0.1875,7.84375 0.125,2.291667 0.34375,4.239583 0.65625,5.84375 0.3125,1.583333 0.73958,2.802083 1.28125,3.65625 0.5625,0.854167 1.28125,1.28125 2.15625,1.28125 0.875,0 1.59375,-0.427083 2.15625,-1.28125 0.58333,-0.854167 1.05208,-2.072917 1.40625,-3.65625 0.35417,-1.604167 0.60417,-3.552083 0.75,-5.84375 0.14583,-2.3125 0.21875,-4.927083 0.21875,-7.84375 0,-2.895833 -0.0729,-5.479167 -0.21875,-7.75 -0.14583,-2.270833 -0.39583,-4.1875 -0.75,-5.75 -0.35417,-1.5625 -0.82292,-2.75 -1.40625,-3.5625 -0.5625,-0.8125 -1.28125,-1.21875 -2.15625,-1.21875 z M 552.8125,46.875 c -2.20833,0 -4.05208,0.40625 -5.53125,1.21875 -1.45833,0.8125 -2.625,1.989583 -3.5,3.53125 -0.875,1.541667 -1.48958,3.447917 -1.84375,5.71875 -0.35417,2.270833 -0.53125,4.854167 -0.53125,7.75 0,2.916667 0.17708,5.520833 0.53125,7.8125 0.35417,2.291667 0.96875,4.229167 1.84375,5.8125 0.875,1.583333 2.04167,2.791667 3.5,3.625 1.47917,0.833333 3.32292,1.25 5.53125,1.25 2.20833,0 4.04167,-0.416667 5.5,-1.25 1.45833,-0.833333 2.625,-2.041667 3.5,-3.625 0.875,-1.583333 1.48958,-3.520833 1.84375,-5.8125 0.35417,-2.291667 0.53125,-4.895833 0.53125,-7.8125 0,-2.895833 -0.17708,-5.479167 -0.53125,-7.75 -0.35417,-2.270833 -0.96875,-4.177083 -1.84375,-5.71875 -0.875,-1.541667 -2.04167,-2.71875 -3.5,-3.53125 -1.45833,-0.8125 -3.29167,-1.21875 -5.5,-1.21875 z m 193.8125,0 c -2.20833,0 -4.05208,0.40625 -5.53125,1.21875 -1.45833,0.8125 -2.625,1.989583 -3.5,3.53125 -0.875,1.541667 -1.48958,3.447917 -1.84375,5.71875 -0.35417,2.270833 -0.53125,4.854167 -0.53125,7.75 0,2.916667 0.17708,5.520833 0.53125,7.8125 0.35417,2.291667 0.96875,4.229167 1.84375,5.8125 0.875,1.583333 2.04167,2.791667 3.5,3.625 1.47917,0.833333 3.32292,1.25 5.53125,1.25 2.20833,0 4.04167,-0.416667 5.5,-1.25 1.45833,-0.833333 2.625,-2.041667 3.5,-3.625 0.875,-1.583333 1.48958,-3.520833 1.84375,-5.8125 C 757.82292,70.614583 758,68.010417 758,65.09375 c 0,-2.895833 -0.17708,-5.479167 -0.53125,-7.75 C 757.11458,55.072917 756.5,53.166667 755.625,51.625 c -0.875,-1.541667 -2.04167,-2.71875 -3.5,-3.53125 -1.45833,-0.8125 -3.29167,-1.21875 -5.5,-1.21875 z m -106.40625,0.75 0,34.90625 c 0.5,0.04167 0.94792,0.07295 1.34375,0.09375 0.41667,0.0208 0.82292,0.05208 1.21875,0.09375 0.41667,0.0208 0.84375,0.04163 1.28125,0.0625 l 1.59375,0 c 2.08333,0 3.82292,-0.333333 5.21875,-1 1.39583,-0.6875 2.52083,-1.75 3.375,-3.1875 0.85417,-1.4375 1.45833,-3.260417 1.8125,-5.46875 0.375,-2.229167 0.5625,-4.885417 0.5625,-7.96875 0,-3.270833 -0.3125,-6.020833 -0.9375,-8.25 -0.60417,-2.25 -1.5,-4.0625 -2.6875,-5.4375 -1.1875,-1.375 -2.65625,-2.354167 -4.40625,-2.9375 -1.75,-0.604167 -3.77083,-0.90625 -6.0625,-0.90625 l -2.3125,0 z m 238.375,2.53125 -6.90625,18.53125 13.625,0 -6.71875,-18.53125 z"
       transform="translate(0,284.36218)"
       id="rect4029"
       inkscape:connector-curvature="0" />
    <rect
       style="fill:#ffffff;fill-rule:evenodd;stroke:none"
       id="rect3247"
       width="196.97681"
       height="195.92906"
       x="493.48978"
       y="511.30151"
       transform="translate(0,284.36218)" />
    <g
       transform="translate(449.09008,755.29488)"
       id="g4053">
      <g
         id="g4055">
        <path
           style="fill:#009fc2"
           inkscape:connector-curvature="0"
           d="m 291.098,53.284 c 0,4.381 -1.555,8.126 -4.664,11.234 -3.108,3.107 -6.853,4.661 -11.232,4.661 l -2.648,0 c -1.768,0 -2.65,0.883 -2.65,2.65 l 0,23.842 -10.596,0 0,-58.281 c 0,-1.482 0.512,-2.736 1.537,-3.761 1.023,-1.024 2.277,-1.537 3.762,-1.537 l 10.596,0 c 4.38,0 8.124,1.556 11.232,4.663 3.109,3.109 4.664,6.852 4.664,11.232 l 0,5.297 z m -10.598,0 0,-5.297 c 0,-1.482 -0.512,-2.736 -1.537,-3.761 -1.023,-1.025 -2.279,-1.537 -3.762,-1.537 l -2.648,0 c -1.768,0 -2.65,0.883 -2.65,2.647 l 0,10.598 c 0,1.766 0.883,2.649 2.65,2.649 l 2.648,0 c 1.482,0 2.738,-0.512 3.762,-1.536 1.026,-1.025 1.537,-2.277 1.537,-3.763 z"
           id="path4057" />
        <path
           style="fill:#009fc2"
           inkscape:connector-curvature="0"
           d="m 327.729,79.776 c 0,4.381 -1.557,8.125 -4.664,11.234 -3.107,3.107 -6.852,4.661 -11.232,4.661 -4.379,0 -8.125,-1.554 -11.232,-4.661 -3.107,-3.109 -4.662,-6.854 -4.662,-11.234 l 0,-47.684 10.598,0 0,47.685 c 0,1.483 0.512,2.737 1.535,3.762 1.025,1.023 2.279,1.536 3.762,1.536 1.483,0 2.738,-0.513 3.762,-1.536 1.025,-1.024 1.537,-2.278 1.537,-3.762 l 0,-47.685 10.598,0 0,47.684 z"
           id="path4059" />
        <path
           style="fill:#009fc2"
           inkscape:connector-curvature="0"
           d="m 388.551,95.672 -10.596,0 0,-50.335 c 0,-1.765 -0.883,-2.647 -2.648,-2.647 l -2.65,0 c -1.482,0 -2.736,0.512 -3.762,1.537 -1.023,1.024 -1.537,2.278 -1.537,3.761 l 0,47.685 -10.596,0 0,-47.686 c 0,-1.482 -0.512,-2.736 -1.537,-3.761 -1.023,-1.025 -2.279,-1.537 -3.762,-1.537 l -2.648,0 c -1.768,0 -2.65,0.883 -2.65,2.647 l 0,50.335 -10.596,0 0,-63.58 15.895,0 c 4.025,0 7.559,1.343 10.598,4.026 3.037,-2.684 6.568,-4.026 10.596,-4.026 l 15.895,0 0,63.581 z"
           id="path4061" />
        <path
           style="fill:#009fc2"
           inkscape:connector-curvature="0"
           d="m 428.182,53.284 c 0,4.381 -1.555,8.126 -4.664,11.234 -3.107,3.107 -6.852,4.661 -11.23,4.661 l -2.648,0 c -1.768,0 -2.65,0.883 -2.65,2.65 l 0,23.842 -10.596,0 0,-58.281 c 0,-1.482 0.512,-2.736 1.537,-3.761 1.023,-1.024 2.277,-1.537 3.762,-1.537 l 10.596,0 c 4.379,0 8.123,1.556 11.23,4.663 3.109,3.109 4.664,6.852 4.664,11.232 l 0,5.297 z m -10.596,0 0,-5.297 c 0,-1.482 -0.514,-2.736 -1.537,-3.761 -1.025,-1.025 -2.279,-1.537 -3.762,-1.537 l -2.648,0 c -1.768,0 -2.65,0.883 -2.65,2.647 l 0,10.598 c 0,1.766 0.883,2.649 2.65,2.649 l 2.648,0 c 1.482,0 2.736,-0.512 3.762,-1.536 1.023,-1.025 1.537,-2.277 1.537,-3.763 z"
           id="path4063" />
        <path
           style="fill:#009fc2"
           inkscape:connector-curvature="0"
           d="m 445.619,95.672 -10.596,0 0,-63.58 10.596,0 0,63.58 z"
           id="path4065" />
        <path
           style="fill:#009fc2"
           inkscape:connector-curvature="0"
           d="m 485.25,95.672 -10.596,0 -9.113,-27.338 c -0.426,-1.273 -0.777,-1.91 -1.061,-1.91 -0.211,0 -0.354,0.603 -0.424,1.804 l 0,27.444 -10.596,0 0,-63.58 10.596,0 9.324,27.869 c 0.283,0.918 0.566,1.378 0.85,1.378 0.281,0 0.424,-0.529 0.424,-1.589 l 0,-27.658 10.596,0 0,63.58 z"
           id="path4067" />
        <path
           style="fill:#009fc2"
           inkscape:connector-curvature="0"
           d="m 524.881,79.776 c 0,4.381 -1.555,8.125 -4.662,11.234 -3.109,3.107 -6.854,4.661 -11.232,4.661 -4.381,0 -8.125,-1.554 -11.232,-4.661 -3.109,-3.109 -4.664,-6.854 -4.664,-11.234 l 0,-31.789 c 0,-4.381 1.555,-8.123 4.664,-11.232 3.107,-3.107 6.852,-4.663 11.232,-4.663 4.379,0 8.123,1.556 11.232,4.663 3.107,3.109 4.662,6.852 4.662,11.232 l -10.596,0 c 0,-1.482 -0.514,-2.736 -1.537,-3.761 -1.025,-1.025 -2.279,-1.537 -3.762,-1.537 -1.484,0 -2.738,0.512 -3.762,1.537 -1.025,1.024 -1.537,2.278 -1.537,3.761 l 0,31.789 c 0,1.483 0.514,2.737 1.543,3.762 1.025,1.023 2.285,1.536 3.773,1.536 1.488,0 2.746,-0.513 3.775,-1.536 1.025,-1.024 1.541,-2.278 1.541,-3.762 0,-1.059 0.035,-2.332 0.105,-3.815 0.07,-1.48 0.107,-2.437 0.107,-2.86 0,-1.555 -0.357,-2.594 -1.068,-3.125 -0.711,-0.53 -2.203,-0.796 -4.479,-0.796 l 0,-10.596 15.895,0 0,21.192 z"
           id="path4069" />
        <path
           style="fill:#009fc2"
           inkscape:connector-curvature="0"
           d="m 291.098,153.574 c 0,4.381 -1.555,8.125 -4.664,11.234 -3.108,3.107 -6.853,4.66 -11.232,4.66 -4.379,0 -8.124,-1.553 -11.232,-4.66 -3.108,-3.109 -4.662,-6.854 -4.662,-11.234 l 10.596,0 c 0,1.484 0.514,2.736 1.537,3.762 1.024,1.023 2.278,1.537 3.762,1.537 2.613,0 4.275,-1.234 4.98,-3.709 0.212,-0.92 0.318,-3.215 0.318,-6.887 0,-1.482 -0.512,-2.738 -1.537,-3.763 -1.023,-1.023 -2.279,-1.537 -3.762,-1.537 -4.379,0 -8.124,-1.553 -11.232,-4.66 -3.108,-3.107 -4.662,-6.854 -4.662,-11.234 l 0,-5.297 c 0,-4.381 1.554,-8.122 4.662,-11.232 3.108,-3.107 6.854,-4.663 11.232,-4.663 4.38,0 8.124,1.556 11.232,4.663 3.109,3.11 4.664,6.852 4.664,11.232 l -10.598,0 c 0,-1.482 -0.512,-2.736 -1.537,-3.761 -1.023,-1.025 -2.279,-1.537 -3.762,-1.537 -2.613,0 -4.273,1.234 -4.98,3.708 -0.211,0.919 -0.318,3.215 -0.318,6.887 0,1.484 0.514,2.738 1.537,3.764 1.024,1.023 2.278,1.535 3.762,1.535 4.38,0 8.124,1.555 11.232,4.662 3.109,3.109 4.664,6.854 4.664,11.234 l 0,5.296 z"
           id="path4071" />
        <path
           style="fill:#009fc2"
           inkscape:connector-curvature="0"
           d="m 326.729,116.487 -7.949,0 c -1.766,0 -2.648,0.883 -2.648,2.647 l 0,50.334 -10.596,0 0,-50.334 c 0,-1.765 -0.885,-2.647 -2.65,-2.647 l -7.947,0 0,-10.597 31.791,0 0,10.597 z"
           id="path4073" />
        <path
           style="fill:#009fc2"
           inkscape:connector-curvature="0"
           d="m 363.357,169.469 -10.596,0 0,-23.842 c 0,-1.765 -0.885,-2.65 -2.65,-2.65 l -5.297,0 c -1.768,0 -2.65,0.885 -2.65,2.65 l 0,23.842 -10.596,0 0,-47.684 c 0,-4.381 1.555,-8.122 4.662,-11.232 3.109,-3.107 6.854,-4.663 11.232,-4.663 4.381,0 8.125,1.556 11.232,4.663 3.109,3.11 4.662,6.852 4.662,11.232 l 0,47.684 z m -10.595,-39.736 0,-7.948 c 0,-1.482 -0.512,-2.736 -1.537,-3.761 -1.023,-1.025 -2.279,-1.537 -3.762,-1.537 -1.484,0 -2.736,0.512 -3.762,1.537 -1.023,1.024 -1.537,2.278 -1.537,3.761 l 0,7.948 c 0,1.766 0.883,2.648 2.65,2.648 l 5.297,0 c 1.766,0 2.651,-0.882 2.651,-2.648 z"
           id="path4075" />
        <path
           style="fill:#009fc2"
           inkscape:connector-curvature="0"
           d="m 400.988,116.487 -7.947,0 c -1.768,0 -2.648,0.883 -2.648,2.647 l 0,50.334 -10.598,0 0,-50.334 c 0,-1.765 -0.883,-2.647 -2.648,-2.647 l -7.947,0 0,-10.597 31.789,0 0,10.597 z"
           id="path4077" />
        <path
           style="fill:#009fc2"
           inkscape:connector-curvature="0"
           d="m 417.426,169.469 -10.596,0 0,-63.579 10.596,0 0,63.579 z"
           id="path4079" />
        <path
           style="fill:#009fc2"
           inkscape:connector-curvature="0"
           d="m 458.057,153.574 c 0,4.381 -1.555,8.125 -4.662,11.234 -3.109,3.107 -6.854,4.66 -11.232,4.66 -4.381,0 -8.125,-1.553 -11.232,-4.66 -3.109,-3.109 -4.662,-6.854 -4.662,-11.234 l 0,-31.789 c 0,-4.381 1.553,-8.122 4.662,-11.232 3.107,-3.107 6.852,-4.663 11.232,-4.663 4.379,0 8.123,1.556 11.232,4.663 3.107,3.11 4.662,6.852 4.662,11.232 l 0,31.789 z m -10.596,0 0,-31.789 c 0,-1.482 -0.514,-2.736 -1.537,-3.761 -1.025,-1.025 -2.279,-1.537 -3.762,-1.537 -1.484,0 -2.736,0.512 -3.762,1.537 -1.025,1.024 -1.537,2.278 -1.537,3.761 l 0,31.789 c 0,1.484 0.512,2.736 1.537,3.762 1.025,1.023 2.277,1.537 3.762,1.537 1.482,0 2.736,-0.514 3.762,-1.537 1.023,-1.025 1.537,-2.277 1.537,-3.762 z"
           id="path4081" />
        <path
           style="fill:#009fc2"
           inkscape:connector-curvature="0"
           d="m 498.688,169.469 -10.596,0 -9.113,-27.337 c -0.424,-1.273 -0.777,-1.91 -1.061,-1.91 -0.211,0 -0.354,0.604 -0.424,1.803 l 0,27.445 -10.596,0 0,-63.58 10.596,0 9.326,27.869 c 0.281,0.92 0.564,1.379 0.846,1.379 0.283,0 0.426,-0.529 0.426,-1.59 l 0,-27.658 10.596,0 0,63.579 z"
           id="path4083" />
        <path
           style="fill:#009fc2"
           inkscape:connector-curvature="0"
           d="m 519.125,137.68 -10.596,0 0,-13.598 10.596,0 0,13.598 z m 0,31.789 -10.596,0 0,-13.596 10.596,0 0,13.596 z"
           id="path4085" />
        <path
           style="fill:#009fc2"
           inkscape:connector-curvature="0"
           d="m 291.098,227.373 c 0,4.381 -1.555,8.125 -4.664,11.232 -3.108,3.109 -6.853,4.662 -11.232,4.662 -4.379,0 -8.124,-1.553 -11.232,-4.662 -3.108,-3.107 -4.662,-6.852 -4.662,-11.232 l 0,-31.789 c 0,-4.381 1.554,-8.123 4.662,-11.232 3.108,-3.107 6.854,-4.664 11.232,-4.664 4.38,0 8.124,1.557 11.232,4.664 3.109,3.109 4.664,6.852 4.664,11.232 l 0,31.789 z m -10.598,0 0,-31.789 c 0,-1.484 -0.512,-2.738 -1.537,-3.762 -1.023,-1.025 -2.279,-1.537 -3.762,-1.537 -1.483,0 -2.737,0.512 -3.762,1.537 -1.023,1.023 -1.537,2.277 -1.537,3.762 l 0,31.789 c 0,1.482 0.514,2.736 1.537,3.76 1.024,1.025 2.278,1.537 3.762,1.537 1.482,0 2.738,-0.512 3.762,-1.537 1.026,-1.024 1.537,-2.278 1.537,-3.76 z"
           id="path4087" />
        <path
           style="fill:#009fc2"
           inkscape:connector-curvature="0"
           d="m 330.729,243.268 -10.598,0 -9.113,-27.338 c -0.424,-1.273 -0.777,-1.91 -1.059,-1.91 -0.213,0 -0.355,0.602 -0.424,1.803 l 0,27.445 -10.598,0 0,-63.58 10.598,0 9.324,27.869 c 0.281,0.918 0.564,1.379 0.848,1.379 0.281,0 0.424,-0.529 0.424,-1.59 l 0,-27.658 10.598,0 0,63.58 z"
           id="path4089" />
        <path
           style="fill:#009fc2"
           inkscape:connector-curvature="0"
           d="m 370.357,190.285 -18.543,0 c -1.768,0 -2.65,0.883 -2.65,2.648 l 0,10.596 c 0,1.768 0.883,2.65 2.65,2.65 l 13.246,0 0,10.596 -13.246,0 c -1.768,0 -2.65,0.883 -2.65,2.648 l 0,10.598 c 0,1.768 0.883,2.648 2.65,2.648 l 18.543,0 0,10.598 -26.49,0 c -1.484,0 -2.738,-0.512 -3.762,-1.537 -1.025,-1.025 -1.537,-2.277 -1.537,-3.76 l 0,-52.984 c 0,-1.482 0.512,-2.738 1.537,-3.762 1.023,-1.023 2.277,-1.537 3.762,-1.537 l 26.49,0 0,10.598 z"
           id="path4091" />
      </g>
      <g
         id="g4093">
        <g
           id="g4095">
          <path
             style="fill:#d11242"
             inkscape:connector-curvature="0"
             d="m 141.553,179.264 c -5.887,0.006 -10.656,4.779 -10.656,10.656 0,5.893 4.769,10.66 10.656,10.66 5.887,0 10.661,-4.768 10.661,-10.66 0,-5.877 -4.774,-10.656 -10.661,-10.656 z"
             id="path4097" />
          <path
             style="fill:#d11242"
             inkscape:connector-curvature="0"
             d="m 141.553,95.636 c 5.887,0 10.661,-4.769 10.661,-10.661 0,-5.887 -4.774,-10.656 -10.661,-10.656 -5.887,0 -10.661,4.769 -10.661,10.656 0,5.893 4.774,10.661 10.661,10.661 z"
             id="path4099" />
          <path
             style="fill:#d11242"
             inkscape:connector-curvature="0"
             d="m 90.78,154.457 c -5.101,2.939 -6.847,9.455 -3.901,14.561 2.941,5.096 9.46,6.842 14.562,3.906 5.096,-2.951 6.842,-9.465 3.901,-14.572 -2.946,-5.09 -9.466,-6.842 -14.562,-3.895 z"
             id="path4101" />
          <path
             style="fill:#d11242"
             inkscape:connector-curvature="0"
             d="m 141.553,117.771 c -10.868,0 -19.68,8.816 -19.68,19.685 0,10.857 8.812,19.679 19.68,19.679 10.868,0 19.679,-8.822 19.679,-19.679 0,-10.869 -8.811,-19.685 -19.679,-19.685 z"
             id="path4103" />
          <path
             style="fill:#d11242"
             inkscape:connector-curvature="0"
             d="m 101.441,101.976 c -5.101,-2.936 -11.621,-1.189 -14.562,3.906 -2.946,5.102 -1.2,11.621 3.901,14.557 5.096,2.952 11.616,1.195 14.562,-3.896 2.941,-5.101 1.195,-11.621 -3.901,-14.567 z"
             id="path4105" />
          <path
             style="fill:#d11242"
             inkscape:connector-curvature="0"
             d="m 241.799,32.467 -200.491,0 c -2.744,0 -4.967,2.225 -4.967,4.968 l 0,200.491 c 0,2.742 2.223,4.967 4.967,4.967 l 200.492,0 c 2.744,0 4.967,-2.225 4.967,-4.967 l 0,-200.491 c -0.001,-2.743 -2.224,-4.968 -4.968,-4.968 z m -31.196,73.994 c 0,0 -0.027,-0.011 -0.077,-0.033 -0.054,-0.017 -0.109,-0.027 -0.164,-0.044 -0.78,-0.174 -3.208,-0.316 -3.693,4.256 0.196,6.994 -3.345,13.874 -9.832,17.616 -5.02,2.893 -10.787,3.328 -15.904,1.676 -1.146,-0.295 -5.729,-0.938 -6.58,7.463 l -0.005,-0.016 c 0,0.021 0,0.049 0,0.076 0,0.017 0,0.039 0,0.065 l 0.011,-0.021 c 0.862,8.528 5.565,7.737 6.624,7.447 0.055,-0.011 0.114,-0.027 0.169,-0.044 0.027,-0.011 0.044,-0.021 0.044,-0.021 5.052,-1.55 10.704,-1.086 15.642,1.767 6.465,3.727 10.006,10.58 9.832,17.535 0.562,5.539 3.939,4.25 3.939,4.25 l -0.011,0.018 c 2.581,-0.633 5.401,-0.328 7.889,1.107 5.096,2.936 6.842,9.461 3.9,14.566 -2.946,5.096 -9.465,6.832 -14.562,3.896 -2.488,-1.436 -4.163,-3.721 -4.899,-6.285 l -0.005,0.01 c 0,0 0,-0.027 -0.016,-0.076 -0.011,-0.055 -0.027,-0.109 -0.044,-0.158 -0.234,-0.752 -1.32,-2.945 -5.538,-1.068 -5.958,3.66 -13.684,4.037 -20.165,0.289 -5.02,-2.902 -8.276,-7.682 -9.4,-12.932 -0.316,-1.145 -2.057,-5.439 -9.755,-1.975 l 0.005,-0.016 c -0.038,0.027 -0.076,0.049 -0.114,0.076 l 0.016,0 c -6.956,5.008 -3.917,8.691 -3.137,9.461 0.044,0.037 0.082,0.086 0.125,0.119 0.017,0.016 0.027,0.027 0.033,0.033 3.874,3.596 6.302,8.729 6.302,14.42 0,7.463 -4.157,13.961 -10.279,17.289 -4.512,3.258 -1.708,5.543 -1.708,5.543 l -0.021,0 c 1.844,1.916 2.99,4.508 2.99,7.383 0,5.887 -4.774,10.654 -10.661,10.654 -5.887,0 -10.656,-4.768 -10.656,-10.654 0,-2.871 1.141,-5.467 2.984,-7.383 0.011,-0.016 0.033,-0.033 0.06,-0.059 0.033,-0.039 0.071,-0.072 0.104,-0.109 0.535,-0.584 1.898,-2.625 -1.839,-5.336 -6.149,-3.328 -10.333,-9.838 -10.333,-17.328 0,-5.795 2.51,-11 6.503,-14.605 0.829,-0.84 3.677,-4.496 -3.175,-9.428 l 0.011,0 c -0.038,-0.027 -0.076,-0.039 -0.114,-0.076 l 0.011,0.016 c -7.818,-3.514 -9.488,0.971 -9.766,2.02 -0.011,0.055 -0.027,0.113 -0.038,0.168 -0.005,0.039 -0.011,0.045 -0.011,0.045 -1.179,5.15 -4.409,9.82 -9.346,12.674 -6.46,3.736 -14.158,3.377 -20.105,-0.268 -5.074,-2.27 -5.652,1.287 -5.652,1.287 l -0.011,-0.016 c -0.731,2.559 -2.412,4.85 -4.894,6.285 -5.102,2.936 -11.621,1.199 -14.562,-3.896 -2.946,-5.105 -1.195,-11.631 3.901,-14.566 1.675,-0.967 3.503,-1.42 5.303,-1.42 0.873,0 1.741,0.105 2.581,0.312 0,0 0.039,0.01 0.104,0.037 0.038,0.006 0.076,0.018 0.114,0.018 0.758,0.18 3.225,0.365 3.716,-4.256 -0.197,-6.984 3.344,-13.863 9.826,-17.611 5.025,-2.892 10.792,-3.329 15.904,-1.669 1.14,0.294 5.734,0.943 6.58,-7.47 l 0.005,0.021 c 0,-0.026 0,-0.049 0,-0.065 0,-0.027 0,-0.055 0,-0.076 l -0.005,0.021 c -0.862,-8.538 -5.57,-7.736 -6.629,-7.447 -0.055,0.006 -0.109,0.027 -0.164,0.044 -0.033,0.011 -0.049,0.022 -0.049,0.022 -5.046,1.549 -10.704,1.085 -15.642,-1.764 -6.459,-3.726 -10,-10.578 -9.832,-17.54 -0.556,-5.543 -3.934,-4.255 -3.934,-4.255 l 0.005,-0.011 c -2.581,0.639 -5.396,0.333 -7.884,-1.107 -5.096,-2.935 -6.847,-9.466 -3.901,-14.567 2.941,-5.085 9.46,-6.836 14.562,-3.896 2.482,1.43 4.163,3.727 4.894,6.285 l 0.005,-0.011 c 0,0 0.005,0.038 0.021,0.115 0.011,0.033 0.027,0.071 0.033,0.109 0.234,0.742 1.304,2.968 5.548,1.08 5.953,-3.655 13.678,-4.037 20.16,-0.289 5.02,2.908 8.282,7.677 9.406,12.931 0.311,1.146 2.046,5.439 9.75,1.97 l -0.005,0.021 c 0.038,-0.027 0.076,-0.054 0.12,-0.065 l -0.021,0 c 6.956,-5.014 3.917,-8.691 3.143,-9.466 -0.044,-0.044 -0.087,-0.093 -0.131,-0.12 -0.022,-0.027 -0.039,-0.038 -0.039,-0.038 -3.868,-3.601 -6.296,-8.729 -6.296,-14.425 0,-7.458 4.157,-13.945 10.279,-17.285 4.512,-3.246 1.708,-5.532 1.708,-5.532 l 0.021,0 c -1.844,-1.915 -2.99,-4.512 -2.99,-7.393 0,-5.881 4.774,-10.655 10.661,-10.655 5.887,0 10.661,4.774 10.661,10.655 0,2.88 -1.146,5.478 -2.99,7.393 l 0.011,0 c 0,0 -0.038,0.027 -0.098,0.077 -0.017,0.027 -0.033,0.043 -0.049,0.06 -0.507,0.535 -1.997,2.597 1.817,5.369 6.149,3.317 10.328,9.826 10.328,17.312 0,5.789 -2.504,11.004 -6.493,14.605 -0.829,0.834 -3.693,4.49 3.165,9.444 l -0.016,0 c 0.043,0.011 0.082,0.038 0.125,0.065 l -0.011,-0.021 c 7.796,3.508 9.477,-0.928 9.761,-2.008 0.016,-0.065 0.033,-0.12 0.049,-0.191 0,-0.011 0.005,-0.033 0.005,-0.033 1.178,-5.15 4.408,-9.815 9.346,-12.658 6.46,-3.737 14.158,-3.377 20.105,0.251 5.074,2.275 5.647,-1.288 5.647,-1.288 l 0.011,0.021 c 0.737,-2.559 2.412,-4.855 4.899,-6.285 5.096,-2.94 11.616,-1.189 14.562,3.907 2.941,5.09 1.195,11.621 -3.9,14.556 -2.488,1.44 -5.309,1.746 -7.889,1.107 l 0.004,0.012 z"
             id="path4107" />
          <path
             style="fill:#d11242"
             inkscape:connector-curvature="0"
             d="m 181.67,172.924 c 5.101,2.936 11.616,1.189 14.562,-3.906 2.941,-5.096 1.195,-11.621 -3.901,-14.561 -5.101,-2.947 -11.621,-1.195 -14.562,3.895 -2.946,5.107 -1.195,11.621 3.901,14.572 z"
             id="path4109" />
          <path
             style="fill:#d11242"
             inkscape:connector-curvature="0"
             d="m 181.67,101.976 c -5.096,2.946 -6.847,9.466 -3.901,14.567 2.946,5.09 9.46,6.847 14.562,3.896 5.096,-2.936 6.842,-9.455 3.901,-14.557 -2.946,-5.095 -9.466,-6.841 -14.562,-3.906 z"
             id="path4111" />
        </g>
      </g>
    </g>
  </g>
  <g
     inkscape:groupmode="layer"
     id="layer2"
     inkscape:label="Editable">
    <flowRoot
       xml:space="preserve"
       id="titlebox"
       style="font-size:48px;font-style:normal;font-variant:normal;font-weight:normal;font-stretch:normal;text-align:start;line-height:125%;letter-spacing:0px;word-spacing:0px;text-anchor:start;fill:#000000;fill-opacity:1;stroke:none;font-family:ChunkFive;-inkscape-font-specification:ChunkFive"
       transform="translate(-57.448857,57.64458)"><flowRegion
         id="flowRegion15470"><rect
           id="rect15472"
           width="950"
           height="175"
           x="101"
           y="213"
           style="font-size:48px;font-style:normal;font-variant:normal;font-weight:normal;font-stretch:normal;text-align:start;text-anchor:start;font-family:ChunkFive;-inkscape-font-specification:ChunkFive;fill:#000000" /></flowRegion><flowPara
         id="title"
         style="-inkscape-font-specification:Liberation Serif Bold;font-family:Liberation Serif;font-weight:bold;font-style:normal;font-stretch:normal;font-variant:normal;fill:#000000">Talk Title Lorem Ipsum Dolor Sit Amet, Adipsicing Elit Ut Minim, Vera Se asd asd asd asd ads</flowPara></flowRoot>    <flowRoot
       transform="translate(-56.065281,-24.56048)"
       style="font-size:40px;font-style:normal;font-variant:normal;font-weight:500;font-stretch:normal;text-align:start;line-height:125%;letter-spacing:0px;word-spacing:0px;text-anchor:start;fill:#d11242;fill-opacity:1;stroke:none;font-family:News Cycle;-inkscape-font-specification:News Cycle Medium"
       id="presenterbox"
       xml:space="preserve"><flowRegion
         id="flowRegion15503"><rect
           style="font-size:40px;font-style:normal;font-variant:normal;font-weight:500;font-stretch:normal;text-align:start;text-anchor:start;fill:#d11242;fill-opacity:1;font-family:News Cycle;-inkscape-font-specification:News Cycle Medium"
           y="213"
           x="101"
           height="112"
           width="956"
           id="rect15505" /></flowRegion><flowPara
         id="presenternames"
         style="font-style:normal;font-variant:normal;font-weight:bold;font-stretch:normal;fill:#d11242;fill-opacity:1;font-family:Liberation Serif;-inkscape-font-specification:Liberation Serif Bold">John Q. Speaker</flowPara></flowRoot>  </g>
</svg>
