<?xml version="1.0" encoding="UTF-8" standalone="no"?>
<!-- Created with Inkscape (http://www.inkscape.org/) -->

<svg
   xmlns:dc="http://purl.org/dc/elements/1.1/"
   xmlns:cc="http://creativecommons.org/ns#"
   xmlns:rdf="http://www.w3.org/1999/02/22-rdf-syntax-ns#"
   xmlns:svg="http://www.w3.org/2000/svg"
   xmlns="http://www.w3.org/2000/svg"
   xmlns:xlink="http://www.w3.org/1999/xlink"
   xmlns:sodipodi="http://sodipodi.sourceforge.net/DTD/sodipodi-0.dtd"
   xmlns:inkscape="http://www.inkscape.org/namespaces/inkscape"
   width="800"
   height="600"
   id="titlepage"
   sodipodi:version="0.32"
   inkscape:version="0.48.4 r9939"
   version="1.0"
   sodipodi:docname="chipy.svg"
   inkscape:output_extension="org.inkscape.output.svg.inkscape"
   inkscape:export-filename="/home/carl/a/title2.png"
   inkscape:export-xdpi="90"
   inkscape:export-ydpi="90">
  <defs
     id="defs4">
    <inkscape:perspective
       sodipodi:type="inkscape:persp3d"
       inkscape:vp_x="0 : 526.18109 : 1"
       inkscape:vp_y="0 : 1000 : 0"
       inkscape:vp_z="744.09448 : 526.18109 : 1"
       inkscape:persp3d-origin="372.04724 : 350.78739 : 1"
       id="perspective10" />
    <inkscape:perspective
       id="perspective2427"
       inkscape:persp3d-origin="372.04724 : 350.78739 : 1"
       inkscape:vp_z="744.09448 : 526.18109 : 1"
       inkscape:vp_y="0 : 1000 : 0"
       inkscape:vp_x="0 : 526.18109 : 1"
       sodipodi:type="inkscape:persp3d" />
    <inkscape:perspective
       id="perspective2481"
       inkscape:persp3d-origin="372.04724 : 350.78739 : 1"
       inkscape:vp_z="744.09448 : 526.18109 : 1"
       inkscape:vp_y="0 : 1000 : 0"
       inkscape:vp_x="0 : 526.18109 : 1"
       sodipodi:type="inkscape:persp3d" />
    <inkscape:perspective
       id="perspective2565"
       inkscape:persp3d-origin="372.04724 : 350.78739 : 1"
       inkscape:vp_z="744.09448 : 526.18109 : 1"
       inkscape:vp_y="0 : 1000 : 0"
       inkscape:vp_x="0 : 526.18109 : 1"
       sodipodi:type="inkscape:persp3d" />
    <inkscape:perspective
       id="perspective2457"
       inkscape:persp3d-origin="372.04724 : 350.78739 : 1"
       inkscape:vp_z="744.09448 : 526.18109 : 1"
       inkscape:vp_y="0 : 1000 : 0"
       inkscape:vp_x="0 : 526.18109 : 1"
       sodipodi:type="inkscape:persp3d" />
    <inkscape:perspective
       id="perspective2544"
       inkscape:persp3d-origin="372.04724 : 350.78739 : 1"
       inkscape:vp_z="744.09448 : 526.18109 : 1"
       inkscape:vp_y="0 : 1000 : 0"
       inkscape:vp_x="0 : 526.18109 : 1"
       sodipodi:type="inkscape:persp3d" />
    <inkscape:perspective
       id="perspective2621"
       inkscape:persp3d-origin="372.04724 : 350.78739 : 1"
       inkscape:vp_z="744.09448 : 526.18109 : 1"
       inkscape:vp_y="0 : 1000 : 0"
       inkscape:vp_x="0 : 526.18109 : 1"
       sodipodi:type="inkscape:persp3d" />
    <inkscape:perspective
       id="perspective2688"
       inkscape:persp3d-origin="372.04724 : 350.78739 : 1"
       inkscape:vp_z="744.09448 : 526.18109 : 1"
       inkscape:vp_y="0 : 1000 : 0"
       inkscape:vp_x="0 : 526.18109 : 1"
       sodipodi:type="inkscape:persp3d" />
    <inkscape:perspective
       id="perspective2840"
       inkscape:persp3d-origin="372.04724 : 350.78739 : 1"
       inkscape:vp_z="744.09448 : 526.18109 : 1"
       inkscape:vp_y="0 : 1000 : 0"
       inkscape:vp_x="0 : 526.18109 : 1"
       sodipodi:type="inkscape:persp3d" />
    <inkscape:perspective
       id="perspective2569"
       inkscape:persp3d-origin="372.04724 : 350.78739 : 1"
       inkscape:vp_z="744.09448 : 526.18109 : 1"
       inkscape:vp_y="0 : 1000 : 0"
       inkscape:vp_x="0 : 526.18109 : 1"
       sodipodi:type="inkscape:persp3d" />
    <inkscape:perspective
       id="perspective2693"
       inkscape:persp3d-origin="372.04724 : 350.78739 : 1"
       inkscape:vp_z="744.09448 : 526.18109 : 1"
       inkscape:vp_y="0 : 1000 : 0"
       inkscape:vp_x="0 : 526.18109 : 1"
       sodipodi:type="inkscape:persp3d" />
    <inkscape:perspective
       id="perspective2480"
       inkscape:persp3d-origin="372.04724 : 350.78739 : 1"
       inkscape:vp_z="744.09448 : 526.18109 : 1"
       inkscape:vp_y="0 : 1000 : 0"
       inkscape:vp_x="0 : 526.18109 : 1"
       sodipodi:type="inkscape:persp3d" />
    <inkscape:perspective
       id="perspective2532"
       inkscape:persp3d-origin="372.04724 : 350.78739 : 1"
       inkscape:vp_z="744.09448 : 526.18109 : 1"
       inkscape:vp_y="0 : 1000 : 0"
       inkscape:vp_x="0 : 526.18109 : 1"
       sodipodi:type="inkscape:persp3d" />
    <inkscape:perspective
       id="perspective2955"
       inkscape:persp3d-origin="0.5 : 0.33333333 : 1"
       inkscape:vp_z="1 : 0.5 : 1"
       inkscape:vp_y="0 : 1000 : 0"
       inkscape:vp_x="0 : 0.5 : 1"
       sodipodi:type="inkscape:persp3d" />
    <inkscape:perspective
       id="perspective3008"
       inkscape:persp3d-origin="0.5 : 0.33333333 : 1"
       inkscape:vp_z="1 : 0.5 : 1"
       inkscape:vp_y="0 : 1000 : 0"
       inkscape:vp_x="0 : 0.5 : 1"
       sodipodi:type="inkscape:persp3d" />
    <inkscape:perspective
       id="perspective3061"
       inkscape:persp3d-origin="0.5 : 0.33333333 : 1"
       inkscape:vp_z="1 : 0.5 : 1"
       inkscape:vp_y="0 : 1000 : 0"
       inkscape:vp_x="0 : 0.5 : 1"
       sodipodi:type="inkscape:persp3d" />
    <linearGradient
       y2="1394.5615"
       x2="-915.54724"
       y1="1315.663"
       x1="-915.54724"
       gradientUnits="userSpaceOnUse"
       id="linearGradient7077"
       xlink:href="#linearGradient6128"
       inkscape:collect="always" />
    <linearGradient
       y2="1394.5615"
       x2="-915.54724"
       y1="1315.663"
       x1="-915.54724"
       gradientUnits="userSpaceOnUse"
       id="linearGradient7075"
       xlink:href="#linearGradient6128"
       inkscape:collect="always" />
    <linearGradient
       y2="1394.5615"
       x2="-915.54724"
       y1="1315.663"
       x1="-915.54724"
       gradientUnits="userSpaceOnUse"
       id="linearGradient7073"
       xlink:href="#linearGradient6128"
       inkscape:collect="always" />
    <linearGradient
       y2="1394.5615"
       x2="-915.54724"
       y1="1315.663"
       x1="-915.54724"
       gradientUnits="userSpaceOnUse"
       id="linearGradient7071"
       xlink:href="#linearGradient6128"
       inkscape:collect="always" />
    <linearGradient
       y2="1394.5615"
       x2="-915.54724"
       y1="1315.663"
       x1="-915.54724"
       gradientUnits="userSpaceOnUse"
       id="linearGradient7069"
       xlink:href="#linearGradient6128"
       inkscape:collect="always" />
    <linearGradient
       y2="1394.5615"
       x2="-915.54724"
       y1="1315.663"
       x1="-915.54724"
       gradientUnits="userSpaceOnUse"
       id="linearGradient7067"
       xlink:href="#linearGradient6128"
       inkscape:collect="always" />
    <linearGradient
       y2="1394.5615"
       x2="-915.54724"
       y1="1315.663"
       x1="-915.54724"
       gradientUnits="userSpaceOnUse"
       id="linearGradient7065"
       xlink:href="#linearGradient6128"
       inkscape:collect="always" />
    <linearGradient
       y2="1394.5615"
       x2="-915.54724"
       y1="1315.663"
       x1="-915.54724"
       gradientUnits="userSpaceOnUse"
       id="linearGradient7063"
       xlink:href="#linearGradient6128"
       inkscape:collect="always" />
    <linearGradient
       y2="1394.5615"
       x2="-915.54724"
       y1="1315.663"
       x1="-915.54724"
       gradientUnits="userSpaceOnUse"
       id="linearGradient7061"
       xlink:href="#linearGradient6128"
       inkscape:collect="always" />
    <linearGradient
       y2="1394.5615"
       x2="-915.54724"
       y1="1315.663"
       x1="-915.54724"
       gradientUnits="userSpaceOnUse"
       id="linearGradient7059"
       xlink:href="#linearGradient6128"
       inkscape:collect="always" />
    <linearGradient
       y2="1394.5615"
       x2="-915.54724"
       y1="1315.663"
       x1="-915.54724"
       gradientUnits="userSpaceOnUse"
       id="linearGradient7057"
       xlink:href="#linearGradient6128"
       inkscape:collect="always" />
    <linearGradient
       y2="1394.5615"
       x2="-915.54724"
       y1="1315.663"
       x1="-915.54724"
       gradientUnits="userSpaceOnUse"
       id="linearGradient7055"
       xlink:href="#linearGradient6128"
       inkscape:collect="always" />
    <linearGradient
       y2="1394.5615"
       x2="-915.54724"
       y1="1315.663"
       x1="-915.54724"
       gradientUnits="userSpaceOnUse"
       id="linearGradient7053"
       xlink:href="#linearGradient6128"
       inkscape:collect="always" />
    <linearGradient
       y2="1394.5615"
       x2="-915.54724"
       y1="1315.663"
       x1="-915.54724"
       gradientUnits="userSpaceOnUse"
       id="linearGradient7051"
       xlink:href="#linearGradient6128"
       inkscape:collect="always" />
    <linearGradient
       y2="1394.5615"
       x2="-915.54724"
       y1="1315.663"
       x1="-915.54724"
       gradientUnits="userSpaceOnUse"
       id="linearGradient7049"
       xlink:href="#linearGradient6128"
       inkscape:collect="always" />
    <linearGradient
       y2="1394.5615"
       x2="-915.54724"
       y1="1315.663"
       x1="-915.54724"
       gradientUnits="userSpaceOnUse"
       id="linearGradient7047"
       xlink:href="#linearGradient6128"
       inkscape:collect="always" />
    <linearGradient
       y2="1394.5615"
       x2="-915.54724"
       y1="1315.663"
       x1="-915.54724"
       gradientUnits="userSpaceOnUse"
       id="linearGradient7045"
       xlink:href="#linearGradient6128"
       inkscape:collect="always" />
    <linearGradient
       y2="1394.5615"
       x2="-915.54724"
       y1="1315.663"
       x1="-915.54724"
       gradientUnits="userSpaceOnUse"
       id="linearGradient7043"
       xlink:href="#linearGradient6128"
       inkscape:collect="always" />
    <linearGradient
       y2="1394.5615"
       x2="-915.54724"
       y1="1315.663"
       x1="-915.54724"
       gradientUnits="userSpaceOnUse"
       id="linearGradient7041"
       xlink:href="#linearGradient6128"
       inkscape:collect="always" />
    <linearGradient
       y2="1394.5615"
       x2="-915.54724"
       y1="1315.663"
       x1="-915.54724"
       gradientUnits="userSpaceOnUse"
       id="linearGradient7039"
       xlink:href="#linearGradient6128"
       inkscape:collect="always" />
    <linearGradient
       id="linearGradient6128"
       inkscape:collect="always">
      <stop
         id="stop6130"
         offset="0"
         style="stop-color:#ffffff;stop-opacity:1;" />
      <stop
         id="stop6132"
         offset="1"
         style="stop-color:#ffffff;stop-opacity:0;" />
    </linearGradient>
    <linearGradient
       y2="1394.5615"
       x2="-915.54724"
       y1="1315.663"
       x1="-915.54724"
       gradientUnits="userSpaceOnUse"
       id="linearGradient7079"
       xlink:href="#linearGradient6128"
       inkscape:collect="always" />
    <linearGradient
       y2="-77.832855"
       x2="-745.33875"
       y1="-189.86911"
       x1="-745.33875"
       gradientTransform="matrix(0.98110573,0,0,1.0126928,-183.15151,1350.013)"
       gradientUnits="userSpaceOnUse"
       id="linearGradient7035"
       xlink:href="#linearGradient4766"
       inkscape:collect="always" />
    <linearGradient
       y2="-77.832855"
       x2="-745.33875"
       y1="-189.86911"
       x1="-745.33875"
       gradientTransform="matrix(0.9811715,0,0,1.0126918,-183.21014,1350.013)"
       gradientUnits="userSpaceOnUse"
       id="linearGradient7033"
       xlink:href="#linearGradient4766"
       inkscape:collect="always" />
    <linearGradient
       y2="-77.832855"
       x2="-745.33875"
       y1="-189.86911"
       x1="-745.33875"
       gradientTransform="matrix(0.98194585,0,0,0.97983226,-182.62577,1346.3901)"
       gradientUnits="userSpaceOnUse"
       id="linearGradient7031"
       xlink:href="#linearGradient4766"
       inkscape:collect="always" />
    <linearGradient
       y2="-77.832855"
       x2="-745.33875"
       y1="-189.86911"
       x1="-745.33875"
       gradientTransform="matrix(0.98182794,0,0,0.97983423,-182.72174,1346.3902)"
       gradientUnits="userSpaceOnUse"
       id="linearGradient7029"
       xlink:href="#linearGradient4766"
       inkscape:collect="always" />
    <linearGradient
       id="linearGradient4766"
       inkscape:collect="always">
      <stop
         id="stop4768"
         offset="0"
         style="stop-color:#ff9955;stop-opacity:1" />
      <stop
         id="stop4770"
         offset="1"
         style="stop-color:#ff6600;stop-opacity:1" />
    </linearGradient>
    <linearGradient
       y2="-77.832855"
       x2="-745.33875"
       y1="-189.86911"
       x1="-745.33875"
       gradientTransform="matrix(0.98178945,0,0,0.98178945,-182.75867,1346.4001)"
       gradientUnits="userSpaceOnUse"
       id="linearGradient7037"
       xlink:href="#linearGradient4766"
       inkscape:collect="always" />
    <linearGradient
       inkscape:collect="always"
       id="linearGradient4940">
      <stop
         style="stop-color:#ffccaa;stop-opacity:1"
         offset="0"
         id="stop4942" />
      <stop
         style="stop-color:#ff6600;stop-opacity:1"
         offset="1"
         id="stop4944" />
    </linearGradient>
    <radialGradient
       r="90.157059"
       fy="-208.61775"
       fx="-411.323"
       cy="-208.61775"
       cx="-411.323"
       gradientTransform="matrix(-0.02228917,1.4933764,-0.93526017,-0.01395909,-788.90749,1779.2418)"
       gradientUnits="userSpaceOnUse"
       id="radialGradient6379"
       xlink:href="#linearGradient4940"
       inkscape:collect="always" />
    <linearGradient
       y2="-177.24957"
       x2="-702.27167"
       y1="-287.68533"
       x1="-702.27167"
       gradientTransform="matrix(1.0390466,0,0,1.0390466,-186.33078,1310.5916)"
       gradientUnits="userSpaceOnUse"
       id="linearGradient7025"
       xlink:href="#linearGradient4805"
       inkscape:collect="always" />
    <linearGradient
       y2="-177.24957"
       x2="-702.27167"
       y1="-287.68533"
       x1="-702.27167"
       gradientTransform="matrix(1.0390466,0,0,1.0390466,-186.33078,1310.5916)"
       gradientUnits="userSpaceOnUse"
       id="linearGradient7023"
       xlink:href="#linearGradient4805"
       inkscape:collect="always" />
    <linearGradient
       y2="-177.24957"
       x2="-702.27167"
       y1="-287.68533"
       x1="-702.27167"
       gradientTransform="matrix(1.0390466,0,0,1.0390466,-186.33078,1310.5916)"
       gradientUnits="userSpaceOnUse"
       id="linearGradient7021"
       xlink:href="#linearGradient4805"
       inkscape:collect="always" />
    <linearGradient
       y2="-177.24957"
       x2="-702.27167"
       y1="-287.68533"
       x1="-702.27167"
       gradientTransform="matrix(1.0390466,0,0,1.0390466,-186.33078,1310.5916)"
       gradientUnits="userSpaceOnUse"
       id="linearGradient7019"
       xlink:href="#linearGradient4805"
       inkscape:collect="always" />
    <linearGradient
       y2="-177.24957"
       x2="-702.27167"
       y1="-287.68533"
       x1="-702.27167"
       gradientTransform="matrix(1.0390466,0,0,1.0390466,-186.33078,1310.5916)"
       gradientUnits="userSpaceOnUse"
       id="linearGradient7017"
       xlink:href="#linearGradient4805"
       inkscape:collect="always" />
    <linearGradient
       y2="-177.24957"
       x2="-702.27167"
       y1="-287.68533"
       x1="-702.27167"
       gradientTransform="matrix(1.0390466,0,0,1.0390466,-186.33078,1310.5916)"
       gradientUnits="userSpaceOnUse"
       id="linearGradient7015"
       xlink:href="#linearGradient4805"
       inkscape:collect="always" />
    <linearGradient
       y2="-177.24957"
       x2="-702.27167"
       y1="-287.68533"
       x1="-702.27167"
       gradientTransform="matrix(1.0390466,0,0,1.0390466,-186.33078,1310.5916)"
       gradientUnits="userSpaceOnUse"
       id="linearGradient7013"
       xlink:href="#linearGradient4805"
       inkscape:collect="always" />
    <linearGradient
       id="linearGradient4805"
       inkscape:collect="always">
      <stop
         id="stop4807"
         offset="0"
         style="stop-color:#ffffff;stop-opacity:1;" />
      <stop
         id="stop4809"
         offset="1"
         style="stop-color:#ffffff;stop-opacity:0;" />
    </linearGradient>
    <linearGradient
       y2="-177.24957"
       x2="-702.27167"
       y1="-287.68533"
       x1="-702.27167"
       gradientTransform="matrix(1.0390466,0,0,1.0390466,-186.33078,1310.5916)"
       gradientUnits="userSpaceOnUse"
       id="linearGradient7027"
       xlink:href="#linearGradient4805"
       inkscape:collect="always" />
  </defs>
  <sodipodi:namedview
     id="base"
     pagecolor="#b3d6f2"
     bordercolor="#666666"
     borderopacity="1.0"
     gridtolerance="10000"
     guidetolerance="10"
     objecttolerance="10"
     inkscape:pageopacity="0.94117647"
     inkscape:pageshadow="2"
     inkscape:zoom="0.94666667"
     inkscape:cx="400"
     inkscape:cy="300"
     inkscape:document-units="px"
     inkscape:current-layer="layer1"
     showgrid="false"
     inkscape:window-width="1267"
     inkscape:window-height="715"
     inkscape:window-x="82"
     inkscape:window-y="24"
     inkscape:window-maximized="0" />
  <metadata
     id="metadata7">
    <rdf:RDF>
      <cc:Work
         rdf:about="">
        <dc:format>image/svg+xml</dc:format>
        <dc:type
           rdf:resource="http://purl.org/dc/dcmitype/StillImage" />
        <dc:title />
      </cc:Work>
    </rdf:RDF>
  </metadata>
  <g
     inkscape:label="Layer 1"
     inkscape:groupmode="layer"
     id="layer1">
    <rect
       style="fill:#ffffff"
       id="rect2895"
       width="803.19147"
       height="277.88818"
       x="0"
       y="109.57447" />
    <rect
       style="fill:#666666"
       id="rect2893"
       width="804.25531"
       height="144.68983"
       x="0"
       y="0" />
    <rect
       style="opacity:1;fill:#000000;fill-opacity:0"
       id="rect2398"
       width="800"
       height="600"
       x="0"
       y="0" />
    <flowRoot
       xml:space="preserve"
       id="titlebox"
       style="font-size:32px;font-style:normal;font-variant:normal;font-weight:normal;font-stretch:normal;text-align:center;line-height:100%;writing-mode:lr-tb;text-anchor:middle;fill:#000000;fill-opacity:1;stroke:none;font-family:Bitstream Vera Sans;-inkscape-font-specification:Bitstream Vera Sans"
       transform="matrix(1,0,0,1.1970692,-12.421875,25.990602)"><flowRegion
         id="flowRegion2776"><rect
           id="rect2778"
           width="684.7511"
           height="95.016434"
           x="68.642532"
           y="121.71946"
           style="font-size:32px;font-style:normal;font-variant:normal;font-weight:normal;font-stretch:normal;text-align:center;line-height:100%;writing-mode:lr-tb;text-anchor:middle;font-family:Bitstream Vera Sans;-inkscape-font-specification:Bitstream Vera Sans" /></flowRegion><flowPara
         id="title"
         style="font-weight:normal">UR DOING IT WRONG for god sake, you really need to please RTFM, RTFM!</flowPara></flowRoot>    <flowRoot
       transform="matrix(1,0,0,1.1970692,-12.210938,73.9906)"
       style="font-size:32px;font-style:normal;font-variant:normal;font-weight:normal;font-stretch:normal;text-align:center;line-height:100%;writing-mode:lr-tb;text-anchor:middle;fill:#000000;fill-opacity:1;stroke:none;font-family:Bitstream Vera Sans;-inkscape-font-specification:Bitstream Vera Sans"
       id="presenterbox"
       xml:space="preserve"><flowRegion
         id="flowRegion2830"><rect
           style="font-size:32px;font-style:normal;font-variant:normal;font-weight:normal;font-stretch:normal;text-align:center;line-height:100%;writing-mode:lr-tb;text-anchor:middle;font-family:Bitstream Vera Sans;-inkscape-font-specification:Bitstream Vera Sans"
           y="191.71947"
           x="68.642532"
           height="80"
           width="684.7511"
           id="rect2832" /></flowRegion><flowPara
         id="presenternames"
         style="font-weight:normal">By: Carl &quot;Speedy&quot; Karsten</flowPara></flowRoot>    <flowRoot
       xml:space="preserve"
       id="flowRoot2802"
       style="font-size:18px;font-style:normal;font-variant:normal;font-weight:normal;font-stretch:normal;text-align:center;line-height:110.00000238%;writing-mode:lr-tb;text-anchor:middle;fill:#000000;fill-opacity:1;stroke:none;font-family:Bitstream Vera Sans;-inkscape-font-specification:Bitstream Vera Sans"
       transform="matrix(1.7433323,0,0,1.2699132,-561.16857,127.43082)"><flowRegion
         id="flowRegion2804"><rect
           id="rect2806"
           width="587.64703"
           height="45.203621"
           x="88.733032"
           y="292.48868"
           style="font-size:18px;font-style:normal;font-variant:normal;font-weight:normal;font-stretch:normal;text-align:center;line-height:110.00000238%;writing-mode:lr-tb;text-anchor:middle;font-family:Bitstream Vera Sans;-inkscape-font-specification:Bitstream Vera Sans" /></flowRegion><flowPara
         id="flowPara2818">produced by</flowPara></flowRoot>    <flowRoot
       transform="matrix(1,0,0,1.1970692,-11.226563,113.5233)"
       style="font-size:32px;font-style:normal;font-variant:normal;font-weight:normal;font-stretch:normal;text-align:center;line-height:100%;writing-mode:lr-tb;text-anchor:middle;fill:#000000;fill-opacity:1;stroke:none;font-family:Bitstream Vera Sans;-inkscape-font-specification:Bitstream Vera Sans"
       id="presenterbox-5"
       xml:space="preserve"><flowRegion
         id="flowRegion2830-9"><rect
           style="font-size:32px;font-style:normal;font-variant:normal;font-weight:normal;font-stretch:normal;text-align:center;line-height:100%;writing-mode:lr-tb;text-anchor:middle;font-family:Bitstream Vera Sans;-inkscape-font-specification:Bitstream Vera Sans"
           y="191.71947"
           x="68.642532"
           height="80"
           width="684.7511"
           id="rect2832-4" /></flowRegion><flowPara
         id="presentertitle"
         style="font-weight:normal">Video MaD Man</flowPara></flowRoot>    <flowRoot
       xml:space="preserve"
       id="flowRoot3030"
       style="fill:black;stroke:none;stroke-opacity:1;stroke-width:1px;stroke-linejoin:miter;stroke-linecap:butt;fill-opacity:1;font-family:Bitstream Vera Sans;font-style:normal;font-weight:normal;font-size:40px;line-height:125%;letter-spacing:0px;word-spacing:0px"><flowRegion
         id="flowRegion3032"><rect
           id="rect3034"
           width="566.68152"
           height="76.578583"
           x="89.53804"
           y="469.22736" /></flowRegion><flowPara
         id="flowPara3036" /></flowRoot>    <flowRoot
       xml:space="preserve"
       id="flowRoot2576-7"
       style="font-size:16px;font-style:normal;font-variant:normal;font-weight:normal;font-stretch:normal;text-align:end;line-height:100%;writing-mode:lr-tb;text-anchor:end;fill:#ffffff;fill-opacity:1;stroke:none;font-family:Bitstream Vera Sans;-inkscape-font-specification:Bitstream Vera Sans"
       transform="matrix(1.5228736,0,0,1.8229844,-353.96669,273.57248)"
       inkscape:label="#flowRoot2414"><flowRegion
         id="flowRegion2416-5"><rect
           id="rect2418-9"
           width="684.7511"
           height="95.016434"
           x="68.642532"
           y="121.71946"
           style="font-size:32px;font-style:normal;font-variant:normal;font-weight:normal;font-stretch:normal;text-align:end;line-height:100%;writing-mode:lr-tb;text-anchor:end;fill:#ffffff;font-family:Bitstream Vera Sans;-inkscape-font-specification:Bitstream Vera Sans" /></flowRegion><flowPara
         id="date">September 99,9999</flowPara></flowRoot>    <g
       id="layer1-9"
       inkscape:label="Layer 1"
       transform="matrix(0.46051115,0,0,0.33154776,451.30094,365.08121)">
      <g
         transform="translate(1220.6931,-708.49755)"
         id="g6306">
        <path
           inkscape:connector-curvature="0"
           id="rect4739"
           d="m -2200.3023,1206.3397 1736.41842,0 0,210.3186 -1736.41842,0 z"
           style="fill:#000000;fill-rule:evenodd;stroke:#000000;stroke-width:0.78163189px;stroke-linecap:butt;stroke-linejoin:miter;stroke-opacity:1" />
        <g
           transform="translate(0,70.639215)"
           id="g6241">
          <g
             id="text3233"
             style="font-size:151.50627136px;font-style:normal;font-variant:normal;font-weight:normal;font-stretch:normal;line-height:125%;letter-spacing:0px;word-spacing:0px;fill:url(#linearGradient7027);fill-opacity:1;stroke:none;font-family:Arial;-inkscape-font-specification:Arial"
             transform="matrix(1.2311103,0,0,1.4753166,-617.37357,-261.99886)">
            <path
               inkscape:connector-curvature="0"
               id="path6805"
               style="fill:url(#linearGradient7013);font-family:Arial;-inkscape-font-specification:Arial"
               d="m -1248.726,1072.8942 0,-108.4513 14.7216,0 56.9628,85.1483 0,-85.1483 13.7598,0 0,108.4513 -14.7215,0 -56.9628,-85.22231 0,85.22231 -13.7599,0" />
            <path
               inkscape:connector-curvature="0"
               id="path6807"
               style="fill:url(#linearGradient7015);font-family:Arial;-inkscape-font-specification:Arial"
               d="m -1138.8691,1072.8942 0,-108.4513 78.4163,0 0,12.79814 -64.0646,0 0,33.21596 59.9958,0 0,12.7242 -59.9958,0 0,36.9148 66.5799,0 0,12.7982 -80.9316,0" />
            <path
               inkscape:connector-curvature="0"
               id="path6809"
               style="fill:url(#linearGradient7017);font-family:Arial;-inkscape-font-specification:Arial"
               d="m -1049.1342,1072.8942 41.9453,-56.519 -36.9888,-51.9323 17.0888,0 19.6781,27.8156 c 4.0934,5.77034 7.0032,10.209 8.72937,13.316 2.41655,-3.9454 5.27702,-8.06351 8.58141,-12.35429 l 21.82341,-28.77731 15.60929,0 -38.0985,51.1186 41.05761,57.3327 -17.75464,0 -27.29777,-38.6904 c -1.52892,-2.2192 -3.10711,-4.6358 -4.73457,-7.2498 -2.41661,3.9455 -4.14281,6.6581 -5.17841,8.1376 l -27.2238,37.8026 -17.2368,0" />
            <path
               inkscape:connector-curvature="0"
               id="path6811"
               style="fill:url(#linearGradient7019);font-family:Arial;-inkscape-font-specification:Arial"
               d="m -909.46438,1072.8942 0,-95.65316 -35.73121,0 0,-12.79814 85.96205,0 0,12.79814 -35.87917,0 0,95.65316 -14.35167,0" />
            <path
               inkscape:connector-curvature="0"
               id="path6813"
               style="fill:url(#linearGradient7021);font-family:Arial;-inkscape-font-specification:Arial"
               d="m -805.08185,1072.8942 0,-108.4513 37.35872,0 c 8.4334,1.1e-4 14.86945,0.51795 19.30817,1.55353 6.21405,1.43034 11.51578,4.01956 15.9052,7.76766 5.72085,4.8333 9.98689,11.02276 12.79814,18.56839 2.86037,7.49648 4.2906,16.07792 4.29071,25.74422 -1.1e-4,8.2362 -0.96181,15.5354 -2.88513,21.8974 -1.92352,6.3621 -4.38944,11.6392 -7.39777,15.8312 -3.00851,4.1428 -6.31285,7.4225 -9.91301,9.8391 -3.551,2.3672 -7.86636,4.1674 -12.94609,5.4003 -5.03055,1.233 -10.82546,1.8495 -17.38475,1.8495 l -39.13419,0 m 14.35167,-12.7982 23.15501,0 c 7.15112,0 12.74875,-0.6658 16.79293,-1.9974 4.09336,-1.3316 7.34837,-3.2057 9.76505,-5.6223 3.40289,-3.4029 6.04143,-7.9649 7.91561,-13.6858 1.92334,-5.7703 2.88504,-12.7488 2.88513,-20.9357 -9e-5,-11.3432 -1.87418,-20.0479 -5.6223,-26.11414 -3.69896,-6.1154 -8.2116,-10.20883 -13.53792,-12.28029 -3.8469,-1.47946 -10.03636,-2.21924 -18.56839,-2.21933 l -22.78512,0 0,82.85496" />
            <path
               inkscape:connector-curvature="0"
               id="path6815"
               style="fill:url(#linearGradient7023);font-family:Arial;-inkscape-font-specification:Arial"
               d="m -707.57929,1072.8942 41.64943,-108.4513 15.46133,0 44.3866,108.4513 -16.34906,0 -12.65019,-32.8461 -45.34831,0 -11.9104,32.8461 -15.2394,0 m 31.29255,-44.5346 36.7669,0 -11.31858,-30.03493 c -3.45234,-9.12383 -6.0169,-16.62022 -7.69368,-22.48921 -1.38096,6.95399 -3.32904,13.85857 -5.84423,20.71375 l -11.91041,31.81039" />
            <path
               inkscape:connector-curvature="0"
               id="path6817"
               style="fill:url(#linearGradient7025);font-family:Arial;-inkscape-font-specification:Arial"
               d="m -575.30721,1072.8942 0,-45.9402 -41.79739,-62.5111 17.45873,0 21.37955,32.69813 c 3.94543,6.11557 7.61965,12.23107 11.02267,18.34647 3.25497,-5.6716 7.20044,-12.0583 11.83643,-19.16023 l 21.00966,-31.88437 16.71895,0 -43.27693,62.5111 0,45.9402 -14.35167,0" />
          </g>
          <g
             id="text3229"
             style="font-size:244.91934204px;font-style:normal;font-variant:normal;font-weight:normal;font-stretch:normal;line-height:125%;letter-spacing:0px;word-spacing:0px;fill:url(#linearGradient7037);fill-opacity:1;stroke:#ff6600;stroke-width:5.43772173;font-family:Rufscript;-inkscape-font-specification:Rufscript">
            <path
               inkscape:connector-curvature="0"
               id="path6822"
               style="font-size:215.99368286px;font-weight:bold;text-align:start;line-height:125%;writing-mode:lr-tb;text-anchor:start;fill:url(#linearGradient7029);stroke:#ff6600;stroke-width:5.43241072;font-family:Arial Rounded MT Bold;-inkscape-font-specification:Arial Rounded MT Bold"
               d="m -1159.6483,1179.1007 35.0159,103.4663 35.1214,-104.203 c 1.8281,-5.4732 3.1991,-9.2624 4.1134,-11.3676 0.9139,-2.1752 2.4257,-4.1048 4.5351,-5.7891 2.1093,-1.7541 4.9921,-2.6312 8.6486,-2.6314 2.6718,2e-4 5.1327,0.6667 7.3829,1.9999 2.3202,1.3333 4.1131,3.1226 5.3789,5.368 1.3358,2.1754 2.0039,4.3858 2.004,6.6311 -10e-5,1.5439 -0.2112,3.228 -0.6329,5.0523 -0.422,1.7543 -0.9493,3.5086 -1.582,5.2627 -0.633,1.6843 -1.2658,3.4385 -1.8985,5.2628 l -37.4418,100.8349 c -1.336,3.8594 -2.672,7.5434 -4.0078,11.0519 -1.3361,3.4383 -2.8829,6.4907 -4.6407,9.1572 -1.7579,2.5963 -4.1134,4.7365 -7.0665,6.4206 -2.8829,1.684 -6.4336,2.5262 -10.6524,2.5262 -4.2189,0 -7.8048,-0.8422 -10.7579,-2.5262 -2.8829,-1.6139 -5.2384,-3.7541 -7.0665,-6.4206 -1.7579,-2.7366 -3.3047,-5.8242 -4.6407,-9.2625 -1.3359,-3.4383 -2.6719,-7.0872 -4.0078,-10.9466 l -36.809,-99.9928 c -0.6328,-1.8243 -1.3007,-3.6137 -2.0039,-5.3681 -0.6328,-1.7541 -1.1953,-3.6487 -1.6875,-5.6838 -0.4219,-2.0348 -0.6329,-3.754 -0.6329,-5.1575 0,-3.5785 1.4415,-6.8414 4.3243,-9.7888 2.8828,-2.947 6.504,-4.4205 10.8634,-4.4207 5.3437,2e-4 9.1055,1.6492 11.2853,4.947 2.25,3.228 4.5352,8.4206 6.8556,15.5778" />
            <path
               inkscape:connector-curvature="0"
               id="path6824"
               style="font-size:215.99368286px;font-weight:bold;text-align:start;line-height:125%;writing-mode:lr-tb;text-anchor:start;fill:url(#linearGradient7031);stroke:#ff6600;stroke-width:5.43273163;font-family:Arial Rounded MT Bold;-inkscape-font-specification:Arial Rounded MT Bold"
               d="m -1032.6689,1299.0921 0,-121.57 c 0,-6.3152 1.4416,-11.0516 4.3248,-14.2094 2.8832,-3.1575 6.6102,-4.7364 11.1812,-4.7366 4.7114,2e-4 8.5088,1.5791 11.3921,4.7366 2.9535,3.0876 4.4302,7.824 4.4302,14.2094 l 0,121.57 c 0,6.3855 -1.4767,11.1571 -4.4302,14.3148 -2.8833,3.1576 -6.6807,4.7365 -11.3921,4.7365 -4.5006,0 -8.2277,-1.5789 -11.1812,-4.7365 -2.8832,-3.2279 -4.3248,-7.9995 -4.3248,-14.3148" />
            <path
               inkscape:connector-curvature="0"
               id="path6826"
               style="font-size:215.99368286px;font-weight:bold;text-align:start;line-height:125%;writing-mode:lr-tb;text-anchor:start;fill:url(#linearGradient7033);stroke:#ff6600;stroke-width:5.52089787;font-family:Arial Rounded MT Bold;-inkscape-font-specification:Arial Rounded MT Bold"
               d="m -946.89327,1158.6202 40.78952,0 c 10.6101,10e-5 19.70956,1.0155 27.29841,3.046 7.58863,2.0307 14.47472,5.8382 20.65826,11.4224 16.09082,14.2148 24.13628,35.8268 24.13643,64.836 -1.5e-4,9.5732 -0.8082,18.3123 -2.42418,26.2173 -1.61626,7.905 -4.11071,15.0486 -7.48335,21.4307 -3.37291,6.3095 -7.69427,11.9663 -12.96411,16.9704 -4.14582,3.8438 -8.67799,6.9261 -13.59651,9.2468 -4.91873,2.3208 -10.22383,3.9525 -15.91529,4.8954 -5.62139,0.9427 -11.98047,1.4141 -19.07727,1.4141 l -40.78952,0 c -5.6916,0 -9.97783,-0.8702 -12.85871,-2.6108 -2.88094,-1.8131 -4.77812,-4.3151 -5.69157,-7.5062 -0.84321,-3.2635 -1.2648,-7.4699 -1.26478,-12.6191 l 0,-116.9441 c -2e-5,-6.9621 1.5107,-12.0025 4.53216,-15.1211 3.02142,-3.1184 7.90492,-4.6777 14.65051,-4.6778 m 12.12091,25.5645 0,108.2413 23.71484,0 c 5.19962,10e-5 9.27506,-0.145 12.22632,-0.4351 2.95109,-0.29 6.00766,-1.0154 9.16973,-2.1757 3.16189,-1.1604 5.90226,-2.7922 8.22114,-4.8954 10.46956,-9.1379 15.70438,-24.8754 15.7045,-47.2128 -1.2e-4,-15.7375 -2.3189,-27.5225 -6.95636,-35.3551 -4.5674,-7.8324 -10.22382,-12.8003 -16.96928,-14.9036 -6.74564,-2.1756 -14.89651,-3.2635 -24.45263,-3.2636 l -20.65826,0" />
            <path
               inkscape:connector-curvature="0"
               id="path6828"
               style="font-size:215.99368286px;font-weight:bold;text-align:start;line-height:125%;writing-mode:lr-tb;text-anchor:start;fill:url(#linearGradient7035);stroke:#ff6600;stroke-width:5.52071571;font-family:Arial Rounded MT Bold;-inkscape-font-specification:Arial Rounded MT Bold"
               d="m -704.59213,1183.5319 -70.5074,0 0,39.1627 64.92161,0 c 4.77766,10e-5 8.32587,1.1242 10.64461,3.3724 2.38877,2.1758 3.58322,5.0768 3.58335,8.7028 -1.3e-4,3.6263 -1.15945,6.5998 -3.47795,8.9204 -2.31875,2.2483 -5.90208,3.3724 -10.75001,3.3723 l -64.92161,0 0,45.3636 72.93142,0 c 4.91818,1e-4 8.6069,1.1967 11.06619,3.5899 2.52927,2.3208 3.79398,5.4393 3.79411,9.3555 -1.3e-4,3.7713 -1.26484,6.8535 -3.79411,9.2468 -2.45929,2.3208 -6.14801,3.4811 -11.06619,3.4811 l -85.05152,0 c -6.81539,0 -11.73369,-1.5592 -14.75491,-4.6777 -2.951,-3.1185 -4.42649,-8.1589 -4.42647,-15.1212 l 0,-119.8815 c -2e-5,-4.6413 0.66746,-8.4126 2.00245,-11.3136 1.33495,-2.9734 3.40766,-5.1129 6.21814,-6.4184 2.88069,-1.3778 6.53428,-2.0668 10.96079,-2.0669 l 82.6275,0 c 4.98844,10e-5 8.67717,1.1605 11.06619,3.4811 2.45901,2.2484 3.68859,5.2219 3.68873,8.9204 -1.4e-4,3.7714 -1.22972,6.8174 -3.68873,9.138 -2.38902,2.2483 -6.07775,3.3724 -11.06619,3.3723" />
          </g>
          <g
             id="g3102">
            <path
               style="fill:url(#radialGradient6379);fill-opacity:1;fill-rule:evenodd;stroke:#ff6600;stroke-width:5.25925636"
               d="m -631.69306,1158.4894 98.91466,0 c 16.84882,0 30.41304,13.5643 30.41304,30.413 l 0,98.9147 c 0,16.8487 -13.56422,30.413 -30.41304,30.413 l -98.91466,0 c -16.84883,0 -30.41305,-13.5643 -30.41305,-30.413 l 0,-98.9147 c 0,-16.8487 13.56422,-30.413 30.41305,-30.413 z"
               id="rect3118"
               inkscape:connector-curvature="0" />
            <path
               inkscape:connector-curvature="0"
               style="font-size:medium;font-style:normal;font-variant:normal;font-weight:normal;font-stretch:normal;text-indent:0;text-align:start;text-decoration:none;line-height:normal;letter-spacing:normal;word-spacing:normal;text-transform:none;direction:ltr;block-progression:tb;writing-mode:lr-tb;text-anchor:start;baseline-shift:baseline;color:#000000;fill:#ffffff;fill-opacity:1;stroke:none;stroke-width:26.75562668;marker:none;visibility:visible;display:inline;overflow:visible;enable-background:accumulate;font-family:Sans;-inkscape-font-specification:Sans"
               d="m -584.43851,1173.3856 c -32.7794,0.9544 -59.34,27.3125 -60,62.5625 -0.6812,36.3871 25.3624,66.6821 59.5938,67.4062 l 0.125,-20.6875 c -23.4261,-0.4955 -40.1849,-21.4112 -39.7188,-46.3125 0.4662,-24.9014 19.6364,-43.0581 43.0626,-42.5625 23.4261,0.4955 41.8099,19.4737 41.3437,44.375 -0.2192,11.7074 -4.7241,22.8486 -12.5625,31.0625 l -3.5938,-3.4687 c -0.377,-0.3708 -0.9089,-0.5788 -1.4374,-0.5625 -1,0.045 -1.8786,0.9677 -1.875,1.9687 l 0,21 c 0,1.0212 0.9163,1.9551 1.9374,1.9688 l 21.7188,0 c 0.7781,0 1.5502,-0.4982 1.8438,-1.2188 0.2935,-0.7206 0.09,-1.6151 -0.4688,-2.1562 l -3.3438,-3.2188 c 11.0857,-12.0182 17.4655,-28.0993 17.7813,-44.9687 0.6812,-36.3872 -26.9873,-64.4633 -61.2187,-65.1875 -1.0698,-0.023 -2.1301,-0.031 -3.1876,0 z"
               id="path3120" />
            <path
               style="fill:#2f2f36;fill-opacity:1;stroke:#2f2f36;stroke-width:8.25762749;stroke-linecap:round;stroke-linejoin:round;stroke-miterlimit:4;stroke-opacity:1;stroke-dashoffset:0"
               inkscape:transform-center-x="-3.965261"
               inkscape:transform-center-y="-3.8026582e-05"
               d="m -563.84011,1238.3159 -23.35884,20.6008 0,-41.2016 z"
               id="path6234"
               inkscape:connector-curvature="0" />
          </g>
        </g>
      </g>
    </g>
    <flowRoot
       xml:space="preserve"
       id="flowRoot2802-1"
       style="font-size:18px;font-style:normal;font-variant:normal;font-weight:normal;font-stretch:normal;text-align:center;line-height:110.00000238%;writing-mode:lr-tb;text-anchor:middle;fill:#000000;fill-opacity:1;stroke:none;font-family:Bitstream Vera Sans;-inkscape-font-specification:Bitstream Vera Sans"
       transform="matrix(1.7433323,0,0,1.2699132,-553.10463,20.09035)"><flowRegion
         id="flowRegion2804-2"><rect
           id="rect2806-9"
           width="587.64703"
           height="45.203621"
           x="88.733032"
           y="292.48868"
           style="font-size:18px;font-style:normal;font-variant:normal;font-weight:normal;font-stretch:normal;text-align:center;line-height:110.00000238%;writing-mode:lr-tb;text-anchor:middle;font-family:Bitstream Vera Sans;-inkscape-font-specification:Bitstream Vera Sans" /></flowRegion><flowPara
         id="flowPara2818-3">Sponsord by</flowPara></flowRoot>    <image
       sodipodi:absref="/home/carl/src/veyepar/dj/scripts/bling/logos/wi-logo.png"
       xlink:href="logos/wi-logo.png"
       width="238.4902"
       height="61.171188"
       id="image3166"
       x="537.56354"
       y="419.71936" />
    <image
       sodipodi:absref="/home/carl/src/veyepar/dj/scripts/bling/logos/org/imagescape-web.gif"
       xlink:href="logos/org/imagescape-web.gif"
       width="160"
       height="80"
       id="image3315"
       x="320"
       y="426.87106" />
    <image
       y="0"
       x="101"
       id="image3219"
       xlink:href="file:///home/carl/src/veyepar/dj/scripts/bling/logos/org/chipmunk.png"
       height="176"
       width="598" />
    <g
       transform="matrix(1.1407197,0,0,-1.1407197,-34.855134,538.60264)"
       inkscape:label="ink_ext_XXXXXX"
       id="g3163">
      <g
         transform="matrix(0.05565097,0,0,0.05565097,64.47179,53.239437)"
         id="g3165">
        <path
           id="path3167"
           style="fill:#17283b;fill-opacity:1;fill-rule:nonzero;stroke:none"
           d="m 1002,65.293 c 21.68,0 62.43,18.7226 73.31,29.6211 13.01,13.0079 18.77,28.8159 18.77,51.6599 l 0.86,65.106 c 0,12.004 -4.34,14.172 -10.84,14.172 -6.53,0 -30.39,-2.707 -49.92,-9.2 -63.969,-21.777 -104.067,-48.937 -104.067,-98.964 0,-26.6411 16.559,-52.395 71.887,-52.395 z m 73.98,209.055 c 15.27,3.32 18.35,3.086 19.4,20.625 l 1.09,30.984 c 1.08,40.254 -13.22,75 -80.48,75 -30.349,0 -69.408,-13.172 -69.408,-37.422 0,-17.422 -8.453,-38.094 -15.332,-46.453 -20.918,-25.449 -50.668,-21.211 -61.379,-14.258 -8.199,5.321 -12.344,15.946 -12.344,25.742 0,57.813 85.434,122.098 193.563,122.098 78.1,0 122.28,-48.797 122.28,-117.988 l -4.84,-174.539 c -2.19,-50.09 8.19,-105.5589 50.46,-105.5589 10.86,0 20.62,3.2539 27.14,6.5352 5.41,3.2812 10.83,7.6055 14.09,7.6055 4.33,0 7.61,-6.5313 7.61,-14.1407 0,-5.4297 -37.97,-47.87107 -91.1,-47.87107 -26.05,0 -52.74,9.79687 -71.18,33.73047 -4.35,6.5352 -10.82,15.2461 -17.36,15.2461 -7.59,0 -23.33,-14.0742 -45,-26.0547 -23.87,-13.0391 -43.678,-23.68359 -81.581,-23.68359 -31.449,0 -59.644,8.41019 -78.089,24.71879 -20.598,18.4843 -33.618,45.6914 -33.618,76.1599 0,42.356 20.68,95.442 80.328,124.406 58.68,28.524 145.75,45.118 145.75,45.118"
           inkscape:connector-curvature="0" />
        <path
           id="path3169"
           style="fill:#17283b;fill-opacity:1;fill-rule:nonzero;stroke:none"
           d="m 1408.77,868.477 c 33.87,0 61.33,-27.45 61.33,-61.329 0,-33.867 -27.46,-61.328 -61.33,-61.328 -33.87,0 -61.33,27.461 -61.33,61.328 0,33.879 27.46,61.329 61.33,61.329"
           inkscape:connector-curvature="0" />
        <path
           id="path3171"
           style="fill:#f3673c;fill-opacity:1;fill-rule:nonzero;stroke:none"
           d="m 1365.41,528.43 c -23.95,23.945 -23.95,62.761 0,86.765 23.95,23.938 62.78,23.926 86.72,-0.039 23.95,-23.953 23.95,-62.781 0,-86.726 -23.93,-23.946 -62.76,-23.957 -86.72,0"
           inkscape:connector-curvature="0" />
        <path
           id="path3173"
           style="fill:#17283b;fill-opacity:1;fill-rule:nonzero;stroke:none"
           d="m 560.141,321.145 c 0,41.921 0,37.617 -29.082,56.992 l -9.668,6.453 c -4.328,4.297 -4.328,16.133 1.07,19.367 24.742,8.602 84.656,36.59 111.547,52.723 5.39,-1.043 8.633,-3.231 8.633,-7.539 l 0,-62.422 c 0,-5.371 1.058,-8.582 3.218,-9.668 37.692,31.191 75.551,61.836 115.082,61.836 26.692,0 48.028,-17.09 48.028,-42.703 0,-35.235 -27.707,-47.395 -44.789,-47.395 -10.688,0 -16.039,3.203 -23.512,7.461 -16.004,10.684 -31.309,17.031 -46.258,17.031 -17.082,0 -31.73,-11.269 -40.238,-23.008 C 643.48,335.313 642.66,309.16 642.66,272.59 l -0.668,-140.481 c 0,-77.4801 1.899,-89.6559 42.797,-92.859 l 39.18,-4.0625 c 7.539,-5.3906 5.851,-26.18359 -1.668,-29.38672 -50.613,2.14844 -81.789,3.20313 -119.449,3.20313 -38.77,0 -73.922,-1.05469 -101.911,-3.20313 -7.519,3.20313 -9.91,22.25782 -2.371,27.64842 l 21.18,5.3203 c 39.813,6.4649 41.141,15.3828 41.141,92.8635 l -0.75,189.512"
           inkscape:connector-curvature="0" />
        <path
           id="path3175"
           style="fill:#f3673c;fill-opacity:1;fill-rule:nonzero;stroke:none"
           d="m 2538.27,321.145 c 0,41.921 0,37.617 -29.08,56.992 l -9.67,6.453 c -4.34,4.297 -4.34,16.133 1.07,19.367 24.75,8.602 81.78,36.59 108.65,52.723 5.39,-1.043 8.63,-3.231 8.63,-7.539 l 0,-62.422 c 0,-5.371 1.08,-8.582 3.22,-9.668 37.7,31.191 75.55,61.836 115.08,61.836 26.68,0 48.03,-17.09 48.03,-42.703 0,-35.235 -27.72,-47.395 -44.81,-47.395 -10.67,0 -16.03,3.203 -23.49,7.461 -16.02,10.684 -31.31,17.031 -46.27,17.031 -17.07,0 -31.72,-11.269 -40.24,-23.008 -10.69,-14.96 -11.51,-41.113 -11.51,-77.683 l -0.65,-140.481 c 0,-77.4801 2.13,-90.4098 43.02,-93.6129 l 39.18,-4.0625 c 7.54,-5.3906 5.62,-25.42969 -1.89,-28.63282 -50.61,2.14844 -81.8,3.20313 -119.45,3.20313 -38.77,0 -71.04,-1.05469 -99.02,-3.20313 -7.53,3.20313 -9.68,21.50392 -2.14,26.89452 l 21.18,5.3125 c 39.82,6.4649 40.89,16.1328 40.89,93.6132 l -0.73,189.524"
           inkscape:connector-curvature="0" />
        <path
           id="path3177"
           style="fill:#17283b;fill-opacity:1;fill-rule:nonzero;stroke:none"
           d="m 1457.33,318.457 0,-191.875 c 0,-77.4804 2.14,-85.2148 40.87,-90.5937 l 22.61,-3.2149 c 7.52,-5.3906 5.38,-26.71871 -2.15,-29.92184 -32.29,2.14844 -62.28,3.20313 -99.92,3.20313 -38.75,0 -80.46,-0.48828 -110.58,-2.63672 -7.54,3.20312 -9.71,24.53123 -2.16,29.92183 l 22.59,3.2227 c 39.83,5.3711 40.9,13.1055 40.9,90.5855 l 0,186.504"
           inkscape:connector-curvature="0" />
        <path
           id="path3179"
           style="fill:#17283b;fill-opacity:1;fill-rule:nonzero;stroke:none"
           d="m 1369.5,148.945 0,186.516 c 0,71.18 -2.69,74.766 -16,77.363 l -23.4,4.813 c -7.54,5.39 -6.59,32.715 1.61,32.715 31.29,0 48.3,-0.059 87.05,-0.059 37.64,0 37.97,0.051 73.5,-1.016 8.19,-0.254 9.59,-23.672 2.08,-29.062 l -26.89,-7.918 c -7.15,-2.102 -10.11,-9.121 -10.11,-77.414 l 0,-191.883"
           inkscape:connector-curvature="0" />
        <path
           id="path3181"
           style="fill:#17283b;fill-opacity:1;fill-rule:nonzero;stroke:none"
           d="m 1647.73,315.488 c 0,43.711 0,47.344 -29.05,66.719 l -9.69,6.465 c -4.3,4.297 -4.3,16.133 1.07,19.355 24.74,8.614 86.09,36.602 107.63,52.735 4.28,0 9.66,-2.149 11.82,-7.539 -2.16,-24.746 -2.16,-40.274 -2.16,-49.942 0,-6.465 -0.36,-10.847 7.17,-10.847 45.2,27.988 82.5,52.597 141.66,52.597 98.34,0 129.57,-60.644 129.57,-132.785 l 0,-185.078 c 0,-77.4805 2.15,-85.2032 40.9,-90.586 l 23.65,-3.2226 c 7.54,-5.3906 5.39,-26.71877 -2.16,-29.9219 -32.28,2.16016 -63.49,3.20313 -101.14,3.20313 -38.73,0 -71.02,-1.04297 -100.09,-3.20313 -7.52,3.20313 -9.66,24.5313 -2.12,29.9219 l 20.42,3.2226 c 39.83,6.4571 40.91,13.1055 40.91,90.586 l 0,160.352 c 0,70.539 -25.98,96.789 -90.35,96.789 -45.62,0 -79.94,-35.832 -95,-56.25 -13.98,-18.313 -13.42,-23.789 -13.42,-55 l 0,-145.891 c 0,-77.4805 2.16,-84.1211 40.91,-90.586 l 19.35,-3.2226 c 7.53,-5.3906 5.39,-26.71877 -2.14,-29.9219 -29.04,2.16016 -60.27,3.20313 -97.92,3.20313 -38.76,0 -71.03,-1.04297 -101.17,-3.20313 -7.52,3.20313 -9.69,24.5313 -2.17,29.9219 l 22.62,3.2226 c 39.82,5.3711 40.9,13.1055 40.9,90.586 l 0,188.32"
           inkscape:connector-curvature="0" />
        <path
           id="path3183"
           style="fill:#f3673c;fill-opacity:1;fill-rule:nonzero;stroke:none"
           d="m 2279.05,389.094 c -18.3,0 -19.41,-0.098 -19.41,-22.707 l 0,-199.598 c 0,-62.394 7.55,-119.4452 78.57,-119.4452 10.77,0 20.45,2.1601 29.06,5.3906 9.69,3.1953 23.65,15.0586 26.89,15.0586 8.63,0 12.93,-11.8633 10.78,-18.2891 C 2385.53,26.8945 2346.82,0 2291.93,0 2199.39,0 2180.04,51.6602 2180.04,116.211 l 0.51,246.562 c 0,29.043 -16,26.321 -37.5,26.321 l -35.62,0 c -6.43,4.316 -7.52,22.937 -3.22,29.375 31.23,9.707 76.86,22.801 87.61,32.5 13.99,12.91 35.56,40.808 46.34,62.351 5.36,2.129 18.29,2.129 22.6,-5.41 l 0,-48.418 c 0,-19.375 1.06,-20.449 19.36,-20.449 l 129.45,0 c 12.91,-9.668 10.76,-43.496 1.04,-49.949 l -131.56,0"
           inkscape:connector-curvature="0" />
        <path
           id="path3185"
           style="fill:#f3673c;fill-opacity:1;fill-rule:nonzero;stroke:none"
           d="m 2994.93,322.766 c 79.61,0 109.53,4.14 113.28,9.441 2.25,3.184 4.84,8.184 4.84,22.199 0,30.106 -21.31,63.75 -83.75,63.75 -60,0 -117.25,-54.484 -118.32,-89.992 0,-2.148 0,-5.398 7.54,-5.398 l 76.41,0 z m -69.47,-42.735 c -27.99,0 -29.03,-2.148 -29.03,-29.035 0,-108.691 65.35,-190.7421 180.46,-190.7421 35.55,0 65.68,10.7813 98.98,52.7341 10.78,3.223 18.3,-3.191 19.38,-12.91 C 3159.77,26.9063 3082.27,0 3026.31,0 c -69.96,0 -124.83,30.1172 -156.02,71.0352 -32.3,41.9528 -48.86,88.9058 -48.86,136.2618 0,132.324 71.83,246.836 219.94,246.836 92.54,0 153.36,-62.668 153.36,-127.227 0,-15.058 0.02,-30.968 -6.7,-39.336 -5.39,-6.718 -18.3,-7.539 -63.53,-7.539 l -199.04,0"
           inkscape:connector-curvature="0" />
        <path
           id="path3187"
           style="fill:#f3673c;fill-opacity:1;fill-rule:nonzero;stroke:none"
           d="m 3444.75,322.766 c 79.61,0 109.52,4.14 113.27,9.441 2.25,3.184 4.84,8.184 4.84,22.199 0,30.106 -21.31,63.75 -83.75,63.75 -60,0 -117.25,-54.484 -118.32,-89.992 0,-2.148 0,-5.398 7.54,-5.398 l 76.42,0 z m -69.5,-42.735 c -27.98,0 -29.03,-2.148 -29.03,-29.035 0,-108.691 65.35,-190.7421 180.47,-190.7421 35.56,0 65.68,10.7813 98.98,52.7341 10.79,3.223 18.3,-3.191 19.39,-12.91 C 3609.57,26.9063 3532.07,0 3476.11,0 c -69.96,0 -124.82,30.1172 -156.01,71.0352 -32.31,41.9528 -48.88,88.9058 -48.88,136.2618 0,132.324 71.85,246.836 219.94,246.836 92.54,0 153.36,-62.668 153.36,-127.227 0,-15.058 0.02,-30.968 -6.7,-39.336 -5.39,-6.718 -18.3,-7.539 -63.52,-7.539 l -199.05,0"
           inkscape:connector-curvature="0" />
        <path
           id="path3189"
           style="fill:#17283b;fill-opacity:1;fill-rule:nonzero;stroke:none"
           d="m 160.629,142.395 c 0,-73.5942 8.062,-103.4887 78.402,-103.4887 55.739,0 105.078,36.3984 105.078,108.3007 0,83.281 -56.589,132.609 -146.316,132.609 -35.57,0 -37.164,-4.863 -37.164,-21.054 l 0,-116.367 z m 0,189.941 c 0,-21.008 2.402,-21.828 34.73,-21.828 75.973,0 110.762,29.902 110.762,102.668 0,71.14 -52.551,99.441 -102.668,99.441 -40.422,0 -42.824,-1.59 -42.824,-33.945 l 0,-146.336 z m -90.8087,85.977 c 0,77.578 -0.8203,87.304 -38.8086,91.328 l -21.02342,2.422 c -5.65625,5.644 -8.6875,24.949 -2.23047,28.992 36.39449,3.215 95.40219,7.285 184.33219,7.285 67.93,0 122.082,-6.473 158.473,-27.5 37.156,-21.817 56.621,-57.527 56.621,-108.445 0,-47.688 -34.782,-84.063 -91.364,-102.707 -3.218,-0.782 -4.859,-3.211 -4.859,-4.813 0,-1.621 1.641,-3.242 6.461,-4.824 61.461,-9.727 130.18,-49.336 130.18,-140.696 0,-37.175 -12.133,-77.605 -49.309,-107.4995 -37.988,-31.543 -91.352,-45.293 -183.504,-45.293 -35.57,0 -69.539,2.44141 -100.258,2.44141 C 78.9688,9.00391 40.9805,8.18359 5.39063,6.5625 -1.05859,9.80469 -1.89063,26.9727 3.80078,32.6094 l 17.79302,2.4219 c 37.957,4.8437 45.2578,4.6875 45.2578,90.3707 l 2.9687,292.911"
           inkscape:connector-curvature="0" />
        <path
           id="path3191"
           style="fill:#17283b;fill-opacity:1;fill-rule:nonzero;stroke:none"
           d="m 1526.44,753.496 c 33.87,0 61.33,-27.449 61.33,-61.328 0,-33.867 -27.46,-61.328 -61.33,-61.328 -33.87,0 -61.33,27.461 -61.33,61.328 0,33.879 27.46,61.328 61.33,61.328"
           inkscape:connector-curvature="0" />
        <path
           id="path3193"
           style="fill:#17283b;fill-opacity:1;fill-rule:nonzero;stroke:none"
           d="m 1247.72,735.527 c 23.92,23.957 62.75,23.957 86.75,0 23.96,-23.953 23.94,-62.773 -0.02,-86.718 -23.96,-23.954 -62.81,-23.954 -86.73,-0.008 -23.95,23.945 -23.99,62.781 0,86.726"
           inkscape:connector-curvature="0" />
      </g>
    </g>
  </g>
</svg>
