<?xml version="1.0" encoding="UTF-8" standalone="no"?>
<!-- Created with Inkscape (http://www.inkscape.org/) -->

<svg
   xmlns:dc="http://purl.org/dc/elements/1.1/"
   xmlns:cc="http://creativecommons.org/ns#"
   xmlns:rdf="http://www.w3.org/1999/02/22-rdf-syntax-ns#"
   xmlns:svg="http://www.w3.org/2000/svg"
   xmlns="http://www.w3.org/2000/svg"
   xmlns:xlink="http://www.w3.org/1999/xlink"
   xmlns:sodipodi="http://sodipodi.sourceforge.net/DTD/sodipodi-0.dtd"
   xmlns:inkscape="http://www.inkscape.org/namespaces/inkscape"
   width="744.09448819"
   height="1052.3622047"
   id="svg3796"
   version="1.1"
   inkscape:version="0.48.0 r9654"
   sodipodi:docname="ndv.svg">
  <defs
     id="defs3798">
    <linearGradient
       inkscape:collect="always"
       xlink:href="#linearGradient4805"
       id="linearGradient7027"
       gradientUnits="userSpaceOnUse"
       gradientTransform="matrix(1.0390466,0,0,1.0390466,-186.33078,1310.5916)"
       x1="-702.27167"
       y1="-287.68533"
       x2="-702.27167"
       y2="-177.24957" />
    <linearGradient
       inkscape:collect="always"
       id="linearGradient4805">
      <stop
         style="stop-color:#ffffff;stop-opacity:1;"
         offset="0"
         id="stop4807" />
      <stop
         style="stop-color:#ffffff;stop-opacity:0;"
         offset="1"
         id="stop4809" />
    </linearGradient>
    <linearGradient
       inkscape:collect="always"
       xlink:href="#linearGradient4805"
       id="linearGradient7013"
       gradientUnits="userSpaceOnUse"
       gradientTransform="matrix(1.0390466,0,0,1.0390466,-186.33078,1310.5916)"
       x1="-702.27167"
       y1="-287.68533"
       x2="-702.27167"
       y2="-177.24957" />
    <linearGradient
       inkscape:collect="always"
       xlink:href="#linearGradient4805"
       id="linearGradient7015"
       gradientUnits="userSpaceOnUse"
       gradientTransform="matrix(1.0390466,0,0,1.0390466,-186.33078,1310.5916)"
       x1="-702.27167"
       y1="-287.68533"
       x2="-702.27167"
       y2="-177.24957" />
    <linearGradient
       inkscape:collect="always"
       xlink:href="#linearGradient4805"
       id="linearGradient7017"
       gradientUnits="userSpaceOnUse"
       gradientTransform="matrix(1.0390466,0,0,1.0390466,-186.33078,1310.5916)"
       x1="-702.27167"
       y1="-287.68533"
       x2="-702.27167"
       y2="-177.24957" />
    <linearGradient
       inkscape:collect="always"
       xlink:href="#linearGradient4805"
       id="linearGradient7019"
       gradientUnits="userSpaceOnUse"
       gradientTransform="matrix(1.0390466,0,0,1.0390466,-186.33078,1310.5916)"
       x1="-702.27167"
       y1="-287.68533"
       x2="-702.27167"
       y2="-177.24957" />
    <linearGradient
       inkscape:collect="always"
       xlink:href="#linearGradient4805"
       id="linearGradient7021"
       gradientUnits="userSpaceOnUse"
       gradientTransform="matrix(1.0390466,0,0,1.0390466,-186.33078,1310.5916)"
       x1="-702.27167"
       y1="-287.68533"
       x2="-702.27167"
       y2="-177.24957" />
    <linearGradient
       inkscape:collect="always"
       xlink:href="#linearGradient4805"
       id="linearGradient7023"
       gradientUnits="userSpaceOnUse"
       gradientTransform="matrix(1.0390466,0,0,1.0390466,-186.33078,1310.5916)"
       x1="-702.27167"
       y1="-287.68533"
       x2="-702.27167"
       y2="-177.24957" />
    <linearGradient
       inkscape:collect="always"
       xlink:href="#linearGradient4805"
       id="linearGradient7025"
       gradientUnits="userSpaceOnUse"
       gradientTransform="matrix(1.0390466,0,0,1.0390466,-186.33078,1310.5916)"
       x1="-702.27167"
       y1="-287.68533"
       x2="-702.27167"
       y2="-177.24957" />
    <radialGradient
       inkscape:collect="always"
       xlink:href="#linearGradient4940"
       id="radialGradient6379"
       gradientUnits="userSpaceOnUse"
       gradientTransform="matrix(-0.02228917,1.4933764,-0.93526017,-0.01395909,-788.90749,1779.2418)"
       cx="-411.323"
       cy="-208.61775"
       fx="-411.323"
       fy="-208.61775"
       r="90.157059" />
    <linearGradient
       id="linearGradient4940"
       inkscape:collect="always">
      <stop
         id="stop4942"
         offset="0"
         style="stop-color:#ffccaa;stop-opacity:1" />
      <stop
         id="stop4944"
         offset="1"
         style="stop-color:#ff6600;stop-opacity:1" />
    </linearGradient>
    <linearGradient
       inkscape:collect="always"
       xlink:href="#linearGradient4766"
       id="linearGradient7037"
       gradientUnits="userSpaceOnUse"
       gradientTransform="matrix(0.98178945,0,0,0.98178945,-182.75867,1346.4001)"
       x1="-745.33875"
       y1="-189.86911"
       x2="-745.33875"
       y2="-77.832855" />
    <linearGradient
       inkscape:collect="always"
       id="linearGradient4766">
      <stop
         style="stop-color:#ff9955;stop-opacity:1"
         offset="0"
         id="stop4768" />
      <stop
         style="stop-color:#ff6600;stop-opacity:1"
         offset="1"
         id="stop4770" />
    </linearGradient>
    <linearGradient
       inkscape:collect="always"
       xlink:href="#linearGradient4766"
       id="linearGradient7029"
       gradientUnits="userSpaceOnUse"
       gradientTransform="matrix(0.98182794,0,0,0.97983423,-182.72174,1346.3464)"
       x1="-745.33875"
       y1="-189.86911"
       x2="-745.33875"
       y2="-77.832855" />
    <linearGradient
       inkscape:collect="always"
       xlink:href="#linearGradient4766"
       id="linearGradient7031"
       gradientUnits="userSpaceOnUse"
       gradientTransform="matrix(0.98194585,0,0,0.97983226,-182.62577,1346.3463)"
       x1="-745.33875"
       y1="-189.86911"
       x2="-745.33875"
       y2="-77.832855" />
    <linearGradient
       inkscape:collect="always"
       xlink:href="#linearGradient4766"
       id="linearGradient7033"
       gradientUnits="userSpaceOnUse"
       gradientTransform="matrix(0.9811715,0,0,1.0126918,-183.21014,1349.9692)"
       x1="-745.33875"
       y1="-189.86911"
       x2="-745.33875"
       y2="-77.832855" />
    <linearGradient
       inkscape:collect="always"
       xlink:href="#linearGradient4766"
       id="linearGradient7035"
       gradientUnits="userSpaceOnUse"
       gradientTransform="matrix(0.98110573,0,0,1.0126928,-183.15151,1349.9692)"
       x1="-745.33875"
       y1="-189.86911"
       x2="-745.33875"
       y2="-77.832855" />
    <linearGradient
       inkscape:collect="always"
       xlink:href="#linearGradient6128"
       id="linearGradient7079"
       gradientUnits="userSpaceOnUse"
       x1="-915.54724"
       y1="1315.663"
       x2="-915.54724"
       y2="1394.5615" />
    <linearGradient
       inkscape:collect="always"
       id="linearGradient6128">
      <stop
         style="stop-color:#ffffff;stop-opacity:1;"
         offset="0"
         id="stop6130" />
      <stop
         style="stop-color:#ffffff;stop-opacity:0;"
         offset="1"
         id="stop6132" />
    </linearGradient>
    <linearGradient
       inkscape:collect="always"
       xlink:href="#linearGradient6128"
       id="linearGradient7039"
       gradientUnits="userSpaceOnUse"
       x1="-915.54724"
       y1="1315.663"
       x2="-915.54724"
       y2="1394.5615" />
    <linearGradient
       inkscape:collect="always"
       xlink:href="#linearGradient6128"
       id="linearGradient7041"
       gradientUnits="userSpaceOnUse"
       x1="-915.54724"
       y1="1315.663"
       x2="-915.54724"
       y2="1394.5615" />
    <linearGradient
       inkscape:collect="always"
       xlink:href="#linearGradient6128"
       id="linearGradient7043"
       gradientUnits="userSpaceOnUse"
       x1="-915.54724"
       y1="1315.663"
       x2="-915.54724"
       y2="1394.5615" />
    <linearGradient
       inkscape:collect="always"
       xlink:href="#linearGradient6128"
       id="linearGradient7045"
       gradientUnits="userSpaceOnUse"
       x1="-915.54724"
       y1="1315.663"
       x2="-915.54724"
       y2="1394.5615" />
    <linearGradient
       inkscape:collect="always"
       xlink:href="#linearGradient6128"
       id="linearGradient7047"
       gradientUnits="userSpaceOnUse"
       x1="-915.54724"
       y1="1315.663"
       x2="-915.54724"
       y2="1394.5615" />
    <linearGradient
       inkscape:collect="always"
       xlink:href="#linearGradient6128"
       id="linearGradient7049"
       gradientUnits="userSpaceOnUse"
       x1="-915.54724"
       y1="1315.663"
       x2="-915.54724"
       y2="1394.5615" />
    <linearGradient
       inkscape:collect="always"
       xlink:href="#linearGradient6128"
       id="linearGradient7051"
       gradientUnits="userSpaceOnUse"
       x1="-915.54724"
       y1="1315.663"
       x2="-915.54724"
       y2="1394.5615" />
    <linearGradient
       inkscape:collect="always"
       xlink:href="#linearGradient6128"
       id="linearGradient7053"
       gradientUnits="userSpaceOnUse"
       x1="-915.54724"
       y1="1315.663"
       x2="-915.54724"
       y2="1394.5615" />
    <linearGradient
       inkscape:collect="always"
       xlink:href="#linearGradient6128"
       id="linearGradient7055"
       gradientUnits="userSpaceOnUse"
       x1="-915.54724"
       y1="1315.663"
       x2="-915.54724"
       y2="1394.5615" />
    <linearGradient
       inkscape:collect="always"
       xlink:href="#linearGradient6128"
       id="linearGradient7057"
       gradientUnits="userSpaceOnUse"
       x1="-915.54724"
       y1="1315.663"
       x2="-915.54724"
       y2="1394.5615" />
    <linearGradient
       inkscape:collect="always"
       xlink:href="#linearGradient6128"
       id="linearGradient7059"
       gradientUnits="userSpaceOnUse"
       x1="-915.54724"
       y1="1315.663"
       x2="-915.54724"
       y2="1394.5615" />
    <linearGradient
       inkscape:collect="always"
       xlink:href="#linearGradient6128"
       id="linearGradient7061"
       gradientUnits="userSpaceOnUse"
       x1="-915.54724"
       y1="1315.663"
       x2="-915.54724"
       y2="1394.5615" />
    <linearGradient
       inkscape:collect="always"
       xlink:href="#linearGradient6128"
       id="linearGradient7063"
       gradientUnits="userSpaceOnUse"
       x1="-915.54724"
       y1="1315.663"
       x2="-915.54724"
       y2="1394.5615" />
    <linearGradient
       inkscape:collect="always"
       xlink:href="#linearGradient6128"
       id="linearGradient7065"
       gradientUnits="userSpaceOnUse"
       x1="-915.54724"
       y1="1315.663"
       x2="-915.54724"
       y2="1394.5615" />
    <linearGradient
       inkscape:collect="always"
       xlink:href="#linearGradient6128"
       id="linearGradient7067"
       gradientUnits="userSpaceOnUse"
       x1="-915.54724"
       y1="1315.663"
       x2="-915.54724"
       y2="1394.5615" />
    <linearGradient
       inkscape:collect="always"
       xlink:href="#linearGradient6128"
       id="linearGradient7069"
       gradientUnits="userSpaceOnUse"
       x1="-915.54724"
       y1="1315.663"
       x2="-915.54724"
       y2="1394.5615" />
    <linearGradient
       inkscape:collect="always"
       xlink:href="#linearGradient6128"
       id="linearGradient7071"
       gradientUnits="userSpaceOnUse"
       x1="-915.54724"
       y1="1315.663"
       x2="-915.54724"
       y2="1394.5615" />
    <linearGradient
       inkscape:collect="always"
       xlink:href="#linearGradient6128"
       id="linearGradient7073"
       gradientUnits="userSpaceOnUse"
       x1="-915.54724"
       y1="1315.663"
       x2="-915.54724"
       y2="1394.5615" />
    <linearGradient
       inkscape:collect="always"
       xlink:href="#linearGradient6128"
       id="linearGradient7075"
       gradientUnits="userSpaceOnUse"
       x1="-915.54724"
       y1="1315.663"
       x2="-915.54724"
       y2="1394.5615" />
    <linearGradient
       inkscape:collect="always"
       xlink:href="#linearGradient6128"
       id="linearGradient7077"
       gradientUnits="userSpaceOnUse"
       x1="-915.54724"
       y1="1315.663"
       x2="-915.54724"
       y2="1394.5615" />
  </defs>
  <sodipodi:namedview
     id="base"
     pagecolor="#ffffff"
     bordercolor="#666666"
     borderopacity="1.0"
     inkscape:pageopacity="0.0"
     inkscape:pageshadow="2"
     inkscape:zoom="1.1786138"
     inkscape:cx="372.04724"
     inkscape:cy="409.25836"
     inkscape:document-units="px"
     inkscape:current-layer="layer1"
     showgrid="false"
     inkscape:window-width="1280"
     inkscape:window-height="722"
     inkscape:window-x="0"
     inkscape:window-y="24"
     inkscape:window-maximized="1" />
  <metadata
     id="metadata3801">
    <rdf:RDF>
      <cc:Work
         rdf:about="">
        <dc:format>image/svg+xml</dc:format>
        <dc:type
           rdf:resource="http://purl.org/dc/dcmitype/StillImage" />
        <dc:title />
      </cc:Work>
    </rdf:RDF>
  </metadata>
  <g
     inkscape:label="Layer 1"
     inkscape:groupmode="layer"
     id="layer1">
    <g
       id="g6306"
       transform="translate(1220.6931,-708.49755)">
      <path
         style="fill:#000000;fill-rule:evenodd;stroke:#000000;stroke-width:1px;stroke-linecap:butt;stroke-linejoin:miter;stroke-opacity:1"
         d="m -1298.0631,910.51416 904.7401,0 0,660.69114 -904.7401,0 z"
         id="rect4739"
         inkscape:connector-curvature="0" />
      <g
         id="g6241">
        <g
           transform="scale(0.95753036,1.0443533)"
           style="font-size:151.50627136px;font-style:normal;font-variant:normal;font-weight:normal;font-stretch:normal;line-height:125%;letter-spacing:0px;word-spacing:0px;fill:url(#linearGradient7027);fill-opacity:1;stroke:none;font-family:Arial;-inkscape-font-specification:Arial"
           id="text3233">
          <path
             d="m -1248.726,1072.8942 0,-108.4513 14.7216,0 56.9628,85.1483 0,-85.1483 13.7598,0 0,108.4513 -14.7215,0 -56.9628,-85.22231 0,85.22231 -13.7599,0"
             style="fill:url(#linearGradient7013);font-family:Arial;-inkscape-font-specification:Arial"
             id="path6805"
             inkscape:connector-curvature="0" />
          <path
             d="m -1138.8691,1072.8942 0,-108.4513 78.4163,0 0,12.79814 -64.0646,0 0,33.21596 59.9958,0 0,12.7242 -59.9958,0 0,36.9148 66.5799,0 0,12.7982 -80.9316,0"
             style="fill:url(#linearGradient7015);font-family:Arial;-inkscape-font-specification:Arial"
             id="path6807"
             inkscape:connector-curvature="0" />
          <path
             d="m -1049.1342,1072.8942 41.9453,-56.519 -36.9888,-51.9323 17.0888,0 19.6781,27.8156 c 4.0934,5.77034 7.0032,10.209 8.72937,13.316 2.41655,-3.9454 5.27702,-8.06351 8.58141,-12.35429 l 21.82341,-28.77731 15.60929,0 -38.0985,51.1186 41.05761,57.3327 -17.75464,0 -27.29777,-38.6904 c -1.52892,-2.2192 -3.10711,-4.6358 -4.73457,-7.2498 -2.41661,3.9455 -4.14281,6.6581 -5.17841,8.1376 l -27.2238,37.8026 -17.2368,0"
             style="fill:url(#linearGradient7017);font-family:Arial;-inkscape-font-specification:Arial"
             id="path6809"
             inkscape:connector-curvature="0" />
          <path
             d="m -909.46438,1072.8942 0,-95.65316 -35.73121,0 0,-12.79814 85.96205,0 0,12.79814 -35.87917,0 0,95.65316 -14.35167,0"
             style="fill:url(#linearGradient7019);font-family:Arial;-inkscape-font-specification:Arial"
             id="path6811"
             inkscape:connector-curvature="0" />
          <path
             d="m -805.08185,1072.8942 0,-108.4513 37.35872,0 c 8.4334,1.1e-4 14.86945,0.51795 19.30817,1.55353 6.21405,1.43034 11.51578,4.01956 15.9052,7.76766 5.72085,4.8333 9.98689,11.02276 12.79814,18.56839 2.86037,7.49648 4.2906,16.07792 4.29071,25.74422 -1.1e-4,8.2362 -0.96181,15.5354 -2.88513,21.8974 -1.92352,6.3621 -4.38944,11.6392 -7.39777,15.8312 -3.00851,4.1428 -6.31285,7.4225 -9.91301,9.8391 -3.551,2.3672 -7.86636,4.1674 -12.94609,5.4003 -5.03055,1.233 -10.82546,1.8495 -17.38475,1.8495 l -39.13419,0 m 14.35167,-12.7982 23.15501,0 c 7.15112,0 12.74875,-0.6658 16.79293,-1.9974 4.09336,-1.3316 7.34837,-3.2057 9.76505,-5.6223 3.40289,-3.4029 6.04143,-7.9649 7.91561,-13.6858 1.92334,-5.7703 2.88504,-12.7488 2.88513,-20.9357 -9e-5,-11.3432 -1.87418,-20.0479 -5.6223,-26.11414 -3.69896,-6.1154 -8.2116,-10.20883 -13.53792,-12.28029 -3.8469,-1.47946 -10.03636,-2.21924 -18.56839,-2.21933 l -22.78512,0 0,82.85496"
             style="fill:url(#linearGradient7021);font-family:Arial;-inkscape-font-specification:Arial"
             id="path6813"
             inkscape:connector-curvature="0" />
          <path
             d="m -707.57929,1072.8942 41.64943,-108.4513 15.46133,0 44.3866,108.4513 -16.34906,0 -12.65019,-32.8461 -45.34831,0 -11.9104,32.8461 -15.2394,0 m 31.29255,-44.5346 36.7669,0 -11.31858,-30.03493 c -3.45234,-9.12383 -6.0169,-16.62022 -7.69368,-22.48921 -1.38096,6.95399 -3.32904,13.85857 -5.84423,20.71375 l -11.91041,31.81039"
             style="fill:url(#linearGradient7023);font-family:Arial;-inkscape-font-specification:Arial"
             id="path6815"
             inkscape:connector-curvature="0" />
          <path
             d="m -575.30721,1072.8942 0,-45.9402 -41.79739,-62.5111 17.45873,0 21.37955,32.69813 c 3.94543,6.11557 7.61965,12.23107 11.02267,18.34647 3.25497,-5.6716 7.20044,-12.0583 11.83643,-19.16023 l 21.00966,-31.88437 16.71895,0 -43.27693,62.5111 0,45.9402 -14.35167,0"
             style="fill:url(#linearGradient7025);font-family:Arial;-inkscape-font-specification:Arial"
             id="path6817"
             inkscape:connector-curvature="0" />
        </g>
        <g
           style="font-size:244.91934204px;font-style:normal;font-variant:normal;font-weight:normal;font-stretch:normal;line-height:125%;letter-spacing:0px;word-spacing:0px;fill:url(#linearGradient7037);fill-opacity:1;stroke:#ff6600;stroke-width:5.43772173;font-family:Rufscript;-inkscape-font-specification:Rufscript"
           id="text3229">
          <path
             d="m -1159.6483,1179.0569 35.0159,103.4663 35.1214,-104.203 c 1.8281,-5.4732 3.1991,-9.2624 4.1134,-11.3676 0.9139,-2.1752 2.4257,-4.1048 4.5351,-5.7891 2.1093,-1.7541 4.9921,-2.6312 8.6486,-2.6314 2.6718,2e-4 5.1327,0.6667 7.3829,1.9999 2.3202,1.3333 4.1131,3.1226 5.3789,5.368 1.3358,2.1754 2.0039,4.3858 2.004,6.6311 -10e-5,1.5439 -0.2112,3.228 -0.6329,5.0523 -0.422,1.7543 -0.9493,3.5086 -1.582,5.2627 -0.633,1.6843 -1.2658,3.4385 -1.8985,5.2628 l -37.4418,100.8349 c -1.336,3.8594 -2.672,7.5434 -4.0078,11.0519 -1.3361,3.4383 -2.8829,6.4907 -4.6407,9.1572 -1.7579,2.5963 -4.1134,4.7365 -7.0665,6.4206 -2.8829,1.684 -6.4336,2.5262 -10.6524,2.5262 -4.2189,0 -7.8048,-0.8422 -10.7579,-2.5262 -2.8829,-1.6139 -5.2384,-3.7541 -7.0665,-6.4206 -1.7579,-2.7366 -3.3047,-5.8242 -4.6407,-9.2625 -1.3359,-3.4383 -2.6719,-7.0872 -4.0078,-10.9466 l -36.809,-99.9928 c -0.6328,-1.8243 -1.3007,-3.6137 -2.0039,-5.3681 -0.6328,-1.7541 -1.1953,-3.6487 -1.6875,-5.6838 -0.4219,-2.0348 -0.6329,-3.754 -0.6329,-5.1575 0,-3.5785 1.4415,-6.8414 4.3243,-9.7888 2.8828,-2.947 6.504,-4.4205 10.8634,-4.4207 5.3437,2e-4 9.1055,1.6492 11.2853,4.947 2.25,3.228 4.5352,8.4206 6.8556,15.5778"
             style="font-size:215.99368286px;font-weight:bold;text-align:start;line-height:125%;writing-mode:lr-tb;text-anchor:start;fill:url(#linearGradient7029);stroke:#ff6600;stroke-width:5.43241072;font-family:Arial Rounded MT Bold;-inkscape-font-specification:Arial Rounded MT Bold"
             id="path6822"
             inkscape:connector-curvature="0" />
          <path
             d="m -1032.6689,1299.0483 0,-121.57 c 0,-6.3152 1.4416,-11.0516 4.3248,-14.2094 2.8832,-3.1575 6.6102,-4.7364 11.1812,-4.7366 4.7114,2e-4 8.5088,1.5791 11.3921,4.7366 2.9535,3.0876 4.4302,7.824 4.4302,14.2094 l 0,121.57 c 0,6.3855 -1.4767,11.1571 -4.4302,14.3148 -2.8833,3.1576 -6.6807,4.7365 -11.3921,4.7365 -4.5006,0 -8.2277,-1.5789 -11.1812,-4.7365 -2.8832,-3.2279 -4.3248,-7.9995 -4.3248,-14.3148"
             style="font-size:215.99368286px;font-weight:bold;text-align:start;line-height:125%;writing-mode:lr-tb;text-anchor:start;fill:url(#linearGradient7031);stroke:#ff6600;stroke-width:5.43273163;font-family:Arial Rounded MT Bold;-inkscape-font-specification:Arial Rounded MT Bold"
             id="path6824"
             inkscape:connector-curvature="0" />
          <path
             d="m -946.89327,1158.5764 40.78952,0 c 10.6101,10e-5 19.70956,1.0155 27.29841,3.046 7.58863,2.0307 14.47472,5.8382 20.65826,11.4224 16.09082,14.2148 24.13628,35.8268 24.13643,64.836 -1.5e-4,9.5732 -0.8082,18.3123 -2.42418,26.2173 -1.61626,7.905 -4.11071,15.0486 -7.48335,21.4307 -3.37291,6.3095 -7.69427,11.9663 -12.96411,16.9704 -4.14582,3.8438 -8.67799,6.9261 -13.59651,9.2468 -4.91873,2.3208 -10.22383,3.9525 -15.91529,4.8954 -5.62139,0.9427 -11.98047,1.4141 -19.07727,1.4141 l -40.78952,0 c -5.6916,0 -9.97783,-0.8702 -12.85871,-2.6108 -2.88094,-1.8131 -4.77812,-4.3151 -5.69157,-7.5062 -0.84321,-3.2635 -1.2648,-7.4699 -1.26478,-12.6191 l 0,-116.9441 c -2e-5,-6.9621 1.5107,-12.0025 4.53216,-15.1211 3.02142,-3.1184 7.90492,-4.6777 14.65051,-4.6778 m 12.12091,25.5645 0,108.2413 23.71484,0 c 5.19962,10e-5 9.27506,-0.145 12.22632,-0.4351 2.95109,-0.29 6.00766,-1.0154 9.16973,-2.1757 3.16189,-1.1604 5.90226,-2.7922 8.22114,-4.8954 10.46956,-9.1379 15.70438,-24.8754 15.7045,-47.2128 -1.2e-4,-15.7375 -2.3189,-27.5225 -6.95636,-35.3551 -4.5674,-7.8324 -10.22382,-12.8003 -16.96928,-14.9036 -6.74564,-2.1756 -14.89651,-3.2635 -24.45263,-3.2636 l -20.65826,0"
             style="font-size:215.99368286px;font-weight:bold;text-align:start;line-height:125%;writing-mode:lr-tb;text-anchor:start;fill:url(#linearGradient7033);stroke:#ff6600;stroke-width:5.52089787;font-family:Arial Rounded MT Bold;-inkscape-font-specification:Arial Rounded MT Bold"
             id="path6826"
             inkscape:connector-curvature="0" />
          <path
             d="m -704.59213,1183.4881 -70.5074,0 0,39.1627 64.92161,0 c 4.77766,1e-4 8.32587,1.1242 10.64461,3.3724 2.38877,2.1758 3.58322,5.0768 3.58335,8.7028 -1.3e-4,3.6263 -1.15945,6.5998 -3.47795,8.9204 -2.31875,2.2483 -5.90208,3.3724 -10.75001,3.3723 l -64.92161,0 0,45.3636 72.93142,0 c 4.91818,10e-5 8.6069,1.1967 11.06619,3.5899 2.52927,2.3208 3.79398,5.4393 3.79411,9.3555 -1.3e-4,3.7713 -1.26484,6.8535 -3.79411,9.2468 -2.45929,2.3208 -6.14801,3.4811 -11.06619,3.4811 l -85.05152,0 c -6.81539,0 -11.73369,-1.5592 -14.75491,-4.6777 -2.951,-3.1185 -4.42649,-8.1589 -4.42647,-15.1212 l 0,-119.8815 c -2e-5,-4.6413 0.66746,-8.4126 2.00245,-11.3136 1.33495,-2.9734 3.40766,-5.1129 6.21814,-6.4184 2.88069,-1.3778 6.53428,-2.0668 10.96079,-2.0669 l 82.6275,0 c 4.98844,10e-5 8.67717,1.1605 11.06619,3.4811 2.45901,2.2484 3.68859,5.2219 3.68873,8.9204 -1.4e-4,3.7714 -1.22972,6.8174 -3.68873,9.138 -2.38902,2.2483 -6.07775,3.3724 -11.06619,3.3723"
             style="font-size:215.99368286px;font-weight:bold;text-align:start;line-height:125%;writing-mode:lr-tb;text-anchor:start;fill:url(#linearGradient7035);stroke:#ff6600;stroke-width:5.52071571;font-family:Arial Rounded MT Bold;-inkscape-font-specification:Arial Rounded MT Bold"
             id="path6828"
             inkscape:connector-curvature="0" />
        </g>
        <g
           transform="scale(0.95265151,1.0497018)"
           style="font-size:59.0193367px;font-style:normal;font-variant:normal;font-weight:bold;font-stretch:normal;line-height:125%;letter-spacing:0px;word-spacing:0px;fill:url(#linearGradient7079);fill-opacity:1;stroke:none;font-family:Arial;-inkscape-font-specification:Arial Bold"
           id="text3393">
          <path
             d="m -1244.3863,1342.0669 -10.7349,-33.9297 8.7221,0 6.3578,22.2364 5.8466,-22.2364 8.6582,0 5.6549,22.2364 6.4856,-22.2364 8.8499,0 -10.8946,33.9297 -8.6262,0 -5.8466,-21.8211 -5.7508,21.8211 -8.722,0"
             style="font-size:65.43121338px;fill:url(#linearGradient7039);font-family:Arial;-inkscape-font-specification:Arial Bold"
             id="path6831"
             inkscape:connector-curvature="0" />
          <path
             d="m -1193.4919,1342.0669 -10.7348,-33.9297 8.7221,0 6.3578,22.2364 5.8466,-22.2364 8.6582,0 5.6549,22.2364 6.4856,-22.2364 8.8498,0 -10.8945,33.9297 -8.6262,0 -5.8466,-21.8211 -5.7508,21.8211 -8.7221,0"
             style="font-size:65.43121338px;fill:url(#linearGradient7041);font-family:Arial;-inkscape-font-specification:Arial Bold"
             id="path6833"
             inkscape:connector-curvature="0" />
          <path
             d="m -1142.5974,1342.0669 -10.7348,-33.9297 8.7221,0 6.3578,22.2364 5.8466,-22.2364 8.6582,0 5.6549,22.2364 6.4856,-22.2364 8.8498,0 -10.8945,33.9297 -8.6262,0 -5.8466,-21.8211 -5.7508,21.8211 -8.7221,0"
             style="font-size:65.43121338px;fill:url(#linearGradient7043);font-family:Arial;-inkscape-font-specification:Arial Bold"
             id="path6835"
             inkscape:connector-curvature="0" />
          <path
             d="m -1100.4568,1342.0669 0,-8.9776 8.9776,0 0,8.9776 -8.9776,0"
             style="font-size:65.43121338px;fill:url(#linearGradient7045);font-family:Arial;-inkscape-font-specification:Arial Bold"
             id="path6837"
             inkscape:connector-curvature="0" />
          <path
             d="m -1051.4154,1342.0669 -8.9776,0 0,-17.3163 c 0,-3.6634 -0.1917,-6.0276 -0.5751,-7.0926 -0.3834,-1.0863 -1.0117,-1.9276 -1.885,-2.524 -0.852,-0.5963 -1.885,-0.8945 -3.099,-0.8945 -1.5549,0 -2.95,0.426 -4.1853,1.2779 -1.2354,0.852 -2.0873,1.9809 -2.5559,3.3866 -0.4473,1.4058 -0.671,4.0043 -0.6709,7.7955 l 0,15.3674 -8.9777,0 0,-33.9297 8.3387,0 0,4.9841 c 2.9606,-3.8339 6.6879,-5.7508 11.1821,-5.7508 1.9808,0 3.7912,0.3621 5.4313,1.0862 1.64,0.7029 2.8753,1.6081 3.706,2.7157 0.852,1.1076 1.4377,2.3642 1.7572,3.7699 0.3408,1.4058 0.5112,3.4186 0.5112,6.0384 l 0,21.0862"
             style="font-size:65.43121338px;fill:url(#linearGradient7047);font-family:Arial;-inkscape-font-specification:Arial Bold"
             id="path6839"
             inkscape:connector-curvature="0" />
          <path
             d="m -1022.6614,1331.2682 8.9456,1.5016 c -1.1501,3.2801 -2.9712,5.7827 -5.4632,7.508 -2.4707,1.7039 -5.5698,2.5559 -9.2971,2.5559 -5.8999,0 -10.2662,-1.9276 -13.099,-5.7828 -2.2365,-3.0884 -3.3547,-6.9861 -3.3547,-11.6932 0,-5.623 1.4697,-10.0213 4.409,-13.1949 2.9393,-3.1949 6.656,-4.7923 11.1501,-4.7923 5.0479,0 9.0309,1.672 11.9489,5.0159 2.9179,3.3227 4.313,8.4239 4.1853,15.3035 l -22.492,0 c 0.064,2.6624 0.7881,4.7391 2.1725,6.23 1.3845,1.4697 3.1097,2.2045 5.1757,2.2045 1.4058,0 2.5879,-0.3834 3.5464,-1.1501 0.9584,-0.7668 1.6826,-2.0022 2.1725,-3.7061 m 0.5112,-9.0735 c -0.064,-2.5985 -0.7349,-4.5686 -2.0128,-5.9105 -1.278,-1.3631 -2.8328,-2.0447 -4.6646,-2.0447 -1.9595,0 -3.5782,0.7135 -4.8562,2.1405 -1.2779,1.4271 -1.9063,3.3653 -1.885,5.8147 l 13.4186,0"
             style="font-size:65.43121338px;fill:url(#linearGradient7049);font-family:Arial;-inkscape-font-specification:Arial Bold"
             id="path6841"
             inkscape:connector-curvature="0" />
          <path
             d="m -1010.2333,1342.0669 12.23636,-17.476 -11.72526,-16.4537 10.95849,0 6.00638,9.3291 6.32587,-9.3291 10.54311,0 -11.50158,16.0703 12.5559,17.8594 -11.02235,0 -6.90095,-10.5112 -6.96485,10.5112 -10.51112,0"
             style="font-size:65.43121338px;fill:url(#linearGradient7051);font-family:Arial;-inkscape-font-specification:Arial Bold"
             id="path6843"
             inkscape:connector-curvature="0" />
          <path
             d="m -953.97143,1308.1372 0,7.1566 -6.13417,0 0,13.6741 c -2e-5,2.7689 0.0532,4.3876 0.15974,4.8562 0.12778,0.4473 0.39402,0.82 0.79872,1.1182 0.42597,0.2982 0.93715,0.4473 1.53354,0.4473 0.83066,0 2.03406,-0.2875 3.61022,-0.8626 l 0.76677,6.9648 c -2.08734,0.8946 -4.45155,1.3419 -7.09264,1.3419 -1.61875,0 -3.07775,-0.2663 -4.37699,-0.7988 -1.29926,-0.5537 -2.25772,-1.2566 -2.87539,-2.1086 -0.59639,-0.8732 -1.01172,-2.0447 -1.24601,-3.5143 -0.19169,-1.0437 -0.28754,-3.1523 -0.28754,-6.3259 l 0,-14.7923 -4.1214,0 0,-7.1566 4.1214,0 0,-6.7412 9.00958,-5.2396 0,11.9808 6.13417,0"
             style="font-size:65.43121338px;fill:url(#linearGradient7053);font-family:Arial;-inkscape-font-specification:Arial Bold"
             id="path6845"
             inkscape:connector-curvature="0" />
          <path
             d="m -916.62325,1342.0669 -8.33865,0 0,-4.984 c -1.38447,1.9382 -3.02451,3.3866 -4.92012,4.345 -1.87435,0.9372 -3.76998,1.4058 -5.68689,1.4058 -3.89777,0 -7.24175,-1.5655 -10.03194,-4.6965 -2.7689,-3.1523 -4.15335,-7.5399 -4.15334,-13.1629 -10e-6,-5.7508 1.35249,-10.1171 4.0575,-13.0991 2.70499,-3.0031 6.12351,-4.5047 10.25557,-4.5047 3.79124,0 7.07132,1.5761 9.84024,4.7284 l 0,-16.869 8.97763,0 0,46.837 m -23.96163,-17.6997 c -10e-6,3.6209 0.50052,6.2407 1.5016,7.8595 1.44833,2.3429 3.47175,3.5143 6.07027,3.5143 2.06601,0 3.82319,-0.8732 5.27156,-2.6198 1.44832,-1.7678 2.1725,-4.3983 2.17252,-7.8913 -2e-5,-3.8978 -0.7029,-6.6986 -2.10862,-8.4026 -1.40577,-1.7252 -3.20555,-2.5878 -5.39935,-2.5878 -2.12994,0 -3.91908,0.852 -5.36741,2.5559 -1.42706,1.6826 -2.14058,4.2066 -2.14057,7.5718"
             style="font-size:65.43121338px;fill:url(#linearGradient7055);font-family:Arial;-inkscape-font-specification:Arial Bold"
             id="path6847"
             inkscape:connector-curvature="0" />
          <path
             d="m -901.06418,1318.4887 -8.14695,-1.4697 c 0.91586,-3.28 2.492,-5.7082 4.72843,-7.2843 2.23641,-1.5761 5.55908,-2.3642 9.96804,-2.3642 4.00423,0 6.98612,0.4792 8.94567,1.4377 1.9595,0.9372 3.3333,2.1406 4.1214,3.6102 0.80934,1.4484 1.21402,4.1214 1.21405,8.0191 l -0.0958,10.4793 c -3e-5,2.9819 0.13841,5.1863 0.41533,6.6134 0.29816,1.4057 0.84129,2.918 1.62939,4.5367 l -8.88177,0 c -0.23432,-0.5964 -0.52186,-1.4803 -0.86262,-2.6518 -0.14912,-0.5324 -0.25562,-0.8839 -0.31949,-1.0543 -1.53357,1.491 -3.1736,2.6092 -4.92012,3.3547 -1.74655,0.7454 -3.61023,1.1182 -5.59105,1.1182 -3.49308,0 -6.25133,-0.9478 -8.27474,-2.8435 -2.00213,-1.8956 -3.0032,-4.2918 -3.00319,-7.1885 -10e-6,-1.9169 0.45793,-3.6208 1.3738,-5.1118 0.91586,-1.5122 2.19381,-2.6624 3.83386,-3.4505 1.66133,-0.8093 4.04684,-1.5122 7.15653,-2.1086 4.19593,-0.788 7.10327,-1.5229 8.72204,-2.2044 l 0,-0.8946 c -3e-5,-1.7252 -0.42601,-2.9499 -1.27796,-3.6741 -0.85199,-0.7455 -2.46008,-1.1182 -4.82427,-1.1182 -1.59746,0 -2.84346,0.3195 -3.73801,0.9584 -0.89458,0.6177 -1.61876,1.7146 -2.17253,3.2908 m 12.01277,7.2843 c -1.15018,0.3834 -2.97127,0.8413 -5.46325,1.3738 -2.49203,0.5325 -4.12142,1.0543 -4.88818,1.5655 -1.17147,0.8307 -1.75719,1.885 -1.75718,3.1629 -10e-6,1.2567 0.46857,2.3429 1.40575,3.2588 0.93715,0.9159 2.1299,1.3738 3.57827,1.3738 1.61872,0 3.16291,-0.5325 4.63258,-1.5974 1.08624,-0.8094 1.79976,-1.7998 2.14057,-2.9713 0.23427,-0.7667 0.35141,-2.2257 0.35144,-4.377 l 0,-1.7891"
             style="font-size:65.43121338px;fill:url(#linearGradient7057);font-family:Arial;-inkscape-font-specification:Arial Bold"
             id="path6849"
             inkscape:connector-curvature="0" />
          <path
             d="m -875.63292,1308.1372 9.55271,0 8.115,24.0895 7.92331,-24.0895 9.29711,0 -11.98081,32.6517 -2.14057,5.9106 c -0.7881,1.9808 -1.54422,3.493 -2.26837,4.5367 -0.70289,1.0437 -1.52291,1.885 -2.46006,2.524 -0.91588,0.6602 -2.05539,1.1714 -3.41853,1.5335 -1.34186,0.3621 -2.86475,0.5431 -4.56868,0.5431 -1.72524,0 -3.41853,-0.181 -5.07986,-0.5431 l -0.79873,-7.0287 c 1.40575,0.2769 2.67305,0.4153 3.80192,0.4153 2.08731,0 3.6315,-0.6177 4.63258,-1.853 1.00105,-1.2141 1.76782,-2.7689 2.30031,-4.6646 l -12.90733,-34.0255"
             style="font-size:65.43121338px;fill:url(#linearGradient7059);font-family:Arial;-inkscape-font-specification:Arial Bold"
             id="path6851"
             inkscape:connector-curvature="0" />
          <path
             d="m -825.66492,1342.0669 -13.6741,-33.9297 9.4249,0 6.38977,17.3163 1.85303,5.7827 c 0.48987,-1.4696 0.7987,-2.4387 0.92652,-2.9073 0.29817,-0.9585 0.61766,-1.9169 0.95846,-2.8754 l 6.45367,-17.3163 9.23321,0 -13.48241,33.9297 -8.08305,0"
             style="font-size:65.43121338px;fill:url(#linearGradient7061);font-family:Arial;-inkscape-font-specification:Arial Bold"
             id="path6853"
             inkscape:connector-curvature="0" />
          <path
             d="m -798.60427,1303.5366 0,-8.3067 8.97762,0 0,8.3067 -8.97762,0 m 0,38.5303 0,-33.9297 8.97762,0 0,33.9297 -8.97762,0"
             style="font-size:65.43121338px;fill:url(#linearGradient7063);font-family:Arial;-inkscape-font-specification:Arial Bold"
             id="path6855"
             inkscape:connector-curvature="0" />
          <path
             d="m -749.30721,1342.0669 -8.33865,0 0,-4.984 c -1.38447,1.9382 -3.02451,3.3866 -4.92012,4.345 -1.87435,0.9372 -3.76998,1.4058 -5.68689,1.4058 -3.89777,0 -7.24175,-1.5655 -10.03194,-4.6965 -2.7689,-3.1523 -4.15335,-7.5399 -4.15334,-13.1629 -1e-5,-5.7508 1.35249,-10.1171 4.0575,-13.0991 2.70499,-3.0031 6.12351,-4.5047 10.25557,-4.5047 3.79124,0 7.07132,1.5761 9.84024,4.7284 l 0,-16.869 8.97763,0 0,46.837 m -23.96163,-17.6997 c -1e-5,3.6209 0.50052,6.2407 1.5016,7.8595 1.44833,2.3429 3.47175,3.5143 6.07027,3.5143 2.06601,0 3.82319,-0.8732 5.27156,-2.6198 1.44832,-1.7678 2.1725,-4.3983 2.17252,-7.8913 -2e-5,-3.8978 -0.7029,-6.6986 -2.10862,-8.4026 -1.40577,-1.7252 -3.20555,-2.5878 -5.39935,-2.5878 -2.12994,0 -3.91908,0.852 -5.36741,2.5559 -1.42706,1.6826 -2.14058,4.2066 -2.14057,7.5718"
             style="font-size:65.43121338px;fill:url(#linearGradient7065);font-family:Arial;-inkscape-font-specification:Arial Bold"
             id="path6857"
             inkscape:connector-curvature="0" />
          <path
             d="m -720.80886,1331.2682 8.94568,1.5016 c -1.15019,3.2801 -2.97128,5.7827 -5.46325,7.508 -2.47074,1.7039 -5.56977,2.5559 -9.29712,2.5559 -5.89989,0 -10.26623,-1.9276 -13.09902,-5.7828 -2.23642,-3.0884 -3.35463,-6.9861 -3.35463,-11.6932 0,-5.623 1.46965,-10.0213 4.40894,-13.1949 2.93929,-3.1949 6.656,-4.7923 11.15015,-4.7923 5.04789,0 9.03084,1.672 11.94886,5.0159 2.91796,3.3227 4.31306,8.4239 4.1853,15.3035 l -22.49198,0 c 0.0639,2.6624 0.78806,4.7391 2.17252,6.23 1.38443,1.4697 3.10967,2.2045 5.17571,2.2045 1.40573,0 2.58784,-0.3834 3.54632,-1.1501 0.95844,-0.7668 1.68262,-2.0022 2.17252,-3.7061 m 0.51118,-9.0735 c -0.0639,-2.5985 -0.73484,-4.5686 -2.01277,-5.9105 -1.27798,-1.3631 -2.83282,-2.0447 -4.66453,-2.0447 -1.95955,0 -3.57829,0.7135 -4.85623,2.1405 -1.27796,1.4271 -1.90629,3.3653 -1.88498,5.8147 l 13.41851,0"
             style="font-size:65.43121338px;fill:url(#linearGradient7067);font-family:Arial;-inkscape-font-specification:Arial Bold"
             id="path6859"
             inkscape:connector-curvature="0" />
          <path
             d="m -706.14436,1324.6228 c 0,-2.9818 0.73482,-5.8679 2.20447,-8.6581 1.46964,-2.7902 3.54632,-4.9201 6.23003,-6.3898 2.70498,-1.4696 5.71882,-2.2044 9.04152,-2.2044 5.13308,0 9.33968,1.672 12.61979,5.0159 3.28004,3.3227 4.92008,7.5293 4.92012,12.6198 -4e-5,5.1331 -1.66138,9.393 -4.98402,12.7796 -3.30141,3.3652 -7.4654,5.0479 -12.492,5.0479 -3.1097,0 -6.08094,-0.7029 -8.91372,-2.1087 -2.81151,-1.4057 -4.95208,-3.4611 -6.42172,-6.1661 -1.46965,-2.7263 -2.20447,-6.0383 -2.20447,-9.9361 m 9.20127,0.4793 c -10e-6,3.3653 0.79871,5.9425 2.39616,7.7316 1.59743,1.7891 3.5676,2.6837 5.91054,2.6837 2.34289,0 4.30241,-0.8946 5.87858,-2.6837 1.59742,-1.7891 2.39614,-4.3876 2.39616,-7.7955 -2e-5,-3.3227 -0.79874,-5.8786 -2.39616,-7.6678 -1.57617,-1.7891 -3.53569,-2.6836 -5.87858,-2.6837 -2.34294,10e-5 -4.31311,0.8946 -5.91054,2.6837 -1.59745,1.7892 -2.39617,4.3664 -2.39616,7.7317"
             style="font-size:65.43121338px;fill:url(#linearGradient7069);font-family:Arial;-inkscape-font-specification:Arial Bold"
             id="path6861"
             inkscape:connector-curvature="0" />
          <path
             d="m -664.09966,1342.0669 0,-8.9776 8.97762,0 0,8.9776 -8.97762,0"
             style="font-size:65.43121338px;fill:url(#linearGradient7071);font-family:Arial;-inkscape-font-specification:Arial Bold"
             id="path6863"
             inkscape:connector-curvature="0" />
          <path
             d="m -616.33615,1318.1692 -8.84983,1.5974 c -0.29821,-1.7678 -0.97978,-3.099 -2.04472,-3.9936 -1.04369,-0.8945 -2.40683,-1.3418 -4.08945,-1.3418 -2.23644,0 -4.02557,0.7774 -5.36741,2.3322 -1.32056,1.5336 -1.98084,4.1108 -1.98082,7.7316 -2e-5,4.0256 0.67091,6.869 2.01277,8.5304 1.36314,1.6613 3.18422,2.492 5.46325,2.492 1.70392,0 3.09902,-0.4792 4.1853,-1.4377 1.08624,-0.9798 1.85301,-2.6518 2.30032,-5.016 l 8.81787,1.5016 c -0.9159,4.0469 -2.67308,7.1033 -5.27155,9.1693 -2.59854,2.0661 -6.08095,3.0991 -10.44727,3.0991 -4.96273,0 -8.92439,-1.5655 -11.88497,-4.6965 -2.9393,-3.131 -4.40894,-7.4654 -4.40894,-13.0032 0,-5.6017 1.48029,-9.9573 4.44089,-13.0671 2.96058,-3.1309 6.96483,-4.6964 12.01276,-4.6964 4.13203,0 7.41211,0.8946 9.84024,2.6837 2.44938,1.7678 4.20657,4.4728 5.27156,8.115"
             style="font-size:65.43121338px;fill:url(#linearGradient7073);font-family:Arial;-inkscape-font-specification:Arial Bold"
             id="path6865"
             inkscape:connector-curvature="0" />
          <path
             d="m -611.60773,1324.6228 c -1e-5,-2.9818 0.73482,-5.8679 2.20446,-8.6581 1.46965,-2.7902 3.54632,-4.9201 6.23003,-6.3898 2.70499,-1.4696 5.71882,-2.2044 9.04152,-2.2044 5.13309,0 9.33968,1.672 12.61979,5.0159 3.28004,3.3227 4.92008,7.5293 4.92012,12.6198 -4e-5,5.1331 -1.66138,9.393 -4.98402,12.7796 -3.30141,3.3652 -7.4654,5.0479 -12.49199,5.0479 -3.10971,0 -6.08095,-0.7029 -8.91373,-2.1087 -2.81151,-1.4057 -4.95207,-3.4611 -6.42172,-6.1661 -1.46964,-2.7263 -2.20447,-6.0383 -2.20446,-9.9361 m 9.20126,0.4793 c -10e-6,3.3653 0.79871,5.9425 2.39616,7.7316 1.59743,1.7891 3.5676,2.6837 5.91054,2.6837 2.34289,0 4.30242,-0.8946 5.87858,-2.6837 1.59742,-1.7891 2.39614,-4.3876 2.39616,-7.7955 -2e-5,-3.3227 -0.79874,-5.8786 -2.39616,-7.6678 -1.57616,-1.7891 -3.53569,-2.6836 -5.87858,-2.6837 -2.34294,10e-5 -4.31311,0.8946 -5.91054,2.6837 -1.59745,1.7892 -2.39617,4.3664 -2.39616,7.7317"
             style="font-size:65.43121338px;fill:url(#linearGradient7075);font-family:Arial;-inkscape-font-specification:Arial Bold"
             id="path6867"
             inkscape:connector-curvature="0" />
          <path
             d="m -570.23403,1308.1372 8.27475,0 0,4.6326 c 2.96058,-3.5995 6.48559,-5.3993 10.57506,-5.3993 2.1725,0 4.05748,0.4473 5.65495,1.3418 1.59741,0.8946 2.90731,2.2471 3.9297,4.0575 1.49092,-1.8104 3.099,-3.1629 4.82428,-4.0575 1.7252,-0.8945 3.56758,-1.3418 5.52715,-1.3418 2.49196,0 4.60058,0.5112 6.32587,1.5335 1.72518,1.0011 3.01378,2.4814 3.8658,4.4409 0.61763,1.4484 0.92647,3.7913 0.92652,7.0287 l 0,21.6933 -8.97762,0 0,-19.3929 c -5e-5,-3.3653 -0.30889,-5.5378 -0.92652,-6.5176 -0.83071,-1.2779 -2.10866,-1.9169 -3.83386,-1.9169 -1.25669,0 -2.4388,0.3834 -3.54632,1.1501 -1.10759,0.7668 -1.90631,1.8957 -2.39616,3.3866 -0.48992,1.4697 -0.73486,3.8019 -0.73482,6.9968 l 0,16.2939 -8.97763,0 0,-18.5942 c -2e-5,-3.3014 -0.15977,-5.4313 -0.47923,-6.3898 -0.31951,-0.9584 -0.82004,-1.672 -1.5016,-2.1406 -0.66029,-0.4685 -1.56551,-0.7028 -2.71565,-0.7028 -1.38446,0 -2.63047,0.3727 -3.73801,1.1182 -1.10757,0.7455 -1.90629,1.8211 -2.39616,3.2268 -0.4686,1.4058 -0.70289,3.738 -0.70288,6.9968 l 0,16.4856 -8.97762,0 0,-33.9297"
             style="font-size:65.43121338px;fill:url(#linearGradient7077);font-family:Arial;-inkscape-font-specification:Arial Bold"
             id="path6869"
             inkscape:connector-curvature="0" />
        </g>
        <g
           transform="scale(1.0029245,0.99708403)"
           style="font-size:43.6997757px;font-style:normal;font-variant:normal;font-weight:normal;font-stretch:condensed;line-height:125%;letter-spacing:0px;word-spacing:0px;fill:#ff6600;fill-opacity:1;stroke:none;font-family:Arial Narrow;-inkscape-font-specification:Arial Narrow Condensed"
           id="text3225">
          <path
             d="m -1192.2065,1469.616 0,-22.6608 3.4567,0 0,3.4354 c 0.882,-1.6074 1.6928,-2.6672 2.4325,-3.1793 0.7539,-0.5121 1.579,-0.7681 2.4752,-0.7682 1.2945,10e-5 2.6103,0.4126 3.9475,1.2376 l -1.323,3.5634 c -0.9388,-0.5547 -1.8777,-0.8321 -2.8165,-0.8321 -0.8393,0 -1.5933,0.256 -2.2618,0.7681 -0.6686,0.4979 -1.1452,1.195 -1.4297,2.0911 -0.4267,1.3657 -0.6401,2.8593 -0.6401,4.481 l 0,11.8638 -3.8408,0"
             style="font-stretch:normal;fill:#ff6600;font-family:Arial;-inkscape-font-specification:Arial"
             id="path6872"
             inkscape:connector-curvature="0" />
          <path
             d="m -1162.0989,1462.3184 3.9688,0.4908 c -0.6259,2.3187 -1.7853,4.1182 -3.478,5.3985 -1.6928,1.2802 -3.8551,1.9204 -6.4867,1.9204 -3.3145,0 -5.9462,-1.0171 -7.895,-3.0513 -1.9346,-2.0485 -2.9019,-4.9148 -2.9019,-8.5992 0,-3.8123 0.9815,-6.7711 2.9446,-8.8765 1.963,-2.1053 4.5094,-3.1579 7.6389,-3.158 3.03,10e-5 5.5051,1.0314 7.4256,3.094 1.9203,2.0627 2.8805,4.9646 2.8806,8.7058 -10e-5,0.2276 -0.01,0.569 -0.021,1.0242 l -16.8995,0 c 0.1422,2.4895 0.8464,4.3956 2.1124,5.7186 1.2661,1.3229 2.8451,1.9844 4.737,1.9844 1.4083,0 2.6103,-0.3699 3.6061,-1.1096 0.9958,-0.7397 1.7852,-1.9204 2.3685,-3.5421 m -12.6106,-6.2092 12.6533,0 c -0.1707,-1.9062 -0.6544,-3.3358 -1.451,-4.2889 -1.2234,-1.4794 -2.8095,-2.2192 -4.7583,-2.2192 -1.764,0 -3.2505,0.5904 -4.4596,1.7711 -1.1949,1.1807 -1.8564,2.7597 -1.9844,4.737"
             style="font-stretch:normal;fill:#ff6600;font-family:Arial;-inkscape-font-specification:Arial"
             id="path6874"
             inkscape:connector-curvature="0" />
          <path
             d="m -1138.5207,1461.3156 3.7768,0.4907 c -0.4125,2.6033 -1.4723,4.6446 -3.1793,6.124 -1.6928,1.4652 -3.7768,2.1978 -6.252,2.1978 -3.1011,0 -5.5976,-1.01 -7.4895,-3.03 -1.8778,-2.0342 -2.8166,-4.9432 -2.8166,-8.7271 0,-2.4468 0.4054,-4.5877 1.2162,-6.4227 0.8109,-1.835 2.0414,-3.2078 3.6915,-4.1182 1.6643,-0.9246 3.4709,-1.3869 5.4198,-1.387 2.4609,10e-5 4.4738,0.626 6.0386,1.8778 1.5647,1.2376 2.5676,3.0015 3.0086,5.2917 l -3.7341,0.5762 c -0.3557,-1.5221 -0.9887,-2.6673 -1.8991,-3.4354 -0.8962,-0.7682 -1.9844,-1.1523 -3.2647,-1.1523 -1.9346,0 -3.5065,0.6971 -4.7156,2.0911 -1.2092,1.3799 -1.8137,3.5706 -1.8137,6.5721 0,3.0442 0.5832,5.2562 1.7497,6.636 1.1664,1.3799 2.6885,2.0698 4.5663,2.0698 1.5078,0 2.7667,-0.4623 3.7767,-1.387 1.01,-0.9246 1.6502,-2.3471 1.9204,-4.2675"
             style="font-stretch:normal;fill:#ff6600;font-family:Arial;-inkscape-font-specification:Arial"
             id="path6876"
             inkscape:connector-curvature="0" />
          <path
             d="m -1132.8875,1458.2856 c 0,-4.1964 1.1665,-7.3046 3.4994,-9.3246 1.9489,-1.6786 4.3245,-2.5178 7.1268,-2.5179 3.1153,10e-5 5.6616,1.0243 7.639,3.0727 1.9772,2.0342 2.9659,4.8508 2.9659,8.4497 0,2.9162 -0.441,5.2136 -1.3229,6.8921 -0.8678,1.6644 -2.1409,2.9589 -3.8195,3.8835 -1.6644,0.9247 -3.4852,1.387 -5.4625,1.387 -3.1722,0 -5.7398,-1.0171 -7.7029,-3.0513 -1.9489,-2.0342 -2.9233,-4.9646 -2.9233,-8.7912 m 3.9475,0 c 0,2.902 0.633,5.0784 1.8991,6.5294 1.266,1.4367 2.8592,2.1551 4.7796,2.1551 1.9062,0 3.4923,-0.7255 4.7584,-2.1765 1.266,-1.4509 1.899,-3.6629 1.899,-6.636 0,-2.8024 -0.6401,-4.9219 -1.9204,-6.3587 -1.266,-1.4509 -2.845,-2.1764 -4.737,-2.1764 -1.9204,0 -3.5136,0.7184 -4.7796,2.1551 -1.2661,1.4367 -1.8991,3.6061 -1.8991,6.508"
             style="font-stretch:normal;fill:#ff6600;font-family:Arial;-inkscape-font-specification:Arial"
             id="path6878"
             inkscape:connector-curvature="0" />
          <path
             d="m -1107.1968,1469.616 0,-22.6608 3.4567,0 0,3.4354 c 0.882,-1.6074 1.6928,-2.6672 2.4325,-3.1793 0.754,-0.5121 1.579,-0.7681 2.4752,-0.7682 1.2945,10e-5 2.6103,0.4126 3.9475,1.2376 l -1.3229,3.5634 c -0.9389,-0.5547 -1.8778,-0.8321 -2.8166,-0.8321 -0.8393,0 -1.5932,0.256 -2.2618,0.7681 -0.6686,0.4979 -1.1452,1.195 -1.4297,2.0911 -0.4267,1.3657 -0.6401,2.8593 -0.6401,4.481 l 0,11.8638 -3.8408,0"
             style="font-stretch:normal;fill:#ff6600;font-family:Arial;-inkscape-font-specification:Arial"
             id="path6880"
             inkscape:connector-curvature="0" />
          <path
             d="m -1077.9,1469.616 0,-2.8593 c -1.4368,2.2476 -3.5492,3.3714 -6.3373,3.3714 -1.8066,0 -3.471,-0.4979 -4.9931,-1.4937 -1.5079,-0.9957 -2.6814,-2.3827 -3.5207,-4.1608 -0.8251,-1.7924 -1.2376,-3.8479 -1.2376,-6.1667 0,-2.2617 0.377,-4.3102 1.1309,-6.1452 0.7539,-1.8493 1.8848,-3.2647 3.3927,-4.2463 1.5079,-0.9815 3.1936,-1.4722 5.0571,-1.4723 1.3656,10e-5 2.5818,0.2917 3.6487,0.8749 1.0669,0.569 1.9346,1.3158 2.6032,2.2405 l 0,-11.2237 3.8195,0 0,31.2812 -3.5634,0 m -12.1412,-11.3091 c 0,2.902 0.6117,5.0713 1.835,6.5081 1.2234,1.4367 2.6673,2.1551 4.3316,2.1551 1.6786,0 3.1011,-0.6828 4.2676,-2.0484 1.1806,-1.3799 1.771,-3.4781 1.771,-6.2947 0,-3.1011 -0.5975,-5.3771 -1.7924,-6.8281 -1.1949,-1.4509 -2.6672,-2.1764 -4.4169,-2.1764 -1.707,0 -3.1367,0.697 -4.2889,2.0911 -1.138,1.3941 -1.707,3.5918 -1.707,6.5933"
             style="font-stretch:normal;fill:#ff6600;font-family:Arial;-inkscape-font-specification:Arial"
             id="path6882"
             inkscape:connector-curvature="0" />
          <path
             d="m -1047.7711,1466.1806 0.5548,3.3927 c -1.0811,0.2276 -2.0484,0.3414 -2.9019,0.3414 -1.3941,0 -2.4752,-0.2205 -3.2434,-0.6615 -0.7681,-0.441 -1.3087,-1.0171 -1.6216,-1.7283 -0.313,-0.7255 -0.4695,-2.2405 -0.4695,-4.545 l 0,-13.0374 -2.8166,0 0,-2.9873 2.8166,0 0,-5.6118 3.8195,-2.3045 0,7.9163 3.8621,0 0,2.9873 -3.8621,0 0,13.2508 c 0,1.0953 0.064,1.7995 0.192,2.1124 0.1423,0.313 0.3628,0.5619 0.6615,0.7469 0.313,0.1849 0.7539,0.2774 1.3229,0.2773 0.4268,10e-5 0.9887,-0.05 1.6857,-0.1493"
             style="font-stretch:normal;fill:#ff6600;font-family:Arial;-inkscape-font-specification:Arial"
             id="path6884"
             inkscape:connector-curvature="0" />
          <path
             d="m -1045.4453,1458.2856 c 0,-4.1964 1.1665,-7.3046 3.4994,-9.3246 1.9489,-1.6786 4.3245,-2.5178 7.1269,-2.5179 3.1153,10e-5 5.6616,1.0243 7.6389,3.0727 1.9773,2.0342 2.9659,4.8508 2.9659,8.4497 0,2.9162 -0.441,5.2136 -1.3229,6.8921 -0.8678,1.6644 -2.1409,2.9589 -3.8195,3.8835 -1.6643,0.9247 -3.4852,1.387 -5.4624,1.387 -3.1723,0 -5.7399,-1.0171 -7.703,-3.0513 -1.9488,-2.0342 -2.9233,-4.9646 -2.9233,-8.7912 m 3.9475,0 c 0,2.902 0.633,5.0784 1.8991,6.5294 1.266,1.4367 2.8592,2.1551 4.7797,2.1551 1.9061,0 3.4922,-0.7255 4.7583,-2.1765 1.266,-1.4509 1.899,-3.6629 1.899,-6.636 0,-2.8024 -0.6401,-4.9219 -1.9204,-6.3587 -1.266,-1.4509 -2.845,-2.1764 -4.7369,-2.1764 -1.9205,0 -3.5137,0.7184 -4.7797,2.1551 -1.2661,1.4367 -1.8991,3.6061 -1.8991,6.508"
             style="font-stretch:normal;fill:#ff6600;font-family:Arial;-inkscape-font-specification:Arial"
             id="path6886"
             inkscape:connector-curvature="0" />
          <path
             d="m -1005.0102,1469.616 0,-2.8593 c -1.4367,2.2476 -3.5492,3.3714 -6.3373,3.3714 -1.8066,0 -3.4709,-0.4979 -4.993,-1.4937 -1.5079,-0.9957 -2.6815,-2.3827 -3.5208,-4.1608 -0.825,-1.7924 -1.2376,-3.8479 -1.2376,-6.1667 0,-2.2617 0.377,-4.3102 1.1309,-6.1452 0.754,-1.8493 1.8849,-3.2647 3.3928,-4.2463 1.5078,-0.9815 3.1935,-1.4722 5.057,-1.4723 1.3656,10e-5 2.5819,0.2917 3.6488,0.8749 1.0668,0.569 1.9346,1.3158 2.6032,2.2405 l 0,-11.2237 3.8194,0 0,31.2812 -3.5634,0 m -12.1412,-11.3091 c 0,2.902 0.6117,5.0713 1.8351,6.5081 1.2233,1.4367 2.6672,2.1551 4.3316,2.1551 1.6785,0 3.101,-0.6828 4.2675,-2.0484 1.1807,-1.3799 1.771,-3.4781 1.771,-6.2947 0,-3.1011 -0.5974,-5.3771 -1.7923,-6.8281 -1.195,-1.4509 -2.6673,-2.1764 -4.4169,-2.1764 -1.7071,0 -3.1367,0.697 -4.2889,2.0911 -1.1381,1.3941 -1.7071,3.5918 -1.7071,6.5933"
             style="font-stretch:normal;fill:#ff6600;font-family:Arial;-inkscape-font-specification:Arial"
             id="path6888"
             inkscape:connector-curvature="0" />
          <path
             d="m -980.62107,1466.8207 c -1.42254,1.2092 -2.79527,2.0627 -4.1182,2.5606 -1.30873,0.4978 -2.71702,0.7468 -4.22488,0.7468 -2.48941,0 -4.4027,-0.6046 -5.73986,-1.8137 -1.33717,-1.2234 -2.00575,-2.7811 -2.00575,-4.673 0,-1.1096 0.24894,-2.1196 0.74682,-3.03 0.5121,-0.9246 1.17358,-1.6643 1.98441,-2.2191 0.82506,-0.5548 1.7497,-0.9744 2.77392,-1.2589 0.75392,-0.1992 1.89194,-0.3912 3.41404,-0.5762 3.10108,-0.3698 5.38422,-0.8108 6.84943,-1.3229 0.0142,-0.5263 0.0213,-0.8606 0.0213,-1.0029 -2e-5,-1.5647 -0.36276,-2.6672 -1.08823,-3.3073 -0.98155,-0.8677 -2.43963,-1.3016 -4.37425,-1.3016 -1.8066,0 -3.14377,0.3201 -4.0115,0.9602 -0.85352,0.6259 -1.48654,1.7426 -1.89906,3.35 l -3.75545,-0.5121 c 0.3414,-1.6074 0.9033,-2.9019 1.68568,-3.8835 0.78238,-0.9957 1.91329,-1.7568 3.39271,-2.2831 1.47941,-0.5406 3.19355,-0.8108 5.14241,-0.8109 1.93461,10e-5 3.50649,0.2277 4.71565,0.6828 1.20912,0.4553 2.09819,1.0314 2.66722,1.7284 0.56899,0.6828 0.96729,1.5506 1.19491,2.6032 0.12801,0.6544 0.19202,1.8351 0.19204,3.5421 l 0,5.1211 c -2e-5,3.5705 0.0782,5.8323 0.23472,6.7854 0.17068,0.9388 0.49786,1.8421 0.98154,2.7099 l -4.0115,0 c -0.39833,-0.7966 -0.65438,-1.7284 -0.76816,-2.7953 m -0.32007,-8.5778 c -1.39409,0.569 -3.48519,1.0527 -6.27331,1.451 -1.579,0.2276 -2.69568,0.4837 -3.35003,0.7682 -0.65437,0.2845 -1.15936,0.7041 -1.51498,1.2589 -0.35564,0.5406 -0.53345,1.1451 -0.53345,1.8137 0,1.0242 0.38408,1.8777 1.15224,2.5605 0.78238,0.6828 1.92039,1.0242 3.41405,1.0242 1.47941,0 2.79523,-0.32 3.94749,-0.9602 1.15222,-0.6543 1.99862,-1.5434 2.53919,-2.6672 0.41252,-0.8677 0.61878,-2.148 0.6188,-3.8408 l 0,-1.4083"
             style="font-stretch:normal;fill:#ff6600;font-family:Arial;-inkscape-font-specification:Arial"
             id="path6890"
             inkscape:connector-curvature="0" />
          <path
             d="m -971.27513,1478.3431 -0.42676,-3.6061 c 0.83928,0.2276 1.57188,0.3414 2.19779,0.3414 0.85351,0 1.53632,-0.1422 2.04843,-0.4267 0.5121,-0.2845 0.93174,-0.6828 1.25893,-1.1949 0.24182,-0.3841 0.63301,-1.3372 1.17358,-2.8593 0.0711,-0.2134 0.18492,-0.5263 0.3414,-0.9389 l -8.59912,-22.7034 4.13953,0 4.71564,13.1228 c 0.61168,1.6643 1.15935,3.414 1.64301,5.2491 0.44097,-1.7639 0.9673,-3.4852 1.579,-5.1638 l 4.84368,-13.2081 3.8408,0 -8.62047,23.0448 c -0.92465,2.4895 -1.64302,4.2036 -2.15511,5.1425 -0.68282,1.266 -1.46521,2.1906 -2.34716,2.7739 -0.88197,0.5974 -1.93463,0.8961 -3.15799,0.8962 -0.73971,-10e-5 -1.56477,-0.1565 -2.47518,-0.4695"
             style="font-stretch:normal;fill:#ff6600;font-family:Arial;-inkscape-font-specification:Arial"
             id="path6892"
             inkscape:connector-curvature="0" />
          <path
             d="m -951.495,1469.616 0,-4.3743 4.37424,0 0,4.3743 c -10e-6,1.6074 -0.28451,2.9019 -0.85351,3.8834 -0.56901,0.9958 -1.47231,1.764 -2.7099,2.3045 l -1.06689,-1.643 c 0.81084,-0.3556 1.40829,-0.882 1.79238,-1.579 0.38407,-0.6828 0.59745,-1.6714 0.64013,-2.9659 l -2.17645,0"
             style="font-stretch:normal;fill:#ff6600;font-family:Arial;-inkscape-font-specification:Arial"
             id="path6894"
             inkscape:connector-curvature="0" />
          <path
             d="m -924.03329,1469.616 -6.93478,-22.6608 3.96882,0 3.60609,13.0801 1.34428,4.865 c 0.0569,-0.2418 0.44808,-1.7995 1.17358,-4.673 l 3.60608,-13.2721 3.94749,0 3.39271,13.1441 1.1309,4.3316 1.30161,-4.3743 3.88347,-13.1014 3.73411,0 -7.08414,22.6608 -3.99016,0 -3.60609,-13.5709 -0.87485,-3.8621 -4.58762,17.433 -4.0115,0"
             style="font-stretch:normal;fill:#ff6600;font-family:Arial;-inkscape-font-specification:Arial"
             id="path6896"
             inkscape:connector-curvature="0" />
          <path
             d="m -881.86982,1466.8207 c -1.42254,1.2092 -2.79527,2.0627 -4.1182,2.5606 -1.30872,0.4978 -2.71702,0.7468 -4.22488,0.7468 -2.48941,0 -4.4027,-0.6046 -5.73986,-1.8137 -1.33717,-1.2234 -2.00575,-2.7811 -2.00575,-4.673 0,-1.1096 0.24894,-2.1196 0.74682,-3.03 0.51211,-0.9246 1.17358,-1.6643 1.98442,-2.2191 0.82505,-0.5548 1.74969,-0.9744 2.77391,-1.2589 0.75392,-0.1992 1.89194,-0.3912 3.41404,-0.5762 3.10108,-0.3698 5.38422,-0.8108 6.84943,-1.3229 0.0142,-0.5263 0.0213,-0.8606 0.0213,-1.0029 -2e-5,-1.5647 -0.36276,-2.6672 -1.08823,-3.3073 -0.98155,-0.8677 -2.43963,-1.3016 -4.37424,-1.3016 -1.80661,0 -3.14378,0.3201 -4.01151,0.9602 -0.85352,0.6259 -1.48654,1.7426 -1.89906,3.35 l -3.75545,-0.5121 c 0.3414,-1.6074 0.9033,-2.9019 1.68569,-3.8835 0.78238,-0.9957 1.91328,-1.7568 3.3927,-2.2831 1.47941,-0.5406 3.19355,-0.8108 5.14241,-0.8109 1.93461,10e-5 3.50649,0.2277 4.71565,0.6828 1.20912,0.4553 2.09819,1.0314 2.66722,1.7284 0.56899,0.6828 0.96729,1.5506 1.19492,2.6032 0.128,0.6544 0.19201,1.8351 0.19204,3.5421 l 0,5.1211 c -3e-5,3.5705 0.0782,5.8323 0.23471,6.7854 0.17068,0.9388 0.49786,1.8421 0.98154,2.7099 l -4.0115,0 c -0.39833,-0.7966 -0.65438,-1.7284 -0.76816,-2.7953 m -0.32007,-8.5778 c -1.39408,0.569 -3.48518,1.0527 -6.27331,1.451 -1.579,0.2276 -2.69568,0.4837 -3.35003,0.7682 -0.65437,0.2845 -1.15936,0.7041 -1.51498,1.2589 -0.35564,0.5406 -0.53345,1.1451 -0.53345,1.8137 0,1.0242 0.38408,1.8777 1.15224,2.5605 0.78238,0.6828 1.9204,1.0242 3.41405,1.0242 1.47941,0 2.79524,-0.32 3.94749,-0.9602 1.15222,-0.6543 1.99862,-1.5434 2.53919,-2.6672 0.41252,-0.8677 0.61878,-2.148 0.6188,-3.8408 l 0,-1.4083"
             style="font-stretch:normal;fill:#ff6600;font-family:Arial;-inkscape-font-specification:Arial"
             id="path6898"
             inkscape:connector-curvature="0" />
          <path
             d="m -863.96742,1466.1806 0.55479,3.3927 c -1.08113,0.2276 -2.04844,0.3414 -2.90194,0.3414 -1.39408,0 -2.47519,-0.2205 -3.24334,-0.6615 -0.76817,-0.441 -1.30873,-1.0171 -1.62168,-1.7283 -0.31295,-0.7255 -0.46943,-2.2405 -0.46943,-4.545 l 0,-13.0374 -2.81658,0 0,-2.9873 2.81658,0 0,-5.6118 3.81947,-2.3045 0,7.9163 3.86213,0 0,2.9873 -3.86213,0 0,13.2508 c -10e-6,1.0953 0.064,1.7995 0.19204,2.1124 0.14224,0.313 0.36273,0.5619 0.66147,0.7469 0.31294,0.1849 0.75392,0.2774 1.32294,0.2773 0.42674,10e-5 0.98864,-0.05 1.68568,-0.1493"
             style="font-stretch:normal;fill:#ff6600;font-family:Arial;-inkscape-font-specification:Arial"
             id="path6900"
             inkscape:connector-curvature="0" />
          <path
             d="m -845.42491,1461.3156 3.77679,0.4907 c -0.41255,2.6033 -1.47233,4.6446 -3.17933,6.124 -1.69281,1.4652 -3.7768,2.1978 -6.25197,2.1978 -3.1011,0 -5.59762,-1.01 -7.48956,-3.03 -1.87773,-2.0342 -2.81659,-4.9432 -2.81659,-8.7271 0,-2.4468 0.40542,-4.5877 1.21626,-6.4227 0.81083,-1.835 2.04131,-3.2078 3.69143,-4.1182 1.66434,-0.9246 3.47094,-1.3869 5.4198,-1.387 2.46094,10e-5 4.4738,0.626 6.03859,1.8778 1.56475,1.2376 2.56763,3.0015 3.00863,5.2917 l -3.73411,0.5762 c -0.35565,-1.5221 -0.98867,-2.6673 -1.89907,-3.4354 -0.8962,-0.7682 -1.98442,-1.1523 -3.26468,-1.1523 -1.93463,0 -3.50651,0.6971 -4.71565,2.0911 -1.20914,1.3799 -1.81371,3.5706 -1.81371,6.5721 0,3.0442 0.58323,5.2562 1.7497,6.636 1.16646,1.3799 2.68855,2.0698 4.56628,2.0698 1.50786,0 2.76679,-0.4623 3.77679,-1.387 1.00997,-0.9246 1.65011,-2.3471 1.9204,-4.2675"
             style="font-stretch:normal;fill:#ff6600;font-family:Arial;-inkscape-font-specification:Arial"
             id="path6902"
             inkscape:connector-curvature="0" />
          <path
             d="m -838.36211,1469.616 0,-31.2812 3.8408,0 0,11.2237 c 1.79237,-2.0769 4.05417,-3.1153 6.78542,-3.1154 1.67856,10e-5 3.13664,0.3344 4.37424,1.0029 1.23758,0.6544 2.11954,1.5648 2.64589,2.7312 0.54054,1.1665 0.81081,2.8593 0.81083,5.0784 l 0,14.3604 -3.8408,0 0,-14.3604 c -10e-6,-1.9203 -0.41966,-3.3144 -1.25892,-4.1822 -0.82508,-0.8819 -1.99866,-1.3229 -3.52074,-1.3229 -1.13803,0 -2.21203,0.2987 -3.222,0.8962 -0.99578,0.5832 -1.70703,1.3798 -2.13378,2.3898 -0.42676,1.01 -0.64014,2.4041 -0.64014,4.1822 l 0,12.3973 -3.8408,0"
             style="font-stretch:normal;fill:#ff6600;font-family:Arial;-inkscape-font-specification:Arial"
             id="path6904"
             inkscape:connector-curvature="0" />
          <path
             d="m -803.34679,1458.2856 c 0,-4.1964 1.16646,-7.3046 3.4994,-9.3246 1.94884,-1.6786 4.32444,-2.5178 7.12681,-2.5179 3.1153,10e-5 5.66161,1.0243 7.63893,3.0727 1.97728,2.0342 2.96593,4.8508 2.96595,8.4497 -2e-5,2.9162 -0.441,5.2136 -1.32294,6.8921 -0.86776,1.6644 -2.14091,2.9589 -3.81946,3.8835 -1.66437,0.9247 -3.48519,1.387 -5.46248,1.387 -3.17222,0 -5.73987,-1.0171 -7.70293,-3.0513 -1.94886,-2.0342 -2.92328,-4.9646 -2.92328,-8.7912 m 3.94749,0 c -10e-6,2.902 0.63301,5.0784 1.89906,6.5294 1.26603,1.4367 2.85925,2.1551 4.77966,2.1551 1.90617,0 3.49227,-0.7255 4.75833,-2.1765 1.26602,-1.4509 1.89904,-3.6629 1.89906,-6.636 -2e-5,-2.8024 -0.64015,-4.9219 -1.9204,-6.3587 -1.26606,-1.4509 -2.84505,-2.1764 -4.73699,-2.1764 -1.92041,0 -3.51363,0.7184 -4.77966,2.1551 -1.26605,1.4367 -1.89907,3.6061 -1.89906,6.508"
             style="font-stretch:normal;fill:#ff6600;font-family:Arial;-inkscape-font-specification:Arial"
             id="path6906"
             inkscape:connector-curvature="0" />
          <path
             d="m -777.61342,1469.616 0,-22.6608 3.45672,0 0,3.222 c 1.66434,-2.4893 4.0684,-3.734 7.21217,-3.7341 1.36561,10e-5 2.61742,0.249 3.75545,0.7469 1.15222,0.4836 2.01285,1.1238 2.58187,1.9204 0.56899,0.7966 0.9673,1.7426 1.19492,2.8379 0.14223,0.7113 0.21336,1.956 0.21338,3.7341 l 0,13.9336 -3.8408,0 0,-13.7842 c -2e-5,-1.5648 -0.14939,-2.7313 -0.4481,-3.4994 -0.29874,-0.7824 -0.83219,-1.4012 -1.60033,-1.8564 -0.75395,-0.4694 -1.64302,-0.7041 -2.66722,-0.7042 -1.63591,10e-5 -3.05132,0.5193 -4.24622,1.5577 -1.1807,1.0384 -1.77104,3.0086 -1.77104,5.9106 l 0,12.3759 -3.8408,0"
             style="font-stretch:normal;fill:#ff6600;font-family:Arial;-inkscape-font-specification:Arial"
             id="path6908"
             inkscape:connector-curvature="0" />
          <path
             d="m -753.39506,1469.616 0,-31.2812 3.8408,0 0,31.2812 -3.8408,0"
             style="font-stretch:normal;fill:#ff6600;font-family:Arial;-inkscape-font-specification:Arial"
             id="path6910"
             inkscape:connector-curvature="0" />
          <path
             d="m -743.57966,1442.7517 0,-4.4169 3.8408,0 0,4.4169 -3.8408,0 m 0,26.8643 0,-22.6608 3.8408,0 0,22.6608 -3.8408,0"
             style="font-stretch:normal;fill:#ff6600;font-family:Arial;-inkscape-font-specification:Arial"
             id="path6912"
             inkscape:connector-curvature="0" />
          <path
             d="m -733.89232,1469.616 0,-22.6608 3.45672,0 0,3.222 c 1.66434,-2.4893 4.0684,-3.734 7.21217,-3.7341 1.36561,10e-5 2.61742,0.249 3.75545,0.7469 1.15222,0.4836 2.01285,1.1238 2.58187,1.9204 0.56899,0.7966 0.9673,1.7426 1.19492,2.8379 0.14223,0.7113 0.21336,1.956 0.21338,3.7341 l 0,13.9336 -3.8408,0 0,-13.7842 c -2e-5,-1.5648 -0.14939,-2.7313 -0.4481,-3.4994 -0.29874,-0.7824 -0.83219,-1.4012 -1.60033,-1.8564 -0.75395,-0.4694 -1.64302,-0.7041 -2.66722,-0.7042 -1.63591,10e-5 -3.05132,0.5193 -4.24622,1.5577 -1.1807,1.0384 -1.77104,3.0086 -1.77104,5.9106 l 0,12.3759 -3.8408,0"
             style="font-stretch:normal;fill:#ff6600;font-family:Arial;-inkscape-font-specification:Arial"
             id="path6914"
             inkscape:connector-curvature="0" />
          <path
             d="m -694.07601,1462.3184 3.96883,0.4908 c -0.62593,2.3187 -1.78528,4.1182 -3.47806,5.3985 -1.69282,1.2802 -3.85504,1.9204 -6.48669,1.9204 -3.31447,0 -5.94613,-1.0171 -7.89498,-3.0513 -1.93462,-2.0485 -2.90194,-4.9148 -2.90193,-8.5992 -10e-6,-3.8123 0.98153,-6.7711 2.94461,-8.8765 1.96307,-2.1053 4.50938,-3.1579 7.63893,-3.158 3.02995,10e-5 5.50513,1.0314 7.42554,3.094 1.92038,2.0627 2.88058,4.9646 2.8806,8.7058 -2e-5,0.2276 -0.007,0.569 -0.0213,1.0242 l -16.89953,0 c 0.14225,2.4895 0.8464,4.3956 2.11244,5.7186 1.26604,1.3229 2.84503,1.9844 4.73699,1.9844 1.40828,0 2.61031,-0.3699 3.60609,-1.1096 0.99574,-0.7397 1.78524,-1.9204 2.36849,-3.5421 m -12.61063,-6.2092 12.65331,0 c -0.17072,-1.9062 -0.65438,-3.3358 -1.45097,-4.2889 -1.22339,-1.4794 -2.80949,-2.2192 -4.75833,-2.2192 -1.76393,0 -3.25046,0.5904 -4.45959,1.7711 -1.19493,1.1807 -1.8564,2.7597 -1.98442,4.737"
             style="font-stretch:normal;fill:#ff6600;font-family:Arial;-inkscape-font-specification:Arial"
             id="path6916"
             inkscape:connector-curvature="0" />
          <path
             d="m -664.75788,1466.1806 0.55478,3.3927 c -1.08113,0.2276 -2.04844,0.3414 -2.90194,0.3414 -1.39407,0 -2.47519,-0.2205 -3.24334,-0.6615 -0.76817,-0.441 -1.30872,-1.0171 -1.62167,-1.7283 -0.31296,-0.7255 -0.46944,-2.2405 -0.46943,-4.545 l 0,-13.0374 -2.81659,0 0,-2.9873 2.81659,0 0,-5.6118 3.81946,-2.3045 0,7.9163 3.86214,0 0,2.9873 -3.86214,0 0,13.2508 c -1e-5,1.0953 0.064,1.7995 0.19204,2.1124 0.14224,0.313 0.36273,0.5619 0.66147,0.7469 0.31295,0.1849 0.75393,0.2774 1.32294,0.2773 0.42675,10e-5 0.98864,-0.05 1.68569,-0.1493"
             style="font-stretch:normal;fill:#ff6600;font-family:Arial;-inkscape-font-specification:Arial"
             id="path6918"
             inkscape:connector-curvature="0" />
          <path
             d="m -662.43209,1458.2856 c 0,-4.1964 1.16647,-7.3046 3.4994,-9.3246 1.94884,-1.6786 4.32445,-2.5178 7.12682,-2.5179 3.1153,10e-5 5.6616,1.0243 7.63892,3.0727 1.97728,2.0342 2.96593,4.8508 2.96595,8.4497 -2e-5,2.9162 -0.441,5.2136 -1.32294,6.8921 -0.86775,1.6644 -2.14091,2.9589 -3.81946,3.8835 -1.66436,0.9247 -3.48519,1.387 -5.46247,1.387 -3.17223,0 -5.73987,-1.0171 -7.70294,-3.0513 -1.94885,-2.0342 -2.92328,-4.9646 -2.92328,-8.7912 m 3.94749,0 c 0,2.902 0.63302,5.0784 1.89906,6.5294 1.26604,1.4367 2.85926,2.1551 4.77967,2.1551 1.90616,0 3.49227,-0.7255 4.75832,-2.1765 1.26603,-1.4509 1.89905,-3.6629 1.89907,-6.636 -2e-5,-2.8024 -0.64016,-4.9219 -1.92041,-6.3587 -1.26605,-1.4509 -2.84505,-2.1764 -4.73698,-2.1764 -1.92041,0 -3.51363,0.7184 -4.77967,2.1551 -1.26604,1.4367 -1.89906,3.6061 -1.89906,6.508"
             style="font-stretch:normal;fill:#ff6600;font-family:Arial;-inkscape-font-specification:Arial"
             id="path6920"
             inkscape:connector-curvature="0" />
          <path
             d="m -636.69875,1469.616 0,-22.6608 3.43539,0 0,3.1794 c 0.71125,-1.1096 1.65722,-1.9986 2.83792,-2.6672 1.18068,-0.6828 2.52496,-1.0242 4.03284,-1.0243 1.67856,10e-5 3.05129,0.3486 4.11819,1.0456 1.0811,0.697 1.84215,1.6715 2.28315,2.9233 1.79235,-2.6459 4.12528,-3.9688 6.99879,-3.9689 2.24755,10e-5 3.97591,0.626 5.18508,1.8778 1.20911,1.2376 1.81368,3.1509 1.81371,5.7398 l 0,15.5553 -3.81946,0 0,-14.275 c -3e-5,-1.5363 -0.12806,-2.6388 -0.38408,-3.3074 -0.24186,-0.6828 -0.68995,-1.2304 -1.34428,-1.643 -0.65439,-0.4125 -1.42255,-0.6187 -2.30448,-0.6188 -1.59325,10e-5 -2.91619,0.5335 -3.96883,1.6004 -1.05268,1.0526 -1.57901,2.7454 -1.57899,5.0784 l 0,13.1654 -3.84081,0 0,-14.7231 c -10e-6,-1.707 -0.31297,-2.9873 -0.93886,-3.8408 -0.62592,-0.8535 -1.65013,-1.2802 -3.07264,-1.2803 -1.08112,10e-5 -2.084,0.2846 -3.00863,0.8535 -0.91042,0.5691 -1.57189,1.4012 -1.98441,2.4966 -0.41254,1.0953 -0.6188,2.6743 -0.61879,4.7369 l 0,11.7572 -3.84081,0"
             style="font-stretch:normal;fill:#ff6600;font-family:Arial;-inkscape-font-specification:Arial"
             id="path6922"
             inkscape:connector-curvature="0" />
          <path
             d="m -601.72609,1458.2856 c -10e-6,-4.1964 1.16646,-7.3046 3.49939,-9.3246 1.94885,-1.6786 4.32445,-2.5178 7.12682,-2.5179 3.1153,10e-5 5.66161,1.0243 7.63893,3.0727 1.97728,2.0342 2.96593,4.8508 2.96595,8.4497 -2e-5,2.9162 -0.441,5.2136 -1.32294,6.8921 -0.86776,1.6644 -2.14091,2.9589 -3.81947,3.8835 -1.66436,0.9247 -3.48518,1.387 -5.46247,1.387 -3.17222,0 -5.73987,-1.0171 -7.70294,-3.0513 -1.94885,-2.0342 -2.92328,-4.9646 -2.92327,-8.7912 m 3.94749,0 c -10e-6,2.902 0.63301,5.0784 1.89906,6.5294 1.26603,1.4367 2.85925,2.1551 4.77966,2.1551 1.90616,0 3.49227,-0.7255 4.75833,-2.1765 1.26602,-1.4509 1.89904,-3.6629 1.89906,-6.636 -2e-5,-2.8024 -0.64015,-4.9219 -1.9204,-6.3587 -1.26606,-1.4509 -2.84505,-2.1764 -4.73699,-2.1764 -1.92041,0 -3.51363,0.7184 -4.77966,2.1551 -1.26605,1.4367 -1.89907,3.6061 -1.89906,6.508"
             style="font-stretch:normal;fill:#ff6600;font-family:Arial;-inkscape-font-specification:Arial"
             id="path6924"
             inkscape:connector-curvature="0" />
          <path
             d="m -576.03543,1469.616 0,-22.6608 3.45672,0 0,3.4354 c 0.88196,-1.6074 1.69279,-2.6672 2.43251,-3.1793 0.75393,-0.5121 1.57899,-0.7681 2.47518,-0.7682 1.29448,10e-5 2.61031,0.4126 3.94749,1.2376 l -1.32294,3.5634 c -0.93888,-0.5547 -1.87774,-0.8321 -2.81659,-0.8321 -0.83929,0 -1.59323,0.256 -2.2618,0.7681 -0.66859,0.4979 -1.14514,1.195 -1.42963,2.0911 -0.42677,1.3657 -0.64014,2.8593 -0.64014,4.481 l 0,11.8638 -3.8408,0"
             style="font-stretch:normal;fill:#ff6600;font-family:Arial;-inkscape-font-specification:Arial"
             id="path6926"
             inkscape:connector-curvature="0" />
          <path
             d="m -561.48306,1469.616 0,-22.6608 3.45672,0 0,3.4354 c 0.88196,-1.6074 1.69279,-2.6672 2.43251,-3.1793 0.75392,-0.5121 1.57898,-0.7681 2.47518,-0.7682 1.29448,10e-5 2.61031,0.4126 3.94749,1.2376 l -1.32294,3.5634 c -0.93888,-0.5547 -1.87774,-0.8321 -2.81659,-0.8321 -0.8393,0 -1.59323,0.256 -2.2618,0.7681 -0.6686,0.4979 -1.14514,1.195 -1.42963,2.0911 -0.42677,1.3657 -0.64015,2.8593 -0.64014,4.481 l 0,11.8638 -3.8408,0"
             style="font-stretch:normal;fill:#ff6600;font-family:Arial;-inkscape-font-specification:Arial"
             id="path6928"
             inkscape:connector-curvature="0" />
          <path
             d="m -548.31765,1458.2856 c 0,-4.1964 1.16647,-7.3046 3.4994,-9.3246 1.94884,-1.6786 4.32445,-2.5178 7.12682,-2.5179 3.1153,10e-5 5.66161,1.0243 7.63892,3.0727 1.97728,2.0342 2.96593,4.8508 2.96596,8.4497 -3e-5,2.9162 -0.44101,5.2136 -1.32295,6.8921 -0.86775,1.6644 -2.14091,2.9589 -3.81946,3.8835 -1.66436,0.9247 -3.48518,1.387 -5.46247,1.387 -3.17223,0 -5.73987,-1.0171 -7.70294,-3.0513 -1.94885,-2.0342 -2.92328,-4.9646 -2.92328,-8.7912 m 3.94749,0 c 0,2.902 0.63302,5.0784 1.89907,6.5294 1.26603,1.4367 2.85925,2.1551 4.77966,2.1551 1.90616,0 3.49227,-0.7255 4.75832,-2.1765 1.26603,-1.4509 1.89905,-3.6629 1.89907,-6.636 -2e-5,-2.8024 -0.64016,-4.9219 -1.9204,-6.3587 -1.26606,-1.4509 -2.84506,-2.1764 -4.73699,-2.1764 -1.92041,0 -3.51363,0.7184 -4.77966,2.1551 -1.26605,1.4367 -1.89907,3.6061 -1.89907,6.508"
             style="font-stretch:normal;fill:#ff6600;font-family:Arial;-inkscape-font-specification:Arial"
             id="path6930"
             inkscape:connector-curvature="0" />
          <path
             d="m -518.4021,1469.616 -6.93478,-22.6608 3.96883,0 3.60608,13.0801 1.34428,4.865 c 0.0569,-0.2418 0.44809,-1.7995 1.17358,-4.673 l 3.60609,-13.2721 3.94749,0 3.3927,13.1441 1.13091,4.3316 1.3016,-4.3743 3.88348,-13.1014 3.73411,0 -7.08414,22.6608 -3.99017,0 -3.60608,-13.5709 -0.87485,-3.8621 -4.58763,17.433 -4.0115,0"
             style="font-stretch:normal;fill:#ff6600;font-family:Arial;-inkscape-font-specification:Arial"
             id="path6932"
             inkscape:connector-curvature="0" />
        </g>
        <g
           id="g3102">
          <path
             inkscape:connector-curvature="0"
             id="rect3118"
             d="m -631.69306,1158.4894 98.91466,0 c 16.84882,0 30.41304,13.5643 30.41304,30.413 l 0,98.9147 c 0,16.8487 -13.56422,30.413 -30.41304,30.413 l -98.91466,0 c -16.84883,0 -30.41305,-13.5643 -30.41305,-30.413 l 0,-98.9147 c 0,-16.8487 13.56422,-30.413 30.41305,-30.413 z"
             style="fill:url(#radialGradient6379);fill-opacity:1;fill-rule:evenodd;stroke:#ff6600;stroke-width:5.25925636" />
          <path
             id="path3120"
             d="m -584.43851,1173.3856 c -32.7794,0.9544 -59.34,27.3125 -60,62.5625 -0.6812,36.3871 25.3624,66.6821 59.5938,67.4062 l 0.125,-20.6875 c -23.4261,-0.4955 -40.1849,-21.4112 -39.7188,-46.3125 0.4662,-24.9014 19.6364,-43.0581 43.0626,-42.5625 23.4261,0.4955 41.8099,19.4737 41.3437,44.375 -0.2192,11.7074 -4.7241,22.8486 -12.5625,31.0625 l -3.5938,-3.4687 c -0.377,-0.3708 -0.9089,-0.5788 -1.4374,-0.5625 -1,0.045 -1.8786,0.9677 -1.875,1.9687 l 0,21 c 0,1.0212 0.9163,1.9551 1.9374,1.9688 l 21.7188,0 c 0.7781,0 1.5502,-0.4982 1.8438,-1.2188 0.2935,-0.7206 0.09,-1.6151 -0.4688,-2.1562 l -3.3438,-3.2188 c 11.0857,-12.0182 17.4655,-28.0993 17.7813,-44.9687 0.6812,-36.3872 -26.9873,-64.4633 -61.2187,-65.1875 -1.0698,-0.023 -2.1301,-0.031 -3.1876,0 z"
             style="font-size:medium;font-style:normal;font-variant:normal;font-weight:normal;font-stretch:normal;text-indent:0;text-align:start;text-decoration:none;line-height:normal;letter-spacing:normal;word-spacing:normal;text-transform:none;direction:ltr;block-progression:tb;writing-mode:lr-tb;text-anchor:start;baseline-shift:baseline;color:#000000;fill:#ffffff;fill-opacity:1;stroke:none;stroke-width:26.75562668;marker:none;visibility:visible;display:inline;overflow:visible;enable-background:accumulate;font-family:Sans;-inkscape-font-specification:Sans"
             inkscape:connector-curvature="0" />
          <path
             inkscape:connector-curvature="0"
             id="path6234"
             d="m -563.84011,1238.3159 -23.35884,20.6008 0,-41.2016 z"
             inkscape:transform-center-y="-3.8026582e-05"
             inkscape:transform-center-x="-3.965261"
             style="fill:#2f2f36;fill-opacity:1;stroke:#2f2f36;stroke-width:8.25762749;stroke-linecap:round;stroke-linejoin:round;stroke-miterlimit:4;stroke-opacity:1;stroke-dashoffset:0" />
        </g>
      </g>
    </g>
  </g>
</svg>
