<?xml version="1.0" encoding="UTF-8" standalone="no"?>
<!-- Created with Inkscape (http://www.inkscape.org/) -->

<svg
   xmlns:dc="http://purl.org/dc/elements/1.1/"
   xmlns:cc="http://creativecommons.org/ns#"
   xmlns:rdf="http://www.w3.org/1999/02/22-rdf-syntax-ns#"
   xmlns:svg="http://www.w3.org/2000/svg"
   xmlns="http://www.w3.org/2000/svg"
   xmlns:xlink="http://www.w3.org/1999/xlink"
   xmlns:sodipodi="http://sodipodi.sourceforge.net/DTD/sodipodi-0.dtd"
   xmlns:inkscape="http://www.inkscape.org/namespaces/inkscape"
   width="1024"
   height="768"
   id="svg7306"
   version="1.1"
   inkscape:version="0.48+devel r10450"
   sodipodi:docname="pygotham2011.svg"
   inkscape:export-filename="/Users/idan/Dropbox/proj/djangocon.us 2011/art assets/titlecard.png"
   inkscape:export-xdpi="70.309998"
   inkscape:export-ydpi="70.309998">
  <defs
     id="defs7308">
    <clipPath
       id="clipPath12450"
       clipPathUnits="userSpaceOnUse">
      <path
         id="path12452"
         d="M 0,768 1024,768 1024,0 0,0 0,768 z" />
    </clipPath>
    <clipPath
       id="clipPath12436"
       clipPathUnits="userSpaceOnUse">
      <path
         id="path12438"
         d="m 99.524,272.587 c 0.511,-1.936 1.029,-3.872 1.587,-5.789 l 0,0 c 12.243,-42.003 33.815,-72.054 65.948,-91.87 l 0,0 c 33.61,-20.729 85.401,-36.011 153.934,-45.423 l 0,0 C 374.801,122.117 439.065,118.369 512,118.369 l 0,0 c 72.932,0 137.129,3.748 190.934,11.136 l 0,0 c 68.528,9.412 120.254,24.694 153.865,45.423 l 0,0 c 32.131,19.815 53.574,49.865 65.813,91.868 l 0,0 c 0.561,1.928 1.091,3.868 1.602,5.814 l 0,0 C 797.609,283.98 658.291,290.272 512,290.272 l 0,0 c -146.391,0 -285.8,-6.301 -412.476,-17.685" />
    </clipPath>
    <clipPath
       id="clipPath11852"
       clipPathUnits="userSpaceOnUse">
      <path
         id="path11854"
         d="M 0,768 1024,768 1024,0 0,0 0,768 z" />
    </clipPath>
    <clipPath
       id="clipPath14187"
       clipPathUnits="userSpaceOnUse">
      <path
         id="path14189"
         d="M 0,768 1024,768 1024,0 0,0 0,768 z" />
    </clipPath>
    <clipPath
       id="clipPath14321"
       clipPathUnits="userSpaceOnUse">
      <path
         id="path14323"
         d="M 0,768 1024,768 1024,0 0,0 0,768 z" />
    </clipPath>
    <linearGradient
       inkscape:collect="always"
       xlink:href="#linearGradient4853"
       id="linearGradient6551"
       gradientUnits="userSpaceOnUse"
       gradientTransform="translate(647.70053,2095.7733)"
       x1="415.5759"
       y1="-915.36462"
       x2="415.5759"
       y2="-752.6391" />
    <linearGradient
       inkscape:collect="always"
       id="linearGradient4853">
      <stop
         style="stop-color:#ff9955;stop-opacity:1"
         offset="0"
         id="stop4855" />
      <stop
         style="stop-color:#ff6600;stop-opacity:1"
         offset="1"
         id="stop4857" />
    </linearGradient>
    <linearGradient
       inkscape:collect="always"
       xlink:href="#linearGradient4853"
       id="linearGradient6793"
       gradientUnits="userSpaceOnUse"
       gradientTransform="translate(647.70053,2095.7733)"
       x1="415.5759"
       y1="-915.36462"
       x2="415.5759"
       y2="-752.6391" />
    <linearGradient
       inkscape:collect="always"
       xlink:href="#linearGradient5582"
       id="linearGradient6593"
       gradientUnits="userSpaceOnUse"
       x1="799.72998"
       y1="726.25867"
       x2="799.72998"
       y2="829.78363" />
    <linearGradient
       inkscape:collect="always"
       id="linearGradient5582">
      <stop
         style="stop-color:#ffffff;stop-opacity:1;"
         offset="0"
         id="stop5584" />
      <stop
         style="stop-color:#ffffff;stop-opacity:0;"
         offset="1"
         id="stop5586" />
    </linearGradient>
    <linearGradient
       inkscape:collect="always"
       id="linearGradient4784-2-4">
      <stop
         style="stop-color:#ffccaa;stop-opacity:1"
         offset="0"
         id="stop4786-6-6" />
      <stop
         style="stop-color:#ff6600;stop-opacity:1"
         offset="1"
         id="stop4788-4-6" />
    </linearGradient>
    <linearGradient
       inkscape:collect="always"
       id="linearGradient6006-6">
      <stop
         style="stop-color:#ffffff;stop-opacity:1;"
         offset="0"
         id="stop6008-7" />
      <stop
         style="stop-color:#ffffff;stop-opacity:0;"
         offset="1"
         id="stop6010-5" />
    </linearGradient>
    <linearGradient
       inkscape:collect="always"
       xlink:href="#linearGradient4853-4"
       id="linearGradient6551-6"
       gradientUnits="userSpaceOnUse"
       gradientTransform="translate(647.70053,2095.7733)"
       x1="415.5759"
       y1="-915.36462"
       x2="415.5759"
       y2="-752.6391" />
    <linearGradient
       inkscape:collect="always"
       id="linearGradient4853-4">
      <stop
         style="stop-color:#ff9955;stop-opacity:1"
         offset="0"
         id="stop4855-3" />
      <stop
         style="stop-color:#ff6600;stop-opacity:1"
         offset="1"
         id="stop4857-0" />
    </linearGradient>
    <linearGradient
       inkscape:collect="always"
       xlink:href="#linearGradient4853-4"
       id="linearGradient7307"
       gradientUnits="userSpaceOnUse"
       gradientTransform="translate(647.70053,2095.7733)"
       x1="415.5759"
       y1="-915.36462"
       x2="415.5759"
       y2="-752.6391" />
    <linearGradient
       inkscape:collect="always"
       xlink:href="#linearGradient5582-2"
       id="linearGradient6593-0"
       gradientUnits="userSpaceOnUse"
       x1="799.72998"
       y1="726.25867"
       x2="799.72998"
       y2="829.78363" />
    <linearGradient
       inkscape:collect="always"
       id="linearGradient5582-2">
      <stop
         style="stop-color:#ffffff;stop-opacity:1;"
         offset="0"
         id="stop5584-5" />
      <stop
         style="stop-color:#ffffff;stop-opacity:0;"
         offset="1"
         id="stop5586-3" />
    </linearGradient>
    <linearGradient
       inkscape:collect="always"
       xlink:href="#linearGradient4853-4"
       id="linearGradient7807"
       gradientUnits="userSpaceOnUse"
       gradientTransform="translate(647.70053,2095.7733)"
       x1="415.5759"
       y1="-915.36462"
       x2="415.5759"
       y2="-752.6391" />
    <linearGradient
       inkscape:collect="always"
       xlink:href="#linearGradient5582-2"
       id="linearGradient7849"
       gradientUnits="userSpaceOnUse"
       x1="799.72998"
       y1="726.25867"
       x2="799.72998"
       y2="829.78363" />
    <linearGradient
       inkscape:collect="always"
       xlink:href="#linearGradient4853-4"
       id="linearGradient7887"
       gradientUnits="userSpaceOnUse"
       gradientTransform="translate(647.70053,2095.7733)"
       x1="415.5759"
       y1="-915.36462"
       x2="415.5759"
       y2="-752.6391" />
    <linearGradient
       inkscape:collect="always"
       xlink:href="#linearGradient5582-2"
       id="linearGradient7929"
       gradientUnits="userSpaceOnUse"
       x1="799.72998"
       y1="726.25867"
       x2="799.72998"
       y2="829.78363" />
    <linearGradient
       inkscape:collect="always"
       xlink:href="#linearGradient4853-4"
       id="linearGradient7957"
       gradientUnits="userSpaceOnUse"
       gradientTransform="translate(-588.41277,2325.7974)"
       x1="415.5759"
       y1="-915.36462"
       x2="415.5759"
       y2="-752.6391" />
    <linearGradient
       inkscape:collect="always"
       xlink:href="#linearGradient5582-2"
       id="linearGradient8007"
       gradientUnits="userSpaceOnUse"
       x1="799.72998"
       y1="726.25867"
       x2="799.72998"
       y2="829.78363" />
    <linearGradient
       inkscape:collect="always"
       xlink:href="#linearGradient4853-4"
       id="linearGradient8163"
       gradientUnits="userSpaceOnUse"
       gradientTransform="translate(-588.41277,2325.7974)"
       x1="415.5759"
       y1="-915.36462"
       x2="415.5759"
       y2="-752.6391" />
    <linearGradient
       inkscape:collect="always"
       xlink:href="#linearGradient6006-6"
       id="linearGradient8208"
       gradientUnits="userSpaceOnUse"
       gradientTransform="matrix(0.95753036,0,0,1.0443533,-875.94751,1036.1623)"
       x1="802.33051"
       y1="228.33238"
       x2="802.33051"
       y2="421.63248" />
    <radialGradient
       inkscape:collect="always"
       xlink:href="#linearGradient4784-2-4"
       id="radialGradient8210"
       gradientUnits="userSpaceOnUse"
       gradientTransform="matrix(-0.01609623,1.0784487,-0.67540255,-0.01008062,529.84178,1699.9512)"
       cx="-411.323"
       cy="-208.61775"
       fx="-411.323"
       fy="-208.61775"
       r="90.157059" />
    <linearGradient
       inkscape:collect="always"
       xlink:href="#linearGradient4853-4"
       id="linearGradient8212"
       gradientUnits="userSpaceOnUse"
       gradientTransform="translate(-588.41277,2325.7974)"
       x1="415.5759"
       y1="-915.36462"
       x2="415.5759"
       y2="-752.6391" />
    <linearGradient
       inkscape:collect="always"
       xlink:href="#linearGradient4853-4"
       id="linearGradient8214"
       gradientUnits="userSpaceOnUse"
       gradientTransform="translate(-588.41277,2325.7974)"
       x1="415.5759"
       y1="-915.36462"
       x2="415.5759"
       y2="-752.6391" />
    <linearGradient
       inkscape:collect="always"
       xlink:href="#linearGradient4853-4"
       id="linearGradient8216"
       gradientUnits="userSpaceOnUse"
       gradientTransform="translate(-588.41277,2325.7974)"
       x1="415.5759"
       y1="-915.36462"
       x2="415.5759"
       y2="-752.6391" />
    <linearGradient
       inkscape:collect="always"
       xlink:href="#linearGradient4853-4"
       id="linearGradient8218"
       gradientUnits="userSpaceOnUse"
       gradientTransform="translate(-588.41277,2325.7974)"
       x1="415.5759"
       y1="-915.36462"
       x2="415.5759"
       y2="-752.6391" />
    <linearGradient
       inkscape:collect="always"
       xlink:href="#linearGradient4853-4"
       id="linearGradient8220"
       gradientUnits="userSpaceOnUse"
       gradientTransform="translate(-588.41277,2325.7974)"
       x1="415.5759"
       y1="-915.36462"
       x2="415.5759"
       y2="-752.6391" />
    <radialGradient
       inkscape:collect="always"
       xlink:href="#linearGradient4784-2-4"
       id="radialGradient8607"
       gradientUnits="userSpaceOnUse"
       gradientTransform="matrix(-0.01609623,1.0784487,-0.67540255,-0.01008062,529.84178,1699.9512)"
       cx="-411.323"
       cy="-208.61775"
       fx="-411.323"
       fy="-208.61775"
       r="90.157059" />
    <linearGradient
       inkscape:collect="always"
       xlink:href="#linearGradient4853-4"
       id="linearGradient8627"
       gradientUnits="userSpaceOnUse"
       gradientTransform="translate(-588.41277,2325.7974)"
       x1="415.5759"
       y1="-915.36462"
       x2="415.5759"
       y2="-752.6391" />
    <linearGradient
       inkscape:collect="always"
       xlink:href="#linearGradient4853-4"
       id="linearGradient8629"
       gradientUnits="userSpaceOnUse"
       gradientTransform="translate(-588.41277,2325.7974)"
       x1="415.5759"
       y1="-915.36462"
       x2="415.5759"
       y2="-752.6391" />
    <linearGradient
       inkscape:collect="always"
       xlink:href="#linearGradient4853-4"
       id="linearGradient8631"
       gradientUnits="userSpaceOnUse"
       gradientTransform="translate(-588.41277,2325.7974)"
       x1="415.5759"
       y1="-915.36462"
       x2="415.5759"
       y2="-752.6391" />
    <linearGradient
       inkscape:collect="always"
       xlink:href="#linearGradient4853-4"
       id="linearGradient8633"
       gradientUnits="userSpaceOnUse"
       gradientTransform="translate(-588.41277,2325.7974)"
       x1="415.5759"
       y1="-915.36462"
       x2="415.5759"
       y2="-752.6391" />
    <linearGradient
       inkscape:collect="always"
       xlink:href="#linearGradient4853-4"
       id="linearGradient8635"
       gradientUnits="userSpaceOnUse"
       gradientTransform="translate(-588.41277,2325.7974)"
       x1="415.5759"
       y1="-915.36462"
       x2="415.5759"
       y2="-752.6391" />
    <linearGradient
       inkscape:collect="always"
       xlink:href="#linearGradient4853-4"
       id="linearGradient8641"
       gradientUnits="userSpaceOnUse"
       gradientTransform="matrix(0.23200958,0,0,0.23200958,523.07239,1222.2011)"
       x1="415.5759"
       y1="-915.36462"
       x2="415.5759"
       y2="-752.6391" />
    <linearGradient
       inkscape:collect="always"
       xlink:href="#linearGradient4853-4"
       id="linearGradient8644"
       gradientUnits="userSpaceOnUse"
       gradientTransform="matrix(0.23200958,0,0,0.23200958,523.07239,1222.2011)"
       x1="415.5759"
       y1="-915.36462"
       x2="415.5759"
       y2="-752.6391" />
    <linearGradient
       inkscape:collect="always"
       xlink:href="#linearGradient4853-4"
       id="linearGradient8647"
       gradientUnits="userSpaceOnUse"
       gradientTransform="matrix(0.23200958,0,0,0.23200958,523.07239,1222.2011)"
       x1="415.5759"
       y1="-915.36462"
       x2="415.5759"
       y2="-752.6391" />
    <linearGradient
       inkscape:collect="always"
       xlink:href="#linearGradient3197"
       id="linearGradient3205"
       x1="555.32178"
       y1="780.414"
       x2="199.06804"
       y2="535.86133"
       gradientUnits="userSpaceOnUse" />
    <linearGradient
       inkscape:collect="always"
       id="linearGradient3197">
      <stop
         style="stop-color:#ececec;stop-opacity:1"
         offset="0"
         id="stop3199" />
      <stop
         style="stop-color:#000000;stop-opacity:1"
         offset="1"
         id="stop3201" />
    </linearGradient>
    <linearGradient
       gradientTransform="matrix(2.0254918,0,0,2.0254918,-272.97455,-896.38727)"
       y2="535.86133"
       x2="199.06804"
       y1="780.414"
       x1="555.32178"
       gradientUnits="userSpaceOnUse"
       id="linearGradient3334"
       xlink:href="#linearGradient3197"
       inkscape:collect="always" />
    <linearGradient
       inkscape:collect="always"
       xlink:href="#linearGradient6006-6"
       id="linearGradient3453"
       gradientUnits="userSpaceOnUse"
       gradientTransform="matrix(0.34862287,0,0,0.38023384,423.72585,919.8982)"
       x1="802.33051"
       y1="228.33238"
       x2="802.33051"
       y2="421.63248" />
    <radialGradient
       inkscape:collect="always"
       xlink:href="#linearGradient4784-2-4"
       id="radialGradient3455"
       gradientUnits="userSpaceOnUse"
       gradientTransform="matrix(-0.0058604,0.39264748,-0.24590424,-0.00367021,645.99529,1169.5741)"
       cx="-411.323"
       cy="-208.61775"
       fx="-411.323"
       fy="-208.61775"
       r="90.157059" />
    <linearGradient
       inkscape:collect="always"
       xlink:href="#linearGradient4853-4"
       id="linearGradient3457"
       gradientUnits="userSpaceOnUse"
       gradientTransform="matrix(0.23200958,0,0,0.23200958,523.07239,1222.2011)"
       x1="415.5759"
       y1="-915.36462"
       x2="415.5759"
       y2="-752.6391" />
  </defs>
  <sodipodi:namedview
     id="base"
     pagecolor="#ffffff"
     bordercolor="#666666"
     borderopacity="1.0"
     inkscape:pageopacity="0.0"
     inkscape:pageshadow="2"
     inkscape:zoom="0.95442708"
     inkscape:cx="516.32516"
     inkscape:cy="342.09004"
     inkscape:document-units="px"
     inkscape:current-layer="layer1"
     showgrid="false"
     fit-margin-top="0"
     fit-margin-left="0"
     fit-margin-right="0"
     fit-margin-bottom="0"
     inkscape:window-width="1274"
     inkscape:window-height="950"
     inkscape:window-x="0"
     inkscape:window-y="24"
     inkscape:window-maximized="0"
     showguides="true"
     inkscape:guide-bbox="true"
     inkscape:snap-page="true"
     inkscape:snap-global="true" />
  <metadata
     id="metadata7311">
    <rdf:RDF>
      <cc:Work
         rdf:about="">
        <dc:format>image/svg+xml</dc:format>
        <dc:type
           rdf:resource="http://purl.org/dc/dcmitype/StillImage" />
        <dc:title></dc:title>
      </cc:Work>
    </rdf:RDF>
  </metadata>
  <g
     inkscape:label="Background"
     inkscape:groupmode="layer"
     id="layer1"
     transform="translate(0,-284.36218)">
    <rect
       style="fill:#000000;fill-opacity:1;fill-rule:evenodd;stroke:none"
       id="rect3641"
       width="1024"
       height="768"
       x="3.5980333e-14"
       y="284.36218" />
    <g
       id="g3374"
       transform="translate(-546.92497,748.51498)"
       style="fill:#ffffff">
      <g
         id="g3394">
        <path
           transform="translate(546.92497,-464.1528)"
           sodipodi:nodetypes="ccccc"
           inkscape:connector-curvature="0"
           id="path3195"
           d="M 209.55613,249.04637 756.82401,768 693.35323,768 43.205498,420.55418 z"
           style="fill:url(#linearGradient3334);fill-opacity:1;stroke:none" />
        <path
           sodipodi:type="arc"
           style="fill:#ffffff;fill-opacity:1;stroke:none"
           id="path3172"
           sodipodi:cx="191.5955"
           sodipodi:cy="541.54047"
           sodipodi:rx="75.024139"
           sodipodi:ry="75.024139"
           d="m 266.61964,541.54047 c 0,41.43468 -33.58945,75.02414 -75.02414,75.02414 -41.43468,0 -75.02413,-33.58946 -75.02413,-75.02414 0,-41.43469 33.58945,-75.02414 75.02413,-75.02414 41.43469,0 75.02414,33.58945 75.02414,75.02414 z"
           transform="matrix(1.4073965,-0.83830765,0.61117996,1.0260822,80.40068,-521.22359)" />
        <path
           id="path8615"
           d="M 99.75,67.46875 C 71.718268,67.468752 73.46875,79.625 73.46875,79.625 L 73.5,92.21875 l 26.75,0 0,3.78125 -37.375,0 c 0,0 -17.9375,-2.034276 -17.9375,26.25 -2e-6,28.28427 15.65625,27.28125 15.65625,27.28125 l 9.34375,0 0,-13.125 c 0,0 -0.503652,-15.65625 15.40625,-15.65625 15.9099,0 26.53125,0 26.53125,0 0,0 14.90625,0.24096 14.90625,-14.40625 0,-14.647206 0,-24.21875 0,-24.21875 0,-2e-6 2.26318,-14.65625 -27.03125,-14.65625 z M 85,75.9375 c 2.661429,-2e-6 4.8125,2.151071 4.8125,4.8125 2e-6,2.661429 -2.151071,4.8125 -4.8125,4.8125 -2.661429,2e-6 -4.8125,-2.151071 -4.8125,-4.8125 -2e-6,-2.661429 2.151071,-4.8125 4.8125,-4.8125 z"
           style="fill:#000000;color:#000000;fill-opacity:1;fill-rule:nonzero;stroke:none;stroke-width:1;marker:none;visibility:visible;display:inline;overflow:visible"
           inkscape:connector-curvature="0"
           transform="matrix(1.58411,-0.943566,0.68792004,1.1549176,438.18888,-173.03068)" />
        <path
           style="fill:#000000;color:#000000;fill-opacity:1;fill-rule:nonzero;stroke:none;stroke-width:1;marker:none;visibility:visible;display:inline;overflow:visible"
           d="m 100.5461,177.31485 c 28.03174,0 26.28125,-12.15625 26.28125,-12.15625 l -0.0312,-12.59375 -26.75,0 0,-3.78125 37.375,0 c 0,0 17.9375,2.03427 17.9375,-26.25001 10e-6,-28.284267 -15.65625,-27.281247 -15.65625,-27.281247 l -9.34375,0 0,13.124997 c 0,0 0.50366,15.65625 -15.40625,15.65625 -15.909902,0 -26.531252,0 -26.531252,0 0,0 -14.90625,-0.24096 -14.90625,14.40626 0,14.6472 0,24.21875 0,24.21875 0,0 -2.26318,14.65625 27.031252,14.65625 z m 14.75,-8.46875 c -2.66143,0 -4.8125,-2.15107 -4.8125,-4.8125 0,-2.66143 2.15107,-4.8125 4.8125,-4.8125 2.66143,0 4.8125,2.15107 4.8125,4.8125 1e-5,2.66143 -2.15107,4.8125 -4.8125,4.8125 z"
           id="path8620"
           inkscape:connector-curvature="0"
           transform="matrix(1.58411,-0.943566,0.68792004,1.1549176,438.18888,-173.03068)" />
        <g
           style="font-size:73.03302002px;font-style:normal;font-variant:normal;font-weight:100;font-stretch:normal;line-height:125%;letter-spacing:0px;word-spacing:0px;fill:#ffffff;fill-opacity:1;stroke:none;font-family:CameoRR;-inkscape-font-specification:CameoRR Thin"
           id="text3207">
          <path
             d="m 621.69512,35.692338 q 1.38763,3.286486 1.38763,7.9606 0,4.966245 -1.46066,8.179698 -4.08985,8.763962 -15.19087,8.763962 l -20.81441,-0.07303 -0.51123,20.157114 -2.70223,-0.365165 0.36517,-53.241072 19.64588,0 q 15.62907,0 19.28072,8.617896 z m -20.66835,21.471708 -1.24156,-24.027863 -13.29201,-1.606727 0.80337,25.269425 13.7302,0.365165 z"
             style="font-weight:normal;fill:#ffffff;font-family:Anarko;-inkscape-font-specification:Anarko"
             id="path3479" />
          <path
             d="m 673.03676,27.074442 -18.98859,21.325642 1.0955,31.842397 -3.06739,0.292132 -1.46066,-29.140175 -23.07843,-24.319996 4.30895,0.73033 15.2639,16.286364 9.34822,-15.994232 16.5785,-1.022462 z"
             style="font-weight:normal;fill:#ffffff;font-family:Anarko;-inkscape-font-specification:Anarko"
             id="path3481" />
          <path
             d="m 727.29972,55.046089 -0.73033,25.853689 -2.33706,-0.365165 -0.43819,-10.589788 q -3.14042,3.943783 -8.54487,7.449368 -7.59543,4.966245 -14.46054,4.60108 -6.28084,-0.365165 -10.44372,-2.702222 -1.97189,-1.095495 -5.03928,-4.089849 -8.17969,-7.887566 -8.17969,-20.960477 0,-8.325764 3.72468,-14.971769 4.01682,-7.230269 11.32012,-10.443722 6.06174,-2.629188 10.51675,-2.629188 10.44372,0 17.45489,6.938137 3.87075,3.797717 5.25838,7.668467 0.14607,0.438198 0.80337,3.943783 l -4.60108,-1.241561 q -0.073,-6.207807 -8.03364,-11.83135 -4.30895,-3.432552 -9.71339,-3.505585 -5.62354,-0.07303 -9.71339,2.848288 -7.3033,2.117958 -10.88192,7.887566 -1.38763,2.190991 -1.89886,4.674114 -0.073,0.219099 -0.80336,5.185344 -0.73033,4.966245 -0.73033,7.230269 0,3.14042 1.02246,6.572972 1.97189,6.280839 7.23027,11.101019 3.79772,3.432552 8.32576,4.893212 3.50559,1.095495 6.35388,1.095495 2.19099,0 4.96624,-0.584264 l 4.67411,-2.702221 0.51124,-5.404444 -0.29214,-13.657175 -5.40444,0.365165 0.2191,-2.994353 19.86498,0.365165 z"
             style="font-weight:normal;fill:#ffffff;font-family:Anarko;-inkscape-font-specification:Anarko"
             id="path3483" />
          <path
             d="m 784.19355,53.731494 q 0,13.803241 -6.79207,20.887444 -7.08421,7.376335 -17.74703,7.376335 -10.29765,0 -17.45489,-7.376335 -7.0842,-7.449368 -7.0842,-20.887444 0,-12.34258 7.88756,-20.522278 6.71904,-7.01117 16.65153,-7.01117 9.56733,0 16.65153,7.376335 7.88757,8.179698 7.88757,20.157113 z M 768.19932,31.164291 q -4.60108,-2.848288 -9.34823,-2.848288 -0.94943,0 -2.11796,0.07303 -5.98871,0.511232 -10.00552,3.943783 -4.01682,3.359519 -6.64601,8.983062 -2.55615,5.623542 -2.55615,11.027986 0,4.016816 1.46066,10.005524 1.89886,7.522401 6.79207,13.584141 3.43255,2.994354 8.76396,3.943783 2.26402,0.438199 4.01682,0.438199 2.77525,0 6.28084,-1.241562 l 3.35952,-47.909661 z"
             style="font-weight:normal;fill:#ffffff;font-family:Anarko;-inkscape-font-specification:Anarko"
             id="path3485" />
          <path
             d="m 831.59309,27.804772 -1.0955,7.814533 -21.83687,-0.584264 -0.36517,46.302935 -2.77525,-0.146066 -0.4382,-42.432185 -16.1403,-0.365165 0,-11.320118 42.65129,0.73033 z"
             style="font-weight:normal;fill:#ffffff;font-family:Anarko;-inkscape-font-specification:Anarko"
             id="path3487" />
          <path
             d="m 880.52466,80.315514 -3.43256,-0.219099 -0.51123,-24.319996 -22.27507,0.438198 -0.36516,25.196392 -16.06727,0.365165 0.14607,-35.05585 -0.51123,-19.645882 10.95495,0 -0.80336,24.90426 20.44924,0.292132 -0.29213,-24.758194 12.70775,-0.438198 -0.14607,13.072911 0.14607,40.168161 z"
             style="font-weight:normal;fill:#ffffff;font-family:Anarko;-inkscape-font-specification:Anarko"
             id="path3489" />
          <path
             d="m 936.3938,80.753712 -17.16275,-0.438198 -2.92133,-17.235793 -19.28071,-0.365165 -6.57297,17.235793 -3.28649,0.365165 19.64588,-53.241072 10.44372,-0.146066 19.13465,53.825336 z m -20.30317,-19.645883 -5.11232,-30.381736 -2.62918,-0.365165 -10.80889,30.454769 18.55039,0.292132 z"
             style="font-weight:normal;fill:#ffffff;font-family:Anarko;-inkscape-font-specification:Anarko"
             id="path3491" />
          <path
             d="m 995.76854,80.315514 -3.94378,0.219099 -0.4382,-47.471463 -9.42126,21.033509 -8.10667,25.488524 -10.58978,0.365166 -3.35952,-16.797595 -6.49994,-25.926722 0.36516,43.089482 -10.95495,-0.730331 0.29213,-37.612005 -0.29213,-14.898736 10.00552,2.264024 6.28084,21.325641 4.45502,17.600958 8.1797,-22.49417 6.2078,-18.331288 17.45489,-0.365165 0.36517,53.241072 z"
             style="font-weight:normal;fill:#ffffff;font-family:Anarko;-inkscape-font-specification:Anarko"
             id="path3493" />
        </g>
        <g
           transform="scale(1.300062,0.76919406)"
           style="font-size:219.88345337px;font-style:normal;font-variant:normal;font-weight:normal;font-stretch:normal;line-height:125%;letter-spacing:0px;word-spacing:0px;fill:#ffffff;fill-opacity:1;stroke:none;font-family:Myriad Pro;-inkscape-font-specification:Myriad Pro"
           id="text3211">
          <path
             d="m 550.07126,168.41841 q 0,15.83161 -5.71697,24.62694 -3.9579,5.93686 -18.47021,17.59068 -4.61755,3.73802 -34.96146,10.55441 -27.70532,6.15673 -30.12404,12.53335 l 12.31348,12.53336 74.54049,-0.43977 1.75906,37.60007 -106.86335,-3.29825 q 0.43976,-4.17778 -0.21989,-11.43394 -0.87953,-8.57545 -0.87953,-11.8737 0,-17.59068 14.07254,-29.46439 8.13569,-5.49708 41.77786,-15.61172 31.66321,-9.45499 34.5217,-12.75324 2.85848,-3.29825 6.37662,-14.51231 3.9579,-12.75324 3.9579,-23.52753 0,-19.34974 -13.19301,-23.30765 L 492.4618,126.86043 q -2.85849,-0.43976 -5.49709,-0.43976 -22.42811,0 -31.8831,21.10881 -1.97895,4.61755 -1.97895,12.09359 0,8.35557 2.19884,17.81056 l -10.33453,-0.43977 q -1.09941,-26.82578 12.09359,-40.67844 13.41289,-13.85265 38.69949,-13.85265 27.26555,0 41.77786,14.5123 12.53335,12.53336 12.53335,31.44334 z"
             style="fill:#ffffff;font-family:Anarko;-inkscape-font-specification:Anarko"
             id="path3496" />
          <path
             d="m 670.78723,204.69918 q 0,45.73576 -16.93103,66.4048 -11.65382,14.07254 -35.62112,14.07254 -25.28659,0 -37.81995,-15.17196 -15.83161,-19.34974 -15.83161,-81.79664 0,-18.90998 3.73802,-29.2445 3.07837,-9.01522 13.19301,-21.3287 13.41289,-16.27137 36.72053,-16.27137 25.2866,0 37.81996,15.17196 14.73219,18.03044 14.73219,68.16387 z m -29.02462,71.46212 -1.75906,-146.00261 -41.33809,0.87953 -0.43977,143.5839 43.53692,1.53918 z"
             style="fill:#ffffff;font-family:Anarko;-inkscape-font-specification:Anarko"
             id="path3498" />
          <path
             d="m 717.40247,280.1192 -9.01522,-0.65965 -0.21988,-127.09263 -20.22928,1.09941 q 0.87953,-24.40706 0,-27.04566 l 28.36496,-2.19884 1.09942,155.89737 z"
             style="fill:#ffffff;font-family:Anarko;-inkscape-font-specification:Anarko"
             id="path3500" />
          <path
             d="m 767.53521,280.1192 -9.01522,-0.65965 -0.21989,-127.09263 -20.22927,1.09941 q 0.87953,-24.40706 0,-27.04566 l 28.36496,-2.19884 1.09942,155.89737 z"
             style="fill:#ffffff;font-family:Anarko;-inkscape-font-specification:Anarko"
             id="path3502" />
        </g>
      </g>
    </g>
    <rect
       y="991.8847"
       x="0.13580322"
       height="60.341709"
       width="1023.7284"
       id="blackfooter"
       style="fill:#000000;fill-rule:evenodd;stroke:#000000;stroke-width:0.29913732px;stroke-linecap:butt;stroke-linejoin:miter;stroke-opacity:1" />
    <path
       inkscape:connector-curvature="0"
       d="m 812.07621,999.2461 9.6088,19.063 9.85459,-19.063 5.78332,0 -13.34286,23.4172 0,16.6465 -5.04765,0 0,-16.6465 -12.7522,-23.4172 m -9.16257,23.6042 -5.96798,-18.8141 -5.99081,18.8141 m 9.31884,-23.6336 13.55428,40.2013 -5.62745,0 -4.02296,-12.5068 -14.31289,0 -3.73013,12.5068 -5.79165,0 13.50964,-40.2013 m -25.82115,30.9698 c 4.65734,-5.2495 4.2863,-17.2198 0.42587,-21.8198 -4.82581,-5.5021 -12.15951,-6.2521 -18.80189,-4.3043 l 0.10825,31.078 c -0.49236,1.0068 15.38228,0.446 18.26777,-4.9539 z m -23.85197,-30.5369 c 24.94495,-2.5965 31.95472,2.9335 32.88773,18.6258 0.36929,11.4131 -4.96846,19.0327 -16.92888,21.1426 -5.31962,0.5744 -10.63923,0.2663 -15.95885,0 l 0,-39.7684 m -17.9516,0 0,4.7375 -12.28646,0 0,35.0309 -5.01386,0 0,-35.0309 -12.28646,0 0,-4.7375 29.58678,0 m -57.63942,39.7684 -5.95706,0 13.05592,-20.3851 -12.23684,-19.3833 6.18046,0 9.30792,15.2143 9.23346,-15.2143 5.88261,0 -12.23681,19.3833 12.83252,20.3851 -6.1308,0 -9.82918,-16.3514 -10.1022,16.3514 m -32.23145,-39.7684 22.2144,0 0,4.8729 -17.3991,0 0,12.074 15.76091,0 0,4.6022 -15.76091,0 0,13.4817 17.77142,0 0,4.7376 -22.58672,0 0,-39.7684 m 12.7497,0 0,0 m -50.98737,0 5.83297,0 18.41728,32.2153 0,-32.2153 4.69119,0 0,39.7684 -5.53511,0 -18.69031,-32.1884 0,32.1884 -4.71602,0 0,-39.7684 m 14.14805,0 0,0"
       style="font-size:145.81277466px;font-style:normal;font-variant:normal;font-weight:normal;font-stretch:normal;line-height:125%;letter-spacing:0px;word-spacing:0px;fill:url(#linearGradient3453);fill-opacity:1;stroke:none;font-family:Helvetica;-inkscape-font-specification:Helvetica"
       id="nextday" />
    <g
       id="video"
       transform="translate(289.55798,-8.00002)">
      <path
         style="fill:url(#radialGradient3455);fill-opacity:1;fill-rule:evenodd;stroke:none"
         d="m 685.8649,1006.3622 28.93959,0 c 3.61773,0 6.5302,2.9125 6.5302,6.5302 l 0,28.9396 c 0,3.6177 -2.91247,6.5302 -6.5302,6.5302 l -28.93959,0 c -3.61773,0 -6.5302,-2.9125 -6.5302,-6.5302 l 0,-28.9396 c 0,-3.6177 2.91247,-6.5302 6.5302,-6.5302 z"
         id="osquare"
         inkscape:connector-curvature="0" />
      <path
         inkscape:connector-curvature="0"
         d="m 651.64489,1047.6539 c 0,0 0.0579,-0.058 0.0579,-0.058 0,0 0,0.058 0.11575,0.058 l 18.75235,0 c 1.67845,0 3.18327,-1.4469 3.18327,-3.1833 0,-1.7942 -1.50482,-3.2411 -3.18327,-3.2411 l -15.68483,0 0,-10.6495 13.48548,0 c 1.73633,0 3.18327,-1.4469 3.18327,-3.2411 0,-1.6785 -1.44694,-3.1833 -3.18327,-3.1833 l -13.48548,0 0,-10.5916 15.68483,0 c 1.67845,0 3.18327,-1.447 3.18327,-3.2412 0,-1.7942 -1.50482,-3.1832 -3.18327,-3.1832 l -18.75235,0 c -0.11575,0 -0.11575,0 -0.11575,0 0,0 -0.0579,0 -0.0579,0 -1.7942,0 -3.18327,1.389 -3.18327,3.1832 l 0,34.1478 c 0,1.7364 1.38907,3.1833 3.18327,3.1833 z m -34.20454,0 c 0,0 0,0 0,0 0,0 0,0 0,0 l 6.82956,0 c 11.17038,0 20.19929,-9.0868 20.19929,-20.315 0,-11.1125 -9.02891,-20.1993 -20.19929,-20.1993 l -6.82956,0 c 0,0 0,0 0,0 0,0 0,0 0,0 -1.7942,0 -3.18326,1.389 -3.18326,3.1832 l 0,34.1478 c 0,1.7364 1.38906,3.1833 3.18326,3.1833 z m 3.24115,-34.0899 3.58841,0 c 7.63985,0 13.77488,6.1929 13.77488,13.7749 0,7.6977 -6.13503,13.8327 -13.77488,13.8906 l -3.58841,0 0,-27.6655 z m -18.22363,30.9066 0,0 c 0,1.7942 1.38906,3.1833 3.18327,3.1833 l 0,0 c 1.73633,0 3.24114,-1.3891 3.24114,-3.1833 l 0,-34.1478 0,0 c 0,-1.7942 -1.50481,-3.1832 -3.24114,-3.1832 l 0,0 c -1.79421,0 -3.18327,1.389 -3.18327,3.1832 l 0,34.1478 z m -23.804,2.6045 c 0.17363,0.1158 0.40514,0.2894 0.5209,0.3473 0.0579,0 0.0579,0 0.0579,0 0,0 0.0579,0 0.0579,0.058 0.11575,0 0.34727,0.058 0.46302,0.1157 0.0579,0 0.11576,0 0.11576,0 0.17363,0.058 0.40514,0.058 0.57877,0.058 0.17364,0 0.34727,0 0.57878,-0.058 0.0579,0 0.11575,0 0.11575,0 0.17364,-0.058 0.28939,-0.1157 0.46303,-0.1157 0.0579,-0.058 0.0579,-0.058 0.11575,-0.058 0,0 0,0 0,0 0.17363,-0.058 0.34726,-0.2315 0.46302,-0.2894 0.11576,-0.058 0.11576,-0.058 0.11576,-0.058 0.11575,-0.1157 0.23151,-0.1736 0.34726,-0.2894 0.0579,-0.058 0.0579,-0.058 0.11576,-0.1736 0.0579,-0.1157 0.23151,-0.2315 0.28938,-0.3473 0.0579,0 0.0579,0 0.0579,-0.058 0.11576,-0.1158 0.17364,-0.3473 0.23151,-0.463 l 14.29577,-33.8006 c 0.63666,-1.5627 -0.11575,-3.4726 -1.73632,-4.1093 -1.5627,-0.6945 -3.47266,0.058 -4.16719,1.6785 l -11.28614,26.7973 -11.28613,-26.7973 c -0.69453,-1.6206 -2.54662,-2.373 -4.10931,-1.6785 -1.67845,0.6367 -2.43086,2.5466 -1.73633,4.1093 l 14.18001,33.8006 c 0.11576,0.1157 0.23151,0.3472 0.28939,0.463 0,0.058 0.0579,0.058 0.0579,0.058 0.0579,0.1158 0.17363,0.2316 0.28939,0.3473 0,0.1158 0.0579,0.1158 0.0579,0.1736 0.17363,0.1158 0.28938,0.1737 0.40514,0.2894 0.0579,0 0.0579,0 0.0579,0 z"
         style="font-size:249.46218872px;font-style:normal;font-variant:normal;font-weight:bold;font-stretch:normal;text-align:start;line-height:125%;letter-spacing:0px;word-spacing:0px;writing-mode:lr-tb;text-anchor:start;fill:url(#linearGradient3457);fill-opacity:1;stroke:#ff6600;stroke-width:1.28500414;font-family:Quicksand;-inkscape-font-specification:Quicksand Bold"
         id="vide" />
      <path
         id="whitetriangle"
         d="m 703.92619,1028.2478 -5.52,4.8683 0,-9.7365 z"
         inkscape:transform-center-y="-1.5074213e-05"
         inkscape:transform-center-x="-3.965261"
         style="fill:#ffffff;stroke:#ffffff;stroke-width:1.95138454;stroke-linecap:round;stroke-linejoin:round;stroke-miterlimit:4;stroke-opacity:1;stroke-dashoffset:0"
         inkscape:connector-curvature="0" />
      <path
         inkscape:label="#greytriangle"
         id="greytriangle"
         d="m 703.87594,1028.7119 -5.41948,4.7795 0,-9.5591 z"
         inkscape:transform-center-y="-1.5074213e-05"
         inkscape:transform-center-x="-3.965261"
         style="fill:#2f2f36;fill-opacity:1;stroke:#2f2f36;stroke-width:1.91584873;stroke-linecap:round;stroke-linejoin:round;stroke-miterlimit:4;stroke-opacity:1;stroke-dashoffset:0"
         inkscape:connector-curvature="0" />
      <path
         id="circlearrow"
         d="m 700.56317,1012.0041 c -8.08934,-0.1711 -14.76739,6.1919 -14.92837,14.7906 -0.16098,8.5988 5.99075,15.7578 14.08008,15.929 l 0.029,-4.8868 c -5.53589,-0.1171 -9.49205,-5.0562 -9.38189,-10.9407 0.11017,-5.8845 4.63628,-10.1805 10.17217,-10.0634 5.5359,0.1171 9.88358,4.5994 9.77341,10.484 -0.0518,2.7668 -1.11997,5.3961 -2.97263,7.3372 l -0.84103,-0.812 c -0.0995,-0.098 -0.24536,-0.148 -0.38427,-0.1305 -0.22302,0.028 -0.40776,0.2393 -0.40601,0.464 l 0,4.952 c 2e-5,0.243 0.22106,0.464 0.46402,0.464 l 5.12596,0 c 0.18408,0 0.36531,-0.1196 0.43502,-0.29 0.0697,-0.1704 0.0235,-0.3795 -0.10876,-0.5075 l -0.78303,-0.7613 c 2.61758,-2.8397 4.12333,-6.6297 4.19793,-10.6144 0.16098,-8.5988 -6.38227,-15.2431 -14.4716,-15.4142 z"
         style="font-size:xx-small;font-style:normal;font-variant:normal;font-weight:normal;font-stretch:normal;text-indent:0;text-align:start;text-decoration:none;line-height:normal;letter-spacing:normal;word-spacing:normal;text-transform:none;direction:ltr;block-progression:tb;writing-mode:lr-tb;text-anchor:start;baseline-shift:baseline;color:#000000;fill:#ffffff;fill-opacity:1;stroke:none;stroke-width:26.75562668;marker:none;visibility:visible;display:inline;overflow:visible;enable-background:accumulate;font-family:Sans;-inkscape-font-specification:Sans"
         inkscape:connector-curvature="0" />
    </g>
  </g>
  <g
     inkscape:groupmode="layer"
     id="layer2"
     inkscape:label="Editable">
    <flowRoot
       xml:space="preserve"
       id="titlebox"
       style="font-size:48px;font-style:normal;font-variant:normal;font-weight:normal;font-stretch:normal;text-align:start;line-height:125%;letter-spacing:0px;word-spacing:0px;text-anchor:start;fill:#ffffff;fill-opacity:1;stroke:none;font-family:ChunkFive;-inkscape-font-specification:ChunkFive"
       transform="translate(398.53684,-185.82568)"><flowRegion
         id="flowRegion15470"><rect
           id="rect15472"
           width="495.14246"
           height="488.15976"
           x="102.15186"
           y="209.41762"
           style="font-size:48px;font-style:normal;font-variant:normal;font-weight:normal;font-stretch:normal;text-align:start;text-anchor:start;fill:#ffffff;font-family:ChunkFive;-inkscape-font-specification:ChunkFive" /></flowRegion><flowPara
         id="title"
         style="font-style:normal;font-variant:normal;font-weight:normal;font-stretch:normal;fill:#ffffff;font-family:Bitstream Vera Sans;-inkscape-font-specification:Bitstream Vera Sans">Talk Title Lorem Ipsum Dolor Sit Amet, Adipsicing Elit Ut Minim, Vera Se asd asd asd asd ads and so on and so forth and such and such and such.</flowPara></flowRoot>    <flowRoot
       transform="translate(-423.64958,-181.64285)"
       style="font-size:40px;font-style:normal;font-variant:normal;font-weight:500;font-stretch:normal;text-align:start;line-height:125%;letter-spacing:0px;word-spacing:0px;text-anchor:start;fill:#ffffff;fill-opacity:1;stroke:none;font-family:News Cycle;-inkscape-font-specification:News Cycle Medium"
       id="presenterbox"
       xml:space="preserve"><flowRegion
         id="flowRegion15503"><rect
           style="font-size:40px;font-style:normal;font-variant:normal;font-weight:500;font-stretch:normal;text-align:start;text-anchor:start;fill:#ffffff;font-family:News Cycle;-inkscape-font-specification:News Cycle Medium"
           y="209.85675"
           x="458.28293"
           height="123.11263"
           width="493.90176"
           id="rect15505" /></flowRegion><flowPara
         id="presenternames"
         style="font-size:38px;font-style:normal;font-variant:normal;font-weight:normal;font-stretch:normal;fill:#ffffff;font-family:Bitstream Vera Sans;-inkscape-font-specification:Bitstream Vera Sans">John Q. Speaker </flowPara></flowRoot>    <flowRoot
       xml:space="preserve"
       id="flowRoot4940"
       style="fill:black;stroke:none;stroke-opacity:1;stroke-width:1px;stroke-linejoin:miter;stroke-linecap:butt;fill-opacity:1;font-family:Myriad Pro;font-style:normal;font-weight:normal;font-size:40px;line-height:125%;letter-spacing:0px;word-spacing:0px;-inkscape-font-specification:Myriad Pro;font-stretch:normal;font-variant:normal"><flowRegion
         id="flowRegion4942"><rect
           id="rect4944"
           width="147.43774"
           height="43.77058"
           x="484.93195"
           y="6.6222644" /></flowRegion><flowPara
         id="flowPara4946" /></flowRoot>    <g
       id="g3184"
       transform="matrix(1.58411,-0.943566,0.68792004,1.1549176,-817.22903,81.333578)">
      <g
         style="fill:#e6e6e6"
         inkscape:label="Calque 1"
         id="layer1-7"
         transform="translate(-156.52421,219.53319)">
        <g
           style="fill:#e6e6e6"
           id="g1894"
           transform="translate(428.42338,184.2561)" />
      </g>
    </g>
  </g>
</svg>
