<?xml version="1.0" encoding="UTF-8" standalone="no"?>
<!-- Created with Inkscape (http://www.inkscape.org/) -->

<svg
   xmlns:dc="http://purl.org/dc/elements/1.1/"
   xmlns:cc="http://creativecommons.org/ns#"
   xmlns:rdf="http://www.w3.org/1999/02/22-rdf-syntax-ns#"
   xmlns:svg="http://www.w3.org/2000/svg"
   xmlns="http://www.w3.org/2000/svg"
   xmlns:xlink="http://www.w3.org/1999/xlink"
   xmlns:sodipodi="http://sodipodi.sourceforge.net/DTD/sodipodi-0.dtd"
   xmlns:inkscape="http://www.inkscape.org/namespaces/inkscape"
   width="800"
   height="600"
   id="titlepage"
   sodipodi:version="0.32"
   inkscape:version="0.48.0 r9654"
   version="1.0"
   sodipodi:docname="pyohio.svg"
   inkscape:output_extension="org.inkscape.output.svg.inkscape"
   inkscape:export-filename="/home/carl/a/title2.png"
   inkscape:export-xdpi="90"
   inkscape:export-ydpi="90">
  <defs
     id="defs4">
    <inkscape:perspective
       sodipodi:type="inkscape:persp3d"
       inkscape:vp_x="0 : 526.18109 : 1"
       inkscape:vp_y="0 : 1000 : 0"
       inkscape:vp_z="744.09448 : 526.18109 : 1"
       inkscape:persp3d-origin="372.04724 : 350.78739 : 1"
       id="perspective10" />
    <inkscape:perspective
       id="perspective2427"
       inkscape:persp3d-origin="372.04724 : 350.78739 : 1"
       inkscape:vp_z="744.09448 : 526.18109 : 1"
       inkscape:vp_y="0 : 1000 : 0"
       inkscape:vp_x="0 : 526.18109 : 1"
       sodipodi:type="inkscape:persp3d" />
    <inkscape:perspective
       id="perspective2481"
       inkscape:persp3d-origin="372.04724 : 350.78739 : 1"
       inkscape:vp_z="744.09448 : 526.18109 : 1"
       inkscape:vp_y="0 : 1000 : 0"
       inkscape:vp_x="0 : 526.18109 : 1"
       sodipodi:type="inkscape:persp3d" />
    <inkscape:perspective
       id="perspective2565"
       inkscape:persp3d-origin="372.04724 : 350.78739 : 1"
       inkscape:vp_z="744.09448 : 526.18109 : 1"
       inkscape:vp_y="0 : 1000 : 0"
       inkscape:vp_x="0 : 526.18109 : 1"
       sodipodi:type="inkscape:persp3d" />
    <inkscape:perspective
       id="perspective2457"
       inkscape:persp3d-origin="372.04724 : 350.78739 : 1"
       inkscape:vp_z="744.09448 : 526.18109 : 1"
       inkscape:vp_y="0 : 1000 : 0"
       inkscape:vp_x="0 : 526.18109 : 1"
       sodipodi:type="inkscape:persp3d" />
    <inkscape:perspective
       id="perspective2544"
       inkscape:persp3d-origin="372.04724 : 350.78739 : 1"
       inkscape:vp_z="744.09448 : 526.18109 : 1"
       inkscape:vp_y="0 : 1000 : 0"
       inkscape:vp_x="0 : 526.18109 : 1"
       sodipodi:type="inkscape:persp3d" />
    <inkscape:perspective
       id="perspective2621"
       inkscape:persp3d-origin="372.04724 : 350.78739 : 1"
       inkscape:vp_z="744.09448 : 526.18109 : 1"
       inkscape:vp_y="0 : 1000 : 0"
       inkscape:vp_x="0 : 526.18109 : 1"
       sodipodi:type="inkscape:persp3d" />
    <inkscape:perspective
       id="perspective2688"
       inkscape:persp3d-origin="372.04724 : 350.78739 : 1"
       inkscape:vp_z="744.09448 : 526.18109 : 1"
       inkscape:vp_y="0 : 1000 : 0"
       inkscape:vp_x="0 : 526.18109 : 1"
       sodipodi:type="inkscape:persp3d" />
    <inkscape:perspective
       id="perspective2840"
       inkscape:persp3d-origin="372.04724 : 350.78739 : 1"
       inkscape:vp_z="744.09448 : 526.18109 : 1"
       inkscape:vp_y="0 : 1000 : 0"
       inkscape:vp_x="0 : 526.18109 : 1"
       sodipodi:type="inkscape:persp3d" />
    <inkscape:perspective
       id="perspective2569"
       inkscape:persp3d-origin="372.04724 : 350.78739 : 1"
       inkscape:vp_z="744.09448 : 526.18109 : 1"
       inkscape:vp_y="0 : 1000 : 0"
       inkscape:vp_x="0 : 526.18109 : 1"
       sodipodi:type="inkscape:persp3d" />
    <inkscape:perspective
       id="perspective2693"
       inkscape:persp3d-origin="372.04724 : 350.78739 : 1"
       inkscape:vp_z="744.09448 : 526.18109 : 1"
       inkscape:vp_y="0 : 1000 : 0"
       inkscape:vp_x="0 : 526.18109 : 1"
       sodipodi:type="inkscape:persp3d" />
    <inkscape:perspective
       id="perspective2480"
       inkscape:persp3d-origin="372.04724 : 350.78739 : 1"
       inkscape:vp_z="744.09448 : 526.18109 : 1"
       inkscape:vp_y="0 : 1000 : 0"
       inkscape:vp_x="0 : 526.18109 : 1"
       sodipodi:type="inkscape:persp3d" />
    <inkscape:perspective
       id="perspective2532"
       inkscape:persp3d-origin="372.04724 : 350.78739 : 1"
       inkscape:vp_z="744.09448 : 526.18109 : 1"
       inkscape:vp_y="0 : 1000 : 0"
       inkscape:vp_x="0 : 526.18109 : 1"
       sodipodi:type="inkscape:persp3d" />
    <inkscape:perspective
       id="perspective2955"
       inkscape:persp3d-origin="0.5 : 0.33333333 : 1"
       inkscape:vp_z="1 : 0.5 : 1"
       inkscape:vp_y="0 : 1000 : 0"
       inkscape:vp_x="0 : 0.5 : 1"
       sodipodi:type="inkscape:persp3d" />
    <inkscape:perspective
       id="perspective3008"
       inkscape:persp3d-origin="0.5 : 0.33333333 : 1"
       inkscape:vp_z="1 : 0.5 : 1"
       inkscape:vp_y="0 : 1000 : 0"
       inkscape:vp_x="0 : 0.5 : 1"
       sodipodi:type="inkscape:persp3d" />
    <inkscape:perspective
       id="perspective3061"
       inkscape:persp3d-origin="0.5 : 0.33333333 : 1"
       inkscape:vp_z="1 : 0.5 : 1"
       inkscape:vp_y="0 : 1000 : 0"
       inkscape:vp_x="0 : 0.5 : 1"
       sodipodi:type="inkscape:persp3d" />
    <linearGradient
       y2="1394.5615"
       x2="-915.54724"
       y1="1315.663"
       x1="-915.54724"
       gradientUnits="userSpaceOnUse"
       id="linearGradient7077"
       xlink:href="#linearGradient6128"
       inkscape:collect="always" />
    <linearGradient
       y2="1394.5615"
       x2="-915.54724"
       y1="1315.663"
       x1="-915.54724"
       gradientUnits="userSpaceOnUse"
       id="linearGradient7075"
       xlink:href="#linearGradient6128"
       inkscape:collect="always" />
    <linearGradient
       y2="1394.5615"
       x2="-915.54724"
       y1="1315.663"
       x1="-915.54724"
       gradientUnits="userSpaceOnUse"
       id="linearGradient7073"
       xlink:href="#linearGradient6128"
       inkscape:collect="always" />
    <linearGradient
       y2="1394.5615"
       x2="-915.54724"
       y1="1315.663"
       x1="-915.54724"
       gradientUnits="userSpaceOnUse"
       id="linearGradient7071"
       xlink:href="#linearGradient6128"
       inkscape:collect="always" />
    <linearGradient
       y2="1394.5615"
       x2="-915.54724"
       y1="1315.663"
       x1="-915.54724"
       gradientUnits="userSpaceOnUse"
       id="linearGradient7069"
       xlink:href="#linearGradient6128"
       inkscape:collect="always" />
    <linearGradient
       y2="1394.5615"
       x2="-915.54724"
       y1="1315.663"
       x1="-915.54724"
       gradientUnits="userSpaceOnUse"
       id="linearGradient7067"
       xlink:href="#linearGradient6128"
       inkscape:collect="always" />
    <linearGradient
       y2="1394.5615"
       x2="-915.54724"
       y1="1315.663"
       x1="-915.54724"
       gradientUnits="userSpaceOnUse"
       id="linearGradient7065"
       xlink:href="#linearGradient6128"
       inkscape:collect="always" />
    <linearGradient
       y2="1394.5615"
       x2="-915.54724"
       y1="1315.663"
       x1="-915.54724"
       gradientUnits="userSpaceOnUse"
       id="linearGradient7063"
       xlink:href="#linearGradient6128"
       inkscape:collect="always" />
    <linearGradient
       y2="1394.5615"
       x2="-915.54724"
       y1="1315.663"
       x1="-915.54724"
       gradientUnits="userSpaceOnUse"
       id="linearGradient7061"
       xlink:href="#linearGradient6128"
       inkscape:collect="always" />
    <linearGradient
       y2="1394.5615"
       x2="-915.54724"
       y1="1315.663"
       x1="-915.54724"
       gradientUnits="userSpaceOnUse"
       id="linearGradient7059"
       xlink:href="#linearGradient6128"
       inkscape:collect="always" />
    <linearGradient
       y2="1394.5615"
       x2="-915.54724"
       y1="1315.663"
       x1="-915.54724"
       gradientUnits="userSpaceOnUse"
       id="linearGradient7057"
       xlink:href="#linearGradient6128"
       inkscape:collect="always" />
    <linearGradient
       y2="1394.5615"
       x2="-915.54724"
       y1="1315.663"
       x1="-915.54724"
       gradientUnits="userSpaceOnUse"
       id="linearGradient7055"
       xlink:href="#linearGradient6128"
       inkscape:collect="always" />
    <linearGradient
       y2="1394.5615"
       x2="-915.54724"
       y1="1315.663"
       x1="-915.54724"
       gradientUnits="userSpaceOnUse"
       id="linearGradient7053"
       xlink:href="#linearGradient6128"
       inkscape:collect="always" />
    <linearGradient
       y2="1394.5615"
       x2="-915.54724"
       y1="1315.663"
       x1="-915.54724"
       gradientUnits="userSpaceOnUse"
       id="linearGradient7051"
       xlink:href="#linearGradient6128"
       inkscape:collect="always" />
    <linearGradient
       y2="1394.5615"
       x2="-915.54724"
       y1="1315.663"
       x1="-915.54724"
       gradientUnits="userSpaceOnUse"
       id="linearGradient7049"
       xlink:href="#linearGradient6128"
       inkscape:collect="always" />
    <linearGradient
       y2="1394.5615"
       x2="-915.54724"
       y1="1315.663"
       x1="-915.54724"
       gradientUnits="userSpaceOnUse"
       id="linearGradient7047"
       xlink:href="#linearGradient6128"
       inkscape:collect="always" />
    <linearGradient
       y2="1394.5615"
       x2="-915.54724"
       y1="1315.663"
       x1="-915.54724"
       gradientUnits="userSpaceOnUse"
       id="linearGradient7045"
       xlink:href="#linearGradient6128"
       inkscape:collect="always" />
    <linearGradient
       y2="1394.5615"
       x2="-915.54724"
       y1="1315.663"
       x1="-915.54724"
       gradientUnits="userSpaceOnUse"
       id="linearGradient7043"
       xlink:href="#linearGradient6128"
       inkscape:collect="always" />
    <linearGradient
       y2="1394.5615"
       x2="-915.54724"
       y1="1315.663"
       x1="-915.54724"
       gradientUnits="userSpaceOnUse"
       id="linearGradient7041"
       xlink:href="#linearGradient6128"
       inkscape:collect="always" />
    <linearGradient
       y2="1394.5615"
       x2="-915.54724"
       y1="1315.663"
       x1="-915.54724"
       gradientUnits="userSpaceOnUse"
       id="linearGradient7039"
       xlink:href="#linearGradient6128"
       inkscape:collect="always" />
    <linearGradient
       id="linearGradient6128"
       inkscape:collect="always">
      <stop
         id="stop6130"
         offset="0"
         style="stop-color:#ffffff;stop-opacity:1;" />
      <stop
         id="stop6132"
         offset="1"
         style="stop-color:#ffffff;stop-opacity:0;" />
    </linearGradient>
    <linearGradient
       y2="1394.5615"
       x2="-915.54724"
       y1="1315.663"
       x1="-915.54724"
       gradientUnits="userSpaceOnUse"
       id="linearGradient7079"
       xlink:href="#linearGradient6128"
       inkscape:collect="always" />
    <linearGradient
       y2="-77.832855"
       x2="-745.33875"
       y1="-189.86911"
       x1="-745.33875"
       gradientTransform="matrix(0.98110573,0,0,1.0126928,-183.15151,1350.013)"
       gradientUnits="userSpaceOnUse"
       id="linearGradient7035"
       xlink:href="#linearGradient4766"
       inkscape:collect="always" />
    <linearGradient
       y2="-77.832855"
       x2="-745.33875"
       y1="-189.86911"
       x1="-745.33875"
       gradientTransform="matrix(0.9811715,0,0,1.0126918,-183.21014,1350.013)"
       gradientUnits="userSpaceOnUse"
       id="linearGradient7033"
       xlink:href="#linearGradient4766"
       inkscape:collect="always" />
    <linearGradient
       y2="-77.832855"
       x2="-745.33875"
       y1="-189.86911"
       x1="-745.33875"
       gradientTransform="matrix(0.98194585,0,0,0.97983226,-182.62577,1346.3901)"
       gradientUnits="userSpaceOnUse"
       id="linearGradient7031"
       xlink:href="#linearGradient4766"
       inkscape:collect="always" />
    <linearGradient
       y2="-77.832855"
       x2="-745.33875"
       y1="-189.86911"
       x1="-745.33875"
       gradientTransform="matrix(0.98182794,0,0,0.97983423,-182.72174,1346.3902)"
       gradientUnits="userSpaceOnUse"
       id="linearGradient7029"
       xlink:href="#linearGradient4766"
       inkscape:collect="always" />
    <linearGradient
       id="linearGradient4766"
       inkscape:collect="always">
      <stop
         id="stop4768"
         offset="0"
         style="stop-color:#ff9955;stop-opacity:1" />
      <stop
         id="stop4770"
         offset="1"
         style="stop-color:#ff6600;stop-opacity:1" />
    </linearGradient>
    <linearGradient
       y2="-77.832855"
       x2="-745.33875"
       y1="-189.86911"
       x1="-745.33875"
       gradientTransform="matrix(0.98178945,0,0,0.98178945,-182.75867,1346.4001)"
       gradientUnits="userSpaceOnUse"
       id="linearGradient7037"
       xlink:href="#linearGradient4766"
       inkscape:collect="always" />
    <linearGradient
       inkscape:collect="always"
       id="linearGradient4940">
      <stop
         style="stop-color:#ffccaa;stop-opacity:1"
         offset="0"
         id="stop4942" />
      <stop
         style="stop-color:#ff6600;stop-opacity:1"
         offset="1"
         id="stop4944" />
    </linearGradient>
    <radialGradient
       r="90.157059"
       fy="-208.61775"
       fx="-411.323"
       cy="-208.61775"
       cx="-411.323"
       gradientTransform="matrix(-0.02228917,1.4933764,-0.93526017,-0.01395909,-788.90749,1779.2418)"
       gradientUnits="userSpaceOnUse"
       id="radialGradient6379"
       xlink:href="#linearGradient4940"
       inkscape:collect="always" />
    <linearGradient
       y2="-177.24957"
       x2="-702.27167"
       y1="-287.68533"
       x1="-702.27167"
       gradientTransform="matrix(1.0390466,0,0,1.0390466,-186.33078,1310.5916)"
       gradientUnits="userSpaceOnUse"
       id="linearGradient7025"
       xlink:href="#linearGradient4805"
       inkscape:collect="always" />
    <linearGradient
       y2="-177.24957"
       x2="-702.27167"
       y1="-287.68533"
       x1="-702.27167"
       gradientTransform="matrix(1.0390466,0,0,1.0390466,-186.33078,1310.5916)"
       gradientUnits="userSpaceOnUse"
       id="linearGradient7023"
       xlink:href="#linearGradient4805"
       inkscape:collect="always" />
    <linearGradient
       y2="-177.24957"
       x2="-702.27167"
       y1="-287.68533"
       x1="-702.27167"
       gradientTransform="matrix(1.0390466,0,0,1.0390466,-186.33078,1310.5916)"
       gradientUnits="userSpaceOnUse"
       id="linearGradient7021"
       xlink:href="#linearGradient4805"
       inkscape:collect="always" />
    <linearGradient
       y2="-177.24957"
       x2="-702.27167"
       y1="-287.68533"
       x1="-702.27167"
       gradientTransform="matrix(1.0390466,0,0,1.0390466,-186.33078,1310.5916)"
       gradientUnits="userSpaceOnUse"
       id="linearGradient7019"
       xlink:href="#linearGradient4805"
       inkscape:collect="always" />
    <linearGradient
       y2="-177.24957"
       x2="-702.27167"
       y1="-287.68533"
       x1="-702.27167"
       gradientTransform="matrix(1.0390466,0,0,1.0390466,-186.33078,1310.5916)"
       gradientUnits="userSpaceOnUse"
       id="linearGradient7017"
       xlink:href="#linearGradient4805"
       inkscape:collect="always" />
    <linearGradient
       y2="-177.24957"
       x2="-702.27167"
       y1="-287.68533"
       x1="-702.27167"
       gradientTransform="matrix(1.0390466,0,0,1.0390466,-186.33078,1310.5916)"
       gradientUnits="userSpaceOnUse"
       id="linearGradient7015"
       xlink:href="#linearGradient4805"
       inkscape:collect="always" />
    <linearGradient
       y2="-177.24957"
       x2="-702.27167"
       y1="-287.68533"
       x1="-702.27167"
       gradientTransform="matrix(1.0390466,0,0,1.0390466,-186.33078,1310.5916)"
       gradientUnits="userSpaceOnUse"
       id="linearGradient7013"
       xlink:href="#linearGradient4805"
       inkscape:collect="always" />
    <linearGradient
       id="linearGradient4805"
       inkscape:collect="always">
      <stop
         id="stop4807"
         offset="0"
         style="stop-color:#ffffff;stop-opacity:1;" />
      <stop
         id="stop4809"
         offset="1"
         style="stop-color:#ffffff;stop-opacity:0;" />
    </linearGradient>
    <linearGradient
       y2="-177.24957"
       x2="-702.27167"
       y1="-287.68533"
       x1="-702.27167"
       gradientTransform="matrix(1.0390466,0,0,1.0390466,-186.33078,1310.5916)"
       gradientUnits="userSpaceOnUse"
       id="linearGradient7027"
       xlink:href="#linearGradient4805"
       inkscape:collect="always" />
  </defs>
  <sodipodi:namedview
     id="base"
     pagecolor="#6b050e"
     bordercolor="#666666"
     borderopacity="1.0"
     gridtolerance="10000"
     guidetolerance="10"
     objecttolerance="10"
     inkscape:pageopacity="1"
     inkscape:pageshadow="2"
     inkscape:zoom="0.84880128"
     inkscape:cx="400.82123"
     inkscape:cy="300.3454"
     inkscape:document-units="px"
     inkscape:current-layer="layer1"
     showgrid="false"
     inkscape:window-width="1267"
     inkscape:window-height="721"
     inkscape:window-x="61"
     inkscape:window-y="30"
     inkscape:window-maximized="0" />
  <metadata
     id="metadata7">
    <rdf:RDF>
      <cc:Work
         rdf:about="">
        <dc:format>image/svg+xml</dc:format>
        <dc:type
           rdf:resource="http://purl.org/dc/dcmitype/StillImage" />
        <dc:title />
      </cc:Work>
    </rdf:RDF>
  </metadata>
  <g
     inkscape:label="Layer 1"
     inkscape:groupmode="layer"
     id="layer1">
    <rect
       style="opacity:1;fill:#000000;fill-opacity:0"
       id="rect2398"
       width="800"
       height="600"
       x="0"
       y="0" />
    <g
       transform="matrix(0.70248061,0,0,1.2531986,263.96372,41.528369)"
       style="font-size:32px;font-style:normal;font-variant:normal;font-weight:normal;font-stretch:normal;text-align:center;line-height:100%;writing-mode:lr-tb;text-anchor:middle;fill:#ffffff;fill-opacity:1;stroke:none;font-family:Bitstream Vera Sans;-inkscape-font-specification:Bitstream Vera Sans"
       id="titlebox">
      <path
         d="m 99.59375,123.9074 3.17188,0 0,14.17188 c -1e-5,2.50001 0.45311,4.30209 1.35937,5.40625 0.90624,1.09375 2.37499,1.64063 4.40625,1.64062 2.02082,1e-5 3.48436,-0.54687 4.39063,-1.64062 0.90623,-1.10416 1.35935,-2.90624 1.35937,-5.40625 l 0,-14.17188 3.17188,0 0,14.5625 c -3e-5,3.04168 -0.75523,5.33855 -2.26563,6.89063 -1.50002,1.55208 -3.71876,2.32812 -6.65625,2.32812 -2.94793,0 -5.17709,-0.77604 -6.6875,-2.32812 -1.5,-1.55208 -2.250003,-3.84895 -2.25,-6.89063 l 0,-14.5625"
         id="path3304"
         inkscape:connector-curvature="0" />
      <path
         d="m 134.45312,136.29803 c 0.67707,0.22918 1.33332,0.71876 1.96875,1.46875 0.64582,0.75001 1.29165,1.78126 1.9375,3.09375 l 3.20313,6.375 -3.39063,0 -2.98437,-5.98438 c -0.77085,-1.56249 -1.52085,-2.59895 -2.25,-3.10937 -0.71876,-0.51041 -1.70314,-0.76562 -2.95313,-0.76563 l -3.43749,0 0,9.85938 -3.15625,0 0,-23.32813 7.12499,0 c 2.66666,3e-5 4.65624,0.55732 5.96875,1.67188 1.31249,1.1146 1.96874,2.79689 1.96875,5.04687 -1e-5,1.46877 -0.34376,2.68752 -1.03125,3.65625 -0.67709,0.96877 -1.66668,1.64064 -2.96875,2.01563 m -7.90624,-9.79688 0,8.28125 3.96874,0 c 1.52083,2e-5 2.66666,-0.34894 3.4375,-1.04687 0.78124,-0.70832 1.17187,-1.74478 1.17188,-3.10938 -1e-5,-1.36456 -0.39064,-2.3906 -1.17188,-3.07812 -0.77084,-0.6979 -1.91667,-1.04686 -3.4375,-1.04688 l -3.96874,0"
         id="path3306"
         inkscape:connector-curvature="0" />
      <path
         d="m 158.98437,126.50115 0,18.14063 3.8125,0 c 3.21874,0 5.57291,-0.72916 7.0625,-2.1875 1.49999,-1.45833 2.24999,-3.76041 2.25,-6.90625 -1e-5,-3.12499 -0.75001,-5.41144 -2.25,-6.85938 -1.48959,-1.45831 -3.84376,-2.18748 -7.0625,-2.1875 l -3.8125,0 m -3.15625,-2.59375 6.48438,0 c 4.52082,3e-5 7.83852,0.94273 9.95312,2.82813 2.11457,1.87502 3.17186,4.81251 3.17188,8.8125 -2e-5,4.02084 -1.06252,6.97396 -3.1875,8.85937 -2.12502,1.88542 -5.43751,2.82813 -9.9375,2.82813 l -6.48438,0 0,-23.32813"
         id="path3308"
         inkscape:connector-curvature="0" />
      <path
         d="m 189.92187,126.04803 c -2.29167,2e-5 -4.11459,0.85419 -5.46875,2.5625 -1.34375,1.70835 -2.01563,4.03647 -2.01562,6.98437 -1e-5,2.93751 0.67187,5.26043 2.01562,6.96875 1.35416,1.70834 3.17708,2.56251 5.46875,2.5625 2.29166,1e-5 4.10415,-0.85416 5.4375,-2.5625 1.34374,-1.70832 2.01561,-4.03124 2.01563,-6.96875 -2e-5,-2.9479 -0.67189,-5.27602 -2.01563,-6.98437 -1.33335,-1.70831 -3.14584,-2.56248 -5.4375,-2.5625 m 0,-2.5625 c 3.27082,2e-5 5.8854,1.09898 7.84375,3.29687 1.95832,2.18752 2.93748,5.12502 2.9375,8.8125 -2e-5,3.67709 -0.97918,6.61459 -2.9375,8.8125 -1.95835,2.1875 -4.57293,3.28125 -7.84375,3.28125 -3.28125,0 -5.90625,-1.09375 -7.875,-3.28125 -1.95833,-2.18749 -2.9375,-5.12499 -2.9375,-8.8125 0,-3.68748 0.97917,-6.62498 2.9375,-8.8125 1.96875,-2.19789 4.59375,-3.29685 7.875,-3.29687"
         id="path3310"
         inkscape:connector-curvature="0" />
      <path
         d="m 205.64062,123.9074 3.15625,0 0,23.32813 -3.15625,0 0,-23.32813"
         id="path3312"
         inkscape:connector-curvature="0" />
      <path
         d="m 215.07812,123.9074 4.25,0 10.34375,19.51563 0,-19.51563 3.0625,0 0,23.32813 -4.25,0 -10.34375,-19.51563 0,19.51563 -3.0625,0 0,-23.32813"
         id="path3314"
         inkscape:connector-curvature="0" />
      <path
         d="m 254.92187,143.9074 0,-6.26562 -5.15625,0 0,-2.59375 8.28125,0 0,10.01562 c -1.21877,0.86459 -2.56251,1.52084 -4.03125,1.96875 -1.46876,0.4375 -3.03647,0.65625 -4.70312,0.65625 -3.64584,0 -6.50001,-1.0625 -8.5625,-3.1875 -2.05209,-2.13541 -3.07813,-5.10416 -3.07813,-8.90625 0,-3.81248 1.02604,-6.78123 3.07813,-8.90625 2.06249,-2.13539 4.91666,-3.2031 8.5625,-3.20312 1.52082,2e-5 2.96353,0.18752 4.32812,0.5625 1.37499,0.37502 2.64061,0.9271 3.79688,1.65625 l 0,3.35937 c -1.16669,-0.98956 -2.40627,-1.73435 -3.71875,-2.23437 -1.31252,-0.49998 -2.69272,-0.74998 -4.14063,-0.75 -2.85417,2e-5 -5,0.79689 -6.4375,2.39062 -1.42708,1.59377 -2.14063,3.96877 -2.14062,7.125 -1e-5,3.14585 0.71354,5.51563 2.14062,7.10938 1.4375,1.59375 3.58333,2.39063 6.4375,2.39062 1.11457,1e-5 2.10936,-0.0937 2.98438,-0.28125 0.87498,-0.19791 1.66144,-0.49999 2.35937,-0.90625"
         id="path3316"
         inkscape:connector-curvature="0" />
      <path
         d="m 274.01562,123.9074 3.15625,0 0,23.32813 -3.15625,0 0,-23.32813"
         id="path3318"
         inkscape:connector-curvature="0" />
      <path
         d="m 280.21875,123.9074 19.73437,0 0,2.65625 -8.28125,0 0,20.67188 -3.17187,0 0,-20.67188 -8.28125,0 0,-2.65625"
         id="path3320"
         inkscape:connector-curvature="0" />
      <path
         d="m 311.125,123.9074 3.1875,0 4.90625,19.71875 4.89062,-19.71875 3.54688,0 4.90625,19.71875 4.89062,-19.71875 3.20313,0 -5.85938,23.32813 -3.96875,0 -4.92187,-20.25 -4.96875,20.25 -3.96875,0 -5.84375,-23.32813"
         id="path3322"
         inkscape:connector-curvature="0" />
      <path
         d="m 355.89062,136.29803 c 0.67707,0.22918 1.33332,0.71876 1.96875,1.46875 0.64582,0.75001 1.29165,1.78126 1.9375,3.09375 l 3.20313,6.375 -3.39063,0 -2.98437,-5.98438 c -0.77085,-1.56249 -1.52085,-2.59895 -2.25,-3.10937 -0.71876,-0.51041 -1.70314,-0.76562 -2.95313,-0.76563 l -3.4375,0 0,9.85938 -3.15625,0 0,-23.32813 7.125,0 c 2.66666,3e-5 4.65624,0.55732 5.96875,1.67188 1.31249,1.1146 1.96874,2.79689 1.96875,5.04687 -1e-5,1.46877 -0.34376,2.68752 -1.03125,3.65625 -0.67709,0.96877 -1.66668,1.64064 -2.96875,2.01563 m -7.90625,-9.79688 0,8.28125 3.96875,0 c 1.52083,2e-5 2.66666,-0.34894 3.4375,-1.04687 0.78124,-0.70832 1.17187,-1.74478 1.17188,-3.10938 -10e-6,-1.36456 -0.39064,-2.3906 -1.17188,-3.07812 -0.77084,-0.6979 -1.91667,-1.04686 -3.4375,-1.04688 l -3.96875,0"
         id="path3324"
         inkscape:connector-curvature="0" />
      <path
         d="m 376.54687,126.04803 c -2.29167,2e-5 -4.11459,0.85419 -5.46875,2.5625 -1.34375,1.70835 -2.01563,4.03647 -2.01562,6.98437 -10e-6,2.93751 0.67187,5.26043 2.01562,6.96875 1.35416,1.70834 3.17708,2.56251 5.46875,2.5625 2.29166,1e-5 4.10415,-0.85416 5.4375,-2.5625 1.34374,-1.70832 2.01561,-4.03124 2.01563,-6.96875 -2e-5,-2.9479 -0.67189,-5.27602 -2.01563,-6.98437 -1.33335,-1.70831 -3.14584,-2.56248 -5.4375,-2.5625 m 0,-2.5625 c 3.27082,2e-5 5.8854,1.09898 7.84375,3.29687 1.95832,2.18752 2.93748,5.12502 2.9375,8.8125 -2e-5,3.67709 -0.97918,6.61459 -2.9375,8.8125 -1.95835,2.1875 -4.57293,3.28125 -7.84375,3.28125 -3.28125,0 -5.90625,-1.09375 -7.875,-3.28125 -1.95833,-2.18749 -2.9375,-5.12499 -2.9375,-8.8125 0,-3.68748 0.97917,-6.62498 2.9375,-8.8125 1.96875,-2.19789 4.59375,-3.29685 7.875,-3.29687"
         id="path3326"
         inkscape:connector-curvature="0" />
      <path
         d="m 392.26562,123.9074 4.25,0 10.34375,19.51563 0,-19.51563 3.0625,0 0,23.32813 -4.25,0 -10.34375,-19.51563 0,19.51563 -3.0625,0 0,-23.32813"
         id="path3328"
         inkscape:connector-curvature="0" />
      <path
         d="m 432.10937,143.9074 0,-6.26562 -5.15625,0 0,-2.59375 8.28125,0 0,10.01562 c -1.21877,0.86459 -2.56251,1.52084 -4.03125,1.96875 -1.46876,0.4375 -3.03647,0.65625 -4.70312,0.65625 -3.64584,0 -6.50001,-1.0625 -8.5625,-3.1875 -2.05209,-2.13541 -3.07813,-5.10416 -3.07813,-8.90625 0,-3.81248 1.02604,-6.78123 3.07813,-8.90625 2.06249,-2.13539 4.91666,-3.2031 8.5625,-3.20312 1.52082,2e-5 2.96353,0.18752 4.32812,0.5625 1.37499,0.37502 2.64061,0.9271 3.79688,1.65625 l 0,3.35937 c -1.16669,-0.98956 -2.40627,-1.73435 -3.71875,-2.23437 -1.31252,-0.49998 -2.69272,-0.74998 -4.14063,-0.75 -2.85417,2e-5 -5,0.79689 -6.4375,2.39062 -1.42708,1.59377 -2.14063,3.96877 -2.14062,7.125 -10e-6,3.14585 0.71354,5.51563 2.14062,7.10938 1.4375,1.59375 3.58333,2.39063 6.4375,2.39062 1.11457,1e-5 2.10936,-0.0937 2.98438,-0.28125 0.87498,-0.19791 1.66144,-0.49999 2.35937,-0.90625"
         id="path3330"
         inkscape:connector-curvature="0" />
      <path
         d="m 459.9375,122.92303 0,2.39062 -2.75,0 c -1.03126,3e-5 -1.75001,0.20836 -2.15625,0.625 -0.39584,0.41669 -0.59376,1.16669 -0.59375,2.25 l 0,1.54688 4.73437,0 0,2.23437 -4.73437,0 0,15.26563 -2.89063,0 0,-15.26563 -2.75,0 0,-2.23437 2.75,0 0,-1.21875 c 0,-1.9479 0.45313,-3.36456 1.35938,-4.25 0.90624,-0.89581 2.34374,-1.34373 4.3125,-1.34375 l 2.71875,0"
         id="path3332"
         inkscape:connector-curvature="0" />
      <path
         d="m 469.10937,131.75115 c -1.54167,2e-5 -2.76042,0.60419 -3.65625,1.8125 -0.89583,1.19793 -1.34375,2.84376 -1.34375,4.9375 0,2.09376 0.44271,3.7448 1.32813,4.95313 0.89583,1.19792 2.11978,1.79688 3.67187,1.79687 1.53124,1e-5 2.74478,-0.60416 3.64063,-1.8125 0.89582,-1.20832 1.34374,-2.85416 1.34375,-4.9375 -10e-6,-2.0729 -0.44793,-3.71353 -1.34375,-4.92187 -0.89585,-1.21874 -2.10939,-1.82811 -3.64063,-1.82813 m 0,-2.4375 c 2.49999,2e-5 4.46353,0.81252 5.89063,2.4375 1.42707,1.62502 2.14061,3.87502 2.14062,6.75 -1e-5,2.86459 -0.71355,5.11459 -2.14062,6.75 -1.4271,1.625 -3.39064,2.4375 -5.89063,2.4375 -2.51042,0 -4.47917,-0.8125 -5.90625,-2.4375 -1.41666,-1.63541 -2.125,-3.88541 -2.125,-6.75 0,-2.87498 0.70834,-5.12498 2.125,-6.75 1.42708,-1.62498 3.39583,-2.43748 5.90625,-2.4375"
         id="path3334"
         inkscape:connector-curvature="0" />
      <path
         d="m 492.03125,132.42303 c -0.32293,-0.18749 -0.6771,-0.3229 -1.0625,-0.40625 -0.37501,-0.0937 -0.79168,-0.14061 -1.25,-0.14063 -1.62501,2e-5 -2.87501,0.53127 -3.75,1.59375 -0.86459,1.0521 -1.29688,2.56772 -1.29688,4.54688 l 0,9.21875 -2.89062,0 0,-17.5 2.89062,0 0,2.71875 c 0.60417,-1.06249 1.39062,-1.84894 2.35938,-2.35938 0.96874,-0.52081 2.14582,-0.78123 3.53125,-0.78125 0.1979,2e-5 0.41665,0.0156 0.65625,0.0469 0.23957,0.0208 0.5052,0.0573 0.79687,0.10937 l 0.0156,2.95313"
         id="path3336"
         inkscape:connector-curvature="0" />
      <path
         d="m 516.78125,138.2824 c -10e-6,-2.08332 -0.43231,-3.6979 -1.29688,-4.84375 -0.85417,-1.14581 -2.0573,-1.71873 -3.60937,-1.71875 -1.54167,2e-5 -2.7448,0.57294 -3.60938,1.71875 -0.85417,1.14585 -1.28125,2.76043 -1.28125,4.84375 0,2.07293 0.42708,3.6823 1.28125,4.82813 0.86458,1.14583 2.06771,1.71875 3.60938,1.71875 1.55207,0 2.7552,-0.57292 3.60937,-1.71875 0.86457,-1.14583 1.29687,-2.7552 1.29688,-4.82813 m 2.875,6.78125 c -2e-5,2.97917 -0.66148,5.19271 -1.98438,6.64063 -1.32293,1.45833 -3.34897,2.18749 -6.07812,2.1875 -1.01043,-1e-5 -1.96355,-0.0781 -2.85938,-0.23438 -0.89583,-0.14584 -1.76562,-0.375 -2.60937,-0.6875 l 0,-2.79687 c 0.84375,0.45833 1.67708,0.79687 2.5,1.01562 0.82291,0.21875 1.66145,0.32812 2.51562,0.32813 1.88541,-1e-5 3.29687,-0.4948 4.23438,-1.48438 0.93749,-0.97916 1.40624,-2.46354 1.40625,-4.45312 l 0,-1.42188 c -0.59376,1.03126 -1.35418,1.80209 -2.28125,2.3125 -0.92709,0.51042 -2.03647,0.76563 -3.32813,0.76563 -2.14584,0 -3.875,-0.81771 -5.1875,-2.45313 -1.3125,-1.63541 -1.96875,-3.80207 -1.96875,-6.5 0,-2.70832 0.65625,-4.88019 1.96875,-6.51562 1.3125,-1.6354 3.04166,-2.45311 5.1875,-2.45313 1.29166,2e-5 2.40104,0.25523 3.32813,0.76563 0.92707,0.51043 1.68749,1.28126 2.28125,2.3125 l 0,-2.65625 2.875,0 0,15.32812"
         id="path3338"
         inkscape:connector-curvature="0" />
      <path
         d="m 532.35937,131.75115 c -1.54167,2e-5 -2.76042,0.60419 -3.65625,1.8125 -0.89583,1.19793 -1.34375,2.84376 -1.34375,4.9375 0,2.09376 0.44271,3.7448 1.32813,4.95313 0.89583,1.19792 2.11978,1.79688 3.67187,1.79687 1.53124,1e-5 2.74478,-0.60416 3.64063,-1.8125 0.89582,-1.20832 1.34374,-2.85416 1.34375,-4.9375 -10e-6,-2.0729 -0.44793,-3.71353 -1.34375,-4.92187 -0.89585,-1.21874 -2.10939,-1.82811 -3.64063,-1.82813 m 0,-2.4375 c 2.49999,2e-5 4.46353,0.81252 5.89063,2.4375 1.42707,1.62502 2.14061,3.87502 2.14062,6.75 -10e-6,2.86459 -0.71355,5.11459 -2.14062,6.75 -1.4271,1.625 -3.39064,2.4375 -5.89063,2.4375 -2.51042,0 -4.47917,-0.8125 -5.90625,-2.4375 -1.41666,-1.63541 -2.125,-3.88541 -2.125,-6.75 0,-2.87498 0.70834,-5.12498 2.125,-6.75 1.42708,-1.62498 3.39583,-2.43748 5.90625,-2.4375"
         id="path3340"
         inkscape:connector-curvature="0" />
      <path
         d="m 556.65625,132.39178 0,-9.46875 2.875,0 0,24.3125 -2.875,0 0,-2.625 c -0.60418,1.04167 -1.3698,1.81771 -2.29688,2.32812 -0.91667,0.5 -2.02084,0.75 -3.3125,0.75 -2.11459,0 -3.83854,-0.84375 -5.17187,-2.53125 -1.32292,-1.68749 -1.98438,-3.90624 -1.98438,-6.65625 0,-2.74998 0.66146,-4.96873 1.98438,-6.65625 1.33333,-1.68748 3.05728,-2.53123 5.17187,-2.53125 1.29166,2e-5 2.39583,0.25523 3.3125,0.76563 0.92708,0.50002 1.6927,1.27085 2.29688,2.3125 m -9.79688,6.10937 c 0,2.11459 0.43229,3.77605 1.29688,4.98438 0.87499,1.19792 2.07291,1.79688 3.59375,1.79687 1.52082,1e-5 2.71874,-0.59895 3.59375,-1.79687 0.87499,-1.20833 1.31249,-2.86979 1.3125,-4.98438 -10e-6,-2.11457 -0.43751,-3.77082 -1.3125,-4.96875 -0.87501,-1.20831 -2.07293,-1.81248 -3.59375,-1.8125 -1.52084,2e-5 -2.71876,0.60419 -3.59375,1.8125 -0.86459,1.19793 -1.29688,2.85418 -1.29688,4.96875"
         id="path3342"
         inkscape:connector-curvature="0" />
      <path
         d="m 586.79687,130.25115 0,2.71875 c -0.81251,-0.41665 -1.65626,-0.72915 -2.53125,-0.9375 -0.87501,-0.20831 -1.78125,-0.31248 -2.71875,-0.3125 -1.42709,2e-5 -2.5,0.21877 -3.21875,0.65625 -0.70833,0.43752 -1.0625,1.09377 -1.0625,1.96875 0,0.66668 0.25521,1.19272 0.76563,1.57813 0.51041,0.37501 1.53645,0.73438 3.07812,1.07812 l 0.98438,0.21875 c 2.04166,0.43751 3.48957,1.0573 4.34375,1.85938 0.86457,0.79167 1.29686,1.90105 1.29687,3.32812 -10e-6,1.62501 -0.64584,2.91146 -1.9375,3.85938 -1.28126,0.94792 -3.04688,1.42187 -5.29687,1.42187 -0.93751,0 -1.91667,-0.0937 -2.9375,-0.28125 -1.01042,-0.17708 -2.07813,-0.44791 -3.20313,-0.8125 l 0,-2.96875 c 1.0625,0.55209 2.10938,0.96876 3.14063,1.25 1.03124,0.27084 2.05208,0.40626 3.0625,0.40625 1.35416,1e-5 2.39582,-0.22916 3.125,-0.6875 0.72915,-0.46874 1.09374,-1.12499 1.09375,-1.96875 -10e-6,-0.78124 -0.26564,-1.3802 -0.79688,-1.79687 -0.52084,-0.41666 -1.67188,-0.8177 -3.45312,-1.20313 l -1,-0.23437 c -1.78126,-0.37499 -3.06771,-0.94791 -3.85938,-1.71875 -0.79166,-0.78124 -1.1875,-1.84895 -1.1875,-3.20313 0,-1.64582 0.58334,-2.91665 1.75,-3.8125 1.16667,-0.89581 2.82292,-1.34373 4.96875,-1.34375 1.0625,2e-5 2.06249,0.0781 3,0.23438 0.93749,0.15627 1.80207,0.39064 2.59375,0.70312"
         id="path3344"
         inkscape:connector-curvature="0" />
      <path
         d="m 600.28125,138.43865 c -2.32293,1e-5 -3.9323,0.26564 -4.82813,0.79688 -0.89583,0.53126 -1.34375,1.43751 -1.34375,2.71875 0,1.02084 0.33333,1.83334 1,2.4375 0.67708,0.59375 1.59375,0.89063 2.75,0.89062 1.59374,1e-5 2.86979,-0.56249 3.82813,-1.6875 0.96874,-1.13541 1.45311,-2.64062 1.45312,-4.51562 l 0,-0.64063 -2.85937,0 m 5.73437,-1.1875 0,9.98438 -2.875,0 0,-2.65625 c -0.65626,1.0625 -1.47397,1.84896 -2.45312,2.35937 -0.97918,0.5 -2.17709,0.75 -3.59375,0.75 -1.79167,0 -3.21875,-0.5 -4.28125,-1.5 -1.05209,-1.01041 -1.57813,-2.35937 -1.57813,-4.04687 0,-1.96874 0.65625,-3.45312 1.96875,-4.45313 1.32292,-0.99999 3.29166,-1.49999 5.90625,-1.5 l 4.03125,0 0,-0.28125 c -10e-6,-1.3229 -0.43751,-2.34373 -1.3125,-3.0625 -0.86459,-0.72915 -2.08334,-1.09373 -3.65625,-1.09375 -1,2e-5 -1.97396,0.11981 -2.92187,0.35938 -0.94792,0.2396 -1.85938,0.59897 -2.73438,1.07812 l 0,-2.65625 c 1.05208,-0.40623 2.07292,-0.70831 3.0625,-0.90625 0.98958,-0.20831 1.95312,-0.31248 2.89063,-0.3125 2.53124,2e-5 4.42186,0.65627 5.67187,1.96875 1.24999,1.31252 1.87499,3.3021 1.875,5.96875"
         id="path3346"
         inkscape:connector-curvature="0" />
      <path
         d="m 611.84375,122.92303 2.89062,0 0,14.35937 8.57813,-7.54687 3.67187,0 -9.28125,8.1875 9.67188,9.3125 -3.75,0 -8.89063,-8.54688 0,8.54688 -2.89062,0 0,-24.3125"
         id="path3348"
         inkscape:connector-curvature="0" />
      <path
         d="m 644.35937,137.76678 0,1.40625 -13.21875,0 c 0.125,1.97917 0.71875,3.48959 1.78125,4.53125 1.07291,1.03125 2.5625,1.54688 4.46875,1.54687 1.10416,1e-5 2.17187,-0.13541 3.20313,-0.40625 1.04165,-0.27083 2.0729,-0.67708 3.09375,-1.21875 l 0,2.71875 c -1.03127,0.4375 -2.08856,0.77084 -3.17188,1 -1.08334,0.22917 -2.1823,0.34375 -3.29687,0.34375 -2.79167,0 -5.00521,-0.8125 -6.64063,-2.4375 -1.625,-1.62499 -2.4375,-3.82291 -2.4375,-6.59375 0,-2.86457 0.77084,-5.1354 2.3125,-6.8125 1.55208,-1.68748 3.64062,-2.53123 6.26563,-2.53125 2.35415,2e-5 4.21353,0.76044 5.57812,2.28125 1.37499,1.51043 2.06249,3.56772 2.0625,6.17188 m -2.875,-0.84375 c -0.0208,-1.57291 -0.46355,-2.82811 -1.32812,-3.76563 -0.85418,-0.93748 -1.9896,-1.40623 -3.40625,-1.40625 -1.60418,2e-5 -2.89063,0.45314 -3.85938,1.35938 -0.95833,0.90626 -1.51042,2.1823 -1.65625,3.82812 l 10.25,-0.0156"
         id="path3350"
         inkscape:connector-curvature="0" />
      <path
         d="m 649.8125,143.26678 3.29687,0 0,2.6875 -2.5625,5 -2.01562,0 1.28125,-5 0,-2.6875"
         id="path3352"
         inkscape:connector-curvature="0" />
      <path
         d="m 676.73437,148.86053 c -0.8125,2.08333 -1.60417,3.4427 -2.375,4.07812 -0.77084,0.63541 -1.80208,0.95312 -3.09375,0.95313 l -2.29687,0 0,-2.40625 1.6875,0 c 0.79166,-1e-5 1.40624,-0.18751 1.84375,-0.5625 0.43749,-0.375 0.92187,-1.26042 1.45312,-2.65625 l 0.51563,-1.3125 -7.07813,-17.21875 3.04688,0 5.46875,13.6875 5.46875,-13.6875 3.04687,0 -7.6875,19.125"
         id="path3354"
         inkscape:connector-curvature="0" />
      <path
         d="m 695.17187,131.75115 c -1.54167,2e-5 -2.76042,0.60419 -3.65625,1.8125 -0.89583,1.19793 -1.34375,2.84376 -1.34375,4.9375 0,2.09376 0.44271,3.7448 1.32813,4.95313 0.89583,1.19792 2.11978,1.79688 3.67187,1.79687 1.53124,1e-5 2.74478,-0.60416 3.64063,-1.8125 0.89582,-1.20832 1.34374,-2.85416 1.34375,-4.9375 -10e-6,-2.0729 -0.44793,-3.71353 -1.34375,-4.92187 -0.89585,-1.21874 -2.10939,-1.82811 -3.64063,-1.82813 m 0,-2.4375 c 2.49999,2e-5 4.46353,0.81252 5.89063,2.4375 1.42707,1.62502 2.14061,3.87502 2.14062,6.75 -10e-6,2.86459 -0.71355,5.11459 -2.14062,6.75 -1.4271,1.625 -3.39064,2.4375 -5.89063,2.4375 -2.51042,0 -4.47917,-0.8125 -5.90625,-2.4375 -1.41666,-1.63541 -2.125,-3.88541 -2.125,-6.75 0,-2.87498 0.70834,-5.12498 2.125,-6.75 1.42708,-1.62498 3.39583,-2.43748 5.90625,-2.4375"
         id="path3356"
         inkscape:connector-curvature="0" />
      <path
         d="m 707.65625,140.32928 0,-10.59375 2.875,0 0,10.48437 c -10e-6,1.65626 0.32291,2.90105 0.96875,3.73438 0.64583,0.82292 1.61458,1.23438 2.90625,1.23437 1.55207,1e-5 2.77603,-0.49479 3.67187,-1.48437 0.90624,-0.98958 1.35937,-2.33854 1.35938,-4.04688 l 0,-9.92187 2.875,0 0,17.5 -2.875,0 0,-2.6875 c -0.69793,1.0625 -1.51043,1.85417 -2.4375,2.375 -0.91668,0.51041 -1.98439,0.76562 -3.20313,0.76562 -2.01042,0 -3.53646,-0.625 -4.57812,-1.875 -1.04167,-1.24999 -1.5625,-3.07812 -1.5625,-5.48437 m 7.23437,-11.01563 0,0"
         id="path3358"
         inkscape:connector-curvature="0" />
      <path
         d="m 148.90625,164.42303 c -0.32293,-0.18749 -0.6771,-0.3229 -1.0625,-0.40625 -0.37501,-0.0937 -0.79168,-0.14061 -1.25,-0.14063 -1.62501,2e-5 -2.87501,0.53127 -3.75,1.59375 -0.86459,1.0521 -1.29688,2.56772 -1.29688,4.54688 l 0,9.21875 -2.89062,0 0,-17.5 2.89062,0 0,2.71875 c 0.60417,-1.06249 1.39062,-1.84894 2.35938,-2.35938 0.96874,-0.52081 2.14582,-0.78123 3.53125,-0.78125 0.1979,2e-5 0.41665,0.0156 0.65625,0.0469 0.23957,0.0208 0.5052,0.0573 0.79687,0.10937 l 0.0156,2.95313"
         id="path3360"
         inkscape:connector-curvature="0" />
      <path
         d="m 166.23437,169.76678 0,1.40625 -13.21875,0 c 0.125,1.97917 0.71875,3.48959 1.78125,4.53125 1.07291,1.03125 2.5625,1.54688 4.46875,1.54687 1.10416,1e-5 2.17187,-0.13541 3.20313,-0.40625 1.04165,-0.27083 2.0729,-0.67708 3.09375,-1.21875 l 0,2.71875 c -1.03127,0.4375 -2.08856,0.77084 -3.17188,1 -1.08334,0.22917 -2.1823,0.34375 -3.29687,0.34375 -2.79167,0 -5.00521,-0.8125 -6.64063,-2.4375 -1.625,-1.62499 -2.4375,-3.82291 -2.4375,-6.59375 0,-2.86457 0.77084,-5.1354 2.3125,-6.8125 1.55208,-1.68748 3.64062,-2.53123 6.26563,-2.53125 2.35415,2e-5 4.21353,0.76044 5.57812,2.28125 1.37499,1.51043 2.06249,3.56772 2.0625,6.17188 m -2.875,-0.84375 c -0.0208,-1.57291 -0.46355,-2.82811 -1.32812,-3.76563 -0.85418,-0.93748 -1.9896,-1.40623 -3.40625,-1.40625 -1.60418,2e-5 -2.89063,0.45314 -3.85938,1.35938 -0.95833,0.90626 -1.51042,2.1823 -1.65625,3.82812 l 10.25,-0.0156"
         id="path3362"
         inkscape:connector-curvature="0" />
      <path
         d="m 178.90625,170.43865 c -2.32293,1e-5 -3.9323,0.26564 -4.82813,0.79688 -0.89583,0.53126 -1.34375,1.43751 -1.34375,2.71875 0,1.02084 0.33333,1.83334 1,2.4375 0.67708,0.59375 1.59375,0.89063 2.75,0.89062 1.59374,1e-5 2.86979,-0.56249 3.82813,-1.6875 0.96874,-1.13541 1.45311,-2.64062 1.45312,-4.51562 l 0,-0.64063 -2.85937,0 m 5.73437,-1.1875 0,9.98438 -2.875,0 0,-2.65625 c -0.65626,1.0625 -1.47397,1.84896 -2.45312,2.35937 -0.97918,0.5 -2.17709,0.75 -3.59375,0.75 -1.79167,0 -3.21875,-0.5 -4.28125,-1.5 -1.05209,-1.01041 -1.57813,-2.35937 -1.57813,-4.04687 0,-1.96874 0.65625,-3.45312 1.96875,-4.45313 1.32292,-0.99999 3.29166,-1.49999 5.90625,-1.5 l 4.03125,0 0,-0.28125 c -1e-5,-1.3229 -0.43751,-2.34373 -1.3125,-3.0625 -0.86459,-0.72915 -2.08334,-1.09373 -3.65625,-1.09375 -1,2e-5 -1.97396,0.11981 -2.92187,0.35938 -0.94792,0.2396 -1.85938,0.59897 -2.73438,1.07812 l 0,-2.65625 c 1.05208,-0.40623 2.07292,-0.70831 3.0625,-0.90625 0.98958,-0.20831 1.95312,-0.31248 2.89063,-0.3125 2.53124,2e-5 4.42186,0.65627 5.67187,1.96875 1.24999,1.31252 1.87499,3.3021 1.875,5.96875"
         id="path3364"
         inkscape:connector-curvature="0" />
      <path
         d="m 190.57812,154.92303 2.875,0 0,24.3125 -2.875,0 0,-24.3125"
         id="path3366"
         inkscape:connector-curvature="0" />
      <path
         d="m 199.45312,154.92303 2.875,0 0,24.3125 -2.875,0 0,-24.3125"
         id="path3368"
         inkscape:connector-curvature="0" />
      <path
         d="m 215.60937,180.86053 c -0.8125,2.08333 -1.60417,3.4427 -2.375,4.07812 -0.77084,0.63541 -1.80208,0.95312 -3.09375,0.95313 l -2.29687,0 0,-2.40625 1.6875,0 c 0.79166,-1e-5 1.40624,-0.18751 1.84375,-0.5625 0.43749,-0.375 0.92187,-1.26042 1.45312,-2.65625 l 0.51563,-1.3125 -7.07813,-17.21875 3.04688,0 5.46875,13.6875 5.46875,-13.6875 3.04687,0 -7.6875,19.125"
         id="path3370"
         inkscape:connector-curvature="0" />
      <path
         d="m 252,168.67303 0,10.5625 -2.875,0 0,-10.46875 c -1e-5,-1.65624 -0.32293,-2.89582 -0.96875,-3.71875 -0.64585,-0.8229 -1.6146,-1.23436 -2.90625,-1.23438 -1.55209,2e-5 -2.77605,0.49481 -3.67188,1.48438 -0.89583,0.98959 -1.34375,2.33855 -1.34375,4.04687 l 0,9.89063 -2.89062,0 0,-17.5 2.89062,0 0,2.71875 c 0.6875,-1.05207 1.49479,-1.83853 2.42188,-2.35938 0.93749,-0.52081 2.01561,-0.78123 3.23437,-0.78125 2.01041,2e-5 3.53124,0.62502 4.5625,1.875 1.03124,1.2396 1.54686,3.06772 1.54688,5.48438"
         id="path3372"
         inkscape:connector-curvature="0" />
      <path
         d="m 272.73437,169.76678 0,1.40625 -13.21875,0 c 0.125,1.97917 0.71875,3.48959 1.78125,4.53125 1.07291,1.03125 2.5625,1.54688 4.46875,1.54687 1.10416,1e-5 2.17187,-0.13541 3.20313,-0.40625 1.04165,-0.27083 2.0729,-0.67708 3.09375,-1.21875 l 0,2.71875 c -1.03127,0.4375 -2.08856,0.77084 -3.17188,1 -1.08334,0.22917 -2.1823,0.34375 -3.29687,0.34375 -2.79167,0 -5.00521,-0.8125 -6.64063,-2.4375 -1.625,-1.62499 -2.4375,-3.82291 -2.4375,-6.59375 0,-2.86457 0.77084,-5.1354 2.3125,-6.8125 1.55208,-1.68748 3.64062,-2.53123 6.26563,-2.53125 2.35415,2e-5 4.21353,0.76044 5.57812,2.28125 1.37499,1.51043 2.06249,3.56772 2.0625,6.17188 m -2.875,-0.84375 c -0.0208,-1.57291 -0.46355,-2.82811 -1.32812,-3.76563 -0.85418,-0.93748 -1.9896,-1.40623 -3.40625,-1.40625 -1.60418,2e-5 -2.89063,0.45314 -3.85938,1.35938 -0.95833,0.90626 -1.51042,2.1823 -1.65625,3.82812 l 10.25,-0.0156"
         id="path3374"
         inkscape:connector-curvature="0" />
      <path
         d="m 292.42187,169.76678 0,1.40625 -13.21875,0 c 0.125,1.97917 0.71875,3.48959 1.78125,4.53125 1.07291,1.03125 2.5625,1.54688 4.46875,1.54687 1.10416,1e-5 2.17187,-0.13541 3.20313,-0.40625 1.04165,-0.27083 2.0729,-0.67708 3.09375,-1.21875 l 0,2.71875 c -1.03127,0.4375 -2.08856,0.77084 -3.17188,1 -1.08334,0.22917 -2.1823,0.34375 -3.29687,0.34375 -2.79167,0 -5.00521,-0.8125 -6.64063,-2.4375 -1.625,-1.62499 -2.4375,-3.82291 -2.4375,-6.59375 0,-2.86457 0.77084,-5.1354 2.3125,-6.8125 1.55208,-1.68748 3.64062,-2.53123 6.26563,-2.53125 2.35415,2e-5 4.21353,0.76044 5.57812,2.28125 1.37499,1.51043 2.06249,3.56772 2.0625,6.17188 m -2.875,-0.84375 c -0.0208,-1.57291 -0.46355,-2.82811 -1.32812,-3.76563 -0.85418,-0.93748 -1.9896,-1.40623 -3.40625,-1.40625 -1.60418,2e-5 -2.89063,0.45314 -3.85938,1.35938 -0.95833,0.90626 -1.51042,2.1823 -1.65625,3.82812 l 10.25,-0.0156"
         id="path3376"
         inkscape:connector-curvature="0" />
      <path
         d="m 308.65625,164.39178 0,-9.46875 2.875,0 0,24.3125 -2.875,0 0,-2.625 c -0.60418,1.04167 -1.3698,1.81771 -2.29688,2.32812 -0.91667,0.5 -2.02084,0.75 -3.3125,0.75 -2.11459,0 -3.83854,-0.84375 -5.17187,-2.53125 -1.32292,-1.68749 -1.98438,-3.90624 -1.98438,-6.65625 0,-2.74998 0.66146,-4.96873 1.98438,-6.65625 1.33333,-1.68748 3.05728,-2.53123 5.17187,-2.53125 1.29166,2e-5 2.39583,0.25523 3.3125,0.76563 0.92708,0.50002 1.6927,1.27085 2.29688,2.3125 m -9.79688,6.10937 c 0,2.11459 0.43229,3.77605 1.29688,4.98438 0.87499,1.19792 2.07291,1.79688 3.59375,1.79687 1.52082,1e-5 2.71874,-0.59895 3.59375,-1.79687 0.87499,-1.20833 1.31249,-2.86979 1.3125,-4.98438 -10e-6,-2.11457 -0.43751,-3.77082 -1.3125,-4.96875 -0.87501,-1.20831 -2.07293,-1.81248 -3.59375,-1.8125 -1.52084,2e-5 -2.71876,0.60419 -3.59375,1.8125 -0.86459,1.19793 -1.29688,2.85418 -1.29688,4.96875"
         id="path3378"
         inkscape:connector-curvature="0" />
      <path
         d="m 330.48437,156.76678 0,4.96875 5.92188,0 0,2.23437 -5.92188,0 0,9.5 c 0,1.42709 0.19271,2.34376 0.57813,2.75 0.39583,0.40626 1.1927,0.60938 2.39062,0.60938 l 2.95313,0 0,2.40625 -2.95313,0 c -2.21875,0 -3.75,-0.41146 -4.59375,-1.23438 -0.84375,-0.83333 -1.26562,-2.34374 -1.26562,-4.53125 l 0,-9.5 -2.10938,0 0,-2.23437 2.10938,0 0,-4.96875 2.89062,0"
         id="path3380"
         inkscape:connector-curvature="0" />
      <path
         d="m 346.98437,163.75115 c -1.54167,2e-5 -2.76042,0.60419 -3.65625,1.8125 -0.89583,1.19793 -1.34375,2.84376 -1.34375,4.9375 0,2.09376 0.44271,3.7448 1.32813,4.95313 0.89583,1.19792 2.11978,1.79688 3.67187,1.79687 1.53124,1e-5 2.74478,-0.60416 3.64063,-1.8125 0.89582,-1.20832 1.34374,-2.85416 1.34375,-4.9375 -10e-6,-2.0729 -0.44793,-3.71353 -1.34375,-4.92187 -0.89585,-1.21874 -2.10939,-1.82811 -3.64063,-1.82813 m 0,-2.4375 c 2.49999,2e-5 4.46353,0.81252 5.89063,2.4375 1.42707,1.62502 2.14061,3.87502 2.14062,6.75 -1e-5,2.86459 -0.71355,5.11459 -2.14062,6.75 -1.4271,1.625 -3.39064,2.4375 -5.89063,2.4375 -2.51042,0 -4.47917,-0.8125 -5.90625,-2.4375 -1.41666,-1.63541 -2.125,-3.88541 -2.125,-6.75 0,-2.87498 0.70834,-5.12498 2.125,-6.75 1.42708,-1.62498 3.39583,-2.43748 5.90625,-2.4375"
         id="path3382"
         inkscape:connector-curvature="0" />
      <path
         d="m 372.73437,176.61053 0,9.28125 -2.89062,0 0,-24.15625 2.89062,0 0,2.65625 c 0.60417,-1.04165 1.36458,-1.81248 2.28125,-2.3125 0.92708,-0.5104 2.03124,-0.76561 3.3125,-0.76563 2.12499,2e-5 3.84895,0.84377 5.17188,2.53125 1.33332,1.68752 1.99998,3.90627 2,6.65625 -2e-5,2.75001 -0.66668,4.96876 -2,6.65625 -1.32293,1.6875 -3.04689,2.53125 -5.17188,2.53125 -1.28126,0 -2.38542,-0.25 -3.3125,-0.75 -0.91667,-0.51041 -1.67708,-1.28645 -2.28125,-2.32812 m 9.78125,-6.10938 c -1e-5,-2.11457 -0.43751,-3.77082 -1.3125,-4.96875 -0.86459,-1.20831 -2.0573,-1.81248 -3.57812,-1.8125 -1.52084,2e-5 -2.71876,0.60419 -3.59375,1.8125 -0.86459,1.19793 -1.29688,2.85418 -1.29688,4.96875 0,2.11459 0.43229,3.77605 1.29688,4.98438 0.87499,1.19792 2.07291,1.79688 3.59375,1.79687 1.52082,1e-5 2.71353,-0.59895 3.57812,-1.79687 0.87499,-1.20833 1.31249,-2.86979 1.3125,-4.98438"
         id="path3384"
         inkscape:connector-curvature="0" />
      <path
         d="m 390.26562,154.92303 2.875,0 0,24.3125 -2.875,0 0,-24.3125"
         id="path3386"
         inkscape:connector-curvature="0" />
      <path
         d="m 414.10937,169.76678 0,1.40625 -13.21875,0 c 0.125,1.97917 0.71875,3.48959 1.78125,4.53125 1.07291,1.03125 2.5625,1.54688 4.46875,1.54687 1.10416,1e-5 2.17187,-0.13541 3.20313,-0.40625 1.04165,-0.27083 2.0729,-0.67708 3.09375,-1.21875 l 0,2.71875 c -1.03127,0.4375 -2.08856,0.77084 -3.17188,1 -1.08334,0.22917 -2.1823,0.34375 -3.29687,0.34375 -2.79167,0 -5.00521,-0.8125 -6.64063,-2.4375 -1.625,-1.62499 -2.4375,-3.82291 -2.4375,-6.59375 0,-2.86457 0.77084,-5.1354 2.3125,-6.8125 1.55208,-1.68748 3.64062,-2.53123 6.26563,-2.53125 2.35415,2e-5 4.21353,0.76044 5.57812,2.28125 1.37499,1.51043 2.06249,3.56772 2.0625,6.17188 m -2.875,-0.84375 c -0.0208,-1.57291 -0.46355,-2.82811 -1.32812,-3.76563 -0.85418,-0.93748 -1.9896,-1.40623 -3.40625,-1.40625 -1.60418,2e-5 -2.89063,0.45314 -3.85938,1.35938 -0.95833,0.90626 -1.51042,2.1823 -1.65625,3.82812 l 10.25,-0.0156"
         id="path3388"
         inkscape:connector-curvature="0" />
      <path
         d="m 426.78125,170.43865 c -2.32293,1e-5 -3.9323,0.26564 -4.82813,0.79688 -0.89583,0.53126 -1.34375,1.43751 -1.34375,2.71875 0,1.02084 0.33333,1.83334 1,2.4375 0.67708,0.59375 1.59375,0.89063 2.75,0.89062 1.59374,1e-5 2.86979,-0.56249 3.82813,-1.6875 0.96874,-1.13541 1.45311,-2.64062 1.45312,-4.51562 l 0,-0.64063 -2.85937,0 m 5.73437,-1.1875 0,9.98438 -2.875,0 0,-2.65625 c -0.65626,1.0625 -1.47397,1.84896 -2.45312,2.35937 -0.97918,0.5 -2.17709,0.75 -3.59375,0.75 -1.79167,0 -3.21875,-0.5 -4.28125,-1.5 -1.05209,-1.01041 -1.57813,-2.35937 -1.57813,-4.04687 0,-1.96874 0.65625,-3.45312 1.96875,-4.45313 1.32292,-0.99999 3.29166,-1.49999 5.90625,-1.5 l 4.03125,0 0,-0.28125 c -1e-5,-1.3229 -0.43751,-2.34373 -1.3125,-3.0625 -0.86459,-0.72915 -2.08334,-1.09373 -3.65625,-1.09375 -1,2e-5 -1.97396,0.11981 -2.92187,0.35938 -0.94792,0.2396 -1.85938,0.59897 -2.73438,1.07812 l 0,-2.65625 c 1.05208,-0.40623 2.07292,-0.70831 3.0625,-0.90625 0.98958,-0.20831 1.95312,-0.31248 2.89063,-0.3125 2.53124,2e-5 4.42186,0.65627 5.67187,1.96875 1.24999,1.31252 1.87499,3.3021 1.875,5.96875"
         id="path3390"
         inkscape:connector-curvature="0" />
      <path
         d="m 449.60937,162.25115 0,2.71875 c -0.81251,-0.41665 -1.65626,-0.72915 -2.53125,-0.9375 -0.87501,-0.20831 -1.78125,-0.31248 -2.71875,-0.3125 -1.42709,2e-5 -2.5,0.21877 -3.21875,0.65625 -0.70833,0.43752 -1.0625,1.09377 -1.0625,1.96875 0,0.66668 0.25521,1.19272 0.76563,1.57813 0.51041,0.37501 1.53645,0.73438 3.07812,1.07812 l 0.98438,0.21875 c 2.04166,0.43751 3.48957,1.0573 4.34375,1.85938 0.86457,0.79167 1.29686,1.90105 1.29687,3.32812 -1e-5,1.62501 -0.64584,2.91146 -1.9375,3.85938 -1.28126,0.94792 -3.04688,1.42187 -5.29687,1.42187 -0.93751,0 -1.91667,-0.0937 -2.9375,-0.28125 -1.01042,-0.17708 -2.07813,-0.44791 -3.20313,-0.8125 l 0,-2.96875 c 1.0625,0.55209 2.10938,0.96876 3.14063,1.25 1.03124,0.27084 2.05208,0.40626 3.0625,0.40625 1.35416,1e-5 2.39582,-0.22916 3.125,-0.6875 0.72915,-0.46874 1.09374,-1.12499 1.09375,-1.96875 -10e-6,-0.78124 -0.26564,-1.3802 -0.79688,-1.79687 -0.52084,-0.41666 -1.67188,-0.8177 -3.45312,-1.20313 l -1,-0.23437 c -1.78126,-0.37499 -3.06771,-0.94791 -3.85938,-1.71875 -0.79166,-0.78124 -1.1875,-1.84895 -1.1875,-3.20313 0,-1.64582 0.58334,-2.91665 1.75,-3.8125 1.16667,-0.89581 2.82292,-1.34373 4.96875,-1.34375 1.0625,2e-5 2.06249,0.0781 3,0.23438 0.93749,0.15627 1.80207,0.39064 2.59375,0.70312"
         id="path3392"
         inkscape:connector-curvature="0" />
      <path
         d="m 470.10937,169.76678 0,1.40625 -13.21875,0 c 0.125,1.97917 0.71875,3.48959 1.78125,4.53125 1.07291,1.03125 2.5625,1.54688 4.46875,1.54687 1.10416,1e-5 2.17187,-0.13541 3.20313,-0.40625 1.04165,-0.27083 2.0729,-0.67708 3.09375,-1.21875 l 0,2.71875 c -1.03127,0.4375 -2.08856,0.77084 -3.17188,1 -1.08334,0.22917 -2.1823,0.34375 -3.29687,0.34375 -2.79167,0 -5.00521,-0.8125 -6.64063,-2.4375 -1.625,-1.62499 -2.4375,-3.82291 -2.4375,-6.59375 0,-2.86457 0.77084,-5.1354 2.3125,-6.8125 1.55208,-1.68748 3.64062,-2.53123 6.26563,-2.53125 2.35415,2e-5 4.21353,0.76044 5.57812,2.28125 1.37499,1.51043 2.06249,3.56772 2.0625,6.17188 m -2.875,-0.84375 c -0.0208,-1.57291 -0.46355,-2.82811 -1.32812,-3.76563 -0.85418,-0.93748 -1.9896,-1.40623 -3.40625,-1.40625 -1.60418,2e-5 -2.89063,0.45314 -3.85938,1.35938 -0.95833,0.90626 -1.51042,2.1823 -1.65625,3.82812 l 10.25,-0.0156"
         id="path3394"
         inkscape:connector-curvature="0" />
      <path
         d="m 496.20312,168.29803 c 0.67707,0.22918 1.33332,0.71876 1.96875,1.46875 0.64582,0.75001 1.29165,1.78126 1.9375,3.09375 l 3.20313,6.375 -3.39063,0 -2.98437,-5.98438 c -0.77085,-1.56249 -1.52085,-2.59895 -2.25,-3.10937 -0.71876,-0.51041 -1.70314,-0.76562 -2.95313,-0.76563 l -3.4375,0 0,9.85938 -3.15625,0 0,-23.32813 7.125,0 c 2.66666,3e-5 4.65624,0.55732 5.96875,1.67188 1.31249,1.1146 1.96874,2.79689 1.96875,5.04687 -1e-5,1.46877 -0.34376,2.68752 -1.03125,3.65625 -0.67709,0.96877 -1.66668,1.64064 -2.96875,2.01563 m -7.90625,-9.79688 0,8.28125 3.96875,0 c 1.52083,2e-5 2.66666,-0.34894 3.4375,-1.04687 0.78124,-0.70832 1.17187,-1.74478 1.17188,-3.10938 -10e-6,-1.36456 -0.39064,-2.3906 -1.17188,-3.07812 -0.77084,-0.6979 -1.91667,-1.04686 -3.4375,-1.04688 l -3.96875,0"
         id="path3396"
         inkscape:connector-curvature="0" />
      <path
         d="m 501.84375,155.9074 19.73437,0 0,2.65625 -8.28125,0 0,20.67188 -3.17187,0 0,-20.67188 -8.28125,0 0,-2.65625"
         id="path3398"
         inkscape:connector-curvature="0" />
      <path
         d="m 524.64062,155.9074 13.40625,0 0,2.65625 -10.25,0 0,6.875 9.25,0 0,2.65625 -9.25,0 0,11.14063 -3.15625,0 0,-23.32813"
         id="path3400"
         inkscape:connector-curvature="0" />
      <path
         d="m 543.07812,155.9074 4.70313,0 5.95312,15.875 5.98438,-15.875 4.70312,0 0,23.32813 -3.07812,0 0,-20.48438 -6.01563,16 -3.17187,0 -6.01563,-16 0,20.48438 -3.0625,0 0,-23.32813"
         id="path3402"
         inkscape:connector-curvature="0" />
      <path
         d="m 571.3125,175.26678 3.29687,0 0,2.6875 -2.5625,5 -2.01562,0 1.28125,-5 0,-2.6875"
         id="path3404"
         inkscape:connector-curvature="0" />
      <path
         d="m 602.14062,168.29803 c 0.67707,0.22918 1.33332,0.71876 1.96875,1.46875 0.64582,0.75001 1.29165,1.78126 1.9375,3.09375 l 3.20313,6.375 -3.39063,0 -2.98437,-5.98438 c -0.77085,-1.56249 -1.52085,-2.59895 -2.25,-3.10937 -0.71876,-0.51041 -1.70314,-0.76562 -2.95313,-0.76563 l -3.4375,0 0,9.85938 -3.15625,0 0,-23.32813 7.125,0 c 2.66666,3e-5 4.65624,0.55732 5.96875,1.67188 1.31249,1.1146 1.96874,2.79689 1.96875,5.04687 -10e-6,1.46877 -0.34376,2.68752 -1.03125,3.65625 -0.67709,0.96877 -1.66668,1.64064 -2.96875,2.01563 m -7.90625,-9.79688 0,8.28125 3.96875,0 c 1.52083,2e-5 2.66666,-0.34894 3.4375,-1.04687 0.78124,-0.70832 1.17187,-1.74478 1.17188,-3.10938 -10e-6,-1.36456 -0.39064,-2.3906 -1.17188,-3.07812 -0.77084,-0.6979 -1.91667,-1.04686 -3.4375,-1.04688 l -3.96875,0"
         id="path3406"
         inkscape:connector-curvature="0" />
      <path
         d="m 607.78125,155.9074 19.73437,0 0,2.65625 -8.28125,0 0,20.67188 -3.17187,0 0,-20.67188 -8.28125,0 0,-2.65625"
         id="path3408"
         inkscape:connector-curvature="0" />
      <path
         d="m 630.57812,155.9074 13.40625,0 0,2.65625 -10.25,0 0,6.875 9.25,0 0,2.65625 -9.25,0 0,11.14063 -3.15625,0 0,-23.32813"
         id="path3410"
         inkscape:connector-curvature="0" />
      <path
         d="m 649.01562,155.9074 4.70313,0 5.95312,15.875 5.98438,-15.875 4.70312,0 0,23.32813 -3.07812,0 0,-20.48438 -6.01563,16 -3.17187,0 -6.01563,-16 0,20.48438 -3.0625,0 0,-23.32813"
         id="path3412"
         inkscape:connector-curvature="0" />
      <path
         d="m 678.32812,175.26678 3.17188,0 0,3.96875 -3.17188,0 0,-3.96875 m 0,-19.35938 3.17188,0 0,10.23438 -0.3125,5.57812 -2.53125,0 -0.32813,-5.57812 0,-10.23438"
         id="path3414"
         inkscape:connector-curvature="0" />
    </g>
    <flowRoot
       transform="matrix(1,0,0,1.1970692,141.42376,79.93411)"
       style="font-size:32px;font-style:normal;font-variant:normal;font-weight:normal;font-stretch:normal;text-align:center;line-height:100%;writing-mode:lr-tb;text-anchor:middle;fill:#ffffff;fill-opacity:1;stroke:none;font-family:Bitstream Vera Sans;-inkscape-font-specification:Bitstream Vera Sans"
       id="presenterbox"
       xml:space="preserve"><flowRegion
         id="flowRegion2830"><rect
           style="font-size:32px;font-style:normal;font-variant:normal;font-weight:normal;font-stretch:normal;text-align:center;line-height:100%;writing-mode:lr-tb;text-anchor:middle;font-family:Bitstream Vera Sans;-inkscape-font-specification:Bitstream Vera Sans"
           y="191.71947"
           x="68.642532"
           height="80"
           width="684.7511"
           id="rect2832" /></flowRegion><flowPara
         id="presenternames"
         style="font-weight:normal">By: Carl &quot;Speedy&quot; Karsten</flowPara></flowRoot>    <flowRoot
       xml:space="preserve"
       id="flowRoot2802"
       style="font-size:18px;font-style:normal;font-variant:normal;font-weight:normal;font-stretch:normal;text-align:left;line-height:110.00000238%;writing-mode:lr-tb;text-anchor:middle;fill:#000000;fill-opacity:1;stroke:none;font-family:Bitstream Vera Sans;-inkscape-font-specification:Bitstream Vera Sans"
       transform="matrix(1.7433323,0,0,1.2699132,-129.39729,128.36202)"><flowRegion
         id="flowRegion2804"><rect
           id="rect2806"
           width="127.43188"
           height="25.721367"
           x="81.975098"
           y="287.85004"
           style="font-size:18px;font-style:normal;font-variant:normal;font-weight:normal;font-stretch:normal;text-align:center;line-height:110.00000238%;writing-mode:lr-tb;text-anchor:middle;font-family:Bitstream Vera Sans;-inkscape-font-specification:Bitstream Vera Sans"
           ry="0" /></flowRegion><flowPara
         id="flowPara2818">Produced by</flowPara></flowRoot>    <flowRoot
       transform="matrix(1,0,0,1.1970692,151.35566,135.93605)"
       style="font-size:32px;font-style:normal;font-variant:normal;font-weight:normal;font-stretch:normal;text-align:center;line-height:100%;writing-mode:lr-tb;text-anchor:middle;fill:#000000;fill-opacity:1;stroke:none;font-family:Bitstream Vera Sans;-inkscape-font-specification:Bitstream Vera Sans"
       id="presenterbox-5"
       xml:space="preserve"><flowRegion
         id="flowRegion2830-9"><rect
           style="font-size:32px;font-style:normal;font-variant:normal;font-weight:normal;font-stretch:normal;text-align:center;line-height:100%;writing-mode:lr-tb;text-anchor:middle;font-family:Bitstream Vera Sans;-inkscape-font-specification:Bitstream Vera Sans"
           y="191.71947"
           x="68.642532"
           height="80"
           width="684.7511"
           id="rect2832-4" /></flowRegion><flowPara
         id="presentertitle"
         style="font-weight:normal">Video MaD Man</flowPara></flowRoot>    <flowRoot
       xml:space="preserve"
       id="flowRoot3030"
       style="fill:black;stroke:none;stroke-opacity:1;stroke-width:1px;stroke-linejoin:miter;stroke-linecap:butt;fill-opacity:1;font-family:Bitstream Vera Sans;font-style:normal;font-weight:normal;font-size:40px;line-height:125%;letter-spacing:0px;word-spacing:0px"><flowRegion
         id="flowRegion3032"><rect
           id="rect3034"
           width="566.68152"
           height="76.578583"
           x="89.53804"
           y="469.22736" /></flowRegion><flowPara
         id="flowPara3036" /></flowRoot>    <flowRoot
       xml:space="preserve"
       id="flowRoot2576-7"
       style="font-size:16px;font-style:normal;font-variant:normal;font-weight:normal;font-stretch:normal;text-align:center;line-height:100%;writing-mode:lr-tb;text-anchor:middle;fill:#ffffff;fill-opacity:1;stroke:none;font-family:Bitstream Vera Sans;-inkscape-font-specification:Bitstream Vera Sans"
       transform="matrix(1.5228736,0,0,1.8229844,-491.19491,123.84037)"
       inkscape:label="#flowRoot2414"><flowRegion
         id="flowRegion2416-5"><rect
           id="rect2418-9"
           width="684.7511"
           height="95.016434"
           x="68.642532"
           y="121.71946"
           style="font-size:32px;font-style:normal;font-variant:normal;font-weight:normal;font-stretch:normal;text-align:center;line-height:100%;writing-mode:lr-tb;text-anchor:middle;fill:#ffffff;font-family:Bitstream Vera Sans;-inkscape-font-specification:Bitstream Vera Sans" /></flowRegion><flowPara
         id="date">September 99,9999</flowPara></flowRoot>    <g
       id="layer1-9"
       inkscape:label="Layer 1"
       transform="matrix(0.46051115,0,0,0.3650844,451.30094,341.33188)">
      <g
         transform="translate(1220.6931,-708.49755)"
         id="g6306">
        <path
           inkscape:connector-curvature="0"
           id="rect4739"
           d="m -2200.3023,1206.3397 1736.41842,0 0,210.3186 -1736.41842,0 z"
           style="fill:#000000;fill-rule:evenodd;stroke:#000000;stroke-width:0.78163189px;stroke-linecap:butt;stroke-linejoin:miter;stroke-opacity:1" />
        <g
           transform="translate(0,70.639215)"
           id="g6241">
          <g
             id="text3233"
             style="font-size:151.50627136px;font-style:normal;font-variant:normal;font-weight:normal;font-stretch:normal;line-height:125%;letter-spacing:0px;word-spacing:0px;fill:url(#linearGradient7027);fill-opacity:1;stroke:none;font-family:Arial;-inkscape-font-specification:Arial"
             transform="matrix(1.2311103,0,0,1.4753166,-617.37357,-261.99886)">
            <path
               inkscape:connector-curvature="0"
               id="path6805"
               style="fill:url(#linearGradient7013);font-family:Arial;-inkscape-font-specification:Arial"
               d="m -1248.726,1072.8942 0,-108.4513 14.7216,0 56.9628,85.1483 0,-85.1483 13.7598,0 0,108.4513 -14.7215,0 -56.9628,-85.22231 0,85.22231 -13.7599,0" />
            <path
               inkscape:connector-curvature="0"
               id="path6807"
               style="fill:url(#linearGradient7015);font-family:Arial;-inkscape-font-specification:Arial"
               d="m -1138.8691,1072.8942 0,-108.4513 78.4163,0 0,12.79814 -64.0646,0 0,33.21596 59.9958,0 0,12.7242 -59.9958,0 0,36.9148 66.5799,0 0,12.7982 -80.9316,0" />
            <path
               inkscape:connector-curvature="0"
               id="path6809"
               style="fill:url(#linearGradient7017);font-family:Arial;-inkscape-font-specification:Arial"
               d="m -1049.1342,1072.8942 41.9453,-56.519 -36.9888,-51.9323 17.0888,0 19.6781,27.8156 c 4.0934,5.77034 7.0032,10.209 8.72937,13.316 2.41655,-3.9454 5.27702,-8.06351 8.58141,-12.35429 l 21.82341,-28.77731 15.60929,0 -38.0985,51.1186 41.05761,57.3327 -17.75464,0 -27.29777,-38.6904 c -1.52892,-2.2192 -3.10711,-4.6358 -4.73457,-7.2498 -2.41661,3.9455 -4.14281,6.6581 -5.17841,8.1376 l -27.2238,37.8026 -17.2368,0" />
            <path
               inkscape:connector-curvature="0"
               id="path6811"
               style="fill:url(#linearGradient7019);font-family:Arial;-inkscape-font-specification:Arial"
               d="m -909.46438,1072.8942 0,-95.65316 -35.73121,0 0,-12.79814 85.96205,0 0,12.79814 -35.87917,0 0,95.65316 -14.35167,0" />
            <path
               inkscape:connector-curvature="0"
               id="path6813"
               style="fill:url(#linearGradient7021);font-family:Arial;-inkscape-font-specification:Arial"
               d="m -805.08185,1072.8942 0,-108.4513 37.35872,0 c 8.4334,1.1e-4 14.86945,0.51795 19.30817,1.55353 6.21405,1.43034 11.51578,4.01956 15.9052,7.76766 5.72085,4.8333 9.98689,11.02276 12.79814,18.56839 2.86037,7.49648 4.2906,16.07792 4.29071,25.74422 -1.1e-4,8.2362 -0.96181,15.5354 -2.88513,21.8974 -1.92352,6.3621 -4.38944,11.6392 -7.39777,15.8312 -3.00851,4.1428 -6.31285,7.4225 -9.91301,9.8391 -3.551,2.3672 -7.86636,4.1674 -12.94609,5.4003 -5.03055,1.233 -10.82546,1.8495 -17.38475,1.8495 l -39.13419,0 m 14.35167,-12.7982 23.15501,0 c 7.15112,0 12.74875,-0.6658 16.79293,-1.9974 4.09336,-1.3316 7.34837,-3.2057 9.76505,-5.6223 3.40289,-3.4029 6.04143,-7.9649 7.91561,-13.6858 1.92334,-5.7703 2.88504,-12.7488 2.88513,-20.9357 -9e-5,-11.3432 -1.87418,-20.0479 -5.6223,-26.11414 -3.69896,-6.1154 -8.2116,-10.20883 -13.53792,-12.28029 -3.8469,-1.47946 -10.03636,-2.21924 -18.56839,-2.21933 l -22.78512,0 0,82.85496" />
            <path
               inkscape:connector-curvature="0"
               id="path6815"
               style="fill:url(#linearGradient7023);font-family:Arial;-inkscape-font-specification:Arial"
               d="m -707.57929,1072.8942 41.64943,-108.4513 15.46133,0 44.3866,108.4513 -16.34906,0 -12.65019,-32.8461 -45.34831,0 -11.9104,32.8461 -15.2394,0 m 31.29255,-44.5346 36.7669,0 -11.31858,-30.03493 c -3.45234,-9.12383 -6.0169,-16.62022 -7.69368,-22.48921 -1.38096,6.95399 -3.32904,13.85857 -5.84423,20.71375 l -11.91041,31.81039" />
            <path
               inkscape:connector-curvature="0"
               id="path6817"
               style="fill:url(#linearGradient7025);font-family:Arial;-inkscape-font-specification:Arial"
               d="m -575.30721,1072.8942 0,-45.9402 -41.79739,-62.5111 17.45873,0 21.37955,32.69813 c 3.94543,6.11557 7.61965,12.23107 11.02267,18.34647 3.25497,-5.6716 7.20044,-12.0583 11.83643,-19.16023 l 21.00966,-31.88437 16.71895,0 -43.27693,62.5111 0,45.9402 -14.35167,0" />
          </g>
          <g
             id="text3229"
             style="font-size:244.91934204px;font-style:normal;font-variant:normal;font-weight:normal;font-stretch:normal;line-height:125%;letter-spacing:0px;word-spacing:0px;fill:url(#linearGradient7037);fill-opacity:1;stroke:#ff6600;stroke-width:5.43772173;font-family:Rufscript;-inkscape-font-specification:Rufscript">
            <path
               inkscape:connector-curvature="0"
               id="path6822"
               style="font-size:215.99368286px;font-weight:bold;text-align:start;line-height:125%;writing-mode:lr-tb;text-anchor:start;fill:url(#linearGradient7029);stroke:#ff6600;stroke-width:5.43241072;font-family:Arial Rounded MT Bold;-inkscape-font-specification:Arial Rounded MT Bold"
               d="m -1159.6483,1179.1007 35.0159,103.4663 35.1214,-104.203 c 1.8281,-5.4732 3.1991,-9.2624 4.1134,-11.3676 0.9139,-2.1752 2.4257,-4.1048 4.5351,-5.7891 2.1093,-1.7541 4.9921,-2.6312 8.6486,-2.6314 2.6718,2e-4 5.1327,0.6667 7.3829,1.9999 2.3202,1.3333 4.1131,3.1226 5.3789,5.368 1.3358,2.1754 2.0039,4.3858 2.004,6.6311 -10e-5,1.5439 -0.2112,3.228 -0.6329,5.0523 -0.422,1.7543 -0.9493,3.5086 -1.582,5.2627 -0.633,1.6843 -1.2658,3.4385 -1.8985,5.2628 l -37.4418,100.8349 c -1.336,3.8594 -2.672,7.5434 -4.0078,11.0519 -1.3361,3.4383 -2.8829,6.4907 -4.6407,9.1572 -1.7579,2.5963 -4.1134,4.7365 -7.0665,6.4206 -2.8829,1.684 -6.4336,2.5262 -10.6524,2.5262 -4.2189,0 -7.8048,-0.8422 -10.7579,-2.5262 -2.8829,-1.6139 -5.2384,-3.7541 -7.0665,-6.4206 -1.7579,-2.7366 -3.3047,-5.8242 -4.6407,-9.2625 -1.3359,-3.4383 -2.6719,-7.0872 -4.0078,-10.9466 l -36.809,-99.9928 c -0.6328,-1.8243 -1.3007,-3.6137 -2.0039,-5.3681 -0.6328,-1.7541 -1.1953,-3.6487 -1.6875,-5.6838 -0.4219,-2.0348 -0.6329,-3.754 -0.6329,-5.1575 0,-3.5785 1.4415,-6.8414 4.3243,-9.7888 2.8828,-2.947 6.504,-4.4205 10.8634,-4.4207 5.3437,2e-4 9.1055,1.6492 11.2853,4.947 2.25,3.228 4.5352,8.4206 6.8556,15.5778" />
            <path
               inkscape:connector-curvature="0"
               id="path6824"
               style="font-size:215.99368286px;font-weight:bold;text-align:start;line-height:125%;writing-mode:lr-tb;text-anchor:start;fill:url(#linearGradient7031);stroke:#ff6600;stroke-width:5.43273163;font-family:Arial Rounded MT Bold;-inkscape-font-specification:Arial Rounded MT Bold"
               d="m -1032.6689,1299.0921 0,-121.57 c 0,-6.3152 1.4416,-11.0516 4.3248,-14.2094 2.8832,-3.1575 6.6102,-4.7364 11.1812,-4.7366 4.7114,2e-4 8.5088,1.5791 11.3921,4.7366 2.9535,3.0876 4.4302,7.824 4.4302,14.2094 l 0,121.57 c 0,6.3855 -1.4767,11.1571 -4.4302,14.3148 -2.8833,3.1576 -6.6807,4.7365 -11.3921,4.7365 -4.5006,0 -8.2277,-1.5789 -11.1812,-4.7365 -2.8832,-3.2279 -4.3248,-7.9995 -4.3248,-14.3148" />
            <path
               inkscape:connector-curvature="0"
               id="path6826"
               style="font-size:215.99368286px;font-weight:bold;text-align:start;line-height:125%;writing-mode:lr-tb;text-anchor:start;fill:url(#linearGradient7033);stroke:#ff6600;stroke-width:5.52089787;font-family:Arial Rounded MT Bold;-inkscape-font-specification:Arial Rounded MT Bold"
               d="m -946.89327,1158.6202 40.78952,0 c 10.6101,10e-5 19.70956,1.0155 27.29841,3.046 7.58863,2.0307 14.47472,5.8382 20.65826,11.4224 16.09082,14.2148 24.13628,35.8268 24.13643,64.836 -1.5e-4,9.5732 -0.8082,18.3123 -2.42418,26.2173 -1.61626,7.905 -4.11071,15.0486 -7.48335,21.4307 -3.37291,6.3095 -7.69427,11.9663 -12.96411,16.9704 -4.14582,3.8438 -8.67799,6.9261 -13.59651,9.2468 -4.91873,2.3208 -10.22383,3.9525 -15.91529,4.8954 -5.62139,0.9427 -11.98047,1.4141 -19.07727,1.4141 l -40.78952,0 c -5.6916,0 -9.97783,-0.8702 -12.85871,-2.6108 -2.88094,-1.8131 -4.77812,-4.3151 -5.69157,-7.5062 -0.84321,-3.2635 -1.2648,-7.4699 -1.26478,-12.6191 l 0,-116.9441 c -2e-5,-6.9621 1.5107,-12.0025 4.53216,-15.1211 3.02142,-3.1184 7.90492,-4.6777 14.65051,-4.6778 m 12.12091,25.5645 0,108.2413 23.71484,0 c 5.19962,10e-5 9.27506,-0.145 12.22632,-0.4351 2.95109,-0.29 6.00766,-1.0154 9.16973,-2.1757 3.16189,-1.1604 5.90226,-2.7922 8.22114,-4.8954 10.46956,-9.1379 15.70438,-24.8754 15.7045,-47.2128 -1.2e-4,-15.7375 -2.3189,-27.5225 -6.95636,-35.3551 -4.5674,-7.8324 -10.22382,-12.8003 -16.96928,-14.9036 -6.74564,-2.1756 -14.89651,-3.2635 -24.45263,-3.2636 l -20.65826,0" />
            <path
               inkscape:connector-curvature="0"
               id="path6828"
               style="font-size:215.99368286px;font-weight:bold;text-align:start;line-height:125%;writing-mode:lr-tb;text-anchor:start;fill:url(#linearGradient7035);stroke:#ff6600;stroke-width:5.52071571;font-family:Arial Rounded MT Bold;-inkscape-font-specification:Arial Rounded MT Bold"
               d="m -704.59213,1183.5319 -70.5074,0 0,39.1627 64.92161,0 c 4.77766,10e-5 8.32587,1.1242 10.64461,3.3724 2.38877,2.1758 3.58322,5.0768 3.58335,8.7028 -1.3e-4,3.6263 -1.15945,6.5998 -3.47795,8.9204 -2.31875,2.2483 -5.90208,3.3724 -10.75001,3.3723 l -64.92161,0 0,45.3636 72.93142,0 c 4.91818,1e-4 8.6069,1.1967 11.06619,3.5899 2.52927,2.3208 3.79398,5.4393 3.79411,9.3555 -1.3e-4,3.7713 -1.26484,6.8535 -3.79411,9.2468 -2.45929,2.3208 -6.14801,3.4811 -11.06619,3.4811 l -85.05152,0 c -6.81539,0 -11.73369,-1.5592 -14.75491,-4.6777 -2.951,-3.1185 -4.42649,-8.1589 -4.42647,-15.1212 l 0,-119.8815 c -2e-5,-4.6413 0.66746,-8.4126 2.00245,-11.3136 1.33495,-2.9734 3.40766,-5.1129 6.21814,-6.4184 2.88069,-1.3778 6.53428,-2.0668 10.96079,-2.0669 l 82.6275,0 c 4.98844,10e-5 8.67717,1.1605 11.06619,3.4811 2.45901,2.2484 3.68859,5.2219 3.68873,8.9204 -1.4e-4,3.7714 -1.22972,6.8174 -3.68873,9.138 -2.38902,2.2483 -6.07775,3.3724 -11.06619,3.3723" />
          </g>
          <g
             id="g3102">
            <path
               style="fill:url(#radialGradient6379);fill-opacity:1;fill-rule:evenodd;stroke:#ff6600;stroke-width:5.25925636"
               d="m -631.69306,1158.4894 98.91466,0 c 16.84882,0 30.41304,13.5643 30.41304,30.413 l 0,98.9147 c 0,16.8487 -13.56422,30.413 -30.41304,30.413 l -98.91466,0 c -16.84883,0 -30.41305,-13.5643 -30.41305,-30.413 l 0,-98.9147 c 0,-16.8487 13.56422,-30.413 30.41305,-30.413 z"
               id="rect3118"
               inkscape:connector-curvature="0" />
            <path
               inkscape:connector-curvature="0"
               style="font-size:medium;font-style:normal;font-variant:normal;font-weight:normal;font-stretch:normal;text-indent:0;text-align:start;text-decoration:none;line-height:normal;letter-spacing:normal;word-spacing:normal;text-transform:none;direction:ltr;block-progression:tb;writing-mode:lr-tb;text-anchor:start;baseline-shift:baseline;color:#000000;fill:#ffffff;fill-opacity:1;stroke:none;stroke-width:26.75562668;marker:none;visibility:visible;display:inline;overflow:visible;enable-background:accumulate;font-family:Sans;-inkscape-font-specification:Sans"
               d="m -584.43851,1173.3856 c -32.7794,0.9544 -59.34,27.3125 -60,62.5625 -0.6812,36.3871 25.3624,66.6821 59.5938,67.4062 l 0.125,-20.6875 c -23.4261,-0.4955 -40.1849,-21.4112 -39.7188,-46.3125 0.4662,-24.9014 19.6364,-43.0581 43.0626,-42.5625 23.4261,0.4955 41.8099,19.4737 41.3437,44.375 -0.2192,11.7074 -4.7241,22.8486 -12.5625,31.0625 l -3.5938,-3.4687 c -0.377,-0.3708 -0.9089,-0.5788 -1.4374,-0.5625 -1,0.045 -1.8786,0.9677 -1.875,1.9687 l 0,21 c 0,1.0212 0.9163,1.9551 1.9374,1.9688 l 21.7188,0 c 0.7781,0 1.5502,-0.4982 1.8438,-1.2188 0.2935,-0.7206 0.09,-1.6151 -0.4688,-2.1562 l -3.3438,-3.2188 c 11.0857,-12.0182 17.4655,-28.0993 17.7813,-44.9687 0.6812,-36.3872 -26.9873,-64.4633 -61.2187,-65.1875 -1.0698,-0.023 -2.1301,-0.031 -3.1876,0 z"
               id="path3120" />
            <path
               style="fill:#2f2f36;fill-opacity:1;stroke:#2f2f36;stroke-width:8.25762749;stroke-linecap:round;stroke-linejoin:round;stroke-miterlimit:4;stroke-opacity:1;stroke-dashoffset:0"
               inkscape:transform-center-x="-3.965261"
               inkscape:transform-center-y="-3.8026582e-05"
               d="m -563.84011,1238.3159 -23.35884,20.6008 0,-41.2016 z"
               id="path6234"
               inkscape:connector-curvature="0" />
          </g>
        </g>
      </g>
    </g>
    <flowRoot
       xml:space="preserve"
       id="flowRoot2802-1"
       style="font-size:18px;font-style:normal;font-variant:normal;font-weight:normal;font-stretch:normal;text-align:center;line-height:110.00000238%;writing-mode:lr-tb;text-anchor:middle;fill:#000000;fill-opacity:1;stroke:none;font-family:Bitstream Vera Sans;-inkscape-font-specification:Bitstream Vera Sans"
       transform="matrix(1.7433323,0,0,1.2699132,-505.7749,20.09035)"><flowRegion
         id="flowRegion2804-2"><rect
           id="rect2806-9"
           width="587.64703"
           height="45.203621"
           x="88.733032"
           y="292.48868"
           style="font-size:18px;font-style:normal;font-variant:normal;font-weight:normal;font-stretch:normal;text-align:right;line-height:110.00000238%;writing-mode:lr-tb;text-anchor:middle;font-family:Bitstream Vera Sans;-inkscape-font-specification:Bitstream Vera Sans" /></flowRegion><flowPara
         id="flowPara2818-3">Video sponsord by</flowPara></flowRoot>    <image
       y="399.96448"
       x="245.77768"
       id="image3166"
       xlink:href="file:///home/carl/src/veyepar/dj/scripts/bling/logos/microsoft-transparent.png"
       height="124.76902"
       width="308.44464" />
    <image
       sodipodi:absref="/home/carl/src/veyepar/dj/scripts/bling/logos/pyohio-med.png"
       xlink:href="logos/pyohio-med.png"
       width="267"
       height="302"
       id="image3231"
       x="26.725964"
       y="15.447394" />
    <text
       xml:space="preserve"
       style="font-size:118.88734436px;font-weight:bold;line-height:125%;letter-spacing:0px;word-spacing:0px;fill:#ffffff;fill-opacity:1;stroke:none;font-family:league-gothic-1"
       x="485.53452"
       y="106.2201"
       id="text3299"
       sodipodi:linespacing="125%"
       transform="scale(0.74231307,1.3471405)"><tspan
         sodipodi:role="line"
         id="tspan3301"
         x="485.53452"
         y="106.2201">PyOHIO</tspan></text>
  </g>
</svg>
