<?xml version="1.0" encoding="UTF-8" standalone="no"?>
<!-- Created with Inkscape (http://www.inkscape.org/) -->

<svg
   xmlns:dc="http://purl.org/dc/elements/1.1/"
   xmlns:cc="http://creativecommons.org/ns#"
   xmlns:rdf="http://www.w3.org/1999/02/22-rdf-syntax-ns#"
   xmlns:svg="http://www.w3.org/2000/svg"
   xmlns="http://www.w3.org/2000/svg"
   xmlns:xlink="http://www.w3.org/1999/xlink"
   xmlns:sodipodi="http://sodipodi.sourceforge.net/DTD/sodipodi-0.dtd"
   xmlns:inkscape="http://www.inkscape.org/namespaces/inkscape"
   width="800"
   height="600"
   id="titlepage"
   sodipodi:version="0.32"
   inkscape:version="0.48.0 r9654"
   version="1.0"
   sodipodi:docname="title.svg"
   inkscape:output_extension="org.inkscape.output.svg.inkscape"
   inkscape:export-filename="/home/carl/a/title2.png"
   inkscape:export-xdpi="90"
   inkscape:export-ydpi="90">
  <defs
     id="defs4">
    <inkscape:perspective
       sodipodi:type="inkscape:persp3d"
       inkscape:vp_x="0 : 526.18109 : 1"
       inkscape:vp_y="0 : 1000 : 0"
       inkscape:vp_z="744.09448 : 526.18109 : 1"
       inkscape:persp3d-origin="372.04724 : 350.78739 : 1"
       id="perspective10" />
    <inkscape:perspective
       id="perspective2427"
       inkscape:persp3d-origin="372.04724 : 350.78739 : 1"
       inkscape:vp_z="744.09448 : 526.18109 : 1"
       inkscape:vp_y="0 : 1000 : 0"
       inkscape:vp_x="0 : 526.18109 : 1"
       sodipodi:type="inkscape:persp3d" />
    <inkscape:perspective
       id="perspective2481"
       inkscape:persp3d-origin="372.04724 : 350.78739 : 1"
       inkscape:vp_z="744.09448 : 526.18109 : 1"
       inkscape:vp_y="0 : 1000 : 0"
       inkscape:vp_x="0 : 526.18109 : 1"
       sodipodi:type="inkscape:persp3d" />
    <inkscape:perspective
       id="perspective2565"
       inkscape:persp3d-origin="372.04724 : 350.78739 : 1"
       inkscape:vp_z="744.09448 : 526.18109 : 1"
       inkscape:vp_y="0 : 1000 : 0"
       inkscape:vp_x="0 : 526.18109 : 1"
       sodipodi:type="inkscape:persp3d" />
    <inkscape:perspective
       id="perspective2457"
       inkscape:persp3d-origin="372.04724 : 350.78739 : 1"
       inkscape:vp_z="744.09448 : 526.18109 : 1"
       inkscape:vp_y="0 : 1000 : 0"
       inkscape:vp_x="0 : 526.18109 : 1"
       sodipodi:type="inkscape:persp3d" />
    <inkscape:perspective
       id="perspective2544"
       inkscape:persp3d-origin="372.04724 : 350.78739 : 1"
       inkscape:vp_z="744.09448 : 526.18109 : 1"
       inkscape:vp_y="0 : 1000 : 0"
       inkscape:vp_x="0 : 526.18109 : 1"
       sodipodi:type="inkscape:persp3d" />
    <inkscape:perspective
       id="perspective2621"
       inkscape:persp3d-origin="372.04724 : 350.78739 : 1"
       inkscape:vp_z="744.09448 : 526.18109 : 1"
       inkscape:vp_y="0 : 1000 : 0"
       inkscape:vp_x="0 : 526.18109 : 1"
       sodipodi:type="inkscape:persp3d" />
    <inkscape:perspective
       id="perspective2688"
       inkscape:persp3d-origin="372.04724 : 350.78739 : 1"
       inkscape:vp_z="744.09448 : 526.18109 : 1"
       inkscape:vp_y="0 : 1000 : 0"
       inkscape:vp_x="0 : 526.18109 : 1"
       sodipodi:type="inkscape:persp3d" />
    <inkscape:perspective
       id="perspective2840"
       inkscape:persp3d-origin="372.04724 : 350.78739 : 1"
       inkscape:vp_z="744.09448 : 526.18109 : 1"
       inkscape:vp_y="0 : 1000 : 0"
       inkscape:vp_x="0 : 526.18109 : 1"
       sodipodi:type="inkscape:persp3d" />
    <inkscape:perspective
       id="perspective2569"
       inkscape:persp3d-origin="372.04724 : 350.78739 : 1"
       inkscape:vp_z="744.09448 : 526.18109 : 1"
       inkscape:vp_y="0 : 1000 : 0"
       inkscape:vp_x="0 : 526.18109 : 1"
       sodipodi:type="inkscape:persp3d" />
    <inkscape:perspective
       id="perspective2693"
       inkscape:persp3d-origin="372.04724 : 350.78739 : 1"
       inkscape:vp_z="744.09448 : 526.18109 : 1"
       inkscape:vp_y="0 : 1000 : 0"
       inkscape:vp_x="0 : 526.18109 : 1"
       sodipodi:type="inkscape:persp3d" />
    <inkscape:perspective
       id="perspective2480"
       inkscape:persp3d-origin="372.04724 : 350.78739 : 1"
       inkscape:vp_z="744.09448 : 526.18109 : 1"
       inkscape:vp_y="0 : 1000 : 0"
       inkscape:vp_x="0 : 526.18109 : 1"
       sodipodi:type="inkscape:persp3d" />
    <inkscape:perspective
       id="perspective2532"
       inkscape:persp3d-origin="372.04724 : 350.78739 : 1"
       inkscape:vp_z="744.09448 : 526.18109 : 1"
       inkscape:vp_y="0 : 1000 : 0"
       inkscape:vp_x="0 : 526.18109 : 1"
       sodipodi:type="inkscape:persp3d" />
    <inkscape:perspective
       id="perspective2955"
       inkscape:persp3d-origin="0.5 : 0.33333333 : 1"
       inkscape:vp_z="1 : 0.5 : 1"
       inkscape:vp_y="0 : 1000 : 0"
       inkscape:vp_x="0 : 0.5 : 1"
       sodipodi:type="inkscape:persp3d" />
    <inkscape:perspective
       id="perspective3008"
       inkscape:persp3d-origin="0.5 : 0.33333333 : 1"
       inkscape:vp_z="1 : 0.5 : 1"
       inkscape:vp_y="0 : 1000 : 0"
       inkscape:vp_x="0 : 0.5 : 1"
       sodipodi:type="inkscape:persp3d" />
    <inkscape:perspective
       id="perspective3061"
       inkscape:persp3d-origin="0.5 : 0.33333333 : 1"
       inkscape:vp_z="1 : 0.5 : 1"
       inkscape:vp_y="0 : 1000 : 0"
       inkscape:vp_x="0 : 0.5 : 1"
       sodipodi:type="inkscape:persp3d" />
    <linearGradient
       y2="1394.5615"
       x2="-915.54724"
       y1="1315.663"
       x1="-915.54724"
       gradientUnits="userSpaceOnUse"
       id="linearGradient7077"
       xlink:href="#linearGradient6128"
       inkscape:collect="always" />
    <linearGradient
       y2="1394.5615"
       x2="-915.54724"
       y1="1315.663"
       x1="-915.54724"
       gradientUnits="userSpaceOnUse"
       id="linearGradient7075"
       xlink:href="#linearGradient6128"
       inkscape:collect="always" />
    <linearGradient
       y2="1394.5615"
       x2="-915.54724"
       y1="1315.663"
       x1="-915.54724"
       gradientUnits="userSpaceOnUse"
       id="linearGradient7073"
       xlink:href="#linearGradient6128"
       inkscape:collect="always" />
    <linearGradient
       y2="1394.5615"
       x2="-915.54724"
       y1="1315.663"
       x1="-915.54724"
       gradientUnits="userSpaceOnUse"
       id="linearGradient7071"
       xlink:href="#linearGradient6128"
       inkscape:collect="always" />
    <linearGradient
       y2="1394.5615"
       x2="-915.54724"
       y1="1315.663"
       x1="-915.54724"
       gradientUnits="userSpaceOnUse"
       id="linearGradient7069"
       xlink:href="#linearGradient6128"
       inkscape:collect="always" />
    <linearGradient
       y2="1394.5615"
       x2="-915.54724"
       y1="1315.663"
       x1="-915.54724"
       gradientUnits="userSpaceOnUse"
       id="linearGradient7067"
       xlink:href="#linearGradient6128"
       inkscape:collect="always" />
    <linearGradient
       y2="1394.5615"
       x2="-915.54724"
       y1="1315.663"
       x1="-915.54724"
       gradientUnits="userSpaceOnUse"
       id="linearGradient7065"
       xlink:href="#linearGradient6128"
       inkscape:collect="always" />
    <linearGradient
       y2="1394.5615"
       x2="-915.54724"
       y1="1315.663"
       x1="-915.54724"
       gradientUnits="userSpaceOnUse"
       id="linearGradient7063"
       xlink:href="#linearGradient6128"
       inkscape:collect="always" />
    <linearGradient
       y2="1394.5615"
       x2="-915.54724"
       y1="1315.663"
       x1="-915.54724"
       gradientUnits="userSpaceOnUse"
       id="linearGradient7061"
       xlink:href="#linearGradient6128"
       inkscape:collect="always" />
    <linearGradient
       y2="1394.5615"
       x2="-915.54724"
       y1="1315.663"
       x1="-915.54724"
       gradientUnits="userSpaceOnUse"
       id="linearGradient7059"
       xlink:href="#linearGradient6128"
       inkscape:collect="always" />
    <linearGradient
       y2="1394.5615"
       x2="-915.54724"
       y1="1315.663"
       x1="-915.54724"
       gradientUnits="userSpaceOnUse"
       id="linearGradient7057"
       xlink:href="#linearGradient6128"
       inkscape:collect="always" />
    <linearGradient
       y2="1394.5615"
       x2="-915.54724"
       y1="1315.663"
       x1="-915.54724"
       gradientUnits="userSpaceOnUse"
       id="linearGradient7055"
       xlink:href="#linearGradient6128"
       inkscape:collect="always" />
    <linearGradient
       y2="1394.5615"
       x2="-915.54724"
       y1="1315.663"
       x1="-915.54724"
       gradientUnits="userSpaceOnUse"
       id="linearGradient7053"
       xlink:href="#linearGradient6128"
       inkscape:collect="always" />
    <linearGradient
       y2="1394.5615"
       x2="-915.54724"
       y1="1315.663"
       x1="-915.54724"
       gradientUnits="userSpaceOnUse"
       id="linearGradient7051"
       xlink:href="#linearGradient6128"
       inkscape:collect="always" />
    <linearGradient
       y2="1394.5615"
       x2="-915.54724"
       y1="1315.663"
       x1="-915.54724"
       gradientUnits="userSpaceOnUse"
       id="linearGradient7049"
       xlink:href="#linearGradient6128"
       inkscape:collect="always" />
    <linearGradient
       y2="1394.5615"
       x2="-915.54724"
       y1="1315.663"
       x1="-915.54724"
       gradientUnits="userSpaceOnUse"
       id="linearGradient7047"
       xlink:href="#linearGradient6128"
       inkscape:collect="always" />
    <linearGradient
       y2="1394.5615"
       x2="-915.54724"
       y1="1315.663"
       x1="-915.54724"
       gradientUnits="userSpaceOnUse"
       id="linearGradient7045"
       xlink:href="#linearGradient6128"
       inkscape:collect="always" />
    <linearGradient
       y2="1394.5615"
       x2="-915.54724"
       y1="1315.663"
       x1="-915.54724"
       gradientUnits="userSpaceOnUse"
       id="linearGradient7043"
       xlink:href="#linearGradient6128"
       inkscape:collect="always" />
    <linearGradient
       y2="1394.5615"
       x2="-915.54724"
       y1="1315.663"
       x1="-915.54724"
       gradientUnits="userSpaceOnUse"
       id="linearGradient7041"
       xlink:href="#linearGradient6128"
       inkscape:collect="always" />
    <linearGradient
       y2="1394.5615"
       x2="-915.54724"
       y1="1315.663"
       x1="-915.54724"
       gradientUnits="userSpaceOnUse"
       id="linearGradient7039"
       xlink:href="#linearGradient6128"
       inkscape:collect="always" />
    <linearGradient
       id="linearGradient6128"
       inkscape:collect="always">
      <stop
         id="stop6130"
         offset="0"
         style="stop-color:#ffffff;stop-opacity:1;" />
      <stop
         id="stop6132"
         offset="1"
         style="stop-color:#ffffff;stop-opacity:0;" />
    </linearGradient>
    <linearGradient
       y2="1394.5615"
       x2="-915.54724"
       y1="1315.663"
       x1="-915.54724"
       gradientUnits="userSpaceOnUse"
       id="linearGradient7079"
       xlink:href="#linearGradient6128"
       inkscape:collect="always" />
    <linearGradient
       y2="-77.832855"
       x2="-745.33875"
       y1="-189.86911"
       x1="-745.33875"
       gradientTransform="matrix(0.98110573,0,0,1.0126928,-183.15151,1350.013)"
       gradientUnits="userSpaceOnUse"
       id="linearGradient7035"
       xlink:href="#linearGradient4766"
       inkscape:collect="always" />
    <linearGradient
       y2="-77.832855"
       x2="-745.33875"
       y1="-189.86911"
       x1="-745.33875"
       gradientTransform="matrix(0.9811715,0,0,1.0126918,-183.21014,1350.013)"
       gradientUnits="userSpaceOnUse"
       id="linearGradient7033"
       xlink:href="#linearGradient4766"
       inkscape:collect="always" />
    <linearGradient
       y2="-77.832855"
       x2="-745.33875"
       y1="-189.86911"
       x1="-745.33875"
       gradientTransform="matrix(0.98194585,0,0,0.97983226,-182.62577,1346.3901)"
       gradientUnits="userSpaceOnUse"
       id="linearGradient7031"
       xlink:href="#linearGradient4766"
       inkscape:collect="always" />
    <linearGradient
       y2="-77.832855"
       x2="-745.33875"
       y1="-189.86911"
       x1="-745.33875"
       gradientTransform="matrix(0.98182794,0,0,0.97983423,-182.72174,1346.3902)"
       gradientUnits="userSpaceOnUse"
       id="linearGradient7029"
       xlink:href="#linearGradient4766"
       inkscape:collect="always" />
    <linearGradient
       id="linearGradient4766"
       inkscape:collect="always">
      <stop
         id="stop4768"
         offset="0"
         style="stop-color:#ff9955;stop-opacity:1" />
      <stop
         id="stop4770"
         offset="1"
         style="stop-color:#ff6600;stop-opacity:1" />
    </linearGradient>
    <linearGradient
       y2="-77.832855"
       x2="-745.33875"
       y1="-189.86911"
       x1="-745.33875"
       gradientTransform="matrix(0.98178945,0,0,0.98178945,-182.75867,1346.4001)"
       gradientUnits="userSpaceOnUse"
       id="linearGradient7037"
       xlink:href="#linearGradient4766"
       inkscape:collect="always" />
    <linearGradient
       inkscape:collect="always"
       id="linearGradient4940">
      <stop
         style="stop-color:#ffccaa;stop-opacity:1"
         offset="0"
         id="stop4942" />
      <stop
         style="stop-color:#ff6600;stop-opacity:1"
         offset="1"
         id="stop4944" />
    </linearGradient>
    <radialGradient
       r="90.157059"
       fy="-208.61775"
       fx="-411.323"
       cy="-208.61775"
       cx="-411.323"
       gradientTransform="matrix(-0.02228917,1.4933764,-0.93526017,-0.01395909,-788.90749,1779.2418)"
       gradientUnits="userSpaceOnUse"
       id="radialGradient6379"
       xlink:href="#linearGradient4940"
       inkscape:collect="always" />
    <linearGradient
       y2="-177.24957"
       x2="-702.27167"
       y1="-287.68533"
       x1="-702.27167"
       gradientTransform="matrix(1.0390466,0,0,1.0390466,-186.33078,1310.5916)"
       gradientUnits="userSpaceOnUse"
       id="linearGradient7025"
       xlink:href="#linearGradient4805"
       inkscape:collect="always" />
    <linearGradient
       y2="-177.24957"
       x2="-702.27167"
       y1="-287.68533"
       x1="-702.27167"
       gradientTransform="matrix(1.0390466,0,0,1.0390466,-186.33078,1310.5916)"
       gradientUnits="userSpaceOnUse"
       id="linearGradient7023"
       xlink:href="#linearGradient4805"
       inkscape:collect="always" />
    <linearGradient
       y2="-177.24957"
       x2="-702.27167"
       y1="-287.68533"
       x1="-702.27167"
       gradientTransform="matrix(1.0390466,0,0,1.0390466,-186.33078,1310.5916)"
       gradientUnits="userSpaceOnUse"
       id="linearGradient7021"
       xlink:href="#linearGradient4805"
       inkscape:collect="always" />
    <linearGradient
       y2="-177.24957"
       x2="-702.27167"
       y1="-287.68533"
       x1="-702.27167"
       gradientTransform="matrix(1.0390466,0,0,1.0390466,-186.33078,1310.5916)"
       gradientUnits="userSpaceOnUse"
       id="linearGradient7019"
       xlink:href="#linearGradient4805"
       inkscape:collect="always" />
    <linearGradient
       y2="-177.24957"
       x2="-702.27167"
       y1="-287.68533"
       x1="-702.27167"
       gradientTransform="matrix(1.0390466,0,0,1.0390466,-186.33078,1310.5916)"
       gradientUnits="userSpaceOnUse"
       id="linearGradient7017"
       xlink:href="#linearGradient4805"
       inkscape:collect="always" />
    <linearGradient
       y2="-177.24957"
       x2="-702.27167"
       y1="-287.68533"
       x1="-702.27167"
       gradientTransform="matrix(1.0390466,0,0,1.0390466,-186.33078,1310.5916)"
       gradientUnits="userSpaceOnUse"
       id="linearGradient7015"
       xlink:href="#linearGradient4805"
       inkscape:collect="always" />
    <linearGradient
       y2="-177.24957"
       x2="-702.27167"
       y1="-287.68533"
       x1="-702.27167"
       gradientTransform="matrix(1.0390466,0,0,1.0390466,-186.33078,1310.5916)"
       gradientUnits="userSpaceOnUse"
       id="linearGradient7013"
       xlink:href="#linearGradient4805"
       inkscape:collect="always" />
    <linearGradient
       id="linearGradient4805"
       inkscape:collect="always">
      <stop
         id="stop4807"
         offset="0"
         style="stop-color:#ffffff;stop-opacity:1;" />
      <stop
         id="stop4809"
         offset="1"
         style="stop-color:#ffffff;stop-opacity:0;" />
    </linearGradient>
    <linearGradient
       y2="-177.24957"
       x2="-702.27167"
       y1="-287.68533"
       x1="-702.27167"
       gradientTransform="matrix(1.0390466,0,0,1.0390466,-186.33078,1310.5916)"
       gradientUnits="userSpaceOnUse"
       id="linearGradient7027"
       xlink:href="#linearGradient4805"
       inkscape:collect="always" />
  </defs>
  <sodipodi:namedview
     id="base"
     pagecolor="#b3d6f2"
     bordercolor="#666666"
     borderopacity="1.0"
     gridtolerance="10000"
     guidetolerance="10"
     objecttolerance="10"
     inkscape:pageopacity="0.94117647"
     inkscape:pageshadow="2"
     inkscape:zoom="0.84880128"
     inkscape:cx="331.66409"
     inkscape:cy="216.69802"
     inkscape:document-units="px"
     inkscape:current-layer="layer1"
     showgrid="false"
     inkscape:window-width="1267"
     inkscape:window-height="721"
     inkscape:window-x="1"
     inkscape:window-y="24"
     inkscape:window-maximized="0" />
  <metadata
     id="metadata7">
    <rdf:RDF>
      <cc:Work
         rdf:about="">
        <dc:format>image/svg+xml</dc:format>
        <dc:type
           rdf:resource="http://purl.org/dc/dcmitype/StillImage" />
        <dc:title />
      </cc:Work>
    </rdf:RDF>
  </metadata>
  <g
     inkscape:label="Layer 1"
     inkscape:groupmode="layer"
     id="layer1">
    <rect
       style="fill:#ffffff"
       id="rect2895"
       width="803.19147"
       height="277.88818"
       x="0"
       y="109.57447" />
    <rect
       style="fill:#666666"
       id="rect2893"
       width="804.25531"
       height="111.70213"
       x="0"
       y="0" />
    <rect
       style="opacity:1;fill:#000000;fill-opacity:0"
       id="rect2398"
       width="800"
       height="600"
       x="0"
       y="0" />
    <flowRoot
       xml:space="preserve"
       id="titlebox"
       style="font-size:32px;font-style:normal;font-variant:normal;font-weight:normal;font-stretch:normal;text-align:center;line-height:100%;writing-mode:lr-tb;text-anchor:middle;fill:#000000;fill-opacity:1;stroke:none;font-family:Bitstream Vera Sans;-inkscape-font-specification:Bitstream Vera Sans"
       transform="matrix(1,0,0,1.1970692,-12.421875,5.990602)"><flowRegion
         id="flowRegion2776"><rect
           id="rect2778"
           width="684.7511"
           height="95.016434"
           x="68.642532"
           y="121.71946"
           style="font-size:32px;font-style:normal;font-variant:normal;font-weight:normal;font-stretch:normal;text-align:center;line-height:100%;writing-mode:lr-tb;text-anchor:middle;font-family:Bitstream Vera Sans;-inkscape-font-specification:Bitstream Vera Sans" /></flowRegion><flowPara
         id="title"
         style="font-weight:normal">UR DOING IT WRONG for god sake, you really need to please RTFM, RTFM!</flowPara></flowRoot>    <flowRoot
       transform="matrix(1,0,0,1.1970692,-12.210938,53.9906)"
       style="font-size:32px;font-style:normal;font-variant:normal;font-weight:normal;font-stretch:normal;text-align:center;line-height:100%;writing-mode:lr-tb;text-anchor:middle;fill:#000000;fill-opacity:1;stroke:none;font-family:Bitstream Vera Sans;-inkscape-font-specification:Bitstream Vera Sans"
       id="presenterbox"
       xml:space="preserve"><flowRegion
         id="flowRegion2830"><rect
           style="font-size:32px;font-style:normal;font-variant:normal;font-weight:normal;font-stretch:normal;text-align:center;line-height:100%;writing-mode:lr-tb;text-anchor:middle;font-family:Bitstream Vera Sans;-inkscape-font-specification:Bitstream Vera Sans"
           y="191.71947"
           x="68.642532"
           height="80"
           width="684.7511"
           id="rect2832" /></flowRegion><flowPara
         id="presenternames"
         style="font-weight:normal">By: Carl &quot;Speedy&quot; Karsten</flowPara></flowRoot>    <flowRoot
       xml:space="preserve"
       id="flowRoot2802"
       style="font-size:18px;font-style:normal;font-variant:normal;font-weight:normal;font-stretch:normal;text-align:center;line-height:110.00000238%;writing-mode:lr-tb;text-anchor:middle;fill:#000000;fill-opacity:1;stroke:none;font-family:Bitstream Vera Sans;-inkscape-font-specification:Bitstream Vera Sans"
       transform="matrix(1.7433323,0,0,1.2699132,-561.16857,127.43082)"><flowRegion
         id="flowRegion2804"><rect
           id="rect2806"
           width="587.64703"
           height="45.203621"
           x="88.733032"
           y="292.48868"
           style="font-size:18px;font-style:normal;font-variant:normal;font-weight:normal;font-stretch:normal;text-align:center;line-height:110.00000238%;writing-mode:lr-tb;text-anchor:middle;font-family:Bitstream Vera Sans;-inkscape-font-specification:Bitstream Vera Sans" /></flowRegion><flowPara
         id="flowPara2818">produced by</flowPara></flowRoot>    <text
       xml:space="preserve"
       style="font-size:26.56643677px;font-style:normal;font-variant:normal;font-weight:normal;font-stretch:normal;text-align:start;line-height:100%;writing-mode:lr-tb;text-anchor:start;fill:#ffffff;fill-opacity:1;stroke:none;font-family:Bitstream Vera Sans;-inkscape-font-specification:Bitstream Vera Sans"
       x="342.53442"
       y="102.96093"
       id="text2538"
       sodipodi:linespacing="100%"><tspan
         sodipodi:role="line"
         id="tspan2540"
         x="342.53442"
         y="102.96093">Presents</tspan></text>
    <flowRoot
       xml:space="preserve"
       id="flowRoot2576"
       style="font-size:32px;font-style:normal;font-variant:normal;font-weight:normal;font-stretch:normal;text-align:center;line-height:100%;writing-mode:lr-tb;text-anchor:middle;fill:#ffffff;fill-opacity:1;stroke:none;font-family:Bitstream Vera Sans;-inkscape-font-specification:Bitstream Vera Sans"
       transform="matrix(1.5228736,0,0,1.8229844,-227.39661,-202.13437)"
       inkscape:label="#flowRoot2414"><flowRegion
         id="flowRegion2416"><rect
           id="rect2418"
           width="684.7511"
           height="95.016434"
           x="68.642532"
           y="121.71946"
           style="font-size:32px;font-style:normal;font-variant:normal;font-weight:normal;font-stretch:normal;text-align:center;line-height:100%;writing-mode:lr-tb;text-anchor:middle;fill:#ffffff;font-family:Bitstream Vera Sans;-inkscape-font-specification:Bitstream Vera Sans" /></flowRegion><flowPara
         id="client">PyCon 2010 Atlanta</flowPara></flowRoot>    <flowRoot
       transform="matrix(1,0,0,1.1970692,-11.226563,93.523298)"
       style="font-size:32px;font-style:normal;font-variant:normal;font-weight:normal;font-stretch:normal;text-align:center;line-height:100%;writing-mode:lr-tb;text-anchor:middle;fill:#000000;fill-opacity:1;stroke:none;font-family:Bitstream Vera Sans;-inkscape-font-specification:Bitstream Vera Sans"
       id="presenterbox-5"
       xml:space="preserve"><flowRegion
         id="flowRegion2830-9"><rect
           style="font-size:32px;font-style:normal;font-variant:normal;font-weight:normal;font-stretch:normal;text-align:center;line-height:100%;writing-mode:lr-tb;text-anchor:middle;font-family:Bitstream Vera Sans;-inkscape-font-specification:Bitstream Vera Sans"
           y="191.71947"
           x="68.642532"
           height="80"
           width="684.7511"
           id="rect2832-4" /></flowRegion><flowPara
         id="presentertitle"
         style="font-weight:normal">Video MaD Man</flowPara></flowRoot>    <flowRoot
       xml:space="preserve"
       id="flowRoot3030"
       style="fill:black;stroke:none;stroke-opacity:1;stroke-width:1px;stroke-linejoin:miter;stroke-linecap:butt;fill-opacity:1;font-family:Bitstream Vera Sans;font-style:normal;font-weight:normal;font-size:40px;line-height:125%;letter-spacing:0px;word-spacing:0px"><flowRegion
         id="flowRegion3032"><rect
           id="rect3034"
           width="566.68152"
           height="76.578583"
           x="89.53804"
           y="469.22736" /></flowRegion><flowPara
         id="flowPara3036" /></flowRoot>    <flowRoot
       xml:space="preserve"
       id="flowRoot2576-7"
       style="font-size:16px;font-style:normal;font-variant:normal;font-weight:normal;font-stretch:normal;text-align:center;line-height:100%;writing-mode:lr-tb;text-anchor:middle;fill:#ffffff;fill-opacity:1;stroke:none;font-family:Bitstream Vera Sans;-inkscape-font-specification:Bitstream Vera Sans"
       transform="matrix(1.5228736,0,0,1.8229844,46.033306,273.57248)"
       inkscape:label="#flowRoot2414"><flowRegion
         id="flowRegion2416-5"><rect
           id="rect2418-9"
           width="684.7511"
           height="95.016434"
           x="68.642532"
           y="121.71946"
           style="font-size:32px;font-style:normal;font-variant:normal;font-weight:normal;font-stretch:normal;text-align:center;line-height:100%;writing-mode:lr-tb;text-anchor:middle;fill:#ffffff;font-family:Bitstream Vera Sans;-inkscape-font-specification:Bitstream Vera Sans" /></flowRegion><flowPara
         id="date">September 99,9999</flowPara></flowRoot>    <g
       id="layer1-9"
       inkscape:label="Layer 1"
       transform="matrix(0.46051115,0,0,0.33154776,451.30094,365.08121)">
      <g
         transform="translate(1220.6931,-708.49755)"
         id="g6306">
        <path
           inkscape:connector-curvature="0"
           id="rect4739"
           d="m -2200.3023,1206.3397 1736.41842,0 0,210.3186 -1736.41842,0 z"
           style="fill:#000000;fill-rule:evenodd;stroke:#000000;stroke-width:0.78163189px;stroke-linecap:butt;stroke-linejoin:miter;stroke-opacity:1" />
        <g
           transform="translate(0,70.639215)"
           id="g6241">
          <g
             id="text3233"
             style="font-size:151.50627136px;font-style:normal;font-variant:normal;font-weight:normal;font-stretch:normal;line-height:125%;letter-spacing:0px;word-spacing:0px;fill:url(#linearGradient7027);fill-opacity:1;stroke:none;font-family:Arial;-inkscape-font-specification:Arial"
             transform="matrix(1.2311103,0,0,1.4753166,-617.37357,-261.99886)">
            <path
               inkscape:connector-curvature="0"
               id="path6805"
               style="fill:url(#linearGradient7013);font-family:Arial;-inkscape-font-specification:Arial"
               d="m -1248.726,1072.8942 0,-108.4513 14.7216,0 56.9628,85.1483 0,-85.1483 13.7598,0 0,108.4513 -14.7215,0 -56.9628,-85.22231 0,85.22231 -13.7599,0" />
            <path
               inkscape:connector-curvature="0"
               id="path6807"
               style="fill:url(#linearGradient7015);font-family:Arial;-inkscape-font-specification:Arial"
               d="m -1138.8691,1072.8942 0,-108.4513 78.4163,0 0,12.79814 -64.0646,0 0,33.21596 59.9958,0 0,12.7242 -59.9958,0 0,36.9148 66.5799,0 0,12.7982 -80.9316,0" />
            <path
               inkscape:connector-curvature="0"
               id="path6809"
               style="fill:url(#linearGradient7017);font-family:Arial;-inkscape-font-specification:Arial"
               d="m -1049.1342,1072.8942 41.9453,-56.519 -36.9888,-51.9323 17.0888,0 19.6781,27.8156 c 4.0934,5.77034 7.0032,10.209 8.72937,13.316 2.41655,-3.9454 5.27702,-8.06351 8.58141,-12.35429 l 21.82341,-28.77731 15.60929,0 -38.0985,51.1186 41.05761,57.3327 -17.75464,0 -27.29777,-38.6904 c -1.52892,-2.2192 -3.10711,-4.6358 -4.73457,-7.2498 -2.41661,3.9455 -4.14281,6.6581 -5.17841,8.1376 l -27.2238,37.8026 -17.2368,0" />
            <path
               inkscape:connector-curvature="0"
               id="path6811"
               style="fill:url(#linearGradient7019);font-family:Arial;-inkscape-font-specification:Arial"
               d="m -909.46438,1072.8942 0,-95.65316 -35.73121,0 0,-12.79814 85.96205,0 0,12.79814 -35.87917,0 0,95.65316 -14.35167,0" />
            <path
               inkscape:connector-curvature="0"
               id="path6813"
               style="fill:url(#linearGradient7021);font-family:Arial;-inkscape-font-specification:Arial"
               d="m -805.08185,1072.8942 0,-108.4513 37.35872,0 c 8.4334,1.1e-4 14.86945,0.51795 19.30817,1.55353 6.21405,1.43034 11.51578,4.01956 15.9052,7.76766 5.72085,4.8333 9.98689,11.02276 12.79814,18.56839 2.86037,7.49648 4.2906,16.07792 4.29071,25.74422 -1.1e-4,8.2362 -0.96181,15.5354 -2.88513,21.8974 -1.92352,6.3621 -4.38944,11.6392 -7.39777,15.8312 -3.00851,4.1428 -6.31285,7.4225 -9.91301,9.8391 -3.551,2.3672 -7.86636,4.1674 -12.94609,5.4003 -5.03055,1.233 -10.82546,1.8495 -17.38475,1.8495 l -39.13419,0 m 14.35167,-12.7982 23.15501,0 c 7.15112,0 12.74875,-0.6658 16.79293,-1.9974 4.09336,-1.3316 7.34837,-3.2057 9.76505,-5.6223 3.40289,-3.4029 6.04143,-7.9649 7.91561,-13.6858 1.92334,-5.7703 2.88504,-12.7488 2.88513,-20.9357 -9e-5,-11.3432 -1.87418,-20.0479 -5.6223,-26.11414 -3.69896,-6.1154 -8.2116,-10.20883 -13.53792,-12.28029 -3.8469,-1.47946 -10.03636,-2.21924 -18.56839,-2.21933 l -22.78512,0 0,82.85496" />
            <path
               inkscape:connector-curvature="0"
               id="path6815"
               style="fill:url(#linearGradient7023);font-family:Arial;-inkscape-font-specification:Arial"
               d="m -707.57929,1072.8942 41.64943,-108.4513 15.46133,0 44.3866,108.4513 -16.34906,0 -12.65019,-32.8461 -45.34831,0 -11.9104,32.8461 -15.2394,0 m 31.29255,-44.5346 36.7669,0 -11.31858,-30.03493 c -3.45234,-9.12383 -6.0169,-16.62022 -7.69368,-22.48921 -1.38096,6.95399 -3.32904,13.85857 -5.84423,20.71375 l -11.91041,31.81039" />
            <path
               inkscape:connector-curvature="0"
               id="path6817"
               style="fill:url(#linearGradient7025);font-family:Arial;-inkscape-font-specification:Arial"
               d="m -575.30721,1072.8942 0,-45.9402 -41.79739,-62.5111 17.45873,0 21.37955,32.69813 c 3.94543,6.11557 7.61965,12.23107 11.02267,18.34647 3.25497,-5.6716 7.20044,-12.0583 11.83643,-19.16023 l 21.00966,-31.88437 16.71895,0 -43.27693,62.5111 0,45.9402 -14.35167,0" />
          </g>
          <g
             id="text3229"
             style="font-size:244.91934204px;font-style:normal;font-variant:normal;font-weight:normal;font-stretch:normal;line-height:125%;letter-spacing:0px;word-spacing:0px;fill:url(#linearGradient7037);fill-opacity:1;stroke:#ff6600;stroke-width:5.43772173;font-family:Rufscript;-inkscape-font-specification:Rufscript">
            <path
               inkscape:connector-curvature="0"
               id="path6822"
               style="font-size:215.99368286px;font-weight:bold;text-align:start;line-height:125%;writing-mode:lr-tb;text-anchor:start;fill:url(#linearGradient7029);stroke:#ff6600;stroke-width:5.43241072;font-family:Arial Rounded MT Bold;-inkscape-font-specification:Arial Rounded MT Bold"
               d="m -1159.6483,1179.1007 35.0159,103.4663 35.1214,-104.203 c 1.8281,-5.4732 3.1991,-9.2624 4.1134,-11.3676 0.9139,-2.1752 2.4257,-4.1048 4.5351,-5.7891 2.1093,-1.7541 4.9921,-2.6312 8.6486,-2.6314 2.6718,2e-4 5.1327,0.6667 7.3829,1.9999 2.3202,1.3333 4.1131,3.1226 5.3789,5.368 1.3358,2.1754 2.0039,4.3858 2.004,6.6311 -10e-5,1.5439 -0.2112,3.228 -0.6329,5.0523 -0.422,1.7543 -0.9493,3.5086 -1.582,5.2627 -0.633,1.6843 -1.2658,3.4385 -1.8985,5.2628 l -37.4418,100.8349 c -1.336,3.8594 -2.672,7.5434 -4.0078,11.0519 -1.3361,3.4383 -2.8829,6.4907 -4.6407,9.1572 -1.7579,2.5963 -4.1134,4.7365 -7.0665,6.4206 -2.8829,1.684 -6.4336,2.5262 -10.6524,2.5262 -4.2189,0 -7.8048,-0.8422 -10.7579,-2.5262 -2.8829,-1.6139 -5.2384,-3.7541 -7.0665,-6.4206 -1.7579,-2.7366 -3.3047,-5.8242 -4.6407,-9.2625 -1.3359,-3.4383 -2.6719,-7.0872 -4.0078,-10.9466 l -36.809,-99.9928 c -0.6328,-1.8243 -1.3007,-3.6137 -2.0039,-5.3681 -0.6328,-1.7541 -1.1953,-3.6487 -1.6875,-5.6838 -0.4219,-2.0348 -0.6329,-3.754 -0.6329,-5.1575 0,-3.5785 1.4415,-6.8414 4.3243,-9.7888 2.8828,-2.947 6.504,-4.4205 10.8634,-4.4207 5.3437,2e-4 9.1055,1.6492 11.2853,4.947 2.25,3.228 4.5352,8.4206 6.8556,15.5778" />
            <path
               inkscape:connector-curvature="0"
               id="path6824"
               style="font-size:215.99368286px;font-weight:bold;text-align:start;line-height:125%;writing-mode:lr-tb;text-anchor:start;fill:url(#linearGradient7031);stroke:#ff6600;stroke-width:5.43273163;font-family:Arial Rounded MT Bold;-inkscape-font-specification:Arial Rounded MT Bold"
               d="m -1032.6689,1299.0921 0,-121.57 c 0,-6.3152 1.4416,-11.0516 4.3248,-14.2094 2.8832,-3.1575 6.6102,-4.7364 11.1812,-4.7366 4.7114,2e-4 8.5088,1.5791 11.3921,4.7366 2.9535,3.0876 4.4302,7.824 4.4302,14.2094 l 0,121.57 c 0,6.3855 -1.4767,11.1571 -4.4302,14.3148 -2.8833,3.1576 -6.6807,4.7365 -11.3921,4.7365 -4.5006,0 -8.2277,-1.5789 -11.1812,-4.7365 -2.8832,-3.2279 -4.3248,-7.9995 -4.3248,-14.3148" />
            <path
               inkscape:connector-curvature="0"
               id="path6826"
               style="font-size:215.99368286px;font-weight:bold;text-align:start;line-height:125%;writing-mode:lr-tb;text-anchor:start;fill:url(#linearGradient7033);stroke:#ff6600;stroke-width:5.52089787;font-family:Arial Rounded MT Bold;-inkscape-font-specification:Arial Rounded MT Bold"
               d="m -946.89327,1158.6202 40.78952,0 c 10.6101,10e-5 19.70956,1.0155 27.29841,3.046 7.58863,2.0307 14.47472,5.8382 20.65826,11.4224 16.09082,14.2148 24.13628,35.8268 24.13643,64.836 -1.5e-4,9.5732 -0.8082,18.3123 -2.42418,26.2173 -1.61626,7.905 -4.11071,15.0486 -7.48335,21.4307 -3.37291,6.3095 -7.69427,11.9663 -12.96411,16.9704 -4.14582,3.8438 -8.67799,6.9261 -13.59651,9.2468 -4.91873,2.3208 -10.22383,3.9525 -15.91529,4.8954 -5.62139,0.9427 -11.98047,1.4141 -19.07727,1.4141 l -40.78952,0 c -5.6916,0 -9.97783,-0.8702 -12.85871,-2.6108 -2.88094,-1.8131 -4.77812,-4.3151 -5.69157,-7.5062 -0.84321,-3.2635 -1.2648,-7.4699 -1.26478,-12.6191 l 0,-116.9441 c -2e-5,-6.9621 1.5107,-12.0025 4.53216,-15.1211 3.02142,-3.1184 7.90492,-4.6777 14.65051,-4.6778 m 12.12091,25.5645 0,108.2413 23.71484,0 c 5.19962,10e-5 9.27506,-0.145 12.22632,-0.4351 2.95109,-0.29 6.00766,-1.0154 9.16973,-2.1757 3.16189,-1.1604 5.90226,-2.7922 8.22114,-4.8954 10.46956,-9.1379 15.70438,-24.8754 15.7045,-47.2128 -1.2e-4,-15.7375 -2.3189,-27.5225 -6.95636,-35.3551 -4.5674,-7.8324 -10.22382,-12.8003 -16.96928,-14.9036 -6.74564,-2.1756 -14.89651,-3.2635 -24.45263,-3.2636 l -20.65826,0" />
            <path
               inkscape:connector-curvature="0"
               id="path6828"
               style="font-size:215.99368286px;font-weight:bold;text-align:start;line-height:125%;writing-mode:lr-tb;text-anchor:start;fill:url(#linearGradient7035);stroke:#ff6600;stroke-width:5.52071571;font-family:Arial Rounded MT Bold;-inkscape-font-specification:Arial Rounded MT Bold"
               d="m -704.59213,1183.5319 -70.5074,0 0,39.1627 64.92161,0 c 4.77766,10e-5 8.32587,1.1242 10.64461,3.3724 2.38877,2.1758 3.58322,5.0768 3.58335,8.7028 -1.3e-4,3.6263 -1.15945,6.5998 -3.47795,8.9204 -2.31875,2.2483 -5.90208,3.3724 -10.75001,3.3723 l -64.92161,0 0,45.3636 72.93142,0 c 4.91818,1e-4 8.6069,1.1967 11.06619,3.5899 2.52927,2.3208 3.79398,5.4393 3.79411,9.3555 -1.3e-4,3.7713 -1.26484,6.8535 -3.79411,9.2468 -2.45929,2.3208 -6.14801,3.4811 -11.06619,3.4811 l -85.05152,0 c -6.81539,0 -11.73369,-1.5592 -14.75491,-4.6777 -2.951,-3.1185 -4.42649,-8.1589 -4.42647,-15.1212 l 0,-119.8815 c -2e-5,-4.6413 0.66746,-8.4126 2.00245,-11.3136 1.33495,-2.9734 3.40766,-5.1129 6.21814,-6.4184 2.88069,-1.3778 6.53428,-2.0668 10.96079,-2.0669 l 82.6275,0 c 4.98844,10e-5 8.67717,1.1605 11.06619,3.4811 2.45901,2.2484 3.68859,5.2219 3.68873,8.9204 -1.4e-4,3.7714 -1.22972,6.8174 -3.68873,9.138 -2.38902,2.2483 -6.07775,3.3724 -11.06619,3.3723" />
          </g>
          <g
             id="g3102">
            <path
               style="fill:url(#radialGradient6379);fill-opacity:1;fill-rule:evenodd;stroke:#ff6600;stroke-width:5.25925636"
               d="m -631.69306,1158.4894 98.91466,0 c 16.84882,0 30.41304,13.5643 30.41304,30.413 l 0,98.9147 c 0,16.8487 -13.56422,30.413 -30.41304,30.413 l -98.91466,0 c -16.84883,0 -30.41305,-13.5643 -30.41305,-30.413 l 0,-98.9147 c 0,-16.8487 13.56422,-30.413 30.41305,-30.413 z"
               id="rect3118"
               inkscape:connector-curvature="0" />
            <path
               inkscape:connector-curvature="0"
               style="font-size:medium;font-style:normal;font-variant:normal;font-weight:normal;font-stretch:normal;text-indent:0;text-align:start;text-decoration:none;line-height:normal;letter-spacing:normal;word-spacing:normal;text-transform:none;direction:ltr;block-progression:tb;writing-mode:lr-tb;text-anchor:start;baseline-shift:baseline;color:#000000;fill:#ffffff;fill-opacity:1;stroke:none;stroke-width:26.75562668;marker:none;visibility:visible;display:inline;overflow:visible;enable-background:accumulate;font-family:Sans;-inkscape-font-specification:Sans"
               d="m -584.43851,1173.3856 c -32.7794,0.9544 -59.34,27.3125 -60,62.5625 -0.6812,36.3871 25.3624,66.6821 59.5938,67.4062 l 0.125,-20.6875 c -23.4261,-0.4955 -40.1849,-21.4112 -39.7188,-46.3125 0.4662,-24.9014 19.6364,-43.0581 43.0626,-42.5625 23.4261,0.4955 41.8099,19.4737 41.3437,44.375 -0.2192,11.7074 -4.7241,22.8486 -12.5625,31.0625 l -3.5938,-3.4687 c -0.377,-0.3708 -0.9089,-0.5788 -1.4374,-0.5625 -1,0.045 -1.8786,0.9677 -1.875,1.9687 l 0,21 c 0,1.0212 0.9163,1.9551 1.9374,1.9688 l 21.7188,0 c 0.7781,0 1.5502,-0.4982 1.8438,-1.2188 0.2935,-0.7206 0.09,-1.6151 -0.4688,-2.1562 l -3.3438,-3.2188 c 11.0857,-12.0182 17.4655,-28.0993 17.7813,-44.9687 0.6812,-36.3872 -26.9873,-64.4633 -61.2187,-65.1875 -1.0698,-0.023 -2.1301,-0.031 -3.1876,0 z"
               id="path3120" />
            <path
               style="fill:#2f2f36;fill-opacity:1;stroke:#2f2f36;stroke-width:8.25762749;stroke-linecap:round;stroke-linejoin:round;stroke-miterlimit:4;stroke-opacity:1;stroke-dashoffset:0"
               inkscape:transform-center-x="-3.965261"
               inkscape:transform-center-y="-3.8026582e-05"
               d="m -563.84011,1238.3159 -23.35884,20.6008 0,-41.2016 z"
               id="path6234"
               inkscape:connector-curvature="0" />
          </g>
        </g>
      </g>
    </g>
    <flowRoot
       xml:space="preserve"
       id="flowRoot2802-1"
       style="font-size:18px;font-style:normal;font-variant:normal;font-weight:normal;font-stretch:normal;text-align:center;line-height:110.00000238%;writing-mode:lr-tb;text-anchor:middle;fill:#000000;fill-opacity:1;stroke:none;font-family:Bitstream Vera Sans;-inkscape-font-specification:Bitstream Vera Sans"
       transform="matrix(1.7433323,0,0,1.2699132,-553.10463,20.09035)"><flowRegion
         id="flowRegion2804-2"><rect
           id="rect2806-9"
           width="587.64703"
           height="45.203621"
           x="88.733032"
           y="292.48868"
           style="font-size:18px;font-style:normal;font-variant:normal;font-weight:normal;font-stretch:normal;text-align:center;line-height:110.00000238%;writing-mode:lr-tb;text-anchor:middle;font-family:Bitstream Vera Sans;-inkscape-font-specification:Bitstream Vera Sans" /></flowRegion><flowPara
         id="flowPara2818-3">Sponsord by</flowPara></flowRoot>    <image
       sodipodi:absref="/home/carl/src/veyepar/dj/scripts/bling/logos/wi-logo.png"
       xlink:href="logos/wi-logo.png"
       width="238.4902"
       height="61.171188"
       id="image3166"
       x="14.472884"
       y="430.39481" />
    <image
       sodipodi:absref="/home/carl/src/veyepar/dj/scripts/bling/logos/paul_may.png"
       xlink:href="logos/paul_may.png"
       width="258.24329"
       height="49.189198"
       id="image3231"
       x="529.20728"
       y="436.3858" />
    <image
      sodipodi:absref="/home/carl/src/veyepar/dj/scripts/bling/logos/org/imagescape-web.gif"
       xlink:href="logos/org/imagescape-web.gif"
       width="160"
       height="80"
       id="image3315"
       x="320"
       y="420.98041" />
  </g>
</svg>
