<?xml version="1.0" encoding="utf-8"?>
<!-- Generator: Adobe Illustrator 15.0.2, SVG Export Plug-In . SVG Version: 6.00 Build 0)  -->
<!DOCTYPE svg PUBLIC "-//W3C//DTD SVG 1.1//EN" "http://www.w3.org/Graphics/SVG/1.1/DTD/svg11.dtd">
<svg version="1.1" id="Layer_1" xmlns="http://www.w3.org/2000/svg" xmlns:xlink="http://www.w3.org/1999/xlink" x="0px" y="0px"
	 width="576px" height="288px" viewBox="0 0 576 288" enable-background="new 0 0 576 288" xml:space="preserve">
<g>
	<g>
		<path fill="#009FC2" d="M291.098,53.284c0,4.381-1.555,8.126-4.664,11.234c-3.108,3.107-6.853,4.661-11.232,4.661h-2.648
			c-1.768,0-2.65,0.883-2.65,2.65v23.842h-10.596V37.39c0-1.482,0.512-2.736,1.537-3.761c1.023-1.024,2.277-1.537,3.762-1.537
			h10.596c4.38,0,8.124,1.556,11.232,4.663c3.109,3.109,4.664,6.852,4.664,11.232V53.284z M280.5,53.284v-5.297
			c0-1.482-0.512-2.736-1.537-3.761c-1.023-1.025-2.279-1.537-3.762-1.537h-2.648c-1.768,0-2.65,0.883-2.65,2.647v10.598
			c0,1.766,0.883,2.649,2.65,2.649h2.648c1.482,0,2.738-0.512,3.762-1.536C279.989,56.022,280.5,54.77,280.5,53.284z"/>
		<path fill="#009FC2" d="M327.729,79.776c0,4.381-1.557,8.125-4.664,11.234c-3.107,3.107-6.852,4.661-11.232,4.661
			c-4.379,0-8.125-1.554-11.232-4.661c-3.107-3.109-4.662-6.854-4.662-11.234V32.092h10.598v47.685c0,1.483,0.512,2.737,1.535,3.762
			c1.025,1.023,2.279,1.536,3.762,1.536s2.738-0.513,3.762-1.536c1.025-1.024,1.537-2.278,1.537-3.762V32.092h10.598V79.776z"/>
		<path fill="#009FC2" d="M388.551,95.672h-10.596V45.337c0-1.765-0.883-2.647-2.648-2.647h-2.65c-1.482,0-2.736,0.512-3.762,1.537
			c-1.023,1.024-1.537,2.278-1.537,3.761v47.685h-10.596V47.987c0-1.482-0.512-2.736-1.537-3.761
			c-1.023-1.025-2.279-1.537-3.762-1.537h-2.648c-1.768,0-2.65,0.883-2.65,2.647v50.335h-10.596v-63.58h15.895
			c4.025,0,7.559,1.343,10.598,4.026c3.037-2.684,6.568-4.026,10.596-4.026h15.895V95.672z"/>
		<path fill="#009FC2" d="M428.182,53.284c0,4.381-1.555,8.126-4.664,11.234c-3.107,3.107-6.852,4.661-11.23,4.661h-2.648
			c-1.768,0-2.65,0.883-2.65,2.65v23.842h-10.596V37.39c0-1.482,0.512-2.736,1.537-3.761c1.023-1.024,2.277-1.537,3.762-1.537
			h10.596c4.379,0,8.123,1.556,11.23,4.663c3.109,3.109,4.664,6.852,4.664,11.232V53.284z M417.586,53.284v-5.297
			c0-1.482-0.514-2.736-1.537-3.761c-1.025-1.025-2.279-1.537-3.762-1.537h-2.648c-1.768,0-2.65,0.883-2.65,2.647v10.598
			c0,1.766,0.883,2.649,2.65,2.649h2.648c1.482,0,2.736-0.512,3.762-1.536C417.072,56.022,417.586,54.77,417.586,53.284z"/>
		<path fill="#009FC2" d="M445.619,95.672h-10.596v-63.58h10.596V95.672z"/>
		<path fill="#009FC2" d="M485.25,95.672h-10.596l-9.113-27.338c-0.426-1.273-0.777-1.91-1.061-1.91
			c-0.211,0-0.354,0.603-0.424,1.804v27.444h-10.596v-63.58h10.596l9.324,27.869c0.283,0.918,0.566,1.378,0.85,1.378
			c0.281,0,0.424-0.529,0.424-1.589V32.092h10.596V95.672z"/>
		<path fill="#009FC2" d="M524.881,79.776c0,4.381-1.555,8.125-4.662,11.234c-3.109,3.107-6.854,4.661-11.232,4.661
			c-4.381,0-8.125-1.554-11.232-4.661c-3.109-3.109-4.664-6.854-4.664-11.234V47.987c0-4.381,1.555-8.123,4.664-11.232
			c3.107-3.107,6.852-4.663,11.232-4.663c4.379,0,8.123,1.556,11.232,4.663c3.107,3.109,4.662,6.852,4.662,11.232h-10.596
			c0-1.482-0.514-2.736-1.537-3.761c-1.025-1.025-2.279-1.537-3.762-1.537c-1.484,0-2.738,0.512-3.762,1.537
			c-1.025,1.024-1.537,2.278-1.537,3.761v31.789c0,1.483,0.514,2.737,1.543,3.762c1.025,1.023,2.285,1.536,3.773,1.536
			s2.746-0.513,3.775-1.536c1.025-1.024,1.541-2.278,1.541-3.762c0-1.059,0.035-2.332,0.105-3.815c0.07-1.48,0.107-2.437,0.107-2.86
			c0-1.555-0.357-2.594-1.068-3.125c-0.711-0.53-2.203-0.796-4.479-0.796V58.584h15.895V79.776z"/>
		<path fill="#009FC2" d="M291.098,153.574c0,4.381-1.555,8.125-4.664,11.234c-3.108,3.107-6.853,4.66-11.232,4.66
			c-4.379,0-8.124-1.553-11.232-4.66c-3.108-3.109-4.662-6.854-4.662-11.234h10.596c0,1.484,0.514,2.736,1.537,3.762
			c1.024,1.023,2.278,1.537,3.762,1.537c2.613,0,4.275-1.234,4.98-3.709c0.212-0.92,0.318-3.215,0.318-6.887
			c0-1.482-0.512-2.738-1.537-3.763c-1.023-1.023-2.279-1.537-3.762-1.537c-4.379,0-8.124-1.553-11.232-4.66
			s-4.662-6.854-4.662-11.234v-5.297c0-4.381,1.554-8.122,4.662-11.232c3.108-3.107,6.854-4.663,11.232-4.663
			c4.38,0,8.124,1.556,11.232,4.663c3.109,3.11,4.664,6.852,4.664,11.232H280.5c0-1.482-0.512-2.736-1.537-3.761
			c-1.023-1.025-2.279-1.537-3.762-1.537c-2.613,0-4.273,1.234-4.98,3.708c-0.211,0.919-0.318,3.215-0.318,6.887
			c0,1.484,0.514,2.738,1.537,3.764c1.024,1.023,2.278,1.535,3.762,1.535c4.38,0,8.124,1.555,11.232,4.662
			c3.109,3.109,4.664,6.854,4.664,11.234V153.574z"/>
		<path fill="#009FC2" d="M326.729,116.487h-7.949c-1.766,0-2.648,0.883-2.648,2.647v50.334h-10.596v-50.334
			c0-1.765-0.885-2.647-2.65-2.647h-7.947V105.89h31.791V116.487z"/>
		<path fill="#009FC2" d="M363.357,169.469h-10.596v-23.842c0-1.765-0.885-2.65-2.65-2.65h-5.297c-1.768,0-2.65,0.885-2.65,2.65
			v23.842h-10.596v-47.684c0-4.381,1.555-8.122,4.662-11.232c3.109-3.107,6.854-4.663,11.232-4.663
			c4.381,0,8.125,1.556,11.232,4.663c3.109,3.11,4.662,6.852,4.662,11.232V169.469z M352.762,129.733v-7.948
			c0-1.482-0.512-2.736-1.537-3.761c-1.023-1.025-2.279-1.537-3.762-1.537c-1.484,0-2.736,0.512-3.762,1.537
			c-1.023,1.024-1.537,2.278-1.537,3.761v7.948c0,1.766,0.883,2.648,2.65,2.648h5.297
			C351.877,132.381,352.762,131.499,352.762,129.733z"/>
		<path fill="#009FC2" d="M400.988,116.487h-7.947c-1.768,0-2.648,0.883-2.648,2.647v50.334h-10.598v-50.334
			c0-1.765-0.883-2.647-2.648-2.647h-7.947V105.89h31.789V116.487z"/>
		<path fill="#009FC2" d="M417.426,169.469H406.83V105.89h10.596V169.469z"/>
		<path fill="#009FC2" d="M458.057,153.574c0,4.381-1.555,8.125-4.662,11.234c-3.109,3.107-6.854,4.66-11.232,4.66
			c-4.381,0-8.125-1.553-11.232-4.66c-3.109-3.109-4.662-6.854-4.662-11.234v-31.789c0-4.381,1.553-8.122,4.662-11.232
			c3.107-3.107,6.852-4.663,11.232-4.663c4.379,0,8.123,1.556,11.232,4.663c3.107,3.11,4.662,6.852,4.662,11.232V153.574z
			 M447.461,153.574v-31.789c0-1.482-0.514-2.736-1.537-3.761c-1.025-1.025-2.279-1.537-3.762-1.537
			c-1.484,0-2.736,0.512-3.762,1.537c-1.025,1.024-1.537,2.278-1.537,3.761v31.789c0,1.484,0.512,2.736,1.537,3.762
			c1.025,1.023,2.277,1.537,3.762,1.537c1.482,0,2.736-0.514,3.762-1.537C446.947,156.311,447.461,155.059,447.461,153.574z"/>
		<path fill="#009FC2" d="M498.688,169.469h-10.596l-9.113-27.337c-0.424-1.273-0.777-1.91-1.061-1.91
			c-0.211,0-0.354,0.604-0.424,1.803v27.445h-10.596V105.89h10.596l9.326,27.869c0.281,0.92,0.564,1.379,0.846,1.379
			c0.283,0,0.426-0.529,0.426-1.59V105.89h10.596V169.469z"/>
		<path fill="#009FC2" d="M519.125,137.68h-10.596v-13.598h10.596V137.68z M519.125,169.469h-10.596v-13.596h10.596V169.469z"/>
		<path fill="#009FC2" d="M291.098,227.373c0,4.381-1.555,8.125-4.664,11.232c-3.108,3.109-6.853,4.662-11.232,4.662
			c-4.379,0-8.124-1.553-11.232-4.662c-3.108-3.107-4.662-6.852-4.662-11.232v-31.789c0-4.381,1.554-8.123,4.662-11.232
			c3.108-3.107,6.854-4.664,11.232-4.664c4.38,0,8.124,1.557,11.232,4.664c3.109,3.109,4.664,6.852,4.664,11.232V227.373z
			 M280.5,227.373v-31.789c0-1.484-0.512-2.738-1.537-3.762c-1.023-1.025-2.279-1.537-3.762-1.537c-1.483,0-2.737,0.512-3.762,1.537
			c-1.023,1.023-1.537,2.277-1.537,3.762v31.789c0,1.482,0.514,2.736,1.537,3.76c1.024,1.025,2.278,1.537,3.762,1.537
			c1.482,0,2.738-0.512,3.762-1.537C279.989,230.109,280.5,228.855,280.5,227.373z"/>
		<path fill="#009FC2" d="M330.729,243.268h-10.598l-9.113-27.338c-0.424-1.273-0.777-1.91-1.059-1.91
			c-0.213,0-0.355,0.602-0.424,1.803v27.445h-10.598v-63.58h10.598l9.324,27.869c0.281,0.918,0.564,1.379,0.848,1.379
			c0.281,0,0.424-0.529,0.424-1.59v-27.658h10.598V243.268z"/>
		<path fill="#009FC2" d="M370.357,190.285h-18.543c-1.768,0-2.65,0.883-2.65,2.648v10.596c0,1.768,0.883,2.65,2.65,2.65h13.246
			v10.596h-13.246c-1.768,0-2.65,0.883-2.65,2.648v10.598c0,1.768,0.883,2.648,2.65,2.648h18.543v10.598h-26.49
			c-1.484,0-2.738-0.512-3.762-1.537c-1.025-1.025-1.537-2.277-1.537-3.76v-52.984c0-1.482,0.512-2.738,1.537-3.762
			c1.023-1.023,2.277-1.537,3.762-1.537h26.49V190.285z"/>
	</g>
	<g>
		<g>
			<path fill="#D11242" d="M141.553,179.264c-5.887,0.006-10.656,4.779-10.656,10.656c0,5.893,4.769,10.66,10.656,10.66
				c5.887,0,10.661-4.768,10.661-10.66C152.214,184.043,147.44,179.264,141.553,179.264z"/>
			<path fill="#D11242" d="M141.553,95.636c5.887,0,10.661-4.769,10.661-10.661c0-5.887-4.774-10.656-10.661-10.656
				c-5.887,0-10.661,4.769-10.661,10.656C130.892,90.868,135.666,95.636,141.553,95.636z"/>
			<path fill="#D11242" d="M90.78,154.457c-5.101,2.939-6.847,9.455-3.901,14.561c2.941,5.096,9.46,6.842,14.562,3.906
				c5.096-2.951,6.842-9.465,3.901-14.572C102.396,153.262,95.876,151.51,90.78,154.457z"/>
			<path fill="#D11242" d="M141.553,117.771c-10.868,0-19.68,8.816-19.68,19.685c0,10.857,8.812,19.679,19.68,19.679
				s19.679-8.822,19.679-19.679C161.232,126.587,152.421,117.771,141.553,117.771z"/>
			<path fill="#D11242" d="M101.441,101.976c-5.101-2.936-11.621-1.189-14.562,3.906c-2.946,5.102-1.2,11.621,3.901,14.557
				c5.096,2.952,11.616,1.195,14.562-3.896C108.283,111.442,106.537,104.922,101.441,101.976z"/>
			<path fill="#D11242" d="M241.799,32.467H41.308c-2.744,0-4.967,2.225-4.967,4.968v200.491c0,2.742,2.223,4.967,4.967,4.967
				h200.492c2.744,0,4.967-2.225,4.967-4.967V37.435C246.766,34.692,244.543,32.467,241.799,32.467z M210.603,106.461
				c0,0-0.027-0.011-0.077-0.033c-0.054-0.017-0.109-0.027-0.164-0.044c-0.78-0.174-3.208-0.316-3.693,4.256
				c0.196,6.994-3.345,13.874-9.832,17.616c-5.02,2.893-10.787,3.328-15.904,1.676c-1.146-0.295-5.729-0.938-6.58,7.463
				l-0.005-0.016c0,0.021,0,0.049,0,0.076c0,0.017,0,0.039,0,0.065l0.011-0.021c0.862,8.528,5.565,7.737,6.624,7.447
				c0.055-0.011,0.114-0.027,0.169-0.044c0.027-0.011,0.044-0.021,0.044-0.021c5.052-1.55,10.704-1.086,15.642,1.767
				c6.465,3.727,10.006,10.58,9.832,17.535c0.562,5.539,3.939,4.25,3.939,4.25l-0.011,0.018c2.581-0.633,5.401-0.328,7.889,1.107
				c5.096,2.936,6.842,9.461,3.9,14.566c-2.946,5.096-9.465,6.832-14.562,3.896c-2.488-1.436-4.163-3.721-4.899-6.285l-0.005,0.01
				c0,0,0-0.027-0.016-0.076c-0.011-0.055-0.027-0.109-0.044-0.158c-0.234-0.752-1.32-2.945-5.538-1.068
				c-5.958,3.66-13.684,4.037-20.165,0.289c-5.02-2.902-8.276-7.682-9.4-12.932c-0.316-1.145-2.057-5.439-9.755-1.975l0.005-0.016
				c-0.038,0.027-0.076,0.049-0.114,0.076h0.016c-6.956,5.008-3.917,8.691-3.137,9.461c0.044,0.037,0.082,0.086,0.125,0.119
				c0.017,0.016,0.027,0.027,0.033,0.033c3.874,3.596,6.302,8.729,6.302,14.42c0,7.463-4.157,13.961-10.279,17.289
				c-4.512,3.258-1.708,5.543-1.708,5.543h-0.021c1.844,1.916,2.99,4.508,2.99,7.383c0,5.887-4.774,10.654-10.661,10.654
				c-5.887,0-10.656-4.768-10.656-10.654c0-2.871,1.141-5.467,2.984-7.383c0.011-0.016,0.033-0.033,0.06-0.059
				c0.033-0.039,0.071-0.072,0.104-0.109c0.535-0.584,1.898-2.625-1.839-5.336c-6.149-3.328-10.333-9.838-10.333-17.328
				c0-5.795,2.51-11,6.503-14.605c0.829-0.84,3.677-4.496-3.175-9.428h0.011c-0.038-0.027-0.076-0.039-0.114-0.076l0.011,0.016
				c-7.818-3.514-9.488,0.971-9.766,2.02c-0.011,0.055-0.027,0.113-0.038,0.168c-0.005,0.039-0.011,0.045-0.011,0.045
				c-1.179,5.15-4.409,9.82-9.346,12.674c-6.46,3.736-14.158,3.377-20.105-0.268c-5.074-2.27-5.652,1.287-5.652,1.287l-0.011-0.016
				c-0.731,2.559-2.412,4.85-4.894,6.285c-5.102,2.936-11.621,1.199-14.562-3.896c-2.946-5.105-1.195-11.631,3.901-14.566
				c1.675-0.967,3.503-1.42,5.303-1.42c0.873,0,1.741,0.105,2.581,0.312c0,0,0.039,0.01,0.104,0.037
				c0.038,0.006,0.076,0.018,0.114,0.018c0.758,0.18,3.225,0.365,3.716-4.256c-0.197-6.984,3.344-13.863,9.826-17.611
				c5.025-2.892,10.792-3.329,15.904-1.669c1.14,0.294,5.734,0.943,6.58-7.47l0.005,0.021c0-0.026,0-0.049,0-0.065
				c0-0.027,0-0.055,0-0.076l-0.005,0.021c-0.862-8.538-5.57-7.736-6.629-7.447c-0.055,0.006-0.109,0.027-0.164,0.044
				c-0.033,0.011-0.049,0.022-0.049,0.022c-5.046,1.549-10.704,1.085-15.642-1.764c-6.459-3.726-10-10.578-9.832-17.54
				c-0.556-5.543-3.934-4.255-3.934-4.255l0.005-0.011c-2.581,0.639-5.396,0.333-7.884-1.107c-5.096-2.935-6.847-9.466-3.901-14.567
				c2.941-5.085,9.46-6.836,14.562-3.896c2.482,1.43,4.163,3.727,4.894,6.285l0.005-0.011c0,0,0.005,0.038,0.021,0.115
				c0.011,0.033,0.027,0.071,0.033,0.109c0.234,0.742,1.304,2.968,5.548,1.08c5.953-3.655,13.678-4.037,20.16-0.289
				c5.02,2.908,8.282,7.677,9.406,12.931c0.311,1.146,2.046,5.439,9.75,1.97l-0.005,0.021c0.038-0.027,0.076-0.054,0.12-0.065
				h-0.021c6.956-5.014,3.917-8.691,3.143-9.466c-0.044-0.044-0.087-0.093-0.131-0.12c-0.022-0.027-0.039-0.038-0.039-0.038
				c-3.868-3.601-6.296-8.729-6.296-14.425c0-7.458,4.157-13.945,10.279-17.285c4.512-3.246,1.708-5.532,1.708-5.532h0.021
				c-1.844-1.915-2.99-4.512-2.99-7.393c0-5.881,4.774-10.655,10.661-10.655c5.887,0,10.661,4.774,10.661,10.655
				c0,2.88-1.146,5.478-2.99,7.393h0.011c0,0-0.038,0.027-0.098,0.077c-0.017,0.027-0.033,0.043-0.049,0.06
				c-0.507,0.535-1.997,2.597,1.817,5.369c6.149,3.317,10.328,9.826,10.328,17.312c0,5.789-2.504,11.004-6.493,14.605
				c-0.829,0.834-3.693,4.49,3.165,9.444h-0.016c0.043,0.011,0.082,0.038,0.125,0.065l-0.011-0.021
				c7.796,3.508,9.477-0.928,9.761-2.008c0.016-0.065,0.033-0.12,0.049-0.191c0-0.011,0.005-0.033,0.005-0.033
				c1.178-5.15,4.408-9.815,9.346-12.658c6.46-3.737,14.158-3.377,20.105,0.251c5.074,2.275,5.647-1.288,5.647-1.288l0.011,0.021
				c0.737-2.559,2.412-4.855,4.899-6.285c5.096-2.94,11.616-1.189,14.562,3.907c2.941,5.09,1.195,11.621-3.9,14.556
				c-2.488,1.44-5.309,1.746-7.889,1.107L210.603,106.461z"/>
			<path fill="#D11242" d="M181.67,172.924c5.101,2.936,11.616,1.189,14.562-3.906c2.941-5.096,1.195-11.621-3.901-14.561
				c-5.101-2.947-11.621-1.195-14.562,3.895C174.823,163.459,176.574,169.973,181.67,172.924z"/>
			<path fill="#D11242" d="M181.67,101.976c-5.096,2.946-6.847,9.466-3.901,14.567c2.946,5.09,9.46,6.847,14.562,3.896
				c5.096-2.936,6.842-9.455,3.901-14.557C193.286,100.787,186.766,99.041,181.67,101.976z"/>
		</g>
	</g>
</g>
</svg>
