<?xml version="1.0" encoding="UTF-8" standalone="no"?>
<!-- Created with Inkscape (http://www.inkscape.org/) -->

<svg
   xmlns:dc="http://purl.org/dc/elements/1.1/"
   xmlns:cc="http://creativecommons.org/ns#"
   xmlns:rdf="http://www.w3.org/1999/02/22-rdf-syntax-ns#"
   xmlns:svg="http://www.w3.org/2000/svg"
   xmlns="http://www.w3.org/2000/svg"
   xmlns:sodipodi="http://sodipodi.sourceforge.net/DTD/sodipodi-0.dtd"
   xmlns:inkscape="http://www.inkscape.org/namespaces/inkscape"
   width="297mm"
   height="210mm"
   viewBox="0 0 297 210"
   id="svg2"
   version="1.1"
   inkscape:version="0.91+devel r"
   sodipodi:docname="TimVideos.svg">
  <defs
     id="defs4" />
  <sodipodi:namedview
     id="base"
     pagecolor="#ffffff"
     bordercolor="#666666"
     borderopacity="1.0"
     inkscape:pageopacity="0.0"
     inkscape:pageshadow="2"
     inkscape:zoom="1.174246"
     inkscape:cx="561.25984"
     inkscape:cy="396.85039"
     inkscape:document-units="mm"
     inkscape:current-layer="layer1"
     showgrid="false"
     showguides="true"
     inkscape:guide-bbox="true"
     inkscape:window-width="1920"
     inkscape:window-height="1124"
     inkscape:window-x="0"
     inkscape:window-y="24"
     inkscape:window-maximized="1" />
  <metadata
     id="metadata7">
    <rdf:RDF>
      <cc:Work
         rdf:about="">
        <dc:format>image/svg+xml</dc:format>
        <dc:type
           rdf:resource="http://purl.org/dc/dcmitype/StillImage" />
        <dc:title></dc:title>
      </cc:Work>
    </rdf:RDF>
  </metadata>
  <g
     inkscape:label="Layer 1"
     inkscape:groupmode="layer"
     id="layer1"
     transform="translate(0,-87.000002)">
    <g
       transform="matrix(1.1657091,0,0,1.1657091,0.58580353,-10.274714)"
       id="g4455">
      <g
         id="g4457"
         transform="matrix(1.7155096,0,0,1.7155096,-67.052175,-80.787014)">
        <path
           inkscape:connector-curvature="0"
           id="path4459"
           d="m 136.93095,147.89563 c -1.21879,-0.25764 -2.20943,-1.39127 -2.48096,-2.83909 -0.13839,-0.7379 -0.047,-2.24878 0.1739,-2.87554 0.63267,-1.79487 2.63853,-2.6555 4.25903,-1.82738 l 0.48684,0.24878 0,-1.4586 c 0,-1.02157 0.0304,-1.48904 0.1016,-1.5602 0.13485,-0.13484 1.27062,-0.13484 1.40546,0 0.0767,0.0767 0.1016,1.31704 0.1016,5.06307 0,3.74603 -0.0249,4.98636 -0.1016,5.06307 -0.0585,0.0585 -0.33866,0.1016 -0.6604,0.1016 -0.58134,0 -0.762,-0.0858 -0.762,-0.36175 0,-0.14898 -0.014,-0.14749 -0.23283,0.0246 -0.52469,0.41278 -1.49073,0.5905 -2.29064,0.42141 z"
           style="fill:#004b7e;fill-opacity:1" />
        <path
           inkscape:connector-curvature="0"
           id="path4461"
           d="m 138.58773,146.23173 c 0.29992,-0.22217 0.58809,-0.64911 0.69867,-1.0351 0.39735,-1.3871 -0.0159,-3.05678 -0.86352,-3.48922 -0.468,-0.23876 -1.18427,-0.19853 -1.58836,0.0892 -0.59528,0.42387 -0.92464,1.84639 -0.68918,2.97659 0.12979,0.623 0.56103,1.3273 0.93842,1.53259 0.38958,0.21193 1.16976,0.17351 1.50397,-0.0741 z"
           style="fill:#ffffff" />
        <path
           inkscape:connector-curvature="0"
           id="path4463"
           d="m 144.63484,147.89146 c -1.85313,-0.33071 -2.96042,-2.02078 -2.77655,-4.23786 0.12403,-1.49554 0.71037,-2.58005 1.7124,-3.16728 0.8374,-0.49074 2.21405,-0.57444 3.22644,-0.19617 0.68298,0.25519 1.45,1.02677 1.70854,1.71867 0.33977,0.9093 0.4727,2.25603 0.24515,2.48358 -0.0745,0.0745 -0.77517,0.1016 -2.62466,0.1016 -2.79483,0 -2.62016,-0.0425 -2.39935,0.58337 0.31086,0.88106 0.96157,1.32157 1.86702,1.26392 0.44924,-0.0286 0.59774,-0.0789 0.86031,-0.29143 0.26875,-0.21751 0.60722,-0.71234 0.72125,-1.05442 0.0417,-0.12499 1.42553,0.0635 1.58083,0.21533 0.24966,0.24406 -0.37661,1.45732 -1.02435,1.98448 -0.64129,0.52191 -2.02296,0.7879 -3.09703,0.59621 z"
           style="fill:#004b7e;fill-opacity:1" />
        <path
           inkscape:connector-curvature="0"
           id="path4465"
           d="m 147.04117,142.79787 c -0.20196,-1.00976 -1.45821,-1.56333 -2.42095,-1.06679 -0.39632,0.20441 -0.80052,0.70353 -0.89574,1.10609 l -0.0551,0.23283 1.71309,0 1.7131,0 -0.0544,-0.27213 z"
           style="fill:#ffffff" />
        <path
           inkscape:connector-curvature="0"
           id="path4467"
           d="m 151.84867,147.85465 c -0.69775,-0.15178 -1.11546,-0.37854 -1.53425,-0.83287 -0.70898,-0.76915 -1.03866,-1.7322 -1.03866,-3.03406 0,-1.45521 0.30184,-2.33388 1.02513,-2.98418 1.424,-1.2803 3.76549,-1.27537 5.05149,0.0106 0.89014,0.89014 1.25618,2.56659 0.91344,4.18359 -0.43312,2.04338 -2.24035,3.13041 -4.41715,2.65689 z"
           style="fill:#004b7e;fill-opacity:1" />
        <path
           inkscape:connector-curvature="0"
           id="path4469"
           d="m 153.53931,146.34019 c 0.67655,-0.28268 1.10372,-1.18358 1.109,-2.33885 0.004,-0.85248 -0.18326,-1.4783 -0.57577,-1.92534 -0.33249,-0.37869 -0.69039,-0.53 -1.25366,-0.53 -1.21952,0 -1.92876,1.05012 -1.82673,2.70467 0.0246,0.39838 0.10555,0.86579 0.17996,1.03868 0.17942,0.4169 0.62152,0.91125 0.93841,1.04933 0.33674,0.14673 1.07935,0.14752 1.42879,10e-4 z"
           style="fill:#ffffff" />
        <path
           inkscape:connector-curvature="0"
           id="path4471"
           d="m 159.01242,147.88786 c -1.15243,-0.22462 -1.92877,-0.90573 -2.24475,-1.96942 -0.17713,-0.59625 -0.0992,-0.68587 0.6936,-0.79711 0.65557,-0.092 0.87382,-0.048 0.87382,0.17598 0,0.0495 0.0785,0.25204 0.17442,0.45021 0.23072,0.4766 0.69537,0.70915 1.41693,0.70915 0.58081,0 1.16438,-0.19363 1.28979,-0.42795 0.0452,-0.0845 0.0822,-0.28846 0.0822,-0.45331 0,-0.38672 -0.12293,-0.45027 -1.72204,-0.89015 -1.39291,-0.38316 -1.75684,-0.54446 -2.14717,-0.95167 -0.37596,-0.39222 -0.53378,-0.8209 -0.5316,-1.44403 0.002,-0.68009 0.1989,-1.11577 0.70372,-1.56013 0.56241,-0.49505 1.15386,-0.6669 2.25775,-0.656 1.0073,0.01 1.59472,0.18237 2.13246,0.62592 0.36666,0.30244 0.72859,1.0034 0.76372,1.47913 l 0.0248,0.33614 -0.67733,0.102 c -0.96005,0.14457 -0.97362,0.14352 -0.97398,-0.0758 -5.1e-4,-0.31231 -0.31902,-0.7414 -0.65429,-0.88148 -0.44279,-0.18501 -1.37749,-0.12464 -1.69219,0.1093 -0.31688,0.23556 -0.34863,0.55606 -0.0763,0.77028 0.11601,0.0912 0.79439,0.32812 1.50751,0.52636 1.57193,0.43699 1.73079,0.50058 2.13322,0.85393 1.18115,1.03706 0.83682,2.96609 -0.65521,3.67069 -0.75525,0.35666 -1.78837,0.47155 -2.6791,0.29794 z"
           style="fill:#004b7e;fill-opacity:1" />
        <path
           inkscape:connector-curvature="0"
           id="path4473"
           d="m 99.350942,147.71128 c -0.100733,-0.0487 -0.204988,-0.16997 -0.231677,-0.26943 -0.02669,-0.0995 -0.04905,-1.96202 -0.04968,-4.13901 l -0.0012,-3.95817 -1.259633,0 c -1.068246,0 -1.277283,-0.0213 -1.375795,-0.13997 -0.182676,-0.22011 -0.210237,-1.41957 -0.03863,-1.68147 l 0.137966,-0.21056 3.760917,0 3.76091,0 0.1318,0.18817 c 0.18238,0.26039 0.18238,1.39527 0,1.65566 -0.1262,0.18018 -0.18556,0.18817 -1.397,0.18817 l -1.2652,0 -10e-4,4.04283 c -7.1e-4,2.22356 -0.0293,4.08476 -0.0635,4.136 -0.13918,0.20844 -0.46964,0.28755 -1.17847,0.28211 -0.410518,-0.003 -0.828815,-0.0456 -0.929548,-0.0943 z"
           style="fill:#c90000;fill-opacity:1" />
        <path
           inkscape:connector-curvature="0"
           id="path4475"
           d="m 105.05378,147.75578 c -0.0841,-0.0238 -0.18891,-0.13786 -0.23283,-0.25339 -0.0859,-0.22595 -0.11173,-6.97187 -0.0279,-7.28452 0.0675,-0.25155 0.43891,-0.36516 1.1939,-0.36516 0.60233,0 0.9266,0.0881 1.06,0.28784 0.0342,0.0512 0.0628,1.71465 0.0635,3.69648 0.001,2.97815 -0.0195,3.63183 -0.11876,3.76766 -0.10326,0.14136 -0.23652,0.16645 -0.9525,0.17939 -0.45785,0.008 -0.90128,-0.004 -0.98542,-0.0283 z"
           style="fill:#c90000;fill-opacity:1" />
        <path
           inkscape:connector-curvature="0"
           id="path4477"
           d="m 108.77912,147.75578 c -0.0841,-0.0238 -0.18891,-0.13786 -0.23284,-0.25339 -0.0851,-0.22378 -0.11213,-6.97045 -0.0292,-7.27953 0.0685,-0.25531 0.38114,-0.37015 1.00767,-0.37015 0.76959,0 0.97367,0.1109 0.97367,0.52911 l 0,0.33261 0.26607,-0.22389 c 0.52017,-0.43769 1.08742,-0.66295 1.77312,-0.7041 0.90005,-0.054 1.48591,0.12772 2.00016,0.62046 l 0.39588,0.37931 0.32261,-0.25925 c 0.17743,-0.1426 0.52094,-0.36216 0.76335,-0.48792 0.39319,-0.204 0.53244,-0.22867 1.29094,-0.22867 1.00517,0 1.33963,0.13579 1.89862,0.77083 0.60003,0.68168 0.63287,0.88142 0.66658,4.05517 0.0251,2.35991 0.0103,2.82031 -0.0949,2.96334 -0.10551,0.14336 -0.24318,0.17389 -0.8976,0.19907 -0.47335,0.0182 -0.86726,-0.009 -1.01623,-0.071 l -0.24326,-0.10076 -0.0278,-2.46898 c -0.0255,-2.26729 -0.0416,-2.49664 -0.19715,-2.80765 -0.34732,-0.69464 -0.90763,-0.69712 -1.61997,-0.007 l -0.45436,0.44008 0,2.38509 0,2.38509 -0.2094,0.13721 c -0.3201,0.20973 -1.78756,0.14525 -1.95652,-0.086 -0.0966,-0.13225 -0.12017,-0.61178 -0.12055,-2.45534 -2.6e-4,-1.30137 -0.0379,-2.42578 -0.0871,-2.60304 -0.0996,-0.35879 -0.51299,-0.74627 -0.79607,-0.74627 -0.24086,0 -0.77749,0.34946 -1.08254,0.70497 l -0.23056,0.26869 -0.002,2.33332 c -0.002,1.87767 -0.0257,2.36541 -0.12233,2.49767 -0.10327,0.14135 -0.23652,0.16645 -0.9525,0.17939 -0.45785,0.008 -0.90128,-0.005 -0.98542,-0.0283 z"
           style="fill:#c90000;fill-opacity:1" />
        <path
           inkscape:connector-curvature="0"
           id="path4479"
           d="m 125.9133,147.62087 c -2.72144,-6.91885 -3.8079,-9.82557 -3.72822,-9.97446 0.0776,-0.14498 0.18271,-0.16437 0.89114,-0.16437 0.75165,0 0.80854,0.0122 0.88694,0.1905 0.0461,0.10478 0.70646,1.93389 1.46753,4.06469 l 1.38375,3.87419 0.90564,-2.43486 c 0.49809,-1.33917 1.17956,-3.16828 1.51436,-4.06469 l 0.60874,-1.62983 0.76359,0 c 0.65874,0 0.7774,0.0221 0.86414,0.16101 0.0854,0.13673 -0.19567,0.91564 -1.86347,5.16434 l -1.96402,5.00332 -0.82759,3.4e-4 c -0.77975,3.4e-4 -0.83193,-0.0107 -0.90253,-0.19017 z"
           style="fill:#004b7e;fill-opacity:1" />
        <path
           inkscape:connector-curvature="0"
           id="path4481"
           d="m 132.02069,147.70977 c -0.0758,-0.0758 -0.1016,-1.016 -0.1016,-3.7084 0,-2.6924 0.0258,-3.63255 0.1016,-3.7084 0.13574,-0.13574 1.35439,-0.13574 1.49013,0 0.0758,0.0758 0.1016,1.016 0.1016,3.7084 0,2.6924 -0.0258,3.63256 -0.1016,3.7084 -0.0612,0.0612 -0.35748,0.1016 -0.74506,0.1016 -0.38759,0 -0.68387,-0.0404 -0.74507,-0.1016 z"
           style="fill:#004b7e;fill-opacity:1" />
        <path
           inkscape:connector-curvature="0"
           id="path4483"
           d="m 132.02069,139.24311 c -0.0633,-0.0633 -0.1016,-0.3763 -0.1016,-0.82974 0,-0.45343 0.0383,-0.76646 0.1016,-0.82973 0.0612,-0.0612 0.35748,-0.1016 0.74507,-0.1016 0.38758,0 0.68387,0.0404 0.74506,0.1016 0.0633,0.0633 0.1016,0.3763 0.1016,0.82973 0,0.45344 -0.0383,0.76647 -0.1016,0.82974 -0.0612,0.0612 -0.35748,0.1016 -0.74506,0.1016 -0.38759,0 -0.68387,-0.0404 -0.74507,-0.1016 z"
           style="fill:#004b7e;fill-opacity:1" />
        <path
           inkscape:connector-curvature="0"
           id="path4485"
           d="m 105.12004,139.05719 c -0.3329,-0.14505 -0.46361,-0.44823 -0.46361,-1.07533 0,-0.91829 0.29229,-1.17715 1.32917,-1.17715 0.59851,0 0.97796,0.14828 1.13971,0.44538 0.13555,0.24895 0.13269,1.23616 -0.004,1.48795 -0.0592,0.10872 -0.2366,0.2516 -0.39434,0.3175 -0.35739,0.14933 -1.26554,0.15026 -1.60662,0.002 z"
           style="fill:#c90000;fill-opacity:1" />
      </g>
      <g
         id="g4487"
         transform="matrix(1.2521355,0,0,1.2521355,-22.438686,-16.015955)">
        <path
           inkscape:connector-curvature="0"
           id="path4489"
           d="m 60.004643,161.92512 c -0.186267,-0.0389 -0.605367,-0.10833 -0.931333,-0.15426 -1.406124,-0.19814 -1.903949,-0.3251 -3.217334,-0.82057 -1.305114,-0.49235 -2.490174,-1.32837 -3.338387,-2.35514 -0.599063,-0.72517 -0.871097,-1.19491 -1.230408,-2.12462 -0.358263,-0.92699 -0.481555,-1.57407 -0.532363,-2.794 -0.09454,-2.26985 0.637784,-4.29159 2.095986,-5.78645 1.729378,-1.77286 4.049392,-2.62384 6.899839,-2.53085 1.179113,0.0385 2.463102,0.19245 2.624667,0.31478 0.04657,0.0353 0.221729,0.0888 0.38925,0.1189 0.167522,0.0301 0.500711,0.1494 0.740419,0.26504 0.239708,0.11564 0.457924,0.21025 0.484923,0.21025 0.143078,0 1.240026,0.79625 1.630396,1.18347 0.615249,0.61028 0.985919,1.19375 1.295802,2.03973 0.242299,0.66147 0.261881,0.79759 0.267127,1.8568 0.0062,1.25953 -0.09099,1.72786 -0.559161,2.6934 -0.313702,0.64697 -1.078987,1.50216 -1.782602,1.99201 -1.375119,0.95736 -2.706813,1.32371 -5.037226,1.38574 -1.15632,0.0308 -1.626534,0.009 -2.201334,-0.10314 -0.81166,-0.158 -1.435803,-0.33059 -1.855634,-0.51312 -0.359821,-0.15645 -0.332981,-0.1643 -0.527222,0.15428 -0.602507,0.98818 0.481831,2.42158 2.852951,3.77134 0.410471,0.23366 0.993961,0.52539 1.296644,0.64829 0.302683,0.12289 0.626533,0.25779 0.719667,0.29976 0.09313,0.042 0.359833,0.13155 0.592666,0.19906 l 0.423334,0.12275 -0.381,-0.001 c -0.20955,-7.6e-4 -0.5334,-0.0332 -0.719667,-0.0721 z"
           style="fill:#c90000;fill-opacity:1" />
        <path
           inkscape:connector-curvature="0"
           id="path4491"
           d="m 58.756721,151.29481 0.02208,-3.56705 -0.191411,-0.0513 c -0.249629,-0.0669 -1.535597,-0.0685 -1.708486,-0.002 -0.119161,0.0457 -0.133925,0.44085 -0.133925,3.58422 0,1.94306 0.02658,3.55941 0.05906,3.59189 0.03248,0.0325 0.480158,0.0484 0.994833,0.0353 l 0.935773,-0.0238 0.02208,-3.56705 z"
           style="fill:#ffffff" />
        <path
           inkscape:connector-curvature="0"
           id="path4493"
           d="m 61.889418,151.31141 c 0.01734,-2.78415 -9.4e-4,-3.56505 -0.08467,-3.6182 -0.124545,-0.0791 -1.596025,-0.0946 -1.793183,-0.019 -0.119162,0.0457 -0.133925,0.44085 -0.133925,3.58422 0,1.94306 0.02658,3.55941 0.05906,3.59189 0.03248,0.0325 0.480158,0.0484 0.994833,0.0353 l 0.935773,-0.0238 0.02211,-3.55042 z"
           style="fill:#ffffff" />
        <path
           inkscape:connector-curvature="0"
           id="path4495"
           d="m 69.86831,152.3251 c 0,-0.0215 0.161925,-0.0802 0.359833,-0.13054 0.391053,-0.0994 0.369143,-0.0908 1.418167,-0.55991 2.289413,-1.02392 4.059518,-2.63698 4.063173,-3.70269 9.56e-4,-0.27763 -0.233058,-0.81713 -0.354432,-0.81713 -0.04508,0 -0.355064,0.093 -0.688853,0.20662 -2.095403,0.71339 -4.885617,0.70964 -6.999222,-0.009 -0.836902,-0.28471 -1.196774,-0.47144 -1.883427,-0.97727 -1.323699,-0.97511 -2.006164,-2.14713 -2.185197,-3.75271 -0.363865,-3.26317 1.326213,-5.53562 4.872958,-6.5521 0.421434,-0.12078 1.384082,-0.25169 2.328333,-0.31663 1.035125,-0.0712 3.116886,0.22755 4.021667,0.57712 2.105561,0.81352 3.533478,2.08392 4.410589,3.92405 0.615948,1.29222 0.735957,1.96573 0.693975,3.89466 -0.0341,1.5668 -0.06666,1.75338 -0.504567,2.89137 -0.639869,1.66282 -2.206845,3.29894 -3.913324,4.086 -1.123104,0.518 -2.159409,0.81434 -3.607673,1.03166 -0.302684,0.0454 -0.712806,0.11935 -0.911382,0.16428 -0.370725,0.0839 -1.120618,0.11241 -1.120618,0.0426 z"
           style="fill:#004b7e;fill-opacity:1" />
        <path
           inkscape:connector-curvature="0"
           id="path4497"
           d="m 69.9462,145.27677 c 0.769013,-0.35171 1.029099,-0.46819 1.530946,-0.68562 0.337278,-0.14613 0.834225,-0.36775 1.651,-0.73631 0.139792,-0.0631 0.425542,-0.18852 0.635,-0.27877 0.437872,-0.18865 0.937695,-0.4149 1.926,-0.87179 0.654717,-0.30268 0.6985,-0.33934 0.6985,-0.58478 0,-0.24663 -0.04308,-0.28179 -0.740833,-0.60464 -0.79588,-0.36825 -1.037207,-0.47687 -1.63,-0.73371 -0.40539,-0.17564 -1.152123,-0.50997 -1.777834,-0.79598 -0.20955,-0.0958 -0.55245,-0.24772 -0.762,-0.33762 -0.20955,-0.0899 -0.5334,-0.2335 -0.719666,-0.31912 -1.184151,-0.54432 -1.506435,-0.68325 -1.694229,-0.73039 l -0.210771,-0.0529 0,3.50874 c 0,1.9298 0.02582,3.53455 0.05738,3.56611 0.07418,0.0742 0.254235,0.0146 1.036511,-0.34322 z"
           style="fill:#ffffff" />
        <path
           inkscape:connector-curvature="0"
           id="path4499"
           d="m 88.156313,147.89095 c 0,-0.0388 -0.04762,-0.0717 -0.105833,-0.0731 -0.09466,-0.002 -1.990864,-1.08976 -2.921868,-1.67575 l -0.360699,-0.22703 0.02203,-3.78163 0.02203,-3.78164 1.64177,-0.82767 c 0.902974,-0.45522 1.652519,-0.81693 1.665657,-0.80379 0.04409,0.0441 0.123917,11.24113 0.08014,11.24113 -0.02378,0 -0.04324,-0.0318 -0.04324,-0.0706 z"
           style="fill:#004b7e;fill-opacity:1" />
        <path
           inkscape:connector-curvature="0"
           id="path4501"
           d="m 83.160976,145.0959 c -0.20955,-0.13074 -0.62865,-0.37353 -0.931333,-0.53953 -0.302683,-0.166 -0.673917,-0.37263 -0.824965,-0.45917 l -0.274631,-0.15736 -5.35e-4,-1.95059 -5.36e-4,-1.95058 1.2065,-0.58934 c 0.663575,-0.32414 1.235075,-0.60207 1.27,-0.61764 0.03493,-0.0156 0.0635,1.44173 0.0635,3.23842 0,1.7967 -0.02858,3.266 -0.0635,3.26512 -0.03493,-8.8e-4 -0.23495,-0.10858 -0.4445,-0.23933 z"
           style="fill:#c90000;fill-opacity:1" />
      </g>
    </g>
    <g
       id="g4526"
       transform="matrix(0.94765686,0,0,0.94765686,10.551967,14.437271)">
      <g
         transform="matrix(2.1237597,0,0,2.1237597,-95.201435,-38.427702)"
         id="g4405">
        <path
           style="fill:#004b7e;fill-opacity:1"
           d="m 136.93095,147.89563 c -1.21879,-0.25764 -2.20943,-1.39127 -2.48096,-2.83909 -0.13839,-0.7379 -0.047,-2.24878 0.1739,-2.87554 0.63267,-1.79487 2.63853,-2.6555 4.25903,-1.82738 l 0.48684,0.24878 0,-1.4586 c 0,-1.02157 0.0304,-1.48904 0.1016,-1.5602 0.13485,-0.13484 1.27062,-0.13484 1.40546,0 0.0767,0.0767 0.1016,1.31704 0.1016,5.06307 0,3.74603 -0.0249,4.98636 -0.1016,5.06307 -0.0585,0.0585 -0.33866,0.1016 -0.6604,0.1016 -0.58134,0 -0.762,-0.0858 -0.762,-0.36175 0,-0.14898 -0.014,-0.14749 -0.23283,0.0246 -0.52469,0.41278 -1.49073,0.5905 -2.29064,0.42141 z"
           id="path4395"
           inkscape:connector-curvature="0" />
        <path
           style="fill:#ffffff"
           d="m 138.58773,146.23173 c 0.29992,-0.22217 0.58809,-0.64911 0.69867,-1.0351 0.39735,-1.3871 -0.0159,-3.05678 -0.86352,-3.48922 -0.468,-0.23876 -1.18427,-0.19853 -1.58836,0.0892 -0.59528,0.42387 -0.92464,1.84639 -0.68918,2.97659 0.12979,0.623 0.56103,1.3273 0.93842,1.53259 0.38958,0.21193 1.16976,0.17351 1.50397,-0.0741 z"
           id="path4393"
           inkscape:connector-curvature="0" />
        <path
           style="fill:#004b7e;fill-opacity:1"
           d="m 144.63484,147.89146 c -1.85313,-0.33071 -2.96042,-2.02078 -2.77655,-4.23786 0.12403,-1.49554 0.71037,-2.58005 1.7124,-3.16728 0.8374,-0.49074 2.21405,-0.57444 3.22644,-0.19617 0.68298,0.25519 1.45,1.02677 1.70854,1.71867 0.33977,0.9093 0.4727,2.25603 0.24515,2.48358 -0.0745,0.0745 -0.77517,0.1016 -2.62466,0.1016 -2.79483,0 -2.62016,-0.0425 -2.39935,0.58337 0.31086,0.88106 0.96157,1.32157 1.86702,1.26392 0.44924,-0.0286 0.59774,-0.0789 0.86031,-0.29143 0.26875,-0.21751 0.60722,-0.71234 0.72125,-1.05442 0.0417,-0.12499 1.42553,0.0635 1.58083,0.21533 0.24966,0.24406 -0.37661,1.45732 -1.02435,1.98448 -0.64129,0.52191 -2.02296,0.7879 -3.09703,0.59621 z"
           id="path4391"
           inkscape:connector-curvature="0" />
        <path
           style="fill:#ffffff"
           d="m 147.04117,142.79787 c -0.20196,-1.00976 -1.45821,-1.56333 -2.42095,-1.06679 -0.39632,0.20441 -0.80052,0.70353 -0.89574,1.10609 l -0.0551,0.23283 1.71309,0 1.7131,0 -0.0544,-0.27213 z"
           id="path4389"
           inkscape:connector-curvature="0" />
        <path
           style="fill:#004b7e;fill-opacity:1"
           d="m 151.84867,147.85465 c -0.69775,-0.15178 -1.11546,-0.37854 -1.53425,-0.83287 -0.70898,-0.76915 -1.03866,-1.7322 -1.03866,-3.03406 0,-1.45521 0.30184,-2.33388 1.02513,-2.98418 1.424,-1.2803 3.76549,-1.27537 5.05149,0.0106 0.89014,0.89014 1.25618,2.56659 0.91344,4.18359 -0.43312,2.04338 -2.24035,3.13041 -4.41715,2.65689 z"
           id="path4387"
           inkscape:connector-curvature="0" />
        <path
           style="fill:#ffffff"
           d="m 153.53931,146.34019 c 0.67655,-0.28268 1.10372,-1.18358 1.109,-2.33885 0.004,-0.85248 -0.18326,-1.4783 -0.57577,-1.92534 -0.33249,-0.37869 -0.69039,-0.53 -1.25366,-0.53 -1.21952,0 -1.92876,1.05012 -1.82673,2.70467 0.0246,0.39838 0.10555,0.86579 0.17996,1.03868 0.17942,0.4169 0.62152,0.91125 0.93841,1.04933 0.33674,0.14673 1.07935,0.14752 1.42879,10e-4 z"
           id="path4385"
           inkscape:connector-curvature="0" />
        <path
           style="fill:#004b7e;fill-opacity:1"
           d="m 159.01242,147.88786 c -1.15243,-0.22462 -1.92877,-0.90573 -2.24475,-1.96942 -0.17713,-0.59625 -0.0992,-0.68587 0.6936,-0.79711 0.65557,-0.092 0.87382,-0.048 0.87382,0.17598 0,0.0495 0.0785,0.25204 0.17442,0.45021 0.23072,0.4766 0.69537,0.70915 1.41693,0.70915 0.58081,0 1.16438,-0.19363 1.28979,-0.42795 0.0452,-0.0845 0.0822,-0.28846 0.0822,-0.45331 0,-0.38672 -0.12293,-0.45027 -1.72204,-0.89015 -1.39291,-0.38316 -1.75684,-0.54446 -2.14717,-0.95167 -0.37596,-0.39222 -0.53378,-0.8209 -0.5316,-1.44403 0.002,-0.68009 0.1989,-1.11577 0.70372,-1.56013 0.56241,-0.49505 1.15386,-0.6669 2.25775,-0.656 1.0073,0.01 1.59472,0.18237 2.13246,0.62592 0.36666,0.30244 0.72859,1.0034 0.76372,1.47913 l 0.0248,0.33614 -0.67733,0.102 c -0.96005,0.14457 -0.97362,0.14352 -0.97398,-0.0758 -5.1e-4,-0.31231 -0.31902,-0.7414 -0.65429,-0.88148 -0.44279,-0.18501 -1.37749,-0.12464 -1.69219,0.1093 -0.31688,0.23556 -0.34863,0.55606 -0.0763,0.77028 0.11601,0.0912 0.79439,0.32812 1.50751,0.52636 1.57193,0.43699 1.73079,0.50058 2.13322,0.85393 1.18115,1.03706 0.83682,2.96609 -0.65521,3.67069 -0.75525,0.35666 -1.78837,0.47155 -2.6791,0.29794 z"
           id="path4383"
           inkscape:connector-curvature="0" />
        <path
           style="fill:#c90000;fill-opacity:1"
           d="m 99.350942,147.71128 c -0.100733,-0.0487 -0.204988,-0.16997 -0.231677,-0.26943 -0.02669,-0.0995 -0.04905,-1.96202 -0.04968,-4.13901 l -0.0012,-3.95817 -1.259633,0 c -1.068246,0 -1.277283,-0.0213 -1.375795,-0.13997 -0.182676,-0.22011 -0.210237,-1.41957 -0.03863,-1.68147 l 0.137966,-0.21056 3.760917,0 3.76091,0 0.1318,0.18817 c 0.18238,0.26039 0.18238,1.39527 0,1.65566 -0.1262,0.18018 -0.18556,0.18817 -1.397,0.18817 l -1.2652,0 -10e-4,4.04283 c -7.1e-4,2.22356 -0.0293,4.08476 -0.0635,4.136 -0.13918,0.20844 -0.46964,0.28755 -1.17847,0.28211 -0.410518,-0.003 -0.828815,-0.0456 -0.929548,-0.0943 z"
           id="path4381"
           inkscape:connector-curvature="0" />
        <path
           style="fill:#c90000;fill-opacity:1"
           d="m 105.05378,147.75578 c -0.0841,-0.0238 -0.18891,-0.13786 -0.23283,-0.25339 -0.0859,-0.22595 -0.11173,-6.97187 -0.0279,-7.28452 0.0675,-0.25155 0.43891,-0.36516 1.1939,-0.36516 0.60233,0 0.9266,0.0881 1.06,0.28784 0.0342,0.0512 0.0628,1.71465 0.0635,3.69648 0.001,2.97815 -0.0195,3.63183 -0.11876,3.76766 -0.10326,0.14136 -0.23652,0.16645 -0.9525,0.17939 -0.45785,0.008 -0.90128,-0.004 -0.98542,-0.0283 z"
           id="path4379"
           inkscape:connector-curvature="0" />
        <path
           style="fill:#c90000;fill-opacity:1"
           d="m 108.77912,147.75578 c -0.0841,-0.0238 -0.18891,-0.13786 -0.23284,-0.25339 -0.0851,-0.22378 -0.11213,-6.97045 -0.0292,-7.27953 0.0685,-0.25531 0.38114,-0.37015 1.00767,-0.37015 0.76959,0 0.97367,0.1109 0.97367,0.52911 l 0,0.33261 0.26607,-0.22389 c 0.52017,-0.43769 1.08742,-0.66295 1.77312,-0.7041 0.90005,-0.054 1.48591,0.12772 2.00016,0.62046 l 0.39588,0.37931 0.32261,-0.25925 c 0.17743,-0.1426 0.52094,-0.36216 0.76335,-0.48792 0.39319,-0.204 0.53244,-0.22867 1.29094,-0.22867 1.00517,0 1.33963,0.13579 1.89862,0.77083 0.60003,0.68168 0.63287,0.88142 0.66658,4.05517 0.0251,2.35991 0.0103,2.82031 -0.0949,2.96334 -0.10551,0.14336 -0.24318,0.17389 -0.8976,0.19907 -0.47335,0.0182 -0.86726,-0.009 -1.01623,-0.071 l -0.24326,-0.10076 -0.0278,-2.46898 c -0.0255,-2.26729 -0.0416,-2.49664 -0.19715,-2.80765 -0.34732,-0.69464 -0.90763,-0.69712 -1.61997,-0.007 l -0.45436,0.44008 0,2.38509 0,2.38509 -0.2094,0.13721 c -0.3201,0.20973 -1.78756,0.14525 -1.95652,-0.086 -0.0966,-0.13225 -0.12017,-0.61178 -0.12055,-2.45534 -2.6e-4,-1.30137 -0.0379,-2.42578 -0.0871,-2.60304 -0.0996,-0.35879 -0.51299,-0.74627 -0.79607,-0.74627 -0.24086,0 -0.77749,0.34946 -1.08254,0.70497 l -0.23056,0.26869 -0.002,2.33332 c -0.002,1.87767 -0.0257,2.36541 -0.12233,2.49767 -0.10327,0.14135 -0.23652,0.16645 -0.9525,0.17939 -0.45785,0.008 -0.90128,-0.005 -0.98542,-0.0283 z"
           id="path4377"
           inkscape:connector-curvature="0" />
        <path
           style="fill:#004b7e;fill-opacity:1"
           d="m 125.9133,147.62087 c -2.72144,-6.91885 -3.8079,-9.82557 -3.72822,-9.97446 0.0776,-0.14498 0.18271,-0.16437 0.89114,-0.16437 0.75165,0 0.80854,0.0122 0.88694,0.1905 0.0461,0.10478 0.70646,1.93389 1.46753,4.06469 l 1.38375,3.87419 0.90564,-2.43486 c 0.49809,-1.33917 1.17956,-3.16828 1.51436,-4.06469 l 0.60874,-1.62983 0.76359,0 c 0.65874,0 0.7774,0.0221 0.86414,0.16101 0.0854,0.13673 -0.19567,0.91564 -1.86347,5.16434 l -1.96402,5.00332 -0.82759,3.4e-4 c -0.77975,3.4e-4 -0.83193,-0.0107 -0.90253,-0.19017 z"
           id="path4375"
           inkscape:connector-curvature="0" />
        <path
           style="fill:#004b7e;fill-opacity:1"
           d="m 132.02069,147.70977 c -0.0758,-0.0758 -0.1016,-1.016 -0.1016,-3.7084 0,-2.6924 0.0258,-3.63255 0.1016,-3.7084 0.13574,-0.13574 1.35439,-0.13574 1.49013,0 0.0758,0.0758 0.1016,1.016 0.1016,3.7084 0,2.6924 -0.0258,3.63256 -0.1016,3.7084 -0.0612,0.0612 -0.35748,0.1016 -0.74506,0.1016 -0.38759,0 -0.68387,-0.0404 -0.74507,-0.1016 z"
           id="path4373"
           inkscape:connector-curvature="0" />
        <path
           style="fill:#004b7e;fill-opacity:1"
           d="m 132.02069,139.24311 c -0.0633,-0.0633 -0.1016,-0.3763 -0.1016,-0.82974 0,-0.45343 0.0383,-0.76646 0.1016,-0.82973 0.0612,-0.0612 0.35748,-0.1016 0.74507,-0.1016 0.38758,0 0.68387,0.0404 0.74506,0.1016 0.0633,0.0633 0.1016,0.3763 0.1016,0.82973 0,0.45344 -0.0383,0.76647 -0.1016,0.82974 -0.0612,0.0612 -0.35748,0.1016 -0.74506,0.1016 -0.38759,0 -0.68387,-0.0404 -0.74507,-0.1016 z"
           id="path4371"
           inkscape:connector-curvature="0" />
        <path
           style="fill:#c90000;fill-opacity:1"
           d="m 105.12004,139.05719 c -0.3329,-0.14505 -0.46361,-0.44823 -0.46361,-1.07533 0,-0.91829 0.29229,-1.17715 1.32917,-1.17715 0.59851,0 0.97796,0.14828 1.13971,0.44538 0.13555,0.24895 0.13269,1.23616 -0.004,1.48795 -0.0592,0.10872 -0.2366,0.2516 -0.39434,0.3175 -0.35739,0.14933 -1.26554,0.15026 -1.60662,0.002 z"
           id="path4369"
           inkscape:connector-curvature="0" />
      </g>
      <g
         transform="matrix(1.5501137,0,0,1.5501137,-38.619076,24.703544)"
         id="g4421">
        <path
           style="fill:#c90000;fill-opacity:1"
           d="m 60.004643,161.92512 c -0.186267,-0.0389 -0.605367,-0.10833 -0.931333,-0.15426 -1.406124,-0.19814 -1.903949,-0.3251 -3.217334,-0.82057 -1.305114,-0.49235 -2.490174,-1.32837 -3.338387,-2.35514 -0.599063,-0.72517 -0.871097,-1.19491 -1.230408,-2.12462 -0.358263,-0.92699 -0.481555,-1.57407 -0.532363,-2.794 -0.09454,-2.26985 0.637784,-4.29159 2.095986,-5.78645 1.729378,-1.77286 4.049392,-2.62384 6.899839,-2.53085 1.179113,0.0385 2.463102,0.19245 2.624667,0.31478 0.04657,0.0353 0.221729,0.0888 0.38925,0.1189 0.167522,0.0301 0.500711,0.1494 0.740419,0.26504 0.239708,0.11564 0.457924,0.21025 0.484923,0.21025 0.143078,0 1.240026,0.79625 1.630396,1.18347 0.615249,0.61028 0.985919,1.19375 1.295802,2.03973 0.242299,0.66147 0.261881,0.79759 0.267127,1.8568 0.0062,1.25953 -0.09099,1.72786 -0.559161,2.6934 -0.313702,0.64697 -1.078987,1.50216 -1.782602,1.99201 -1.375119,0.95736 -2.706813,1.32371 -5.037226,1.38574 -1.15632,0.0308 -1.626534,0.009 -2.201334,-0.10314 -0.81166,-0.158 -1.435803,-0.33059 -1.855634,-0.51312 -0.359821,-0.15645 -0.332981,-0.1643 -0.527222,0.15428 -0.602507,0.98818 0.481831,2.42158 2.852951,3.77134 0.410471,0.23366 0.993961,0.52539 1.296644,0.64829 0.302683,0.12289 0.626533,0.25779 0.719667,0.29976 0.09313,0.042 0.359833,0.13155 0.592666,0.19906 l 0.423334,0.12275 -0.381,-0.001 c -0.20955,-7.6e-4 -0.5334,-0.0332 -0.719667,-0.0721 z"
           id="path4367"
           inkscape:connector-curvature="0" />
        <path
           style="fill:#ffffff"
           d="m 58.756721,151.29481 0.02208,-3.56705 -0.191411,-0.0513 c -0.249629,-0.0669 -1.535597,-0.0685 -1.708486,-0.002 -0.119161,0.0457 -0.133925,0.44085 -0.133925,3.58422 0,1.94306 0.02658,3.55941 0.05906,3.59189 0.03248,0.0325 0.480158,0.0484 0.994833,0.0353 l 0.935773,-0.0238 0.02208,-3.56705 z"
           id="path4365"
           inkscape:connector-curvature="0" />
        <path
           style="fill:#ffffff"
           d="m 61.889418,151.31141 c 0.01734,-2.78415 -9.4e-4,-3.56505 -0.08467,-3.6182 -0.124545,-0.0791 -1.596025,-0.0946 -1.793183,-0.019 -0.119162,0.0457 -0.133925,0.44085 -0.133925,3.58422 0,1.94306 0.02658,3.55941 0.05906,3.59189 0.03248,0.0325 0.480158,0.0484 0.994833,0.0353 l 0.935773,-0.0238 0.02211,-3.55042 z"
           id="path4363"
           inkscape:connector-curvature="0" />
        <path
           style="fill:#004b7e;fill-opacity:1"
           d="m 69.86831,152.3251 c 0,-0.0215 0.161925,-0.0802 0.359833,-0.13054 0.391053,-0.0994 0.369143,-0.0908 1.418167,-0.55991 2.289413,-1.02392 4.059518,-2.63698 4.063173,-3.70269 9.56e-4,-0.27763 -0.233058,-0.81713 -0.354432,-0.81713 -0.04508,0 -0.355064,0.093 -0.688853,0.20662 -2.095403,0.71339 -4.885617,0.70964 -6.999222,-0.009 -0.836902,-0.28471 -1.196774,-0.47144 -1.883427,-0.97727 -1.323699,-0.97511 -2.006164,-2.14713 -2.185197,-3.75271 -0.363865,-3.26317 1.326213,-5.53562 4.872958,-6.5521 0.421434,-0.12078 1.384082,-0.25169 2.328333,-0.31663 1.035125,-0.0712 3.116886,0.22755 4.021667,0.57712 2.105561,0.81352 3.533478,2.08392 4.410589,3.92405 0.615948,1.29222 0.735957,1.96573 0.693975,3.89466 -0.0341,1.5668 -0.06666,1.75338 -0.504567,2.89137 -0.639869,1.66282 -2.206845,3.29894 -3.913324,4.086 -1.123104,0.518 -2.159409,0.81434 -3.607673,1.03166 -0.302684,0.0454 -0.712806,0.11935 -0.911382,0.16428 -0.370725,0.0839 -1.120618,0.11241 -1.120618,0.0426 z"
           id="path4361"
           inkscape:connector-curvature="0" />
        <path
           style="fill:#ffffff"
           d="m 69.9462,145.27677 c 0.769013,-0.35171 1.029099,-0.46819 1.530946,-0.68562 0.337278,-0.14613 0.834225,-0.36775 1.651,-0.73631 0.139792,-0.0631 0.425542,-0.18852 0.635,-0.27877 0.437872,-0.18865 0.937695,-0.4149 1.926,-0.87179 0.654717,-0.30268 0.6985,-0.33934 0.6985,-0.58478 0,-0.24663 -0.04308,-0.28179 -0.740833,-0.60464 -0.79588,-0.36825 -1.037207,-0.47687 -1.63,-0.73371 -0.40539,-0.17564 -1.152123,-0.50997 -1.777834,-0.79598 -0.20955,-0.0958 -0.55245,-0.24772 -0.762,-0.33762 -0.20955,-0.0899 -0.5334,-0.2335 -0.719666,-0.31912 -1.184151,-0.54432 -1.506435,-0.68325 -1.694229,-0.73039 l -0.210771,-0.0529 0,3.50874 c 0,1.9298 0.02582,3.53455 0.05738,3.56611 0.07418,0.0742 0.254235,0.0146 1.036511,-0.34322 z"
           id="path4359"
           inkscape:connector-curvature="0" />
        <path
           style="fill:#004b7e;fill-opacity:1"
           d="m 88.156313,147.89095 c 0,-0.0388 -0.04762,-0.0717 -0.105833,-0.0731 -0.09466,-0.002 -1.990864,-1.08976 -2.921868,-1.67575 l -0.360699,-0.22703 0.02203,-3.78163 0.02203,-3.78164 1.64177,-0.82767 c 0.902974,-0.45522 1.652519,-0.81693 1.665657,-0.80379 0.04409,0.0441 0.123917,11.24113 0.08014,11.24113 -0.02378,0 -0.04324,-0.0318 -0.04324,-0.0706 z"
           id="path4357"
           inkscape:connector-curvature="0" />
        <path
           style="fill:#c90000;fill-opacity:1"
           d="m 83.160976,145.0959 c -0.20955,-0.13074 -0.62865,-0.37353 -0.931333,-0.53953 -0.302683,-0.166 -0.673917,-0.37263 -0.824965,-0.45917 l -0.274631,-0.15736 -5.35e-4,-1.95059 -5.36e-4,-1.95058 1.2065,-0.58934 c 0.663575,-0.32414 1.235075,-0.60207 1.27,-0.61764 0.03493,-0.0156 0.0635,1.44173 0.0635,3.23842 0,1.7967 -0.02858,3.266 -0.0635,3.26512 -0.03493,-8.8e-4 -0.23495,-0.10858 -0.4445,-0.23933 z"
           id="path4255"
           inkscape:connector-curvature="0" />
      </g>
    </g>
    <g
       id="g4330"
       transform="matrix(0.38172542,0,0,0.38172542,91.073737,68.733415)">
      <g
         transform="matrix(2.130613,0,0,2.130613,-15.97744,-396.80742)"
         id="g4305">
        <path
           inkscape:connector-curvature="0"
           style="fill:#004b7d;fill-opacity:1"
           d="m 190.52676,271.23313 c -2.69028,-0.24187 -4.07258,-0.88603 -5.57617,-2.59852 -1.31037,-1.49243 -2.14782,-3.90627 -1.55939,-4.4947 0.21519,-0.21519 1.19402,-0.46839 2.17518,-0.56266 1.77149,-0.17022 1.78764,-0.16254 2.31566,1.10119 0.29245,0.69994 0.88809,1.50211 1.32364,1.78261 2.08472,1.34257 6.00711,0.92041 6.62828,-0.7134 0.53145,-1.3978 -0.13029,-2.16694 -2.40524,-2.79561 -6.08417,-1.68131 -6.94071,-2.01366 -8.05088,-3.12383 -2.91416,-2.91416 -2.07801,-7.45891 1.74268,-9.47209 1.18741,-0.62567 2.06924,-0.7744 4.64096,-0.78276 2.74155,-0.009 3.38986,0.10993 4.74885,0.87048 1.78266,0.99765 3.06423,2.68104 3.3988,4.46444 0.12503,0.66646 0.16761,1.27146 0.0946,1.34444 -0.073,0.073 -1.12391,0.24482 -2.33541,0.38189 -2.05653,0.23267 -2.20271,0.20195 -2.20271,-0.46283 0,-1.21584 -1.12748,-2.23041 -2.71529,-2.44338 -2.9379,-0.39405 -5.06856,0.6169 -4.48812,2.12951 0.24362,0.63485 0.33111,0.67073 5.39049,2.21056 4.63873,1.4118 5.33286,1.84201 6.55661,4.06362 1.07646,1.95422 1.1086,2.58389 0.23583,4.61996 -1.47179,3.43355 -4.80746,4.94058 -9.91841,4.48108 z"
           id="path4303" />
        <path
           inkscape:connector-curvature="0"
           style="fill:#c80000;fill-opacity:1"
           d="m 24.574879,270.88157 c -0.56555,-0.16545 -1.15843,-0.50598 -1.31752,-0.75675 -0.15909,-0.25076 -0.29168,-5.41687 -0.29465,-11.48024 l -0.005,-11.02431 -3.33139,0 c -3.04264,0 -3.37898,-0.0679 -3.88055,-0.78405 -0.78278,-1.11757 -0.71359,-3.63764 0.12285,-4.47408 0.63719,-0.63719 1.19934,-0.6641 10.84792,-0.51923 11.41102,0.17133 11.05784,0.0829 11.05784,2.76768 0,0.79287 -0.24713,1.79441 -0.54917,2.22563 -0.50157,0.7161 -0.83792,0.78405 -3.88056,0.78405 l -3.33139,0 0,11.0873 c 0,9.609 -0.0739,11.16122 -0.55436,11.64167 -0.3049,0.3049 -0.82084,0.56508 -1.14653,0.57818 -0.32569,0.0131 -1.06841,0.0758 -1.65049,0.13938 -0.58209,0.0636 -1.52106,-0.0198 -2.0866,-0.18523 z"
           id="path4301" />
        <path
           inkscape:connector-curvature="0"
           style="fill:#c80000;fill-opacity:1"
           d="m 41.129839,270.98027 c -0.77365,-0.0711 -1.60709,-0.29558 -1.85209,-0.4989 -0.57192,-0.47466 -0.64625,-19.71002 -0.0803,-20.7676 0.30684,-0.57333 0.7538,-0.68237 2.79703,-0.68237 3.72983,0 3.54056,-0.58235 3.54056,10.89389 0,7.298 -0.11208,9.92571 -0.44097,10.33815 -0.50984,0.63936 -1.95764,0.90116 -3.96427,0.71683 z"
           id="path4299" />
        <path
           inkscape:connector-curvature="0"
           style="fill:#c80000;fill-opacity:1"
           d="m 64.408699,270.97627 c -1.1282,-0.0662 -1.92281,-0.31301 -2.20486,-0.68479 -0.31757,-0.4186 -0.44097,-2.49202 -0.44097,-7.40904 0,-6.77888 -0.006,-6.83398 -0.86591,-7.69369 -1.18499,-1.18499 -2.0607,-1.08848 -3.71919,0.40986 l -1.41213,1.27577 0,6.61854 c 0,5.25945 -0.10196,6.70315 -0.49653,7.03062 -0.30786,0.2555 -1.48081,0.37245 -3.08681,0.30778 l -2.59027,-0.10431 0,-10.75972 0,-10.75973 2.4056,-0.10486 c 2.37001,-0.10332 2.41133,-0.0897 2.79295,0.92133 l 0.38735,1.02621 1.52506,-1.07496 c 2.76582,-1.94953 7.82158,-1.59583 9.605454,0.67199 l 0.67261,0.85508 1.81685,-1.22264 c 4.08585,-2.74958 8.8508,-1.90904 11.13303,1.96387 0.64265,1.09058 0.71551,1.94896 0.81728,9.62862 0.0886,6.68343 0.0155,8.49236 -0.35278,8.72585 -0.71924,0.45607 -5.02743,0.36381 -5.50923,-0.11799 -0.29931,-0.29931 -0.42333,-2.37142 -0.42333,-7.07307 0,-7.26101 -0.27284,-8.52078 -1.9358,-8.93816 -0.97709,-0.24523 -3.13955,0.90732 -3.71311,1.97902 -0.19197,0.35869 -0.34831,3.48124 -0.34831,6.9566 0,7.78812 -0.0113,7.80925 -4.056954,7.57182 z"
           id="path4297" />
        <path
           inkscape:connector-curvature="0"
           style="fill:#004b7d;fill-opacity:1"
           d="m 126.26916,270.54515 c -4.05553,-2.14269 -6.14853,-8.20653 -4.74694,-13.75286 0.7302,-2.88952 2.05013,-4.8033 4.25153,-6.16432 1.46031,-0.90284 2.07871,-1.06588 4.04602,-1.06668 1.52069,-7.1e-4 2.73672,0.21215 3.52299,0.61641 0.6604,0.33955 1.25571,0.61736 1.32292,0.61736 0.0672,0 0.12218,-1.7145 0.12218,-3.81 0,-2.49296 0.14634,-3.95633 0.42334,-4.23333 0.23283,-0.23283 1.15358,-0.42333 2.04611,-0.42333 0.89253,0 1.81328,0.1905 2.04611,0.42333 0.31429,0.31429 0.42333,3.85063 0.42333,13.72948 0,7.31838 -0.0964,13.55726 -0.21413,13.86417 -0.29243,0.76206 -3.94813,0.80093 -4.23818,0.0451 -0.16588,-0.43227 -0.39915,-0.40453 -1.48301,0.17639 -1.75828,0.94238 -5.71917,0.93096 -7.52227,-0.0217 z"
           id="path4295" />
        <path
           inkscape:connector-curvature="0"
           style="fill:#ffffff"
           d="m 133.36553,266.15165 c 2.6416,-2.53081 2.33188,-9.52411 -0.5212,-11.76834 -2.22029,-1.74648 -5.72528,-0.48492 -6.51084,2.34346 -0.59978,2.1595 -0.4348,6.05136 0.32773,7.73114 1.32568,2.92035 4.56882,3.73967 6.70431,1.69374 z"
           id="path4293" />
        <path
           inkscape:connector-curvature="0"
           style="fill:#004b7d;fill-opacity:1"
           d="m 147.29706,270.4212 c -2.00851,-0.93529 -3.46293,-2.48076 -4.52614,-4.80947 -0.98995,-2.16827 -1.03171,-7.13133 -0.0829,-9.85719 1.32238,-3.7993 5.06005,-6.37059 9.2604,-6.37059 3.4989,0 7.15635,2.39917 8.4774,5.5609 0.6966,1.6672 1.18229,6.1254 0.72971,6.69813 -0.25785,0.3263 -2.17196,0.44097 -7.36082,0.44097 -4.34317,0 -7.01236,0.13157 -7.01236,0.34564 0,0.1901 0.25618,0.9859 0.56929,1.76844 1.5455,3.86259 6.65888,4.18183 8.78806,0.54867 l 0.86662,-1.47877 1.77557,0.22779 c 2.33938,0.30011 2.65506,0.6456 2.10707,2.30603 -0.57274,1.73544 -2.64966,3.99672 -4.40522,4.79626 -2.17631,0.99117 -6.87253,0.90078 -9.18664,-0.17681 z"
           id="path4291" />
        <path
           inkscape:connector-curvature="0"
           style="fill:#ffffff"
           d="m 156.29828,256.94493 c -1.00036,-2.63115 -2.33754,-3.49701 -5.00477,-3.24073 -1.92956,0.18541 -3.51403,1.39123 -4.1228,3.13754 l -0.3517,1.00888 4.91181,0 4.91181,0 z"
           id="path4289" />
        <path
           inkscape:connector-curvature="0"
           style="fill:#004b7d;fill-opacity:1"
           d="m 168.38603,270.78526 c -4.12409,-1.49568 -6.62052,-6.98859 -5.74392,-12.6384 0.63894,-4.11809 2.18806,-6.27342 5.59793,-7.78859 5.04782,-2.24299 10.61703,-0.28195 12.99345,4.57528 0.85094,1.73924 0.98066,2.42469 0.98302,5.19438 0.005,5.32691 -1.55792,8.41748 -5.16402,10.21447 -1.53824,0.76654 -2.29151,0.90945 -4.67486,0.88694 -1.56263,-0.0147 -3.35885,-0.2146 -3.9916,-0.44408 z"
           id="path4287" />
        <path
           inkscape:connector-curvature="0"
           style="fill:#ffffff"
           d="m 175.14163,266.55186 c 1.18847,-0.77871 2.09639,-2.92975 2.26047,-5.35545 0.182,-2.69058 -0.39037,-4.82624 -1.68039,-6.27002 -0.94279,-1.05517 -1.16909,-1.13272 -3.30565,-1.13272 -2.73275,0 -3.75401,0.72474 -4.62551,3.28247 -1.43418,4.20909 0.16333,9.44484 3.07184,10.06777 1.28499,0.27522 3.40281,-0.0178 4.27924,-0.59205 z"
           id="path4285" />
        <path
           inkscape:connector-curvature="0"
           style="fill:#004b7d;fill-opacity:1"
           d="m 97.649883,270.46242 c -8.23814,-21.1448 -10.51085,-27.21007 -10.3515,-27.62531 0.14182,-0.3696 0.81253,-0.5085 2.4554,-0.5085 l 2.26027,0 3.21469,8.90764 c 1.76808,4.8992 3.60162,10.01888 4.07454,11.37708 0.47292,1.35819 0.877257,2.39007 0.898537,2.29305 0.0213,-0.097 1.90048,-5.17701 4.176,-11.28888 l 4.13731,-11.1125 2.15649,-0.1039 c 1.68348,-0.0811 2.20223,0.0153 2.365,0.43946 0.11468,0.29885 -2.20719,6.73243 -5.15971,14.29686 l -5.36821,13.75349 -2.3435,0.006 c -1.553037,0.004 -2.401457,-0.14239 -2.515317,-0.43462 z"
           id="path4283" />
        <path
           inkscape:connector-curvature="0"
           style="fill:#004b7d;fill-opacity:1"
           d="m 114.49316,270.47542 c -0.0978,-0.25491 -0.13559,-4.90633 -0.0839,-10.33649 l 0.0939,-9.87302 2.21022,-0.10517 2.21021,-0.10517 -0.0935,10.33573 -0.0935,10.33572 -2.03274,0.10592 c -1.43267,0.0747 -2.08524,-0.0309 -2.21058,-0.35753 z"
           id="path4281" />
        <path
           inkscape:connector-curvature="0"
           style="fill:#c80000;fill-opacity:1"
           d="m 41.830919,246.9963 c -2.00858,-0.18725 -2.52633,-0.42064 -2.93813,-1.32445 -0.63021,-1.38316 -0.49633,-3.14248 0.3179,-4.17761 0.65285,-0.82996 0.97129,-0.92952 2.97301,-0.92952 2.02487,0 2.31594,0.0939 3.00741,0.97014 0.60149,0.76222 0.72933,1.29453 0.59649,2.48376 -0.2668,2.38851 -1.3701,3.21883 -3.95668,2.97768 z"
           id="path4279" />
        <path
           inkscape:connector-curvature="0"
           style="fill:#004b7d;fill-opacity:1"
           d="m 114.56195,247.0323 c -0.12936,-0.12935 -0.23519,-1.1582 -0.23519,-2.28633 0,-1.85761 0.0781,-2.07075 0.82738,-2.25881 0.45506,-0.11422 1.44724,-0.15693 2.20486,-0.0949 l 1.37748,0.11275 0.10432,2.38125 0.10431,2.38125 -2.07399,0 c -1.1407,0 -2.17982,-0.10584 -2.30917,-0.23519 z"
           id="path4277" />
      </g>
      <g
         transform="translate(-0.60272783,-74.221935)"
         id="g4321">
        <path
           style="fill:#c80000;fill-opacity:1"
           d="m -85.477577,258.98637 c -5.38741,-0.65277 -9.18913,-1.69743 -13.01238,-3.5756 -7.923873,-3.8926 -12.456403,-11.26733 -12.436993,-20.23584 0.0144,-6.64685 1.9522,-11.42993 6.44711,-15.91333 4.690243,-4.67822 10.131573,-6.71074 17.984323,-6.71775 7.43561,-0.007 12.78895,1.741 16.84996,5.50078 7.652797,7.08514 6.464827,19.15995 -2.46333,25.03788 -5.58783,3.67881 -15.70908,4.66464 -23.29863,2.26933 -2.72614,-0.86038 -3.0669,-0.71558 -3.07704,1.30749 -0.0175,3.49639 6.85521,8.83414 14.7266,11.43749 1.88983,0.62503 3.5022,1.20017 3.58305,1.2781 0.2221,0.21407 -1.1724,0.11189 -5.30267,-0.38855 z"
           id="path4275"
           inkscape:connector-curvature="0" />
        <path
           style="fill:#ffffff"
           d="m -88.612177,229.33864 0,-9.71684 -2.55764,0.10365 -2.55764,0.10365 -0.0943,9.16643 c -0.0519,5.04153 -0.0172,9.36747 0.0771,9.61319 0.11584,0.30189 0.97582,0.44676 2.65195,0.44676 l 2.48052,0 0,-9.71684 z"
           id="path4273"
           inkscape:connector-curvature="0" />
        <path
           style="fill:#ffffff"
           d="m -79.875257,229.26594 0.0939,-9.61319 -2.65151,0 -2.6515,0 0,9.71684 0,9.71684 2.55764,-0.10364 2.55764,-0.10365 0.0939,-9.6132 z"
           id="path4271"
           inkscape:connector-curvature="0" />
        <path
           style="fill:#004b7d;fill-opacity:1"
           d="m -56.5235,231.44441 c 8.14589,-2.70747 14.84045,-7.8569 14.82536,-11.40362 -0.009,-2.13833 -0.29791,-2.29493 -2.72474,-1.4774 -3.34484,1.1268 -6.92727,1.55179 -11.20458,1.32923 -4.59792,-0.23924 -7.20294,-0.86405 -10.67956,-2.56147 -11.911497,-5.81566 -12.259787,-22.43433 -0.59943,-28.60259 4.16612,-2.20386 6.7742,-2.76439 12.86649,-2.76529 6.3794,-0.001 8.06541,0.33233 12.52361,2.47546 8.81334,4.23672 13.50223,13.06905 12.18658,22.95555 -0.74993,5.63536 -2.53642,9.34369 -6.32787,13.13514 -4.1126,4.11261 -9.95206,6.55756 -18.26443,7.64722 -6.31087,0.82728 -6.8429,0.67753 -2.60143,-0.73223 z"
           id="path4269"
           inkscape:connector-curvature="0" />
        <path
           style="fill:#ffffff"
           d="m -50.07558,209.03327 c 5.28966,-2.3482 9.85002,-4.49133 10.13413,-4.7625 0.45357,-0.4329 0.45357,-0.5533 0,-0.9873 -0.44598,-0.42673 -19.41873,-9.03072 -19.91374,-9.03072 -0.1001,0 -0.18199,4.28625 -0.18199,9.525 0,5.23875 0.0774,9.525 0.17201,9.525 0.0946,0 4.49992,-1.92127 9.78959,-4.26948 z"
           id="path4267"
           inkscape:connector-curvature="0" />
        <path
           style="fill:#004b7d;fill-opacity:1"
           d="m -11.44205,217.48287 -4.85069,-2.84207 0,-10.72084 0,-10.72084 4.93888,-2.47415 4.9388899,-2.47416 0,16.05375 c 0,8.82956 -0.0397,16.04624 -0.0882,16.03707 -0.0485,-0.009 -2.27101,-1.29561 -4.9388899,-2.85876 z"
           id="path4265"
           inkscape:connector-curvature="0" />
        <path
           style="fill:#c80000;fill-opacity:1"
           d="m -23.09225,210.95452 -3.44811,-1.97188 0.0967,-5.63412 0.0967,-5.63413 3.61597,-1.70678 3.61597,-1.70679 0,9.32458 c 0,5.12851 -0.11906,9.31927 -0.26458,9.31279 -0.14552,-0.006 -1.81623,-0.89913 -3.7127,-1.98367 z"
           id="path4261"
           inkscape:connector-curvature="0" />
      </g>
    </g>
    <path
       inkscape:connector-curvature="0"
       id="path4553"
       d="m 30.31867,137.92275 236.36267,0"
       style="fill:#cccccc;fill-rule:evenodd;stroke:#cccccc;stroke-width:0.26458335px;stroke-linecap:butt;stroke-linejoin:miter;stroke-opacity:1" />
    <path
       inkscape:connector-curvature="0"
       id="path4555"
       d="m 30.318667,191.54936 236.362673,0"
       style="fill:#cccccc;fill-rule:evenodd;stroke:#cccccc;stroke-width:0.26458335px;stroke-linecap:butt;stroke-linejoin:miter;stroke-opacity:1" />
    <path
       inkscape:connector-curvature="0"
       id="path4557"
       d="m 30.318675,275.81975 236.362655,0"
       style="fill:#cccccc;fill-rule:evenodd;stroke:#cccccc;stroke-width:0.26458335px;stroke-linecap:butt;stroke-linejoin:miter;stroke-opacity:1" />
    <path
       inkscape:connector-curvature="0"
       id="path4559"
       d="m 30.31867,254.18885 236.36267,0"
       style="fill:#cccccc;fill-rule:evenodd;stroke:#cccccc;stroke-width:0.26458335px;stroke-linecap:butt;stroke-linejoin:miter;stroke-opacity:1" />
    <path
       inkscape:connector-curvature="0"
       id="path4561"
       d="m 30.31867,169.91846 236.36267,0"
       style="fill:#cccccc;fill-rule:evenodd;stroke:#cccccc;stroke-width:0.26458335px;stroke-linecap:butt;stroke-linejoin:miter;stroke-opacity:1" />
    <path
       inkscape:connector-curvature="0"
       id="path4563"
       d="m 30.318672,113.8133 236.362668,0"
       style="fill:#cccccc;fill-rule:evenodd;stroke:#cccccc;stroke-width:0.26458335px;stroke-linecap:butt;stroke-linejoin:miter;stroke-opacity:1" />
  </g>
</svg>
