<?xml version="1.0" encoding="UTF-8" standalone="no"?>
<!-- Created with Inkscape (http://www.inkscape.org/) -->

<svg
   xmlns:dc="http://purl.org/dc/elements/1.1/"
   xmlns:cc="http://creativecommons.org/ns#"
   xmlns:rdf="http://www.w3.org/1999/02/22-rdf-syntax-ns#"
   xmlns:svg="http://www.w3.org/2000/svg"
   xmlns="http://www.w3.org/2000/svg"
   xmlns:sodipodi="http://sodipodi.sourceforge.net/DTD/sodipodi-0.dtd"
   xmlns:inkscape="http://www.inkscape.org/namespaces/inkscape"
   width="763.53406mm"
   height="101.2622mm"
   viewBox="0 0 763.53406 101.2622"
   id="svg2"
   version="1.1"
   inkscape:version="0.91+devel r"
   sodipodi:docname="TimVideos.svg">
  <defs
     id="defs4" />
  <sodipodi:namedview
     id="base"
     pagecolor="#ffffff"
     bordercolor="#666666"
     borderopacity="1.0"
     inkscape:pageopacity="0.0"
     inkscape:pageshadow="2"
     inkscape:zoom="0.35566153"
     inkscape:cx="1616.8785"
     inkscape:cy="763.66323"
     inkscape:document-units="mm"
     inkscape:current-layer="layer1"
     showgrid="false"
     showguides="true"
     inkscape:guide-bbox="true"
     inkscape:window-width="1920"
     inkscape:window-height="1124"
     inkscape:window-x="0"
     inkscape:window-y="24"
     inkscape:window-maximized="1"
     fit-margin-top="0"
     fit-margin-left="0"
     fit-margin-right="0"
     fit-margin-bottom="0" />
  <metadata
     id="metadata7">
    <rdf:RDF>
      <cc:Work
         rdf:about="">
        <dc:format>image/svg+xml</dc:format>
        <dc:type
           rdf:resource="http://purl.org/dc/dcmitype/StillImage" />
        <dc:title></dc:title>
      </cc:Work>
    </rdf:RDF>
  </metadata>
  <g
     inkscape:groupmode="layer"
     id="layer2"
     inkscape:label="jpg"
     transform="translate(106.39037,-280.88175)" />
  <g
     inkscape:label="Layer 1"
     inkscape:groupmode="layer"
     id="layer1"
     transform="translate(106.39037,-367.88175)"
     style="display:inline">
    <rect
       style="fill:#ffffff;fill-opacity:1;fill-rule:evenodd;stroke:#000000;stroke-width:0.26458335px;stroke-linecap:butt;stroke-linejoin:miter;stroke-opacity:1"
       id="rect4385"
       width="763.26947"
       height="100.99762"
       x="-106.25808"
       y="368.01404" />
    <g
       id="g4335"
       transform="matrix(0.87088165,0,0,0.86963652,-56.735642,63.522777)">
      <g
         transform="matrix(1.1662561,0,0,1.1667232,-220.72327,146.75111)"
         id="g4310">
        <g
           id="g4278"
           transform="translate(233.67788,-78.019939)"
           style="opacity:1">
          <ellipse
             style="opacity:1;fill:#ffffff;fill-opacity:1;fill-rule:evenodd;stroke:#ffffff;stroke-width:0.9850781;stroke-linecap:round;stroke-linejoin:round;stroke-miterlimit:4;stroke-dasharray:none;stroke-dashoffset:0;stroke-opacity:1"
             id="ellipse4264"
             cx="80.748848"
             cy="306.00778"
             rx="12.903931"
             ry="12.128755" />
          <path
             style="opacity:1;fill:#c90000;fill-opacity:1;stroke:#c90000;stroke-width:0.9850781;stroke-linejoin:round;stroke-miterlimit:4;stroke-dasharray:none;stroke-opacity:1"
             d="m 82.504889,335.14938 c -6.12263,-0.70351 -11.36956,-2.19307 -15.16945,-4.30645 -1.06715,-0.59352 -3.173,-2.30154 -4.67966,-3.7956 -4.38128,-4.34464 -6.40029,-9.42627 -6.36516,-16.02045 0.0348,-6.53049 1.89772,-11.13485 6.28232,-15.52723 4.17548,-4.18288 8.41027,-6.14969 14.76158,-6.85588 3.78012,-0.4203 9.44047,0.0418 12.64665,1.03246 4.37205,1.35088 8.81132,4.72902 10.647221,8.10218 1.80375,3.31408 2.44804,7.98857 1.60519,11.64605 -0.44959,1.95095 -1.7805,4.63813 -3.159561,6.37934 -1.52161,1.92119 -5.43252,4.45458 -8.45574,5.47741 -5.54538,1.87613 -13.43312,1.92579 -18.79844,0.11835 -2.05818,-0.69335 -2.18114,-0.69819 -2.61648,-0.10283 -2.40187,3.28474 5.77129,10.31953 15.33,13.1948 1.4067,0.42314 2.55764,0.83326 2.55764,0.91137 0,0.19023 -1.39561,0.11308 -4.58611,-0.25352 z m -3.290217,-40.28543 -6.51875,0 c 0.0403,6.32038 -0.009,14.58173 0.0442,20.90204 l 6.47455,0 z m 8.941104,20.90204 -0.009,-20.85051 -6.398397,0 0,20.85051 6.407757,0 z"
             id="path4254"
             inkscape:connector-curvature="0"
             sodipodi:nodetypes="ssssssssssssssssccccccccccc" />
        </g>
        <g
           id="g4282"
           transform="translate(150.57215,-102.54307)"
           style="opacity:1">
          <ellipse
             ry="10.886379"
             rx="12.371213"
             cy="303.83374"
             cx="199.59163"
             id="path4262"
             style="opacity:1;fill:#ffffff;fill-opacity:1;fill-rule:evenodd;stroke:#ffffff;stroke-width:0.9850781;stroke-linecap:round;stroke-linejoin:round;stroke-miterlimit:4;stroke-dasharray:none;stroke-dashoffset:0;stroke-opacity:1" />
          <path
             style="opacity:1;fill:#004b7d;fill-opacity:1;stroke:#004b7d;stroke-width:0.9850781;stroke-opacity:1"
             d="m 193.42201,332.56125 c 5.48539,-1.77126 10.73581,-4.76822 13.38103,-7.63794 1.5896,-1.72451 2.14119,-2.85161 2.14119,-4.37524 0,-1.59172 -0.66689,-1.86507 -2.68208,-1.09936 -4.10479,1.5597 -12.38271,1.82915 -17.24987,0.56148 -3.45466,-0.89978 -7.07007,-2.86841 -9.30841,-5.06856 -6.15843,-6.05333 -6.07222,-16.41343 0.18743,-22.5248 3.79201,-3.70219 9.8151,-5.75566 16.8821,-5.75566 8.34507,0 14.55084,2.49237 19.31555,7.75755 3.69342,4.08137 5.35406,8.75375 5.33003,14.99662 -0.0261,6.77491 -1.8997,11.46219 -6.36773,15.93022 -4.24959,4.24958 -10.77254,6.90955 -19.26672,7.85671 -5.24668,0.58504 -5.7427,0.45046 -2.36252,-0.64102 z m 18.36319,-27.73202 -21.31902,-9.87376 0,19.45164 z"
             id="path4256"
             inkscape:connector-curvature="0"
             sodipodi:nodetypes="ssssssssssssscccc" />
        </g>
        <g
           id="g4286"
           transform="translate(150.41853,-102.68395)"
           style="opacity:1">
          <path
             sodipodi:nodetypes="ccccc"
             inkscape:connector-curvature="0"
             id="path4260"
             d="m 234.41607,315.91291 0,-21.64473 9.74537,-4.64762 -0.0439,31.98878 z"
             style="opacity:1;fill:#004b7d;fill-opacity:1" />
          <path
             style="opacity:1;fill:#c80000;fill-opacity:1"
             d="m 224.40346,309.85098 0,-11.28046 7.40833,-3.30107 -0.27601,18.50356 z"
             id="path4258"
             inkscape:connector-curvature="0"
             sodipodi:nodetypes="ccccc" />
        </g>
      </g>
      <g
         transform="matrix(1.9183719,0,0,1.9444937,66.963918,-545.2654)"
         id="g4243">
        <g
           transform="matrix(0.99495965,0,0,1.0050659,0.03026856,0.47530371)"
           style="font-style:normal;font-variant:normal;font-weight:normal;font-stretch:normal;font-size:37.83368301px;line-height:125%;font-family:'Droid Sans';-inkscape-font-specification:'Droid Sans';text-align:start;letter-spacing:0px;word-spacing:0px;text-anchor:start;opacity:1;fill:#c90000;fill-opacity:1;stroke:#c90000;stroke-width:0.59495193;stroke-linecap:round;stroke-linejoin:round;stroke-opacity:1"
           id="text4230">
          <path
             d="m 113.62287,499.52768 c -2.01901,0.51781 -3.83662,0.53221 -5.61992,0 l 0,-22.76857 -7.4442,0 c -0.48713,-1.54951 -0.683831,-3.10368 0,-4.76616 l 20.40145,0 c 0.63585,1.78115 0.51218,3.32504 0,4.76616 l -7.33733,0 z"
             style="font-weight:bold;fill:#c90000;fill-opacity:1;stroke:#c90000;stroke-width:0.59495193;stroke-linecap:round;stroke-linejoin:round;stroke-opacity:1"
             id="path4237"
             inkscape:connector-curvature="0"
             sodipodi:nodetypes="ccccccccc" />
          <path
             d="m 123.58738,473.52493 c 0,-0.52957 -0.0824,-1.03108 0.0778,-1.37592 0.16011,-0.35715 0.37563,-0.64041 0.64657,-0.84978 0.28326,-0.22168 0.60963,-0.37563 0.9791,-0.46184 0.38179,-0.0862 0.74956,-0.065 1.16829,-0.065 0.41873,0 0.84532,-0.0212 1.21479,0.065 0.36947,0.0862 0.68967,0.24016 0.96062,0.46184 0.28326,0.20937 0.50494,0.49263 0.66504,0.84978 0.17242,0.34484 0.0963,0.7499 0.0963,1.27947 0,0.51725 0.0762,0.98661 -0.0963,1.34376 -0.1601,0.35715 -0.38178,0.64657 -0.66504,0.86826 -0.64656,0.46671 -1.48504,0.42755 -2.20788,0.4304 -0.7931,-0.009 -1.51105,0.009 -2.11492,-0.4304 -0.27094,-0.22169 -0.48646,-0.51111 -0.64657,-0.86826 -0.1601,-0.35715 -0.0778,-0.73006 -0.0778,-1.24731 z m 5.71218,26.24938 c -1.93473,0.28013 -3.8175,0.30305 -5.63441,0 l 0,-20.4926 c 1.77764,-0.3482 3.6846,-0.24834 5.63441,0 z"
             style="font-weight:bold;fill:#c90000;fill-opacity:1;stroke:#c90000;stroke-width:0.59495193;stroke-linecap:round;stroke-linejoin:round;stroke-opacity:1"
             id="path4239"
             inkscape:connector-curvature="0"
             sodipodi:nodetypes="scccscccscccccsccccc" />
          <path
             d="m 152.2644,499.7426 c -1.92523,0.3729 -3.55609,0.31181 -5.39485,0 l 0,-12.06318 c 0,-1.49019 -0.22168,-2.60476 -0.66504,-3.3437 -0.44337,-0.75125 -1.67106,-1.12688 -2.61936,-1.12688 -0.76706,-0.12301 -3.30069,1.03662 -3.52843,3.8979 -0.12316,0.84978 -0.18474,1.82272 -0.18474,2.91881 l 0,9.71705 c -1.87814,0.27401 -3.75628,0.32503 -5.63441,0 l 0,-20.65335 4.30432,0 0.62752,2.86676 0.37899,-0.1286 c 0.29558,-0.52957 0.71152,-1.0817 1.11794,-1.46349 0.41873,-0.38179 0.87441,-0.69584 1.36704,-0.94215 0.49262,-0.24631 1.01604,-0.42489 1.57025,-0.53573 0.5542,-0.12315 1.11456,-0.18473 1.68108,-0.18473 1.4163,0 2.61707,0.24631 3.60233,0.73894 0.99756,0.48031 1.76113,1.24388 2.29071,2.29071 l 0.46184,0 c 0.29557,-0.52957 0.65272,-0.98525 1.07146,-1.36704 0.41873,-0.38179 0.88057,-0.69584 1.38551,-0.94215 0.50494,-0.24631 1.03451,-0.42489 1.58872,-0.53573 0.56652,-0.12315 2.00188,-0.18473 2.5684,-0.18473 2.21682,0 3.88559,0.60347 5.00631,1.8104 1.13304,1.19461 1.69956,3.11585 1.69956,5.76372 l 0,13.46717 c -1.93303,0.33768 -3.80616,0.26032 -5.65288,0 l 0,-12.06318 c 0,-1.49019 -0.22169,-2.60476 -0.66505,-3.3437 -0.57098,-1.39243 -2.50218,-1.05365 -3.33576,-0.72306 -2.1529,0.85381 -3.20917,2.33851 -3.04146,5.76632 z"
             style="font-weight:bold;fill:#c90000;fill-opacity:1;stroke:#c90000;stroke-width:0.59495193;stroke-linecap:round;stroke-linejoin:round;stroke-opacity:1"
             id="path4241"
             inkscape:connector-curvature="0"
             sodipodi:nodetypes="ccscccscccccccscscccsscscsccscscc" />
        </g>
        <g
           transform="scale(0.98280784,1.0174929)"
           style="font-style:normal;font-variant:normal;font-weight:normal;font-stretch:normal;font-size:39.58366776px;line-height:125%;font-family:'Droid Sans';-inkscape-font-specification:'Droid Sans';text-align:start;letter-spacing:0px;word-spacing:0px;text-anchor:start;opacity:1;fill:#004b7e;fill-opacity:1;stroke:#004b7e;stroke-width:0.59495193;stroke-linecap:butt;stroke-linejoin:round;stroke-miterlimit:4;stroke-dasharray:none;stroke-opacity:1"
           id="text4773">
          <path
             d="m 185.45405,493.92319 -10.52269,-27.16946 3.88944,0 7.05755,19.74418 q 0.89103,2.50338 1.42848,4.44102 0.57988,-2.0225 1.47092,-4.44102 l 7.34042,-19.74418 3.66314,0 -10.63584,27.16946 -3.69142,0 z"
             style="font-style:normal;font-variant:normal;font-weight:bold;font-stretch:normal;font-size:57.93133926px;font-family:'Cordia New';-inkscape-font-specification:'Cordia New Bold';fill:#004b7e;fill-opacity:1;stroke:#004b7e;stroke-width:0.59495193;stroke-linejoin:round;stroke-miterlimit:4;stroke-dasharray:none;stroke-opacity:1"
             id="path5242" />
          <path
             d="m 202.28433,470.58659 0,-3.83286 3.33784,0 0,3.83286 -3.33784,0 z m 0,23.3366 0,-19.68761 3.33784,0 0,19.68761 -3.33784,0 z"
             style="font-style:normal;font-variant:normal;font-weight:bold;font-stretch:normal;font-size:57.93133926px;font-family:'Cordia New';-inkscape-font-specification:'Cordia New Bold';fill:#004b7e;fill-opacity:1;stroke:#004b7e;stroke-width:0.59495193;stroke-linejoin:round;stroke-miterlimit:4;stroke-dasharray:none;stroke-opacity:1"
             id="path5244" />
          <path
             d="m 223.47113,493.92319 0,-2.48924 q -1.88107,2.92768 -5.50178,2.92768 -3.96015,0 -6.22309,-2.92768 -2.2488,-2.94183 -2.2488,-7.32628 0,-5.11991 2.39024,-7.70815 2.39023,-2.60238 5.92608,-2.60238 3.47927,0 5.43106,2.70139 l 0,-9.7448 3.3237,0 0,27.16946 -3.09741,0 z m -10.55097,-9.81552 q 0,3.30956 1.41434,5.41692 1.41434,2.10737 3.94601,2.10737 2.58824,0 3.91772,-2.06494 1.32948,-2.06493 1.32948,-5.19062 0,-3.55 -1.38605,-5.68565 -1.38606,-2.13565 -4.01673,-2.13565 -5.20477,0 -5.20477,7.55257 z"
             style="font-style:normal;font-variant:normal;font-weight:bold;font-stretch:normal;font-size:57.93133926px;font-family:'Cordia New';-inkscape-font-specification:'Cordia New Bold';fill:#004b7e;fill-opacity:1;stroke:#004b7e;stroke-width:0.59495193;stroke-linejoin:round;stroke-miterlimit:4;stroke-dasharray:none;stroke-opacity:1"
             id="path5246" />
          <path
             d="m 245.29439,487.58695 3.43684,0.4243 q -1.71135,6.35038 -8.65575,6.35038 -2.64482,0 -4.69561,-1.01832 -2.05079,-1.03247 -3.36613,-3.29541 -1.31533,-2.27709 -1.31533,-5.79879 0,-3.01255 1.01832,-5.34621 1.01833,-2.33366 3.08326,-3.71971 2.07908,-1.38605 5.09162,-1.38605 3.16812,0 5.20477,1.55577 2.05079,1.54163 2.88525,3.79043 0.84861,2.23466 0.84861,5.78465 l -14.68084,0 q 0.18386,3.11155 1.76792,4.90776 1.58406,1.79621 4.18644,1.79621 3.73386,0 5.19063,-4.04501 z m -10.96113,-5.38864 10.98942,0 q -0.2263,-2.82867 -1.7255,-4.24301 -1.4992,-1.41434 -3.66314,-1.41434 -2.36194,0 -3.90357,1.56991 -1.54163,1.55578 -1.69721,4.08744 z"
             style="font-style:normal;font-variant:normal;font-weight:bold;font-stretch:normal;font-size:57.93133926px;font-family:'Cordia New';-inkscape-font-specification:'Cordia New Bold';fill:#004b7e;fill-opacity:1;stroke:#004b7e;stroke-width:0.59495193;stroke-linejoin:round;stroke-miterlimit:4;stroke-dasharray:none;stroke-opacity:1"
             id="path5248" />
          <path
             d="m 251.68721,484.07939 q 0,-5.53007 2.81453,-7.90616 2.82868,-2.37609 6.4211,-2.37609 4.21473,0 6.70397,2.74382 2.50338,2.72967 2.50338,7.2697 0,5.41692 -2.65896,7.99102 -2.65896,2.55995 -6.54839,2.55995 -4.80875,0 -7.02926,-3.01254 -2.20637,-3.01254 -2.20637,-7.2697 z m 3.43684,0 q 0,3.46513 1.4992,5.51592 1.51334,2.03665 4.29959,2.03665 2.91354,0 4.34202,-2.16394 1.42849,-2.17808 1.42849,-5.50178 0,-2.97011 -1.38606,-5.19063 -1.38605,-2.22051 -4.38445,-2.22051 -2.92768,0 -4.37031,2.13565 -1.42848,2.13565 -1.42848,5.38864 z"
             style="font-style:normal;font-variant:normal;font-weight:bold;font-stretch:normal;font-size:57.93133926px;font-family:'Cordia New';-inkscape-font-specification:'Cordia New Bold';fill:#004b7e;fill-opacity:1;stroke:#004b7e;stroke-width:0.59495193;stroke-linejoin:round;stroke-miterlimit:4;stroke-dasharray:none;stroke-opacity:1"
             id="path5250" />
          <path
             d="m 272.71843,488.05368 3.29542,-0.52331 q 0.56573,4.10159 5.09162,4.10159 4.52588,0 4.52588,-3.13984 0,-1.10318 -0.82031,-1.65477 -0.80618,-0.5516 -3.57828,-1.25876 -3.02669,-0.76375 -4.48346,-1.3012 -1.44262,-0.53745 -2.46095,-1.79621 -1.01832,-1.25876 -1.01832,-3.01254 0,-2.48924 1.95179,-4.0733 1.95178,-1.5982 5.28962,-1.5982 7.04341,0 7.80716,5.51592 l -3.26713,0.45259 q -0.46673,-3.22469 -4.29959,-3.22469 -4.25716,0 -4.25716,2.53166 0,1.03247 0.73546,1.55578 0.7496,0.50916 3.88943,1.35776 3.45099,0.94761 4.69561,1.42849 1.25876,0.48087 2.2488,1.73963 0.99003,1.24462 0.99003,2.98426 0,2.84282 -2.22051,4.54003 -2.22051,1.68306 -5.71393,1.68306 -7.28385,0 -8.40118,-6.30795 z"
             style="font-style:normal;font-variant:normal;font-weight:bold;font-stretch:normal;font-size:57.93133926px;font-family:'Cordia New';-inkscape-font-specification:'Cordia New Bold';fill:#004b7e;fill-opacity:1;stroke:#004b7e;stroke-width:0.59495193;stroke-linejoin:round;stroke-miterlimit:4;stroke-dasharray:none;stroke-opacity:1"
             id="path5252" />
        </g>
      </g>
    </g>
  </g>
</svg>
