<?xml version="1.0" encoding="UTF-8" standalone="no"?>
<svg
   xmlns:dc="http://purl.org/dc/elements/1.1/"
   xmlns:cc="http://creativecommons.org/ns#"
   xmlns:rdf="http://www.w3.org/1999/02/22-rdf-syntax-ns#"
   xmlns:svg="http://www.w3.org/2000/svg"
   xmlns="http://www.w3.org/2000/svg"
   xmlns:xlink="http://www.w3.org/1999/xlink"
   xmlns:sodipodi="http://sodipodi.sourceforge.net/DTD/sodipodi-0.dtd"
   xmlns:inkscape="http://www.inkscape.org/namespaces/inkscape"
   viewBox="0 0 1920 1080.6858"
   width="1920"
   version="1.1"
   id="svg7306"
   height="1080.6858"
   inkscape:version="0.91+devel r"
   sodipodi:docname="lca2016-title.svg">
  <sodipodi:namedview
     pagecolor="#ffffff"
     bordercolor="#666666"
     borderopacity="1"
     objecttolerance="10"
     gridtolerance="10"
     guidetolerance="10"
     inkscape:pageopacity="0"
     inkscape:pageshadow="2"
     inkscape:window-width="1920"
     inkscape:window-height="1124"
     id="namedview165"
     showgrid="false"
     inkscape:zoom="0.74128058"
     inkscape:cx="960"
     inkscape:cy="540.3429"
     inkscape:window-x="0"
     inkscape:window-y="24"
     inkscape:window-maximized="1"
     inkscape:current-layer="layer2" />
  <defs
     id="defs7308">
    <linearGradient
       id="linearGradient4369">
      <stop
         id="stop4365"
         offset="0"
         style="stop-color:#004d6d;stop-opacity:1" />
      <stop
         id="stop4367"
         offset="1"
         style="stop-color:#00d7de;stop-opacity:0;" />
    </linearGradient>
    <clipPath
       id="clipPath12450"
       clipPathUnits="userSpaceOnUse">
      <path
         id="path12452"
         d="M 0,768 H 1024 V 0 H 0 Z" />
    </clipPath>
    <clipPath
       id="clipPath12436"
       clipPathUnits="userSpaceOnUse">
      <path
         id="path12438"
         d="m 99.524,272.587 c 0.511,-1.936 1.029,-3.872 1.587,-5.789 v 0 c 12.243,-42.003 33.815,-72.054 65.948,-91.87 v 0 c 33.61,-20.729 85.401,-36.011 153.934,-45.423 v 0 C 374.801,122.117 439.065,118.369 512,118.369 v 0 c 72.932,0 137.129,3.748 190.934,11.136 v 0 c 68.528,9.412 120.254,24.694 153.865,45.423 v 0 c 32.131,19.815 53.574,49.865 65.813,91.868 v 0 c 0.561,1.928 1.091,3.868 1.602,5.814 v 0 C 797.609,283.98 658.291,290.272 512,290.272 v 0 c -146.391,0 -285.8,-6.301 -412.476,-17.685" />
    </clipPath>
    <clipPath
       id="clipPath11852"
       clipPathUnits="userSpaceOnUse">
      <path
         id="path11854"
         d="M 0,768 H 1024 V 0 H 0 Z" />
    </clipPath>
    <clipPath
       id="clipPath14187"
       clipPathUnits="userSpaceOnUse">
      <path
         id="path14189"
         d="M 0,768 H 1024 V 0 H 0 Z" />
    </clipPath>
    <clipPath
       id="clipPath14321"
       clipPathUnits="userSpaceOnUse">
      <path
         id="path14323"
         d="M 0,768 H 1024 V 0 H 0 Z" />
    </clipPath>
    <linearGradient
       xlink:href="#linearGradient4853"
       y2="-752.6391"
       y1="-915.36462"
       x2="415.5759"
       x1="415.5759"
       id="linearGradient6551"
       gradientUnits="userSpaceOnUse"
       gradientTransform="translate(647.70053,2095.7733)" />
    <linearGradient
       id="linearGradient4853">
      <stop
         style="stop-color:#ff9955;stop-opacity:1"
         offset="0"
         id="stop4855" />
      <stop
         style="stop-color:#ff6600;stop-opacity:1"
         offset="1"
         id="stop4857" />
    </linearGradient>
    <linearGradient
       xlink:href="#linearGradient4853"
       y2="-752.6391"
       y1="-915.36462"
       x2="415.5759"
       x1="415.5759"
       id="linearGradient6793"
       gradientUnits="userSpaceOnUse"
       gradientTransform="translate(647.70053,2095.7733)" />
    <linearGradient
       xlink:href="#linearGradient5582"
       y2="829.78363"
       y1="726.25867"
       x2="799.72998"
       x1="799.72998"
       id="linearGradient6593"
       gradientUnits="userSpaceOnUse" />
    <linearGradient
       id="linearGradient5582">
      <stop
         style="stop-color:#ffffff;stop-opacity:1;"
         offset="0"
         id="stop5584" />
      <stop
         style="stop-color:#ffffff;stop-opacity:0;"
         offset="1"
         id="stop5586" />
    </linearGradient>
    <linearGradient
       id="linearGradient4784-2-4">
      <stop
         style="stop-color:#ffccaa;stop-opacity:1"
         offset="0"
         id="stop4786-6-6" />
      <stop
         style="stop-color:#ff6600;stop-opacity:1"
         offset="1"
         id="stop4788-4-6" />
    </linearGradient>
    <linearGradient
       id="linearGradient6006-6">
      <stop
         style="stop-color:#ffffff;stop-opacity:1;"
         offset="0"
         id="stop6008-7" />
      <stop
         style="stop-color:#ffffff;stop-opacity:0;"
         offset="1"
         id="stop6010-5" />
    </linearGradient>
    <linearGradient
       xlink:href="#linearGradient4853-4"
       y2="-752.6391"
       y1="-915.36462"
       x2="415.5759"
       x1="415.5759"
       id="linearGradient6551-6"
       gradientUnits="userSpaceOnUse"
       gradientTransform="translate(647.70053,2095.7733)" />
    <linearGradient
       id="linearGradient4853-4">
      <stop
         style="stop-color:#ff9955;stop-opacity:1"
         offset="0"
         id="stop4855-3" />
      <stop
         style="stop-color:#ff6600;stop-opacity:1"
         offset="1"
         id="stop4857-0" />
    </linearGradient>
    <linearGradient
       xlink:href="#linearGradient4853-4"
       y2="-752.6391"
       y1="-915.36462"
       x2="415.5759"
       x1="415.5759"
       id="linearGradient7307"
       gradientUnits="userSpaceOnUse"
       gradientTransform="translate(647.70053,2095.7733)" />
    <linearGradient
       xlink:href="#linearGradient5582-2"
       y2="829.78363"
       y1="726.25867"
       x2="799.72998"
       x1="799.72998"
       id="linearGradient6593-0"
       gradientUnits="userSpaceOnUse" />
    <linearGradient
       id="linearGradient5582-2">
      <stop
         style="stop-color:#ffffff;stop-opacity:1;"
         offset="0"
         id="stop5584-5" />
      <stop
         style="stop-color:#ffffff;stop-opacity:0;"
         offset="1"
         id="stop5586-3" />
    </linearGradient>
    <linearGradient
       xlink:href="#linearGradient4853-4"
       y2="-752.6391"
       y1="-915.36462"
       x2="415.5759"
       x1="415.5759"
       id="linearGradient7807"
       gradientUnits="userSpaceOnUse"
       gradientTransform="translate(647.70053,2095.7733)" />
    <linearGradient
       xlink:href="#linearGradient5582-2"
       y2="829.78363"
       y1="726.25867"
       x2="799.72998"
       x1="799.72998"
       id="linearGradient7849"
       gradientUnits="userSpaceOnUse" />
    <linearGradient
       xlink:href="#linearGradient4853-4"
       y2="-752.6391"
       y1="-915.36462"
       x2="415.5759"
       x1="415.5759"
       id="linearGradient7887"
       gradientUnits="userSpaceOnUse"
       gradientTransform="translate(647.70053,2095.7733)" />
    <linearGradient
       xlink:href="#linearGradient5582-2"
       y2="829.78363"
       y1="726.25867"
       x2="799.72998"
       x1="799.72998"
       id="linearGradient7929"
       gradientUnits="userSpaceOnUse" />
    <linearGradient
       xlink:href="#linearGradient4853-4"
       y2="-752.6391"
       y1="-915.36462"
       x2="415.5759"
       x1="415.5759"
       id="linearGradient7957"
       gradientUnits="userSpaceOnUse"
       gradientTransform="translate(-588.41277,2325.7974)" />
    <linearGradient
       xlink:href="#linearGradient5582-2"
       y2="829.78363"
       y1="726.25867"
       x2="799.72998"
       x1="799.72998"
       id="linearGradient8007"
       gradientUnits="userSpaceOnUse" />
    <linearGradient
       xlink:href="#linearGradient4853-4"
       y2="-752.6391"
       y1="-915.36462"
       x2="415.5759"
       x1="415.5759"
       id="linearGradient8163"
       gradientUnits="userSpaceOnUse"
       gradientTransform="translate(-588.41277,2325.7974)" />
    <linearGradient
       xlink:href="#linearGradient6006-6"
       y2="421.63248"
       y1="228.33238"
       x2="802.33051"
       x1="802.33051"
       id="linearGradient8208"
       gradientUnits="userSpaceOnUse"
       gradientTransform="matrix(0.95753036,0,0,1.0443533,-875.94751,1036.1623)" />
    <radialGradient
       xlink:href="#linearGradient4784-2-4"
       r="90.157059"
       id="radialGradient8210"
       gradientUnits="userSpaceOnUse"
       gradientTransform="matrix(-0.01609623,1.0784487,-0.67540255,-0.01008062,529.84178,1699.9512)"
       fy="-208.61775"
       fx="-411.323"
       cy="-208.61775"
       cx="-411.323" />
    <linearGradient
       xlink:href="#linearGradient4853-4"
       y2="-752.6391"
       y1="-915.36462"
       x2="415.5759"
       x1="415.5759"
       id="linearGradient8212"
       gradientUnits="userSpaceOnUse"
       gradientTransform="translate(-588.41277,2325.7974)" />
    <linearGradient
       xlink:href="#linearGradient4853-4"
       y2="-752.6391"
       y1="-915.36462"
       x2="415.5759"
       x1="415.5759"
       id="linearGradient8214"
       gradientUnits="userSpaceOnUse"
       gradientTransform="translate(-588.41277,2325.7974)" />
    <linearGradient
       xlink:href="#linearGradient4853-4"
       y2="-752.6391"
       y1="-915.36462"
       x2="415.5759"
       x1="415.5759"
       id="linearGradient8216"
       gradientUnits="userSpaceOnUse"
       gradientTransform="translate(-588.41277,2325.7974)" />
    <linearGradient
       xlink:href="#linearGradient4853-4"
       y2="-752.6391"
       y1="-915.36462"
       x2="415.5759"
       x1="415.5759"
       id="linearGradient8218"
       gradientUnits="userSpaceOnUse"
       gradientTransform="translate(-588.41277,2325.7974)" />
    <linearGradient
       xlink:href="#linearGradient4853-4"
       y2="-752.6391"
       y1="-915.36462"
       x2="415.5759"
       x1="415.5759"
       id="linearGradient8220"
       gradientUnits="userSpaceOnUse"
       gradientTransform="translate(-588.41277,2325.7974)" />
    <radialGradient
       xlink:href="#linearGradient4784-2-4"
       r="90.157059"
       id="radialGradient8607"
       gradientUnits="userSpaceOnUse"
       gradientTransform="matrix(-0.01609623,1.0784487,-0.67540255,-0.01008062,529.84178,1699.9512)"
       fy="-208.61775"
       fx="-411.323"
       cy="-208.61775"
       cx="-411.323" />
    <linearGradient
       xlink:href="#linearGradient4853-4"
       y2="-752.6391"
       y1="-915.36462"
       x2="415.5759"
       x1="415.5759"
       id="linearGradient8627"
       gradientUnits="userSpaceOnUse"
       gradientTransform="translate(-588.41277,2325.7974)" />
    <linearGradient
       xlink:href="#linearGradient4853-4"
       y2="-752.6391"
       y1="-915.36462"
       x2="415.5759"
       x1="415.5759"
       id="linearGradient8629"
       gradientUnits="userSpaceOnUse"
       gradientTransform="translate(-588.41277,2325.7974)" />
    <linearGradient
       xlink:href="#linearGradient4853-4"
       y2="-752.6391"
       y1="-915.36462"
       x2="415.5759"
       x1="415.5759"
       id="linearGradient8631"
       gradientUnits="userSpaceOnUse"
       gradientTransform="translate(-588.41277,2325.7974)" />
    <linearGradient
       xlink:href="#linearGradient4853-4"
       y2="-752.6391"
       y1="-915.36462"
       x2="415.5759"
       x1="415.5759"
       id="linearGradient8633"
       gradientUnits="userSpaceOnUse"
       gradientTransform="translate(-588.41277,2325.7974)" />
    <linearGradient
       xlink:href="#linearGradient4853-4"
       y2="-752.6391"
       y1="-915.36462"
       x2="415.5759"
       x1="415.5759"
       id="linearGradient8635"
       gradientUnits="userSpaceOnUse"
       gradientTransform="translate(-588.41277,2325.7974)" />
    <linearGradient
       xlink:href="#linearGradient4853-4"
       y2="-752.6391"
       y1="-915.36462"
       x2="415.5759"
       x1="415.5759"
       id="linearGradient8641"
       gradientUnits="userSpaceOnUse"
       gradientTransform="matrix(0.23200958,0,0,0.23200958,523.07239,1222.2011)" />
    <linearGradient
       xlink:href="#linearGradient4853-4"
       y2="-752.6391"
       y1="-915.36462"
       x2="415.5759"
       x1="415.5759"
       id="linearGradient8644"
       gradientUnits="userSpaceOnUse"
       gradientTransform="matrix(0.23200958,0,0,0.23200958,523.07239,1222.2011)" />
    <linearGradient
       xlink:href="#linearGradient4853-4"
       y2="-752.6391"
       y1="-915.36462"
       x2="415.5759"
       x1="415.5759"
       id="linearGradient8647"
       gradientUnits="userSpaceOnUse"
       gradientTransform="matrix(0.23200958,0,0,0.23200958,523.07239,1222.2011)" />
    <radialGradient
       xlink:href="#linearGradient4784-2-4"
       r="90.157059"
       id="radialGradient8619"
       gradientUnits="userSpaceOnUse"
       gradientTransform="matrix(-0.00866818,0.58076904,-0.36371956,-0.00542864,963.71508,781.73913)"
       fy="-208.61775"
       fx="-411.323"
       cy="-208.61775"
       cx="-411.323" />
    <linearGradient
       xlink:href="#linearGradient4853"
       y2="-752.6391"
       y1="-915.36462"
       x2="415.5759"
       x1="415.5759"
       id="linearGradient8638"
       gradientUnits="userSpaceOnUse"
       gradientTransform="matrix(0.34316782,0,0,0.34316782,781.89852,859.58028)" />
    <linearGradient
       gradientUnits="userSpaceOnUse"
       y2="-183.27483"
       x2="1163.2942"
       y1="922.82275"
       x1="59.294121"
       id="linearGradient4371"
       xlink:href="#linearGradient4369"
       gradientTransform="translate(0,27.98071)" />
    <linearGradient
       id="linearGradient3772">
      <stop
         id="stop3774"
         offset="0"
         style="stop-color:#00dbe2;stop-opacity:1;" />
      <stop
         style="stop-color:#00002d;stop-opacity:1;"
         offset="0.89647543"
         id="stop3765" />
      <stop
         id="stop3776"
         offset="1"
         style="stop-color:#00002d;stop-opacity:1;" />
    </linearGradient>
    <linearGradient
       spreadMethod="pad"
       gradientUnits="userSpaceOnUse"
       y2="645.4173"
       x2="894.56287"
       y1="711.08704"
       x1="98.390869"
       id="linearGradient3778"
       xlink:href="#linearGradient3772"
       inkscape:collect="always" />
  </defs>
  <metadata
     id="metadata7311">
    <rdf:RDF>
      <cc:Work
         rdf:about="">
        <dc:format>image/svg+xml</dc:format>
        <dc:type
           rdf:resource="http://purl.org/dc/dcmitype/StillImage" />
        <dc:title />
      </cc:Work>
    </rdf:RDF>
  </metadata>
  <g
     inkscape:groupmode="layer"
     id="layer4"
     inkscape:label="background"
     sodipodi:insensitive="true">
    <g
       id="background">
      <rect
         y="-4.7979738e-06"
         x="0"
         height="1080.6858"
         width="1920"
         id="background-gradient"
         style="fill:url(#linearGradient4371);fill-opacity:1;fill-rule:evenodd;stroke:#000000;stroke-width:1px;stroke-linecap:butt;stroke-linejoin:miter;stroke-opacity:1" />
      <rect
         y="986.22638"
         x="4.2679208e-08"
         width="1920"
         style="fill:#ffffff;fill-rule:evenodd;stroke:none;stroke-width:1px;stroke-linecap:butt;stroke-linejoin:miter;stroke-opacity:1"
         id="whitebar"
         height="94.459404" />
    </g>
  </g>
  <g
     inkscape:groupmode="layer"
     id="layer3"
     inkscape:label="logos"
     sodipodi:insensitive="true">
    <path
       style="fill:#1f70c1;stroke-width:1.32479751"
       id="path6499"
       d="m 1550.1796,276.46692 v 8.86041 h 63.0199 v -8.86041 z m 71.9488,0 v 8.86041 h 89.8064 c 0,0 -9.1733,-8.86041 -21.3228,-8.86041 z m 107.4238,0 v 8.86041 h 54.3315 l -3.2249,-8.86041 z m 93.2843,0 -3.225,8.86041 h 53.8384 v -8.86041 z m -272.6569,17.23138 v 8.86045 h 63.0199 v -8.86045 z m 71.9488,0.012 v 8.84788 h 100.2278 c 0,1e-5 -1.1709,-6.81938 -3.2124,-8.84788 z m 107.4238,0 v 8.84788 h 60.2884 l -2.9849,-8.84788 z m 86.8344,0 -2.9848,8.84788 h 60.0481 v -8.84788 z m -248.0965,17.21885 v 8.87297 h 27.2922 v -8.87297 z m 71.9489,0 v 8.87297 h 27.2922 v -8.87297 z m 53.8382,0 v 8.87297 h 27.2923 c 0,0 1.7328,-4.68583 1.7328,-8.87297 z m 53.5855,0 v 8.87297 h 48.3875 l -3.2251,-8.87297 z m 62.7796,0 -3.2375,8.87297 h 48.6277 v -8.87297 z m -242.1522,17.24395 v 8.86042 h 27.2922 v -8.86042 z m 71.9489,0 v 8.86042 h 69.7103 c 0,0 5.8313,-4.54637 7.6894,-8.86042 z m 107.4237,0 v 8.86042 h 27.2922 v -4.93221 l 1.7326,4.93221 h 49.9937 l 1.859,-4.93221 v 4.93221 h 27.2923 v -8.86042 h -51.233 l -2.719,7.505 -2.732,-7.505 z m -179.3726,17.23139 v 8.86042 h 27.2922 v -8.86042 z m 71.9489,0 v 8.86042 h 77.3997 c -1.8584,-4.29998 -7.6894,-8.86042 -7.6894,-8.86042 z m 107.4237,0 v 8.86042 h 27.2922 v -8.86042 z m 32.25,0 3.3006,8.86042 h 37.4858 l 3.1366,-8.86042 z m 48.6275,0 v 8.86042 h 27.2923 v -8.86042 z m -260.2501,17.23134 v 8.86043 h 27.2922 v -8.86043 z m 71.9489,0 v 8.86043 h 27.2922 v -8.86043 z m 53.8382,0 v 8.86043 h 29.0251 c 0,-4.1815 -1.7328,-8.86043 -1.7328,-8.86043 z m 53.5855,0 v 8.86043 h 27.2922 v -8.86043 z m 38.4469,0 3.1996,8.86043 h 25.1296 l 3.2252,-8.86043 z m 42.4306,0 v 8.86043 h 27.2923 v -8.86043 z m -277.8673,17.23143 v 8.87296 h 63.0199 v -8.87296 z m 71.4555,0 v 8.87296 h 97.0154 c 2.0415,-2.0317 3.2124,-8.87296 3.2124,-8.87296 z m 107.9171,0 v 8.87296 h 44.9094 v -8.87296 z m 62.2737,0 3.2884,8.87296 h 12.7861 l 3.0858,-8.87296 z m 36.221,0 v 8.87296 h 45.4029 v -8.87296 z m -277.8673,17.24393 v 8.86043 h 63.0199 v -8.86043 z m 71.4555,0 v 8.8479 h 68.4836 c 12.1495,-4e-5 21.3228,-8.8479 21.3228,-8.8479 z m 107.9171,0 v 8.86043 h 44.9094 v -8.86043 z m 68.5087,0 3.1618,8.83534 0.5438,0.0133 3.2125,-8.84791 h -6.9181 z m 29.986,0 v 8.86043 h 45.4029 v -8.86043 z"
       inkscape:connector-curvature="0" />
    <g
       id="layer1-0"
       transform="matrix(0.23768168,0,0,0.23768168,1651.021,30.6148)">
      <g
         id="g3646"
         transform="matrix(7.4464891,0,0,7.4464891,2804.5105,-1839.1239)">
        <path
           id="path3346"
           style="fill:#00b188;fill-opacity:1;fill-rule:nonzero;stroke:none"
           d="m -375.89589,299.46828 h -55.205 v -10.23425 h 55.205 z m 3.94375,-14.1775 h -63.0925 v 18.11875 h 63.0925 z"
           inkscape:connector-curvature="0" />
        <g
           transform="matrix(1.25,0,0,-1.25,-431.10089,333.35578)"
           id="g3348">
          <path
             id="path3350"
             style="fill:#231f20;fill-opacity:1;fill-rule:nonzero;stroke:none"
             d="M 0,0 H -3.155 V 14.495 H 0 V 8.767 h 5.637 v 5.728 H 8.792 V 0 H 5.637 V 6.007 H 0 V 0"
             inkscape:connector-curvature="0" />
        </g>
        <g
           transform="matrix(1.25,0,0,-1.25,-414.13839,325.41203)"
           id="g3352">
          <path
             id="path3354"
             style="fill:#231f20;fill-opacity:1;fill-rule:nonzero;stroke:none"
             d="M 0,0 H 3.758 C 3.688,1.066 3.248,1.809 2.018,1.809 1.09,1.809 0.278,1.414 0,0 Z m 2.389,-6.587 c -3.201,0 -5.381,2.018 -5.381,5.333 0,3.225 2.134,5.451 4.964,5.451 3.085,0 4.616,-2.064 4.616,-5.149 v -1.16 H 0 c 0.372,-1.599 1.624,-2.016 2.877,-2.016 1.09,0 1.878,0.231 2.852,0.835 H 5.846 V -5.682 C 5.011,-6.286 3.827,-6.587 2.389,-6.587"
             inkscape:connector-curvature="0" />
        </g>
        <g
           transform="matrix(1.25,0,0,-1.25,-395.61089,325.76078)"
           id="g3356">
          <path
             id="path3358"
             style="fill:#231f20;fill-opacity:1;fill-rule:nonzero;stroke:none"
             d="m 0,0 -1.624,-6.076 h -2.76 L -7.539,4.129 v 0.116 h 3.016 l 1.716,-6.1 1.624,6.1 h 2.459 l 1.647,-6.1 1.74,6.1 h 2.9 V 4.129 L 4.408,-6.076 H 1.647 L 0,0"
             inkscape:connector-curvature="0" />
        </g>
        <g
           transform="matrix(1.25,0,0,-1.25,-379.75089,333.64578)"
           id="g3360">
          <path
             id="path3362"
             style="fill:#231f20;fill-opacity:1;fill-rule:nonzero;stroke:none"
             d="m 0,0 c -2.505,0 -3.526,0.997 -3.526,3.339 v 11.387 h 3.062 V 3.548 c 0,-0.719 0.278,-0.974 0.881,-0.974 0.209,0 0.511,0.069 0.696,0.139 H 1.16 V 0.185 C 0.905,0.093 0.464,0 0,0"
             inkscape:connector-curvature="0" />
        </g>
        <g
           transform="matrix(1.25,0,0,-1.25,-373.48714,325.41203)"
           id="g3364">
          <path
             id="path3366"
             style="fill:#231f20;fill-opacity:1;fill-rule:nonzero;stroke:none"
             d="M 0,0 H 3.758 C 3.688,1.066 3.248,1.809 2.018,1.809 1.091,1.809 0.278,1.414 0,0 Z m 2.389,-6.587 c -3.201,0 -5.381,2.018 -5.381,5.333 0,3.225 2.134,5.451 4.964,5.451 3.085,0 4.616,-2.064 4.616,-5.149 v -1.16 H 0 c 0.371,-1.599 1.624,-2.016 2.876,-2.016 1.091,0 1.879,0.231 2.854,0.835 H 5.846 V -5.682 C 5.011,-6.286 3.828,-6.587 2.389,-6.587"
             inkscape:connector-curvature="0" />
        </g>
        <g
           transform="matrix(1.25,0,0,-1.25,-349.53714,320.45453)"
           id="g3368">
          <path
             id="path3370"
             style="fill:#231f20;fill-opacity:1;fill-rule:nonzero;stroke:none"
             d="M 0,0 H 2.273 V -2.458 H 0 v -4.198 c 0,-0.905 0.348,-1.323 1.276,-1.323 0.255,0 0.58,0.024 0.928,0.14 h 0.069 v -2.412 c -0.394,-0.14 -0.997,-0.301 -1.878,-0.301 -2.483,0 -3.457,1.136 -3.457,3.757 v 4.337 h -3.92 v -4.198 c 0,-0.905 0.348,-1.323 1.275,-1.323 0.256,0 0.581,0.024 0.929,0.14 h 0.069 v -2.412 c -0.394,-0.14 -0.998,-0.301 -1.878,-0.301 -2.483,0 -3.457,1.136 -3.457,3.757 v 4.337 h -1.578 V 0 h 1.578 v 2.829 h 3.062 V 0 h 3.92 V 2.829 H 0 V 0"
             inkscape:connector-curvature="0" />
        </g>
        <g
           transform="matrix(1.25,0,0,-1.25,-333.79964,324.13703)"
           id="g3372">
          <path
             id="path3374"
             style="fill:#231f20;fill-opacity:1;fill-rule:nonzero;stroke:none"
             d="M 0,0 C 1.602,0 2.366,0.904 2.366,2.203 2.366,3.549 1.602,4.453 0,4.453 H -1.995 V 0 Z m 5.568,2.203 c 0,-3.155 -2.111,-4.87 -5.313,-4.87 h -2.25 V -7.375 H -5.148 V 7.12 h 5.403 c 3.202,0 5.313,-1.716 5.313,-4.917"
             inkscape:connector-curvature="0" />
        </g>
        <g
           transform="matrix(1.25,0,0,-1.25,-318.43214,329.29703)"
           id="g3376">
          <path
             id="path3378"
             style="fill:#231f20;fill-opacity:1;fill-rule:nonzero;stroke:none"
             d="m 0,0 v 0.881 c -0.464,0.254 -1.066,0.347 -1.693,0.347 -0.997,0 -1.6,-0.37 -1.6,-1.205 0,-0.859 0.603,-1.23 1.507,-1.23 0.858,0 1.508,0.441 1.786,1.207 z m 0.093,-2.227 c -0.673,-0.812 -1.669,-1.206 -2.738,-1.206 -2.017,0 -3.665,1.228 -3.665,3.41 0,2.017 1.648,3.362 4.013,3.362 0.742,0 1.509,-0.116 2.297,-0.347 v 0.184 c 0,1.114 -0.626,1.6 -2.272,1.6 -1.045,0 -2.042,-0.3 -2.901,-0.788 h -0.115 v 2.459 c 0.788,0.463 2.181,0.858 3.548,0.858 3.109,0 4.802,-1.484 4.802,-4.082 v -6.47 H 0.093 v 1.02"
             inkscape:connector-curvature="0" />
        </g>
        <g
           transform="matrix(1.25,0,0,-1.25,-312.66214,326.92078)"
           id="g3380">
          <path
             id="path3382"
             style="fill:#231f20;fill-opacity:1;fill-rule:nonzero;stroke:none"
             d="m 0,0 c 0,3.317 2.344,5.404 5.406,5.404 1.09,0 2.11,-0.232 2.876,-0.788 V 1.995 H 8.165 C 7.492,2.505 6.704,2.807 5.8,2.807 4.269,2.807 3.109,1.762 3.109,0 c 0,-1.762 1.16,-2.783 2.691,-2.783 0.904,0 1.692,0.302 2.365,0.813 H 8.282 V -4.591 C 7.516,-5.148 6.496,-5.38 5.406,-5.38 2.344,-5.38 0,-3.317 0,0"
             inkscape:connector-curvature="0" />
        </g>
        <g
           transform="matrix(1.25,0,0,-1.25,-296.07714,327.50078)"
           id="g3384">
          <path
             id="path3386"
             style="fill:#231f20;fill-opacity:1;fill-rule:nonzero;stroke:none"
             d="M 0,0 V -4.684 H -3.061 V 9.811 H 0 V 1.555 L 3.086,5.637 H 6.565 V 5.521 L 2.854,0.836 6.565,-4.568 V -4.684 H 3.062 L 0,0"
             inkscape:connector-curvature="0" />
        </g>
        <g
           transform="matrix(1.25,0,0,-1.25,-279.28839,329.29703)"
           id="g3388">
          <path
             id="path3390"
             style="fill:#231f20;fill-opacity:1;fill-rule:nonzero;stroke:none"
             d="m 0,0 v 0.881 c -0.463,0.254 -1.067,0.347 -1.693,0.347 -0.997,0 -1.6,-0.37 -1.6,-1.205 0,-0.859 0.603,-1.23 1.506,-1.23 0.86,0 1.509,0.441 1.787,1.207 z m 0.093,-2.227 c -0.673,-0.812 -1.671,-1.206 -2.737,-1.206 -2.019,0 -3.665,1.228 -3.665,3.41 0,2.017 1.646,3.362 4.014,3.362 0.742,0 1.506,-0.116 2.295,-0.347 v 0.184 c 0,1.114 -0.626,1.6 -2.273,1.6 -1.043,0 -2.042,-0.3 -2.9,-0.788 h -0.116 v 2.459 c 0.789,0.463 2.181,0.858 3.549,0.858 3.11,0 4.803,-1.484 4.803,-4.082 v -6.47 h -2.97 v 1.02"
             inkscape:connector-curvature="0" />
        </g>
        <g
           transform="matrix(1.25,0,0,-1.25,-269.02339,322.54203)"
           id="g3392">
          <path
             id="path3394"
             style="fill:#231f20;fill-opacity:1;fill-rule:nonzero;stroke:none"
             d="M 0,0 C 0.556,1.137 1.369,1.786 2.506,1.786 2.923,1.786 3.34,1.693 3.501,1.6 V -1.322 H 3.386 C 3.038,-1.182 2.621,-1.09 2.041,-1.09 1.09,-1.09 0.348,-1.647 0.092,-2.713 V -8.651 H -2.969 V 1.67 H 0 V 0"
             inkscape:connector-curvature="0" />
        </g>
        <g
           transform="matrix(1.25,0,0,-1.25,-254.49714,328.97828)"
           id="g3396">
          <path
             id="path3398"
             style="fill:#231f20;fill-opacity:1;fill-rule:nonzero;stroke:none"
             d="m 0,0 v 3.317 c -0.51,0.742 -1.182,1.066 -1.949,1.066 -1.344,0 -2.249,-0.975 -2.249,-2.737 0,-1.762 0.905,-2.713 2.249,-2.713 0.767,0 1.439,0.325 1.949,1.067 z m 0.092,-2.436 c -0.649,-0.835 -1.67,-1.298 -3.061,-1.298 -2.645,0 -4.338,2.411 -4.338,5.38 0,2.969 1.693,5.404 4.338,5.404 1.345,0 2.319,-0.418 2.969,-1.183 v 5.125 H 3.062 V -3.502 h -2.97 v 1.066"
             inkscape:connector-curvature="0" />
        </g>
        <g
           transform="matrix(1.25,0,0,-1.25,-435.04464,339.27328)"
           id="g3400">
          <path
             id="path3402"
             style="fill:#231f20;fill-opacity:1;fill-rule:nonzero;stroke:none"
             d="M 0,0 H 8.954 V -1.762 H 2.018 V -6.191 H 8.304 V -7.908 H 2.018 v -4.824 h 6.936 v -1.762 H 0 V 0"
             inkscape:connector-curvature="0" />
        </g>
        <g
           transform="matrix(1.25,0,0,-1.25,-414.60339,344.37453)"
           id="g3404">
          <path
             id="path3406"
             style="fill:#231f20;fill-opacity:1;fill-rule:nonzero;stroke:none"
             d="m 0,0 c 2.296,0 3.572,-1.508 3.572,-3.988 v -6.425 H 1.647 v 6.378 c 0,1.322 -0.673,2.273 -2.134,2.273 -1.206,0 -2.227,-0.766 -2.575,-1.855 v -6.796 h -1.925 v 10.204 h 1.925 V -1.693 C -2.459,-0.742 -1.438,0 0,0"
             inkscape:connector-curvature="0" />
        </g>
        <g
           transform="matrix(1.25,0,0,-1.25,-403.67089,344.63578)"
           id="g3408">
          <path
             id="path3410"
             style="fill:#231f20;fill-opacity:1;fill-rule:nonzero;stroke:none"
             d="M 0,0 H 2.621 V -1.647 H 0 v -5.496 c 0,-1.159 0.603,-1.554 1.693,-1.554 0.301,0 0.626,0.046 0.858,0.139 h 0.07 v -1.646 c -0.278,-0.116 -0.673,-0.209 -1.206,-0.209 -2.39,0 -3.34,1.091 -3.34,3.084 v 5.682 H -3.688 V 0 h 1.763 V 2.712 H 0 V 0"
             inkscape:connector-curvature="0" />
        </g>
        <g
           transform="matrix(1.25,0,0,-1.25,-396.36464,349.76578)"
           id="g3412">
          <path
             id="path3414"
             style="fill:#231f20;fill-opacity:1;fill-rule:nonzero;stroke:none"
             d="M 0,0 H 5.08 C 5.011,1.507 4.268,2.666 2.691,2.666 1.23,2.666 0.278,1.576 0,0 Z m 3.039,-6.309 c -2.993,0 -5.034,1.995 -5.034,5.195 0,3.201 1.902,5.427 4.663,5.427 2.807,0 4.268,-2.018 4.268,-5.009 V -1.578 H -0.07 c 0.209,-2.064 1.532,-3.061 3.364,-3.061 1.137,0 1.948,0.255 2.853,0.928 h 0.07 V -5.405 C 5.382,-6.054 4.291,-6.309 3.039,-6.309"
             inkscape:connector-curvature="0" />
        </g>
        <g
           transform="matrix(1.25,0,0,-1.25,-382.44714,346.60703)"
           id="g3416">
          <path
             id="path3418"
             style="fill:#231f20;fill-opacity:1;fill-rule:nonzero;stroke:none"
             d="M 0,0 C 0.441,1.09 1.416,1.739 2.528,1.739 2.97,1.739 3.364,1.67 3.526,1.577 V -0.324 H 3.457 C 3.178,-0.186 2.714,-0.116 2.25,-0.116 1.207,-0.116 0.325,-0.811 0,-1.971 V -8.627 H -1.925 V 1.577 H 0 V 0"
             inkscape:connector-curvature="0" />
        </g>
        <g
           transform="matrix(1.25,0,0,-1.25,-370.26964,355.47703)"
           id="g3420">
          <path
             id="path3422"
             style="fill:#231f20;fill-opacity:1;fill-rule:nonzero;stroke:none"
             d="m 0,0 c 1.902,0 3.016,1.507 3.016,3.572 0,2.04 -1.114,3.57 -3.016,3.57 -1.044,0 -2.018,-0.626 -2.528,-1.622 V 1.599 C -2.018,0.603 -1.044,0 0,0 Z m 0.325,8.882 c 3.038,0 4.662,-2.482 4.662,-5.31 0,-2.831 -1.624,-5.312 -4.662,-5.312 -1.253,0 -2.32,0.649 -2.853,1.346 V -5.451 H -4.454 V 8.673 h 1.926 V 7.514 c 0.533,0.719 1.6,1.368 2.853,1.368"
             inkscape:connector-curvature="0" />
        </g>
        <g
           transform="matrix(1.25,0,0,-1.25,-358.78714,346.60703)"
           id="g3424">
          <path
             id="path3426"
             style="fill:#231f20;fill-opacity:1;fill-rule:nonzero;stroke:none"
             d="m 0,0 c 0.44,1.09 1.415,1.739 2.528,1.739 0.441,0 0.835,-0.069 0.997,-0.162 V -0.324 H 3.456 C 3.178,-0.186 2.714,-0.116 2.25,-0.116 1.206,-0.116 0.325,-0.811 0,-1.971 V -8.627 H -1.925 V 1.577 H 0 V 0"
             inkscape:connector-curvature="0" />
        </g>
        <g
           transform="matrix(1.25,0,0,-1.25,-350.90089,339.47578)"
           id="g3428">
          <path
             id="path3430"
             style="fill:#231f20;fill-opacity:1;fill-rule:nonzero;stroke:none"
             d="m 0,0 c 0.673,0 1.229,-0.533 1.229,-1.206 0,-0.673 -0.556,-1.206 -1.229,-1.206 -0.649,0 -1.23,0.533 -1.23,1.206 C -1.23,-0.533 -0.649,0 0,0"
             inkscape:connector-curvature="0" />
        </g>
        <path
           id="path3432"
           style="fill:#231f20;fill-opacity:1;fill-rule:nonzero;stroke:none"
           d="m -352.08964,357.39078 h 2.4075 v -12.755 h -2.4075 z"
           inkscape:connector-curvature="0" />
        <g
           transform="matrix(1.25,0,0,-1.25,-341.09964,349.94078)"
           id="g3434">
          <path
             id="path3436"
             style="fill:#231f20;fill-opacity:1;fill-rule:nonzero;stroke:none"
             d="m 0,0 c 1.461,-0.463 3.084,-1.066 3.084,-3.014 0,-2.088 -1.716,-3.155 -3.919,-3.155 -1.346,0 -2.691,0.325 -3.457,0.928 v 1.832 h 0.093 c 0.859,-0.788 2.134,-1.136 3.34,-1.136 1.09,0 2.065,0.418 2.065,1.299 0,0.904 -0.811,1.113 -2.413,1.646 -1.438,0.464 -3.038,0.998 -3.038,2.922 0,1.972 1.623,3.131 3.688,3.131 1.206,0 2.273,-0.255 3.131,-0.835 V 1.762 H 2.505 C 1.671,2.435 0.695,2.83 -0.511,2.83 -1.717,2.83 -2.39,2.296 -2.39,1.577 -2.39,0.765 -1.648,0.534 0,0"
             inkscape:connector-curvature="0" />
        </g>
        <g
           transform="matrix(1.25,0,0,-1.25,-332.66214,349.76578)"
           id="g3438">
          <path
             id="path3440"
             style="fill:#231f20;fill-opacity:1;fill-rule:nonzero;stroke:none"
             d="M 0,0 H 5.079 C 5.01,1.507 4.268,2.666 2.69,2.666 1.229,2.666 0.278,1.576 0,0 Z m 3.038,-6.309 c -2.992,0 -5.033,1.995 -5.033,5.195 0,3.201 1.902,5.427 4.662,5.427 2.808,0 4.268,-2.018 4.268,-5.009 V -1.578 H -0.07 c 0.209,-2.064 1.531,-3.061 3.363,-3.061 1.138,0 1.949,0.255 2.853,0.928 h 0.07 V -5.405 C 5.382,-6.054 4.291,-6.309 3.038,-6.309"
             inkscape:connector-curvature="0" />
        </g>
      </g>
    </g>
    <g
       id="g5212"
       transform="translate(27.781878,312.34289)">
      <g
         id="g6234"
         transform="matrix(0.78325228,0,0,0.78325228,272.67666,-73.10306)">
        <path
           d="m 523.89162,997.63665 9.6088,19.06295 9.85459,-19.06295 h 5.78332 l -13.34286,23.41715 v 16.6465 h -5.04765 v -16.6465 l -12.7522,-23.41715 m -9.16257,23.60415 -5.96798,-18.8141 -5.99081,18.8141 m 9.31884,-23.63355 13.55428,40.20125 h -5.62745 l -4.02296,-12.5068 h -14.31289 l -3.73013,12.5068 h -5.79165 l 13.50964,-40.20125 m -25.82115,30.96975 c 4.65734,-5.2495 4.2863,-17.2198 0.42587,-21.8198 -4.82581,-5.5021 -12.15951,-6.2521 -18.80189,-4.3043 l 0.10825,31.078 c -0.49236,1.0068 15.38228,0.446 18.26777,-4.9539 z m -23.85197,-30.53685 c 24.94495,-2.5965 31.95472,2.93345 32.88773,18.62575 0.36929,11.4131 -4.96846,19.0327 -16.92888,21.1426 -5.31962,0.5744 -10.63923,0.2663 -15.95885,0 v -39.76835 m -17.9516,0 v 4.73745 h -12.28646 v 35.0309 h -5.01386 v -35.0309 h -12.28646 v -4.73745 h 29.58678 m -57.63942,39.76835 h -5.95706 l 13.05592,-20.3851 -12.23684,-19.38325 h 6.18046 l 9.30792,15.21425 9.23346,-15.21425 h 5.88261 l -12.23681,19.38325 12.83252,20.3851 h -6.1308 l -9.82918,-16.3514 -10.1022,16.3514 m -32.23145,-39.76835 h 22.2144 v 4.87285 h -17.3991 v 12.074 h 15.76091 v 4.6022 h -15.76091 v 13.4817 h 17.77142 v 4.7376 h -22.58672 v -39.76835 m 12.7497,0 v 0 m -50.98737,0 h 5.83297 l 18.41728,32.21525 v -32.21525 h 4.69119 v 39.76835 h -5.53511 l -18.69031,-32.1884 v 32.1884 h -4.71602 v -39.76835 m 14.14805,0 v 0"
           id="nextday"
           style="font-style:normal;font-variant:normal;font-weight:normal;font-stretch:normal;font-size:145.81277466px;line-height:125%;font-family:Helvetica;-inkscape-font-specification:Helvetica;letter-spacing:0px;word-spacing:0px;fill:#000000;fill-opacity:1;stroke:#000000"
           inkscape:connector-curvature="0" />
        <path
           d="m 687.23829,996.75275 h 28.93959 c 3.61773,0 6.5302,2.9125 6.5302,6.53015 v 28.9396 c 0,3.6177 -2.91247,6.5302 -6.5302,6.5302 h -28.93959 c -3.61773,0 -6.5302,-2.9125 -6.5302,-6.5302 v -28.9396 c 0,-3.61765 2.91247,-6.53015 6.5302,-6.53015 z"
           id="osquare"
           style="fill:url(#radialGradient8619);fill-opacity:1;fill-rule:evenodd;stroke:none"
           inkscape:connector-curvature="0" />
        <path
           d="m 653.01828,1038.0444 c 0,0 0.0579,-0.058 0.0579,-0.058 0,0 0,0.058 0.11575,0.058 h 18.75235 c 1.67845,0 3.18327,-1.4469 3.18327,-3.1833 0,-1.7942 -1.50482,-3.2411 -3.18327,-3.2411 h -15.68483 v -10.6495 h 13.48548 c 1.73633,0 3.18327,-1.4469 3.18327,-3.2411 0,-1.6785 -1.44694,-3.1833 -3.18327,-3.1833 h -13.48548 v -10.5916 h 15.68483 c 1.67845,0 3.18327,-1.447 3.18327,-3.2412 0,-1.79415 -1.50482,-3.18315 -3.18327,-3.18315 h -18.75235 c -0.11575,0 -0.11575,0 -0.11575,0 0,0 -0.0579,0 -0.0579,0 -1.7942,0 -3.18327,1.389 -3.18327,3.18315 v 34.1478 c 0,1.7364 1.38907,3.1833 3.18327,3.1833 z m -34.20454,0 c 0,0 0,0 0,0 0,0 0,0 0,0 h 6.82956 c 11.17038,0 20.19929,-9.0868 20.19929,-20.315 0,-11.1125 -9.02891,-20.19925 -20.19929,-20.19925 h -6.82956 c 0,0 0,0 0,0 0,0 0,0 0,0 -1.7942,0 -3.18326,1.389 -3.18326,3.18315 v 34.1478 c 0,1.7364 1.38906,3.1833 3.18326,3.1833 z m 3.24115,-34.0899 h 3.58841 c 7.63985,0 13.77488,6.1929 13.77488,13.7749 0,7.6977 -6.13503,13.8327 -13.77488,13.8906 h -3.58841 z m -18.22363,30.9066 v 0 c 0,1.7942 1.38906,3.1833 3.18327,3.1833 v 0 c 1.73633,0 3.24114,-1.3891 3.24114,-3.1833 v -34.1478 0 c 0,-1.79415 -1.50481,-3.18315 -3.24114,-3.18315 v 0 c -1.79421,0 -3.18327,1.389 -3.18327,3.18315 z m -23.804,2.6045 c 0.17363,0.1158 0.40514,0.2894 0.5209,0.3473 0.0579,0 0.0579,0 0.0579,0 0,0 0.0579,0 0.0579,0.058 0.11575,0 0.34727,0.058 0.46302,0.1157 0.0579,0 0.11576,0 0.11576,0 0.17363,0.058 0.40514,0.058 0.57877,0.058 0.17364,0 0.34727,0 0.57878,-0.058 0.0579,0 0.11575,0 0.11575,0 0.17364,-0.058 0.28939,-0.1157 0.46303,-0.1157 0.0579,-0.058 0.0579,-0.058 0.11575,-0.058 0,0 0,0 0,0 0.17363,-0.058 0.34726,-0.2315 0.46302,-0.2894 0.11576,-0.058 0.11576,-0.058 0.11576,-0.058 0.11575,-0.1157 0.23151,-0.1736 0.34726,-0.2894 0.0579,-0.058 0.0579,-0.058 0.11576,-0.1736 0.0579,-0.1157 0.23151,-0.2315 0.28938,-0.3473 0.0579,0 0.0579,0 0.0579,-0.058 0.11576,-0.1158 0.17364,-0.3473 0.23151,-0.463 l 14.29577,-33.8006 c 0.63666,-1.5627 -0.11575,-3.47255 -1.73632,-4.10925 -1.5627,-0.6945 -3.47266,0.058 -4.16719,1.6785 l -11.28614,26.79725 -11.28613,-26.79725 c -0.69453,-1.6206 -2.54662,-2.373 -4.10931,-1.6785 -1.67845,0.6367 -2.43086,2.54655 -1.73633,4.10925 l 14.18001,33.8006 c 0.11576,0.1157 0.23151,0.3472 0.28939,0.463 0,0.058 0.0579,0.058 0.0579,0.058 0.0579,0.1158 0.17363,0.2316 0.28939,0.3473 0,0.1158 0.0579,0.1158 0.0579,0.1736 0.17363,0.1158 0.28938,0.1737 0.40514,0.2894 0.0579,0 0.0579,0 0.0579,0 z"
           id="vide"
           style="font-style:normal;font-variant:normal;font-weight:bold;font-stretch:normal;font-size:249.46218872px;line-height:125%;font-family:Quicksand;-inkscape-font-specification:'Quicksand Bold';text-align:start;letter-spacing:0px;word-spacing:0px;writing-mode:lr-tb;text-anchor:start;fill:url(#linearGradient8638);fill-opacity:1;stroke:none;stroke-width:1.28500414"
           inkscape:connector-curvature="0" />
        <path
           d="m 705.29958,1018.6383 -5.52,4.8683 v -9.7365 z"
           id="whitetriangle"
           style="fill:#ffffff;stroke:#ffffff;stroke-width:2.88631368;stroke-linecap:round;stroke-linejoin:round;stroke-miterlimit:4;stroke-dashoffset:0;stroke-opacity:1"
           inkscape:connector-curvature="0" />
        <path
           d="m 705.24933,1019.1024 -5.41948,4.7795 v -9.5591 z"
           id="greytriangle"
           style="fill:#2f2f36;fill-opacity:1;stroke:#2f2f36;stroke-width:2.83375216;stroke-linecap:round;stroke-linejoin:round;stroke-miterlimit:4;stroke-dashoffset:0;stroke-opacity:1"
           inkscape:connector-curvature="0" />
        <path
           d="m 701.93656,1002.3946 c -8.08934,-0.1711 -14.76739,6.1919 -14.92837,14.7906 -0.16098,8.5988 5.99075,15.7578 14.08008,15.929 l 0.029,-4.8868 c -5.53589,-0.1171 -9.49205,-5.0562 -9.38189,-10.9407 0.11017,-5.8845 4.63628,-10.1805 10.17217,-10.0634 5.5359,0.1171 9.88358,4.5994 9.77341,10.484 -0.0518,2.7668 -1.11997,5.3961 -2.97263,7.3372 l -0.84103,-0.812 c -0.0995,-0.098 -0.24536,-0.148 -0.38427,-0.1305 -0.22302,0.028 -0.40776,0.2393 -0.40601,0.464 v 4.952 c 2e-5,0.243 0.22106,0.464 0.46402,0.464 h 5.12596 c 0.18408,0 0.36531,-0.1196 0.43502,-0.29 0.0697,-0.1704 0.0235,-0.3795 -0.10876,-0.5075 l -0.78303,-0.7613 c 2.61758,-2.8397 4.12333,-6.6297 4.19793,-10.6144 0.16098,-8.5988 -6.38227,-15.2431 -14.4716,-15.4142 z"
           id="circlearrow"
           style="color:#000000;font-style:normal;font-variant:normal;font-weight:normal;font-stretch:normal;font-size:xx-small;line-height:normal;font-family:Sans;-inkscape-font-specification:Sans;text-indent:0;text-align:start;text-decoration:none;text-decoration-line:none;letter-spacing:normal;word-spacing:normal;text-transform:none;writing-mode:lr-tb;direction:ltr;baseline-shift:baseline;text-anchor:start;display:inline;overflow:visible;visibility:visible;fill:#ffffff;fill-opacity:1;stroke:none;stroke-width:26.75562668;marker:none;enable-background:accumulate"
           inkscape:connector-curvature="0" />
      </g>
      <g
         id="g5149"
         transform="matrix(0.18361617,0,0,0.18361617,987.99095,620.155)">
        <g
           id="g4335"
           style="display:inline"
           transform="matrix(3.2915211,0,0,3.286815,-22.711392,-770.64957)">
          <g
             id="g4310"
             transform="matrix(1.1662561,0,0,1.1667232,-220.72327,146.75111)">
            <g
               id="g4278"
               style="opacity:1"
               transform="translate(233.67788,-78.019939)">
              <ellipse
                 cx="80.748848"
                 cy="306.00778"
                 id="ellipse4264"
                 rx="12.903931"
                 ry="12.128755"
                 style="opacity:1;fill:#ffffff;fill-opacity:1;fill-rule:evenodd;stroke:#ffffff;stroke-width:0.9850781;stroke-linecap:round;stroke-linejoin:round;stroke-miterlimit:4;stroke-dasharray:none;stroke-dashoffset:0;stroke-opacity:1" />
              <path
                 d="m 82.504889,335.14938 c -6.12263,-0.70351 -11.36956,-2.19307 -15.16945,-4.30645 -1.06715,-0.59352 -3.173,-2.30154 -4.67966,-3.7956 -4.38128,-4.34464 -6.40029,-9.42627 -6.36516,-16.02045 0.0348,-6.53049 1.89772,-11.13485 6.28232,-15.52723 4.17548,-4.18288 8.41027,-6.14969 14.76158,-6.85588 3.78012,-0.4203 9.44047,0.0418 12.64665,1.03246 4.37205,1.35088 8.81132,4.72902 10.647221,8.10218 1.80375,3.31408 2.44804,7.98857 1.60519,11.64605 -0.44959,1.95095 -1.7805,4.63813 -3.159561,6.37934 -1.52161,1.92119 -5.43252,4.45458 -8.45574,5.47741 -5.54538,1.87613 -13.43312,1.92579 -18.79844,0.11835 -2.05818,-0.69335 -2.18114,-0.69819 -2.61648,-0.10283 -2.40187,3.28474 5.77129,10.31953 15.33,13.1948 1.4067,0.42314 2.55764,0.83326 2.55764,0.91137 0,0.19023 -1.39561,0.11308 -4.58611,-0.25352 z m -3.290217,-40.28543 h -6.51875 c 0.0403,6.32038 -0.009,14.58173 0.0442,20.90204 h 6.47455 z m 8.941104,20.90204 -0.009,-20.85051 h -6.398397 v 20.85051 h 6.407757 z"
                 id="path4254"
                 style="opacity:1;fill:#c90000;fill-opacity:1;stroke:#c90000;stroke-width:0.9850781;stroke-linejoin:round;stroke-miterlimit:4;stroke-dasharray:none;stroke-opacity:1"
                 inkscape:connector-curvature="0" />
            </g>
            <g
               id="g4282"
               style="opacity:1"
               transform="translate(150.57215,-102.54307)">
              <ellipse
                 cx="199.59163"
                 cy="303.83374"
                 id="path4262"
                 rx="12.371213"
                 ry="10.886379"
                 style="opacity:1;fill:#ffffff;fill-opacity:1;fill-rule:evenodd;stroke:#ffffff;stroke-width:0.9850781;stroke-linecap:round;stroke-linejoin:round;stroke-miterlimit:4;stroke-dasharray:none;stroke-dashoffset:0;stroke-opacity:1" />
              <path
                 d="m 193.42201,332.56125 c 5.48539,-1.77126 10.73581,-4.76822 13.38103,-7.63794 1.5896,-1.72451 2.14119,-2.85161 2.14119,-4.37524 0,-1.59172 -0.66689,-1.86507 -2.68208,-1.09936 -4.10479,1.5597 -12.38271,1.82915 -17.24987,0.56148 -3.45466,-0.89978 -7.07007,-2.86841 -9.30841,-5.06856 -6.15843,-6.05333 -6.07222,-16.41343 0.18743,-22.5248 3.79201,-3.70219 9.8151,-5.75566 16.8821,-5.75566 8.34507,0 14.55084,2.49237 19.31555,7.75755 3.69342,4.08137 5.35406,8.75375 5.33003,14.99662 -0.0261,6.77491 -1.8997,11.46219 -6.36773,15.93022 -4.24959,4.24958 -10.77254,6.90955 -19.26672,7.85671 -5.24668,0.58504 -5.7427,0.45046 -2.36252,-0.64102 z m 18.36319,-27.73202 -21.31902,-9.87376 v 19.45164 z"
                 id="path4256"
                 style="opacity:1;fill:#004b7d;fill-opacity:1;stroke:#004b7d;stroke-width:0.9850781;stroke-opacity:1"
                 inkscape:connector-curvature="0" />
            </g>
            <g
               id="g4286"
               style="opacity:1"
               transform="translate(150.41853,-102.68395)">
              <path
                 d="m 234.41607,315.91291 v -21.64473 l 9.74537,-4.64762 -0.0439,31.98878 z"
                 id="path4260"
                 style="opacity:1;fill:#004b7d;fill-opacity:1"
                 inkscape:connector-curvature="0" />
              <path
                 d="m 224.40346,309.85098 v -11.28046 l 7.40833,-3.30107 -0.27601,18.50356 z"
                 id="path4258"
                 style="opacity:1;fill:#c80000;fill-opacity:1"
                 inkscape:connector-curvature="0" />
            </g>
          </g>
          <g
             id="g4243"
             transform="matrix(1.9183719,0,0,1.9444937,66.963918,-545.2654)">
            <g
               id="text4230"
               style="font-style:normal;font-variant:normal;font-weight:normal;font-stretch:normal;font-size:37.83368301px;line-height:125%;font-family:'Droid Sans';-inkscape-font-specification:'Droid Sans';text-align:start;letter-spacing:0px;word-spacing:0px;text-anchor:start;opacity:1;fill:#c90000;fill-opacity:1;stroke:#c90000;stroke-width:0.59495193;stroke-linecap:round;stroke-linejoin:round;stroke-opacity:1"
               transform="matrix(0.99495965,0,0,1.0050659,0.03026856,0.47530371)">
              <path
                 d="m 113.62287,499.52768 c -2.01901,0.51781 -3.83662,0.53221 -5.61992,0 v -22.76857 h -7.4442 c -0.48713,-1.54951 -0.683831,-3.10368 0,-4.76616 h 20.40145 c 0.63585,1.78115 0.51218,3.32504 0,4.76616 h -7.33733 z"
                 id="path4237"
                 style="font-weight:bold;fill:#c90000;fill-opacity:1;stroke:#c90000;stroke-width:0.59495193;stroke-linecap:round;stroke-linejoin:round;stroke-opacity:1"
                 inkscape:connector-curvature="0" />
              <path
                 d="m 123.58738,473.52493 c 0,-0.52957 -0.0824,-1.03108 0.0778,-1.37592 0.16011,-0.35715 0.37563,-0.64041 0.64657,-0.84978 0.28326,-0.22168 0.60963,-0.37563 0.9791,-0.46184 0.38179,-0.0862 0.74956,-0.065 1.16829,-0.065 0.41873,0 0.84532,-0.0212 1.21479,0.065 0.36947,0.0862 0.68967,0.24016 0.96062,0.46184 0.28326,0.20937 0.50494,0.49263 0.66504,0.84978 0.17242,0.34484 0.0963,0.7499 0.0963,1.27947 0,0.51725 0.0762,0.98661 -0.0963,1.34376 -0.1601,0.35715 -0.38178,0.64657 -0.66504,0.86826 -0.64656,0.46671 -1.48504,0.42755 -2.20788,0.4304 -0.7931,-0.009 -1.51105,0.009 -2.11492,-0.4304 -0.27094,-0.22169 -0.48646,-0.51111 -0.64657,-0.86826 -0.1601,-0.35715 -0.0778,-0.73006 -0.0778,-1.24731 z m 5.71218,26.24938 c -1.93473,0.28013 -3.8175,0.30305 -5.63441,0 v -20.4926 c 1.77764,-0.3482 3.6846,-0.24834 5.63441,0 z"
                 id="path4239"
                 style="font-weight:bold;fill:#c90000;fill-opacity:1;stroke:#c90000;stroke-width:0.59495193;stroke-linecap:round;stroke-linejoin:round;stroke-opacity:1"
                 inkscape:connector-curvature="0" />
              <path
                 d="m 152.2644,499.7426 c -1.92523,0.3729 -3.55609,0.31181 -5.39485,0 v -12.06318 c 0,-1.49019 -0.22168,-2.60476 -0.66504,-3.3437 -0.44337,-0.75125 -1.67106,-1.12688 -2.61936,-1.12688 -0.76706,-0.12301 -3.30069,1.03662 -3.52843,3.8979 -0.12316,0.84978 -0.18474,1.82272 -0.18474,2.91881 v 9.71705 c -1.87814,0.27401 -3.75628,0.32503 -5.63441,0 v -20.65335 h 4.30432 l 0.62752,2.86676 0.37899,-0.1286 c 0.29558,-0.52957 0.71152,-1.0817 1.11794,-1.46349 0.41873,-0.38179 0.87441,-0.69584 1.36704,-0.94215 0.49262,-0.24631 1.01604,-0.42489 1.57025,-0.53573 0.5542,-0.12315 1.11456,-0.18473 1.68108,-0.18473 1.4163,0 2.61707,0.24631 3.60233,0.73894 0.99756,0.48031 1.76113,1.24388 2.29071,2.29071 h 0.46184 c 0.29557,-0.52957 0.65272,-0.98525 1.07146,-1.36704 0.41873,-0.38179 0.88057,-0.69584 1.38551,-0.94215 0.50494,-0.24631 1.03451,-0.42489 1.58872,-0.53573 0.56652,-0.12315 2.00188,-0.18473 2.5684,-0.18473 2.21682,0 3.88559,0.60347 5.00631,1.8104 1.13304,1.19461 1.69956,3.11585 1.69956,5.76372 v 13.46717 c -1.93303,0.33768 -3.80616,0.26032 -5.65288,0 v -12.06318 c 0,-1.49019 -0.22169,-2.60476 -0.66505,-3.3437 -0.57098,-1.39243 -2.50218,-1.05365 -3.33576,-0.72306 -2.1529,0.85381 -3.20917,2.33851 -3.04146,5.76632 z"
                 id="path4241"
                 style="font-weight:bold;fill:#c90000;fill-opacity:1;stroke:#c90000;stroke-width:0.59495193;stroke-linecap:round;stroke-linejoin:round;stroke-opacity:1"
                 inkscape:connector-curvature="0" />
            </g>
            <g
               aria-label="Videos"
               transform="scale(0.98280784,1.0174929)"
               style="font-style:normal;font-variant:normal;font-weight:normal;font-stretch:normal;font-size:39.58366776px;line-height:125%;font-family:'Droid Sans';-inkscape-font-specification:'Droid Sans';text-align:start;letter-spacing:0px;word-spacing:0px;text-anchor:start;opacity:1;fill:#004b7e;fill-opacity:1;stroke:#004b7e;stroke-width:0.59495193;stroke-linecap:butt;stroke-linejoin:round;stroke-miterlimit:4;stroke-dasharray:none;stroke-opacity:1"
               id="text4773">
              <path
                 d="m 185.45405,493.92319 -10.52269,-27.16946 h 3.88944 l 7.05755,19.74418 q 0.89103,2.50338 1.42848,4.44102 0.57988,-2.0225 1.47092,-4.44102 l 7.34042,-19.74418 h 3.66314 l -10.63584,27.16946 z"
                 style="font-style:normal;font-variant:normal;font-weight:bold;font-stretch:normal;font-size:57.93133926px;font-family:'Cordia New';-inkscape-font-specification:'Cordia New Bold';fill:#004b7e;fill-opacity:1;stroke:#004b7e;stroke-width:0.59495193;stroke-linejoin:round;stroke-miterlimit:4;stroke-dasharray:none;stroke-opacity:1"
                 id="path4544"
                 inkscape:connector-curvature="0" />
              <path
                 d="m 202.28433,470.58659 v -3.83286 h 3.33784 v 3.83286 z m 0,23.3366 v -19.68761 h 3.33784 v 19.68761 z"
                 style="font-style:normal;font-variant:normal;font-weight:bold;font-stretch:normal;font-size:57.93133926px;font-family:'Cordia New';-inkscape-font-specification:'Cordia New Bold';fill:#004b7e;fill-opacity:1;stroke:#004b7e;stroke-width:0.59495193;stroke-linejoin:round;stroke-miterlimit:4;stroke-dasharray:none;stroke-opacity:1"
                 id="path4546"
                 inkscape:connector-curvature="0" />
              <path
                 d="m 223.47113,493.92319 v -2.48924 q -1.88107,2.92768 -5.50178,2.92768 -3.96015,0 -6.22309,-2.92768 -2.2488,-2.94183 -2.2488,-7.32628 0,-5.11991 2.39024,-7.70815 2.39023,-2.60238 5.92608,-2.60238 3.47927,0 5.43106,2.70139 v -9.7448 h 3.3237 v 27.16946 z m -10.55097,-9.81552 q 0,3.30956 1.41434,5.41692 1.41434,2.10737 3.94601,2.10737 2.58824,0 3.91772,-2.06494 1.32948,-2.06493 1.32948,-5.19062 0,-3.55 -1.38605,-5.68565 -1.38606,-2.13565 -4.01673,-2.13565 -5.20477,0 -5.20477,7.55257 z"
                 style="font-style:normal;font-variant:normal;font-weight:bold;font-stretch:normal;font-size:57.93133926px;font-family:'Cordia New';-inkscape-font-specification:'Cordia New Bold';fill:#004b7e;fill-opacity:1;stroke:#004b7e;stroke-width:0.59495193;stroke-linejoin:round;stroke-miterlimit:4;stroke-dasharray:none;stroke-opacity:1"
                 id="path4548"
                 inkscape:connector-curvature="0" />
              <path
                 d="m 245.29439,487.58695 3.43684,0.4243 q -1.71135,6.35038 -8.65575,6.35038 -2.64482,0 -4.69561,-1.01832 -2.05079,-1.03247 -3.36613,-3.29541 -1.31533,-2.27709 -1.31533,-5.79879 0,-3.01255 1.01832,-5.34621 1.01833,-2.33366 3.08326,-3.71971 2.07908,-1.38605 5.09162,-1.38605 3.16812,0 5.20477,1.55577 2.05079,1.54163 2.88525,3.79043 0.84861,2.23466 0.84861,5.78465 H 234.1494 q 0.18386,3.11155 1.76792,4.90776 1.58406,1.79621 4.18644,1.79621 3.73386,0 5.19063,-4.04501 z m -10.96113,-5.38864 h 10.98942 q -0.2263,-2.82867 -1.7255,-4.24301 -1.4992,-1.41434 -3.66314,-1.41434 -2.36194,0 -3.90357,1.56991 -1.54163,1.55578 -1.69721,4.08744 z"
                 style="font-style:normal;font-variant:normal;font-weight:bold;font-stretch:normal;font-size:57.93133926px;font-family:'Cordia New';-inkscape-font-specification:'Cordia New Bold';fill:#004b7e;fill-opacity:1;stroke:#004b7e;stroke-width:0.59495193;stroke-linejoin:round;stroke-miterlimit:4;stroke-dasharray:none;stroke-opacity:1"
                 id="path4550"
                 inkscape:connector-curvature="0" />
              <path
                 d="m 251.68721,484.07939 q 0,-5.53007 2.81453,-7.90616 2.82868,-2.37609 6.4211,-2.37609 4.21473,0 6.70397,2.74382 2.50338,2.72967 2.50338,7.2697 0,5.41692 -2.65896,7.99102 -2.65896,2.55995 -6.54839,2.55995 -4.80875,0 -7.02926,-3.01254 -2.20637,-3.01254 -2.20637,-7.2697 z m 3.43684,0 q 0,3.46513 1.4992,5.51592 1.51334,2.03665 4.29959,2.03665 2.91354,0 4.34202,-2.16394 1.42849,-2.17808 1.42849,-5.50178 0,-2.97011 -1.38606,-5.19063 -1.38605,-2.22051 -4.38445,-2.22051 -2.92768,0 -4.37031,2.13565 -1.42848,2.13565 -1.42848,5.38864 z"
                 style="font-style:normal;font-variant:normal;font-weight:bold;font-stretch:normal;font-size:57.93133926px;font-family:'Cordia New';-inkscape-font-specification:'Cordia New Bold';fill:#004b7e;fill-opacity:1;stroke:#004b7e;stroke-width:0.59495193;stroke-linejoin:round;stroke-miterlimit:4;stroke-dasharray:none;stroke-opacity:1"
                 id="path4552"
                 inkscape:connector-curvature="0" />
              <path
                 d="m 272.71843,488.05368 3.29542,-0.52331 q 0.56573,4.10159 5.09162,4.10159 4.52588,0 4.52588,-3.13984 0,-1.10318 -0.82031,-1.65477 -0.80618,-0.5516 -3.57828,-1.25876 -3.02669,-0.76375 -4.48346,-1.3012 -1.44262,-0.53745 -2.46095,-1.79621 -1.01832,-1.25876 -1.01832,-3.01254 0,-2.48924 1.95179,-4.0733 1.95178,-1.5982 5.28962,-1.5982 7.04341,0 7.80716,5.51592 l -3.26713,0.45259 q -0.46673,-3.22469 -4.29959,-3.22469 -4.25716,0 -4.25716,2.53166 0,1.03247 0.73546,1.55578 0.7496,0.50916 3.88943,1.35776 3.45099,0.94761 4.69561,1.42849 1.25876,0.48087 2.2488,1.73963 0.99003,1.24462 0.99003,2.98426 0,2.84282 -2.22051,4.54003 -2.22051,1.68306 -5.71393,1.68306 -7.28385,0 -8.40118,-6.30795 z"
                 style="font-style:normal;font-variant:normal;font-weight:bold;font-stretch:normal;font-size:57.93133926px;font-family:'Cordia New';-inkscape-font-specification:'Cordia New Bold';fill:#004b7e;fill-opacity:1;stroke:#004b7e;stroke-width:0.59495193;stroke-linejoin:round;stroke-miterlimit:4;stroke-dasharray:none;stroke-opacity:1"
                 id="path4554"
                 inkscape:connector-curvature="0" />
            </g>
          </g>
        </g>
      </g>
    </g>
    <g
       transform="matrix(0.77413858,0,0,0.77413858,1164.4259,335.01664)"
       id="layer1"
       inkscape:label="Layer 1">
      <g
         id="text2985"
         style="font-style:normal;font-variant:normal;font-weight:normal;font-stretch:normal;font-size:127.08488464px;line-height:125%;font-family:Fonarto;-inkscape-font-specification:Fonarto;letter-spacing:0px;word-spacing:0px;fill:#0000ff;fill-opacity:1;stroke:none">
        <path
           inkscape:connector-curvature="0"
           id="path2990"
           style="font-size:228.75279236px;letter-spacing:-9.97999954px;fill:#00002d;fill-opacity:1"
           d="m 240.94199,554.25826 c -1.52516,-4.72745 -4.2702,-9.07374 -8.2351,-13.0389 -3.81268,-3.96493 -8.46398,-7.31997 -13.95392,-10.06513 -5.49019,-2.7449 -11.51401,-4.80367 -18.07147,-6.17632 -6.40518,-1.37239 -12.96275,-1.82989 -19.67274,-1.37252 -6.55766,0.45764 -12.96273,1.98266 -19.21523,4.57506 -6.25264,2.44015 -11.89521,6.10019 -16.92771,10.98013 -5.64262,5.49018 -9.76016,11.59025 -12.35265,18.30022 -2.44007,6.71018 -3.58383,13.49651 -3.43129,20.359 0.15246,6.86266 1.52498,13.57273 4.11755,20.13025 2.74499,6.40513 6.55753,12.12394 11.43764,17.15646 5.0325,5.0326 10.98007,9.07389 17.84272,12.1239 7.015,3.05006 14.86884,4.57508 23.56153,4.57505 10.37002,3e-5 19.21512,-2.21125 26.53533,-6.63383 7.31996,-4.42252 12.42876,-11.28509 15.32643,-20.58775 h -42.31926 c -3.96514,5e-5 -7.47268,-0.83871 -10.52263,-2.51628 -3.05012,-1.67747 -5.5664,-3.81249 -7.54884,-6.40508 -1.8301,-2.74497 -3.20262,-5.795 -4.11755,-9.15011 -0.91509,-3.35497 -1.22009,-6.78626 -0.91501,-10.29388 h 99.27871 c 1.21984,13.87774 -0.30518,26.15413 -4.57506,36.8292 -4.27021,10.52266 -10.29403,19.36776 -18.07147,26.53533 -7.62523,7.16759 -16.47033,12.58141 -26.53532,16.24144 -10.06524,3.66005 -20.2066,5.41382 -30.42412,5.26132 -7.01518,-0.15251 -14.03025,-1.14377 -21.04526,-2.97379 -6.86265,-1.67752 -13.49647,-4.1938 -19.90149,-7.54884 -6.25263,-3.50753 -12.12394,-7.85383 -17.61397,-13.03891 -5.33759,-5.18504 -9.91264,-11.20885 -13.72517,-18.07147 -4.57507,-7.93005 -7.7776,-16.08889 -9.60761,-24.47655 -1.677533,-8.54003 -2.211289,-16.92763 -1.601273,-25.16281 0.762499,-8.235 2.668773,-16.16509 5.718823,-23.79029 3.05002,-7.62497 7.09131,-14.64005 12.12389,-21.04525 7.32006,-9.30247 16.69891,-16.77506 28.1366,-22.41778 11.43757,-5.79491 24.55272,-8.69244 39.34548,-8.6926 10.98003,1.6e-4 21.35014,1.60143 31.11038,4.80381 9.91248,3.05019 17.91882,7.32024 24.01904,12.81015 6.25242,5.49021 9.83621,11.89528 10.75138,19.21524 0.91485,7.32021 -2.05893,15.17404 -8.92136,23.56153" />
        <path
           inkscape:connector-curvature="0"
           id="path2992"
           style="font-size:228.75279236px;letter-spacing:-9.97999954px;fill:#00002d;fill-opacity:1"
           d="m 353.77366,611.44646 c -8.23519,2.13507 -15.78402,2.89758 -22.64653,2.28753 -6.71015,-0.60996 -12.27646,-2.21123 -16.69895,-4.80381 -4.2701,-2.74498 -7.16764,-6.32877 -8.69261,-10.75138 -1.37256,-4.57499 -0.91505,-9.6838 1.37252,-15.32644 4.7275,3.96512 10.21757,6.1764 16.4702,6.63383 6.25251,0.30508 12.27632,0.15257 18.07147,-0.4575 4.87997,-0.45744 8.54001,-1.52495 10.98013,-3.20254 2.59244,-1.67745 4.19371,-3.58372 4.80381,-5.71882 0.60991,-2.28745 0.38116,-4.65122 -0.68626,-7.09134 -1.0676,-2.43994 -2.82137,-4.65121 -5.26131,-6.63383 -2.28762,-1.98243 -5.18515,-3.5837 -8.69261,-4.80381 -3.35512,-1.21991 -7.09141,-1.75367 -11.20888,-1.60127 -4.42262,0.30511 -8.61642,1.37262 -12.58141,3.20254 -3.9651,1.83012 -7.47264,4.3464 -10.52263,7.54885 -3.05008,3.20262 -5.49011,6.93891 -7.32009,11.20888 -1.83006,4.27013 -2.82132,8.99768 -2.97378,14.18268 -0.15254,4.2701 0.30496,8.4639 1.37251,12.5814 1.21998,4.11759 2.97375,7.93014 5.26132,11.43764 2.28748,3.35507 5.03251,6.25261 8.2351,8.69261 3.20248,2.28755 6.86252,3.73632 10.98013,4.3463 5.79501,1.06753 11.74257,0.68628 17.84272,-1.14377 6.09999,-1.82999 11.5138,-5.18503 16.24145,-10.06512 l 24.01904,11.66639 c -6.25269,9.30263 -13.64902,16.01271 -22.18902,20.13025 -8.54019,3.96505 -18.3003,5.94757 -29.28036,5.94757 -10.21768,0 -19.21528,-1.75377 -26.99283,-5.26131 -7.62512,-3.66004 -14.03019,-8.46384 -19.21523,-14.41143 -5.03258,-5.94755 -8.84512,-12.65762 -11.43764,-20.13024 -2.44004,-7.62505 -3.5838,-15.32639 -3.43129,-23.10404 0.15249,-7.93002 1.67751,-15.63136 4.57505,-23.10403 2.89752,-7.625 7.09132,-14.33507 12.58141,-20.13024 6.10004,-6.55747 13.19137,-11.20878 21.27401,-13.95392 8.23504,-2.74492 16.62264,-4.11743 25.1628,-4.11755 9.45504,1.2e-4 17.61388,1.60139 24.47655,4.8038 6.86248,3.20266 12.4288,7.3202 16.69896,12.35266 4.26993,4.88015 7.09121,10.37022 8.46385,16.4702 1.37239,5.94765 1.21989,11.74272 -0.4575,17.38521 -1.52514,5.64263 -4.65143,10.75144 -9.37887,15.32644 -4.72766,4.4226 -11.13274,7.62514 -19.21523,9.60761" />
        <path
           inkscape:connector-curvature="0"
           id="path2994"
           style="font-size:228.75279236px;letter-spacing:-9.97999954px;fill:#00002d;fill-opacity:1"
           d="m 474.25423,611.44646 c -8.23518,2.13507 -15.78402,2.89758 -22.64652,2.28753 -6.71015,-0.60996 -12.27646,-2.21123 -16.69896,-4.80381 -4.2701,-2.74498 -7.16763,-6.32877 -8.6926,-10.75138 -1.37256,-4.57499 -0.91506,-9.6838 1.37251,-15.32644 4.72751,3.96512 10.21757,6.1764 16.4702,6.63383 6.25251,0.30508 12.27633,0.15257 18.07147,-0.4575 4.87998,-0.45744 8.54002,-1.52495 10.98014,-3.20254 2.59244,-1.67745 4.1937,-3.58372 4.80381,-5.71882 0.60991,-2.28745 0.38115,-4.65122 -0.68626,-7.09134 -1.06761,-2.43994 -2.82138,-4.65121 -5.26132,-6.63383 -2.28761,-1.98243 -5.18514,-3.5837 -8.6926,-4.80381 -3.35512,-1.21991 -7.09141,-1.75367 -11.20889,-1.60127 -4.42262,0.30511 -8.61642,1.37262 -12.5814,3.20254 -3.9651,1.83012 -7.47264,4.3464 -10.52263,7.54885 -3.05008,3.20262 -5.49011,6.93891 -7.32009,11.20888 -1.83006,4.27013 -2.82132,8.99768 -2.97379,14.18268 -0.15254,4.2701 0.30497,8.4639 1.37252,12.5814 1.21998,4.11759 2.97375,7.93014 5.26131,11.43764 2.28749,3.35507 5.03252,6.25261 8.2351,8.69261 3.20249,2.28755 6.86253,3.73632 10.98014,4.3463 5.795,1.06753 11.74257,0.68628 17.84272,-1.14377 6.09998,-1.82999 11.5138,-5.18503 16.24144,-10.06512 l 24.01905,11.66639 c -6.25269,9.30263 -13.64903,16.01271 -22.18902,20.13025 -8.5402,3.96505 -18.30031,5.94757 -29.28036,5.94757 -10.21768,0 -19.21528,-1.75377 -26.99283,-5.26131 -7.62513,-3.66004 -14.0302,-8.46384 -19.21523,-14.41143 -5.03258,-5.94755 -8.84513,-12.65762 -11.43764,-20.13024 -2.44004,-7.62505 -3.58381,-15.32639 -3.4313,-23.10404 0.1525,-7.93002 1.67751,-15.63136 4.57506,-23.10403 2.89752,-7.625 7.09132,-14.33507 12.5814,-20.13024 6.10005,-6.55747 13.19138,-11.20878 21.27401,-13.95392 8.23505,-2.74492 16.62264,-4.11743 25.16281,-4.11755 9.45503,1.2e-4 17.61388,1.60139 24.47655,4.8038 6.86248,3.20266 12.42879,7.3202 16.69895,12.35266 4.26994,4.88015 7.09122,10.37022 8.46386,16.4702 1.37239,5.94765 1.21989,11.74272 -0.45751,17.38521 -1.52514,5.64263 -4.65142,10.75144 -9.37886,15.32644 -4.72767,4.4226 -11.13274,7.62514 -19.21524,9.60761" />
        <path
           inkscape:connector-curvature="0"
           id="path2996"
           style="font-size:228.75279236px;letter-spacing:-9.97999954px;fill:#00002d;fill-opacity:1"
           d="M 542.80791,497.07007 V 657.19702 H 513.98506 V 520.40285 c -2e-5,-7.31994 2.59251,-13.03876 7.77759,-17.15646 5.18504,-4.26989 12.20012,-6.32866 21.04526,-6.17632" />
        <path
           inkscape:connector-curvature="0"
           id="path2998"
           style="font-size:228.75279236px;letter-spacing:-9.97999954px;fill:#00002d;fill-opacity:1"
           d="m 613.24881,535.95804 c 12.04757,1.2e-4 22.72268,2.89766 32.02539,8.69261 9.455,5.79518 16.85134,13.19151 22.18902,22.18902 5.33744,8.99769 8.15872,18.98655 8.46385,29.96661 0.45738,10.98019 -2.28765,21.73156 -8.2351,32.25415 -5.03268,8.69262 -11.59025,15.63145 -19.67274,20.8165 -8.08269,5.18507 -16.69904,8.3876 -25.84906,9.60762 -9.15018,1.37251 -18.37654,0.61 -27.67909,-2.28753 -9.15015,-2.74503 -17.38524,-7.77759 -24.7053,-15.09768 -8.23512,-8.38758 -13.72518,-18.07144 -16.4702,-29.05161 -2.74504,-10.98008 -2.51629,-21.9602 0.68626,-32.9404 1.3725,-4.42247 3.58378,-8.08251 6.63383,-10.98013 3.20252,-2.89745 6.78631,-5.03247 10.75138,-6.40508 3.96502,-1.37242 8.08256,-1.98243 12.35265,-1.83002 4.27001,0.15259 8.23505,1.0676 11.89514,2.74503 3.65999,1.52511 6.71003,3.81264 9.15012,6.86258 2.59246,2.89762 4.11748,6.48141 4.57505,10.75138 -2.28759,-1.67744 -5.03262,-2.5162 -8.2351,-2.51628 -3.20259,-0.15242 -6.32888,0.53384 -9.37886,2.05878 -2.89758,1.37259 -5.41386,3.58387 -7.54885,6.63383 -1.98256,2.8976 -2.97382,6.55764 -2.97378,10.98013 -4e-5,7.62515 1.60123,13.95397 4.80381,18.98649 3.20249,5.03259 7.16754,8.84513 11.89514,11.43764 4.88,2.44005 10.06506,3.66006 15.55519,3.66004 5.6425,2e-5 10.82755,-1.29624 15.55519,-3.8888 4.87997,-2.5925 8.92127,-6.40504 12.1239,-11.43764 3.20244,-5.18502 4.80371,-11.59009 4.80381,-19.21523 -10e-5,-5.94751 -1.06762,-11.20882 -3.20254,-15.78394 -2.13512,-4.57498 -5.03266,-8.31127 -8.69261,-11.20889 -3.50763,-3.04995 -7.62517,-5.10872 -12.35265,-6.17633 -4.72763,-1.21992 -9.76018,-1.29617 -15.09768,-0.22875 -2.28759,-2.74494 -5.10887,-4.87996 -8.46386,-6.40508 -3.20258,-1.67742 -6.71012,-2.74493 -10.52262,-3.20254 -3.81259,-0.6099 -7.62513,-0.53365 -11.43764,0.22876 -3.81258,0.6101 -7.39637,1.90637 -10.75138,3.88879 6.10004,-7.31998 13.19137,-12.96254 21.27401,-16.9277 8.08254,-4.11743 16.92764,-6.17621 26.53532,-6.17633" />
        <path
           inkscape:connector-curvature="0"
           id="path3000"
           style="font-size:228.75279236px;letter-spacing:-9.97999954px;fill:#00002d;fill-opacity:1"
           d="m 713.86364,552.42824 c 1.21998,-2.74492 3.05,-5.1087 5.49007,-7.09133 2.59248,-1.98241 5.41376,-3.65993 8.46385,-5.03257 3.04998,-1.37239 6.17627,-2.43991 9.37887,-3.20253 3.20247,-0.76239 6.17625,-1.2199 8.92136,-1.37252 5.79499,-0.30488 11.5138,0.53388 17.15646,2.51628 5.64247,1.83014 10.82753,5.10893 15.55519,9.83637 6.86247,7.16769 10.29376,17.46155 10.29387,30.88163 v 78.23345 h -29.28036 c -8e-5,-2.59253 -8e-5,-6.10007 0,-10.52263 0.15242,-4.42254 0.22867,-9.22634 0.22876,-14.41142 -9e-5,-5.33754 -9e-5,-10.8276 0,-16.4702 -9e-5,-5.64253 -0.0763,-10.98009 -0.22876,-16.0127 -0.15258,-5.0325 -0.38134,-9.5313 -0.68625,-13.49641 -0.30509,-3.96498 -0.68635,-6.86251 -1.14377,-8.69261 -1.2201,-4.87998 -3.58387,-8.54002 -7.09133,-10.98013 -3.35512,-2.43994 -7.01516,-3.65995 -10.98014,-3.66005 -5.18512,10e-5 -9.22642,1.44886 -12.1239,4.3463 -2.89758,2.74512 -4.34635,6.40517 -4.3463,10.98014 -1.83007,-0.60993 -3.66009,-1.82994 -5.49007,-3.66005 -1.83006,-1.98244 -3.20258,-4.04121 -4.11755,-6.17632 v 6.17632 82.57976 H 684.35453 V 538.70308 h 29.50911 v 13.72516" />
        <path
           sodipodi:nodetypes="cccccccccccssccccccccccccccccssccccccccccc"
           inkscape:connector-curvature="0"
           id="path3002"
           style="font-size:228.75279236px;letter-spacing:-9.97999954px;fill:url(#linearGradient3778);fill-opacity:1;fill-rule:nonzero"
           d="m 97.834645,673.9612 c 221.943285,47.68824 496.433975,-30.84133 733.131875,-3.26776 12.5327,1.14307 32.53211,6.00021 43.00553,1.60127 4.42246,-1.98254 7.85375,-4.57507 10.29387,-7.7776 2.59244,-3.05004 4.34621,-6.55758 5.26132,-10.52263 0.91491,-3.96504 1.37241,-8.08258 1.37251,-12.35265 -5.79516,5.79508 -12.12398,9.98888 -18.98648,12.58141 -6.71015,2.44003 -13.49648,3.50754 -20.359,3.20253 -6.86263,-0.1525 -13.57271,-1.67751 -20.13024,-4.57505 -6.40511,-3.05003 -12.12393,-7.24383 -17.15646,-12.58141 -4.88008,-5.33754 -8.84512,-11.81886 -11.89515,-19.44398 -2.89754,-7.62505 -4.34631,-16.16515 -4.3463,-25.62032 -10e-6,-9.15004 1.60126,-17.46138 4.80381,-24.93405 3.20252,-7.4725 7.47257,-13.80132 12.81015,-18.98648 5.49004,-5.18495 11.66636,-9.15 18.52898,-11.89515 7.01504,-2.74491 14.25887,-3.96492 21.73152,-3.66004 7.32001,0.30512 13.19133,1.98264 17.61396,5.03256 4.42247,2.89765 7.625,6.32894 9.60762,10.29388 2.13493,3.81264 3.20244,7.77769 3.20254,11.89514 0.1524,4.11764 -0.4576,7.39643 -1.83002,9.83637 -1.37261,-1.82993 -3.05013,-3.35495 -5.03257,-4.57505 -1.8301,-1.37243 -3.88888,-2.43994 -6.17632,-3.20254 -2.13511,-0.76242 -4.42263,-1.29618 -6.86259,-1.60127 -2.2876,-0.30491 -4.49887,-0.45741 -6.63383,-0.45751 -7.01514,10e-5 -12.88646,1.67761 -17.61396,5.03256 -4.72761,3.35513 -8.3114,7.54893 -10.75138,12.58141 -2.44007,4.88013 -3.73633,10.21769 -3.8888,16.01269 -4e-5,5.79513 1.14373,11.20894 3.43129,16.24145 2.43999,4.8801 6.02378,8.99764 10.75138,12.35265 4.88001,3.35507 10.90382,5.03259 18.07147,5.03256 6.1,3e-5 11.13256,-1.21998 15.09769,-3.66004 3.96496,-2.44 7.09124,-5.64254 9.37886,-9.60762 2.43994,-4.11751 4.11746,-8.69256 5.03256,-13.72517 1.06742,-5.185 1.60117,-10.44631 1.60127,-15.78394 v -36.14294 -12.5814 h 29.73787 v 105.22628 c -1.3e-4,8.99761 -1.2964,17.15646 -3.8888,24.47655 -2.59266,7.32007 -6.1644,13.86431 -11.66639,18.75773 -20.44941,24.71423 -45.0643,16.01269 -45.0643,16.01269 -226.95381,-56.07916 -543.62483,84.004 -762.183485,9.05726" />
        <g
           transform="matrix(1.0129184,0,0,1.0129184,-7.2692881,-10.632818)"
           id="text3811"
           style="font-size:98.81377411px;line-height:125%;font-family:Cantarell;-inkscape-font-specification:Cantarell;fill:#000000">
          <path
             inkscape:connector-curvature="0"
             id="path3832"
             d="m 117.89384,786.65883 c -6.02763,0 -6.22526,-3.16204 -6.22526,-6.81815 v -53.063 h -7.90511 v 55.9286 c 0.0988,6.71933 4.05138,11.36358 10.27664,11.36358 4.54543,0 7.80629,-1.77864 9.58493,-2.37153 v -6.12645 c -2.27271,0.69169 -3.85374,1.08695 -5.7312,1.08695" />
          <path
             inkscape:connector-curvature="0"
             id="path3834"
             d="m 134.25679,745.35467 v 47.72706 h 8.10273 v -47.72706 h -8.10273 m 0,-18.37936 v 8.20154 h 8.10273 v -8.20154 h -8.10273" />
          <path
             inkscape:connector-curvature="0"
             id="path3836"
             d="m 175.3803,751.2835 c 3.75492,0 6.32408,0.88933 7.9051,2.66797 1.58102,1.77865 2.37153,4.74307 2.37153,8.79443 v 30.33583 h 8.00392 v -32.31211 c 0,-5.13831 -1.28458,-9.09087 -3.95255,-11.95646 -2.66797,-2.8656 -6.4229,-4.34781 -11.4624,-4.34781 -5.0395,0 -10.86952,1.58102 -16.89716,4.74306 l -1.58102,-3.5573 h -5.63238 v 47.43062 h 8.10273 v -38.33975 c 4.84187,-2.27271 9.38731,-3.45848 13.14223,-3.45848" />
          <path
             inkscape:connector-curvature="0"
             id="path3838"
             d="m 213.4761,775.98694 v -30.33583 h -8.00392 v 32.31211 c 0,10.17781 5.43477,16.30427 15.51377,16.30427 5.03949,0 10.7707,-1.58102 16.79834,-4.74306 l 1.58102,3.5573 h 5.63238 v -47.43062 h -8.10273 v 38.33975 c -4.84187,2.27271 -9.28849,3.45848 -13.04341,3.45848 -7.80628,0 -10.37545,-3.5573 -10.37545,-11.4624" />
          <path
             inkscape:connector-curvature="0"
             id="path3840"
             d="m 289.61521,745.45349 -12.9446,18.87343 -13.43868,-18.87343 h -9.18968 l 17.29241,24.20937 -16.69953,23.41887 h 8.39918 l 12.15409,-17.8853 12.74698,17.8853 h 9.18968 l -16.60072,-23.32005 17.58885,-24.30819 h -8.49798" />
          <path
             inkscape:connector-curvature="0"
             id="path3842"
             d="m 310.14067,782.90391 v 10.17782 h 10.07901 v -10.17782 h -10.07901" />
          <path
             inkscape:connector-curvature="0"
             id="path3844"
             d="m 357.01237,794.16868 c 0.0988,0 0.29644,0 0.39525,-0.0988 4.15018,0 8.39918,-0.88932 12.94461,-2.66797 l -1.87747,-5.43476 c -3.06322,1.08695 -5.92882,1.67984 -8.59679,1.67984 -0.79051,0 -1.58103,-0.0988 -2.27272,-0.19763 -10.47425,-1.18576 -15.41495,-7.1146 -15.41495,-18.77462 0,-11.16594 5.53358,-17.39122 16.89716,-17.39122 2.86559,0 6.22527,0.59288 9.88137,1.87746 l 1.97628,-5.7312 c -4.3478,-1.87746 -8.39918,-2.8656 -12.25291,-2.8656 -8.30035,0 -14.42681,2.37154 -18.47817,7.21341 -3.85374,4.64424 -5.83002,10.77071 -5.83002,18.37936 0,15.01968 7.90512,24.01175 22.62836,24.01175" />
          <path
             inkscape:connector-curvature="0"
             id="path3846"
             d="m 402.44663,750.98706 c 9.68374,0 14.72325,8.30037 14.72325,18.37936 0,10.27662 -5.03951,18.28055 -14.72325,18.28055 -9.68374,0 -14.72325,-8.20155 -14.72325,-18.28055 0,-9.98018 5.03951,-18.37936 14.72325,-18.37936 m -0.19763,43.0828 c 14.52561,0 23.12243,-9.88139 23.12243,-24.80225 0,-14.82205 -8.20156,-24.60463 -22.82598,-24.60463 -14.62443,0 -23.02361,9.88139 -23.02361,24.70344 0,14.92087 8.10274,24.70344 22.72716,24.70344" />
          <path
             inkscape:connector-curvature="0"
             id="path3848"
             d="m 458.31193,751.2835 c 3.75492,0 6.32409,0.88933 7.90511,2.66797 1.58101,1.77865 2.37153,4.74307 2.37153,8.79443 v 30.33583 h 8.00391 v -32.31211 c 0,-5.13831 -1.28458,-9.09087 -3.95255,-11.95646 -2.66797,-2.8656 -6.4229,-4.34781 -11.4624,-4.34781 -5.03949,0 -10.86952,1.58102 -16.89715,4.74306 l -1.58102,-3.5573 h -5.63239 v 47.43062 h 8.10273 v -38.33975 c 4.84187,-2.27271 9.38731,-3.45848 13.14223,-3.45848" />
          <path
             inkscape:connector-curvature="0"
             id="path3850"
             d="m 510.14286,730.73023 c 2.1739,0 4.74306,0.39526 7.80628,1.18577 l 1.28458,-5.92883 c -3.35966,-0.98813 -7.50985,-1.77864 -11.56121,-1.77864 -6.71933,0 -11.56121,2.47034 -14.328,7.41103 -0.98813,1.77864 -1.4822,4.84188 -1.4822,8.99205 v 4.84188 h -6.91697 v 6.22526 h 6.91697 l 0.0988,41.40298 h 8.00392 l -0.0988,-41.40298 h 15.90902 v -6.22526 h -15.90902 v -4.54544 c 0,-1.28457 0.0988,-2.37153 0.19763,-3.06322 0.59288,-3.95255 4.54544,-7.1146 10.07901,-7.1146" />
          <path
             inkscape:connector-curvature="0"
             id="path3852"
             d="m 527.83977,782.90391 v 10.17782 h 10.079 v -10.17782 h -10.079" />
          <path
             inkscape:connector-curvature="0"
             id="path3854"
             d="m 568.78265,751.67875 c 5.92882,0 9.48613,1.77866 10.96833,5.53358 0.59288,1.58101 0.88932,3.95255 0.88932,7.41103 v 0.39525 c -7.31221,0.19763 -13.24105,0.88933 -17.9841,2.07509 -6.32408,1.77865 -11.66003,6.22528 -11.66003,14.13037 0,7.80628 6.91698,13.04342 15.21732,13.04342 5.33594,0 10.27664,-1.87746 14.72326,-5.63238 l 1.77864,4.44662 h 6.02764 v -30.92872 c 0,-7.80628 -1.67983,-11.36358 -6.62052,-14.72325 -2.66797,-1.77864 -6.81815,-2.66797 -12.35172,-2.66797 -5.53357,0 -10.86952,0.98814 -16.00783,2.96441 v 6.4229 c 4.05136,-1.28458 10.96833,-2.47035 15.01969,-2.47035 m -9.78256,28.656 c 0,-1.18576 0.29644,-2.37153 1.08695,-3.5573 1.58102,-2.56915 4.249,-4.15018 7.9051,-4.94069 1.97628,-0.39525 6.12646,-0.69169 12.64816,-0.88932 v 11.36358 c -2.86559,2.76679 -6.12645,4.54544 -9.98019,5.23713 -1.18576,0.29645 -2.27271,0.39526 -3.26085,0.39526 -1.18576,0 -2.27272,-0.19763 -3.16204,-0.6917 -2.76678,-1.28457 -5.23713,-3.5573 -5.23713,-6.91696" />
          <path
             inkscape:connector-curvature="0"
             id="path3856"
             d="m 608.92419,775.98694 v -30.33583 h -8.00392 v 32.31211 c 0,10.17781 5.43477,16.30427 15.51377,16.30427 5.03949,0 10.7707,-1.58102 16.79834,-4.74306 l 1.58102,3.5573 h 5.63238 v -47.43062 h -8.10273 v 38.33975 c -4.84187,2.27271 -9.28849,3.45848 -13.04341,3.45848 -7.80628,0 -10.37545,-3.5573 -10.37545,-11.4624" />
          <path
             inkscape:connector-curvature="0"
             id="path3858"
             d="m 682.93265,729.34684 1.87746,6.12646 7.80629,-2.47035 c 4.24898,-1.28458 7.11459,-1.97627 10.37544,-1.97627 4.74306,0 8.5968,1.48221 11.66003,4.44662 2.27271,2.27271 3.45848,4.74306 3.45848,7.50984 0,0.88933 -0.0988,1.77865 -0.29644,2.66797 -0.49407,2.07509 -2.27272,4.34781 -5.13832,6.91697 l -4.05136,3.35967 c -4.94069,3.85373 -9.58494,8.10273 -14.03156,13.53748 -4.74306,5.92882 -8.20154,12.35173 -10.37545,19.16988 v 4.54543 h 43.67569 v -7.31222 h -33.69549 c 2.66797,-8.20153 6.71934,-13.53749 13.73511,-19.66394 0.6917,-0.59288 2.8656,-2.47035 6.62052,-5.63239 3.75492,-3.16203 6.62053,-5.92882 8.5968,-8.49798 2.27272,-3.06322 3.5573,-6.22527 3.5573,-10.57307 0,-4.34781 -1.67984,-8.10274 -4.94069,-11.36359 -4.24899,-4.15017 -9.9802,-6.22527 -17.29241,-6.22527 -7.31221,0 -14.32801,1.77866 -21.5414,5.43476" />
          <path
             inkscape:connector-curvature="0"
             id="path3860"
             d="m 767.98813,731.02668 c 2.76678,0 5.53357,0.98814 8.00392,2.8656 6.12644,4.74305 9.28849,12.8458 9.28849,24.30818 0,12.54934 -3.35967,21.24497 -9.78256,25.98803 -2.37153,1.77864 -4.94069,2.66797 -7.80629,2.66797 -2.8656,0 -5.63239,-0.88933 -8.00392,-2.47035 -6.81814,-4.44661 -10.27663,-13.63631 -10.27663,-26.97616 0,-13.7351 5.83003,-26.38327 18.57699,-26.38327 m -26.67972,26.87734 c 0,16.20545 5.43477,28.35956 15.81021,33.59669 3.26085,1.67983 6.62052,2.56915 10.17781,2.56915 3.5573,0 7.01579,-0.79051 10.17782,-2.37153 10.86951,-5.43475 16.00783,-17.29242 16.00783,-33.89312 0,-15.41493 -4.84188,-25.69159 -14.62443,-31.22515 -3.65611,-1.97628 -7.21341,-2.96442 -11.36359,-2.96442 -7.50984,0 -13.93275,3.16205 -18.97224,9.38731 -4.84187,5.92882 -7.21341,14.13038 -7.21341,24.90107" />
          <path
             inkscape:connector-curvature="0"
             id="path3862"
             d="m 836.93697,724.50497 h -9.48612 l -16.60072,6.81815 3.06323,7.01578 15.11851,-5.92883 v 53.45825 h -16.10665 v 7.21341 h 39.92077 v -7.21341 h -15.90902 v -61.36335" />
          <path
             inkscape:connector-curvature="0"
             id="path3864"
             d="m 915.866,769.76168 c 0,-5.83001 -1.67984,-10.6719 -5.0395,-14.62444 -4.05136,-4.64425 -9.48613,-6.91697 -16.20546,-7.01578 -7.11459,0 -12.54935,2.8656 -16.00783,6.62052 0.29644,-2.07509 0.59288,-3.85374 0.88932,-5.13831 2.66797,-11.85765 11.3636,-18.87344 25.69158,-18.87344 1.67984,0 3.5573,0.0988 5.43476,0.29645 l 0.59288,-7.1146 c -2.07508,-0.19762 -4.05136,-0.29644 -6.02764,-0.29644 -4.74305,0 -9.18968,0.6917 -13.33986,1.97628 -14.82205,4.74305 -22.2331,18.18175 -22.2331,39.52551 0,11.5612 2.37154,19.26869 9.09087,24.80226 3.45848,2.86559 8.20155,4.3478 14.03156,4.3478 13.0434,0 23.12242,-10.47427 23.12242,-24.50581 m -22.82598,17.78647 c -8.59679,0 -15.41495,-8.49799 -15.41495,-17.58885 0,-8.30035 6.22528,-15.1185 15.11851,-15.1185 8.79441,0 15.21732,7.1146 15.21732,15.61257 0,8.79442 -6.22528,17.09478 -14.92088,17.09478" />
        </g>
      </g>
    </g>
  </g>
  <g
     inkscape:groupmode="layer"
     id="layer2"
     inkscape:label="title and name">
    <flowRoot
       id="titlebox"
       style="font-style:normal;font-variant:normal;font-weight:normal;font-stretch:normal;font-size:66.49736023px;line-height:125%;font-family:ChunkFive;-inkscape-font-specification:ChunkFive;text-align:center;letter-spacing:0px;word-spacing:0px;writing-mode:lr-tb;text-anchor:middle;fill:#000000;fill-opacity:1;stroke:none"
       transform="translate(-238.11789,81.28407)"
       xml:space="preserve"><flowRegion
         id="flowRegion15470"
         style="fill:#000000"><rect
           height="486.96991"
           id="rect15472"
           style="font-style:normal;font-variant:normal;font-weight:normal;font-stretch:normal;font-size:66.49736023px;line-height:125%;font-family:ChunkFive;-inkscape-font-specification:ChunkFive;text-align:center;writing-mode:lr-tb;text-anchor:middle;fill:#000000"
           width="1390.7333"
           x="302.21039"
           y="6.8311672" /></flowRegion><flowPara
         id="flowPara5350"
         style="font-style:normal;font-variant:normal;font-weight:normal;font-stretch:normal;font-size:85.33333333px;font-family:Fonarto;-inkscape-font-specification:Fonarto;text-align:start;text-anchor:start">Session title - (titlebox) Lorem ipsum dolor sit amet, consectetuer adipiscing elit. Praesent semper, neque vel condimentum hendrerit.</flowPara></flowRoot>    <flowRoot
       id="presenterbox"
       style="font-style:normal;font-variant:normal;font-weight:500;font-stretch:normal;font-size:63.58488083px;line-height:125%;font-family:'News Cycle';-inkscape-font-specification:'News Cycle Medium';text-align:start;letter-spacing:0px;word-spacing:0px;text-anchor:start;fill:#ffffff;fill-opacity:1;stroke:#ffffff;"
       transform="matrix(1.1569972,0,0,1.1569972,-261.60205,228.24171)"
       xml:space="preserve"><flowRegion
         id="flowRegion15503"
         style="text-align:start;text-anchor:start;fill:#ffffff;stroke:#ffffff;"><rect
           height="345.76898"
           id="rect15505"
           style="font-style:normal;font-variant:normal;font-weight:500;font-stretch:normal;font-size:63.58488083px;font-family:'News Cycle';-inkscape-font-specification:'News Cycle Medium';text-align:start;text-anchor:start;fill:#ffffff;stroke:#ffffff;"
           width="936.5686"
           x="281.84671"
           y="298.99878" /></flowRegion><flowPara
         id="flowPara5190"
         style="font-style:normal;font-variant:normal;font-weight:normal;font-stretch:normal;font-size:64.53487396px;font-family:Fonarto;-inkscape-font-specification:Fonarto;text-align:start;text-anchor:start;fill:#ffffff;stroke:none">Presenter name - (presenterbox) How long can the name really be though before it gets cut off.</flowPara></flowRoot>  </g>
  <g
     id="sponsorlogo3"
     style="font-style:normal;font-variant:normal;font-weight:normal;font-stretch:normal;font-size:40px;line-height:125%;font-family:'Myriad Pro';-inkscape-font-specification:'Myriad Pro';letter-spacing:0px;word-spacing:0px;fill:#808080;fill-opacity:1;stroke:none"
     transform="matrix(1.2112414,0,0,1.2112414,-214.13388,-257.07344)" />
</svg>
